<svg xmlns="http://www.w3.org/2000/svg" xmlns:xlink="http://www.w3.org/1999/xlink" width="649" height="321" fill="none">
  <g clip-path="url(#a)">
    <path fill="url(#b)" d="M341 191h22.867v200.369H341.5L341 191Z"/>
    <path fill="url(#c)" fill-opacity=".25" d="M341 191h22.867v200.369H341.5L341 191Z" style="mix-blend-mode:overlay"/>
    <path fill="url(#d)" d="M599.21 228h21.29v200h-22l.71-200Z"/>
    <path fill="url(#e)" fill-opacity=".25" d="M599.21 228h21.29v200h-22l.71-200Z" style="mix-blend-mode:overlay"/>
    <path fill="url(#f)" d="M570.21 134h11.29v200h-12l.71-200Z"/>
    <path fill="url(#g)" fill-opacity=".25" d="M570.21 134h11.29v200h-12l.71-200Z" style="mix-blend-mode:overlay"/>
    <mask id="i" width="472" height="411" x="156" y="70" maskUnits="userSpaceOnUse" style="mask-type:alpha">
      <path fill="url(#h)" d="m614.33 282.294 12.843-4.533v203.228H156.5V334.423h6.8v-52.129h9.066v-42.308h18.132v112.569l9.065-9.066v-72.528h15.866v-27.953l5.288 15.11v53.64h13.599C235.5 263 234.316 255 239 225.5l7.404 6.931c1.209-3.022 6.54-6.799 8.555-8.31v-29.506h3.288v29.506c1.814.604 6.289 5.792 7.8 8.31L270 225.5c7.5 14.486 6 14.486 8.89 32.618h14.355v35.508h6.044v-61.195l7.555-18.132v79.327h5.288V269.45h1.511v24.176h3.022v38.53h8.31v-38.53l7.555-9.821v-77.816l8.311-15.11v52.129l4.533 27.953-.756 61.195h4.533v-14.354h7.555v-18.887l7.555-16.621v35.508h7.555v-96.703l10.577-10.577v-88.393l10.577 92.17v28.709h9.821v72.527l12.088-12.087v-18.132c-3.626-.605-5.036-6.8-5.288-9.822h6.799v-4.533h3.022v4.533h6.8c1.208 4.231-3.022 8.311-5.289 9.822v8.31h3.778v21.909h11.332v-49.862h5.288v66.483h9.066v-33.241l12.844-10.577V261.14h-4.533v-2.267h4.533v-21.909l18.887-15.865V185.59s.688-13.593 3.022-21.909c2.073-7.385 7.555-18.132 7.555-18.132V69.9999h3.022v75.5491s5.954 10.708 8.31 18.132c2.627 8.276 3.778 21.909 3.778 21.909v67.239h3.777v49.863h7.555v-51.374l6.044 6.044v-16.62l6.044 13.598v9.822l12.088 12.088V127.417l14.355-9.821v-13.599h4.533v27.198h3.021V85.1098h5.289v65.7282h4.533v3.022h-4.533v6.799h4.533v124.657l10.577-10.577V246.03l13.599-18.132v85.371h15.11v-30.975Z"/>
    </mask>
    <g mask="url(#i)">
      <path fill="url(#j)" d="m614.33 282.294 12.843-4.533v203.228H156.5V334.423h6.8v-52.129h9.066v-42.308h18.132v112.569l9.065-9.066v-72.528h15.866v-27.953l5.288 15.11v53.64h13.599c-2.417-33.846-3.777-93.681 12.088-114.08v34.753c1.209-3.022 5.54-6.799 7.555-8.31v-69.506h5.288v69.506c1.814.604 5.289 5.792 6.8 8.31v-36.264c10.879 10.88 13.095 45.834 12.843 61.951h14.355v35.508h6.044v-61.195l7.555-18.132v79.327h5.288V269.45h1.511v24.176h3.022v38.53h8.31v-38.53l7.555-9.821v-77.816l8.311-15.11v52.129l4.533 27.953-.756 61.195h4.533v-14.354h7.555v-18.887l7.555-16.621v35.508h7.555v-96.703l10.577-10.577 2.183-32.394c.164-2.422 3.688-2.516 3.981-.107l4.413 36.278v28.709h9.821v72.527l12.088-12.087v-18.132c-3.626-.605-5.036-6.8-5.288-9.822h6.799v-4.533h3.022v4.533h6.8c1.208 4.231-3.022 8.311-5.289 9.822v8.31h3.778v21.909h11.332v-49.862h5.288v66.483h9.066v-33.241l12.844-10.577V261.14h-4.533v-2.267h4.533v-21.909l18.887-15.865V185.59s.688-13.593 3.022-21.909c2.073-7.385 7.555-18.132 7.555-18.132V69.9999h3.022v75.5491s5.954 10.708 8.31 18.132c2.627 8.276 3.778 21.909 3.778 21.909v67.239h3.777v49.863h7.555v-51.374l6.044 6.044 6.044 6.8 12.088 12.088V127.417l14.355-9.821v-13.599h4.533v27.198h3.021v-.085h5.289v19.728h4.533v3.022h-4.533v6.799h4.533v124.657l10.577-10.577V246.03L599.22 228v85.269h15.11v-30.975Z"/>
      <path fill="url(#k)" d="M490.5 192v7h5v-7h-5Z"/>
      <path fill="url(#l)" d="M498.5 185v7l5 .5v-7l-5-.5Z"/>
      <path fill="url(#m)" d="M496.5 206v7l5 .5v-7l-5-.5Z"/>
      <path fill="url(#n)" d="M483.5 221v7l5-1v-7l-5 1Z"/>
      <path fill="url(#o)" d="M512.5 253h-13v88h13v-88Z"/>
      <path fill="url(#p)" d="M614.5 313h-15v118h15V313Z"/>
      <path fill="url(#q)" fill-opacity=".25" d="M614.5 313h-15v118h15V313Z" style="mix-blend-mode:overlay"/>
      <path fill="url(#r)" d="m477.5 234.5 17.469-1.339-2.642 33.714-3.403 1.199L477.5 234.5Z"/>
      <path fill="url(#s)" d="m459.5 241.962 18-5.962-2.173 37.875-3.403 1.199-12.424-33.112Z"/>
      <path fill="url(#t)" d="M464.5 298.5v-26L493 260v28l-28.5 10.5Z"/>
      <path fill="#CACACA" fill-opacity=".8" d="M494.195 260.461a.5008.5008 0 0 0 .266-.655.5001.5001 0 0 0-.655-.267l.389.922Zm-32 13.5 32-13.5-.389-.922-32 13.5.389.922Z"/>
      <path fill="url(#u)" d="M540.5 126.5V320l34-34.5v-122h-6.375V132h-13.458v-13l-14.167 7.5Z"/>
      <path fill="url(#v)" d="M515.095 129.551h17.5l-6.804 30.139-1.4-.045-9.296-30.094Z"/>
      <path fill="url(#w)" d="M584.866 247.034V358l9.886-15.5V232.933l-9.886 14.101Z"/>
      <path fill="url(#x)" d="M583.278 327.166V437l15.655-14.426.716-109.574-16.371 14.166Z"/>
      <path stroke="url(#y)" stroke-width=".5" d="M550.5 118v172"/>
      <path stroke="url(#z)" stroke-width=".5" d="M560.5 133v157"/>
      <path stroke="url(#A)" stroke-width=".5" d="M509.5 149h99"/>
      <path stroke="url(#B)" stroke-width=".5" d="M509.5 169h99"/>
      <path stroke="url(#C)" stroke-width=".5" d="M509.5 189h99"/>
      <path fill="url(#D)" d="M522.5 469.5V258l39 40.5 20.5-19v190h-59.5Z"/>
      <path fill="url(#E)" d="M392.823 243h9.677v140h-10l.323-140Z"/>
      <path fill="url(#F)" fill-opacity=".25" d="M392.823 243h9.677v140h-10l.323-140Z" style="mix-blend-mode:overlay"/>
      <path fill="url(#G)" d="M490.823 75h9.677v57h-10l.323-57Z"/>
      <path fill="url(#H)" fill-opacity=".25" d="M490.823 75h9.677v57h-10l.323-57Z" style="mix-blend-mode:overlay"/>
      <path fill="url(#I)" d="M323.5 203.692v156.171L345.968 374l1.532-186s-6.166.756-8.17.735c-1.87-.019-4.76-.735-4.76-.735l-11.07 15.692Z"/>
      <path fill="url(#J)" d="M484.5 182h21s-2.361-11.098-4.5-18c-1.788-5.771-5.05-13.864-6.271-16.842-.172-.418-.758-.408-.915.017-1.102 2.993-4.02 11.077-5.564 16.825-1.857 6.918-3.75 18-3.75 18Z"/>
      <path fill="url(#K)" fill-opacity=".25" d="M484.5 182h21s-2.361-11.098-4.5-18c-1.788-5.771-5.05-13.864-6.271-16.842-.172-.418-.758-.408-.915.017-1.102 2.993-4.02 11.077-5.564 16.825-1.857 6.918-3.75 18-3.75 18Z" style="mix-blend-mode:overlay"/>
      <path fill="url(#L)" d="M260.5 194h-7l-7 30.5v88l20 2.5v-83.5l-6-37.5Z"/>
      <path fill="url(#M)" d="m464.981 292.792 17.468-1.339-2.641 33.714-3.403 1.2-11.424-33.575Z"/>
      <path fill="url(#N)" d="m446.981 300.254 18-5.962-2.173 37.875-3.403 1.2-12.424-33.113Z"/>
      <path fill="url(#O)" d="M451.981 356.792v-26l28.5-12.5v28l-28.5 10.5Z"/>
      <path fill="#CACACA" fill-opacity=".8" d="M481.676 318.753c.254-.107.373-.401.266-.655-.107-.254-.401-.374-.655-.266l.389.921Zm-32 13.5 32-13.5-.389-.921-32 13.5.389.921Z"/>
      <path stroke="url(#P)" stroke-width=".5" d="M508.5 180c0-1.105-6.044-2-13.5-2-7.455 0-13.5.895-13.5 2"/>
      <path stroke="url(#Q)" stroke-width=".5" d="M508.5 194c0-1.105-6.044-2-13.5-2-7.455 0-13.5.895-13.5 2"/>
      <path stroke="url(#R)" stroke-width=".5" d="M508.5 208c0-1.105-6.044-2-13.5-2-7.455 0-13.5.895-13.5 2"/>
      <path stroke="url(#S)" stroke-width=".5" d="M508.5 222c0-1.105-6.044-2-13.5-2-7.455 0-13.5.895-13.5 2"/>
      <path stroke="url(#T)" stroke-width=".5" d="M508.5 187c0-1.105-6.044-2-13.5-2-7.455 0-13.5.895-13.5 2"/>
      <path stroke="url(#U)" stroke-width=".5" d="M508.5 201c0-1.105-6.044-2-13.5-2-7.455 0-13.5.895-13.5 2"/>
      <path stroke="url(#V)" stroke-width=".5" d="M508.5 215c0-1.105-6.044-2-13.5-2-7.455 0-13.5.895-13.5 2"/>
      <path stroke="url(#W)" stroke-width=".5" d="M508.5 229c0-1.105-6.044-2-13.5-2-7.455 0-13.5.895-13.5 2"/>
      <path stroke="url(#X)" stroke-opacity=".7" stroke-width=".5" d="M246.5 210v102"/>
      <path stroke="url(#Y)" stroke-opacity=".7" stroke-width=".5" d="M266.5 210v102"/>
      <path fill="url(#Z)" d="M279.5 256h14v114h-14V256Z"/>
      <path fill="url(#aa)" d="M198.5 256h17v114h-17V256Z"/>
      <path fill="url(#ab)" fill-opacity=".15" d="M198.5 256h17v114h-17V256Z" style="mix-blend-mode:overlay"/>
      <path fill="url(#ac)" d="M172 240h19.5v97H172v-97Z"/>
      <path fill="url(#ad)" fill-opacity=".15" d="M172 240h19.5v97H172v-97Z" style="mix-blend-mode:overlay"/>
      <path fill="url(#ae)" d="M266.5 220h13v114h-13V220Z"/>
      <path fill="url(#af)" d="M232.5 220h14v114h-14V220Z"/>
      <path fill="url(#ag)" d="M303.5 205h14v114h-14V205Z"/>
      <path fill="url(#ah)" fill-opacity=".7" d="M239.5 228.098c-.4 2.745-3 18.569-3 26.902h9v-22l-6-4.902Z"/>
      <path fill="url(#ai)" fill-opacity=".15" d="M239.5 228.098c-.4 2.745-3 18.569-3 26.902h9v-22l-6-4.902Z" style="mix-blend-mode:overlay"/>
      <path fill="url(#aj)" fill-opacity=".7" d="M270.5 227.5c.4 2.745 7.5 16 6 27.402h-9v-22l3-5.402Z"/>
      <path fill="url(#ak)" fill-opacity=".15" d="M270.5 227.5c.4 2.745 7.5 16 6 27.402h-9v-22l3-5.402Z" style="mix-blend-mode:overlay"/>
    </g>
    <path fill="url(#al)" d="M627.133 277.824h22.3667v200.369H627.133z"/>
    <path fill="url(#am)" fill-opacity=".25" d="M627.133 277.824h22.3667v200.369H627.133z" style="mix-blend-mode:overlay"/>
    <path fill="#291A18" d="M603.5 236h2v7h-2zM608.5 236h2v7h-2zM613.5 236h2v7h-2zM632.5 287h2v7h-2z"/>
    <path fill="#FFB96D" d="M637.5 287h2v7h-2z"/>
    <path fill="#291A18" d="M642.5 287h2v7h-2z"/>
    <path fill="#FFB96D" d="M632.5 303h2v7h-2z"/>
    <path fill="#291A18" d="M637.5 303h2v7h-2zM642.5 303h2v7h-2zM632.5 319h2v7h-2zM637.5 319h2v7h-2z"/>
    <path fill="#FFB96D" d="M642.5 319h2v7h-2z"/>
    <path fill="#291A18" d="M346.5 198h2v7h-2z"/>
    <path fill="#FFB96D" d="M351.5 198h2v7h-2z"/>
    <g filter="url(#an)">
      <path fill="#F8E9DA" d="M351.5 198h2v7h-2z"/>
    </g>
    <path fill="#291A18" d="M356.5 198h2v7h-2z"/>
    <path fill="#FFB96D" d="M346.5 214h2v7h-2z"/>
    <path fill="#291A18" d="M351.5 214h2v7h-2z"/>
    <path fill="#FDC588" d="M356.5 214h2v7h-2z"/>
    <path fill="#291A18" d="M346.5 230h2v7h-2zM351.5 230h2v7h-2z"/>
    <path fill="#FFB96D" d="M356.5 230h2v7h-2z"/>
    <path fill="#FDC991" d="M346.5 246h2v7h-2z"/>
    <path fill="#291A18" d="M351.5 246h2v7h-2zM356.5 246h2v7h-2z"/>
    <g filter="url(#ao)">
      <path fill="#F8E9DA" d="M346.5 214h2v7h-2z"/>
    </g>
    <g filter="url(#ap)">
      <path fill="#FFF4E8" d="M356.5 214h2v7h-2z"/>
    </g>
    <g filter="url(#aq)">
      <path fill="#F8E9DA" d="M356.5 230h2v7h-2z"/>
    </g>
    <path fill="#291A18" d="M282.5 272h1.3333v4.6667H282.5z"/>
    <path fill="#FFB96D" d="M285.834 272h1.3333v4.6667h-1.3333z"/>
    <g filter="url(#ar)">
      <path fill="#F8E9DA" d="M285.834 272h1.3333v4.6667h-1.3333z"/>
    </g>
    <path fill="#291A18" d="M289.167 272h1.3333v4.6667h-1.3333z"/>
    <path fill="#FFB96D" d="M282.5 282.667h1.3333v4.6667H282.5z"/>
    <path fill="#291A18" d="M285.834 282.667h1.3333v4.6667h-1.3333z"/>
    <path fill="#FDC588" d="M289.167 282.667h1.3333v4.6667h-1.3333z"/>
    <path fill="#291A18" d="M282.5 293.333h1.3333v4.6667H282.5zM285.834 293.333h1.3333v4.6667h-1.3333z"/>
    <path fill="#FFB96D" d="M289.167 293.333h1.3333v4.6667h-1.3333z"/>
    <path fill="#FDC991" d="M282.5 304h1.3333v4.6667H282.5z"/>
    <path fill="#291A18" d="M285.834 304h1.3333v4.6667h-1.3333zM289.167 304h1.3333v4.6667h-1.3333z"/>
    <g filter="url(#as)">
      <path fill="#F8E9DA" d="M282.5 282.667h1.3333v4.6667H282.5z"/>
    </g>
    <g filter="url(#at)">
      <path fill="#FFF4E8" d="M289.167 282.667h1.3333v4.6667h-1.3333z"/>
    </g>
    <g filter="url(#au)">
      <path fill="#F8E9DA" d="M289.167 293.333h1.3333v4.6667h-1.3333z"/>
    </g>
    <circle cx="494.5" cy="72" r="13" fill="#FFB96D" fill-opacity=".1"/>
    <circle cx="494.5" cy="72" r="9" fill="#FFB96D" fill-opacity=".1"/>
    <circle cx="494.5" cy="72" r="4" fill="#FFB96D"/>
    <circle cx="256.5" cy="197" r="13" fill="#FFB96D" fill-opacity=".1"/>
    <circle cx="256.5" cy="197" r="9" fill="#FFB96D" fill-opacity=".1"/>
    <circle cx="256.5" cy="197" r="4" fill="#FFB96D"/>
    <path stroke="url(#av)" d="M428 258.5c0 .264-.16.596-.634.97-.469.369-1.178.724-2.099 1.031-1.837.612-4.406.999-7.267.999-2.86 0-5.429-.387-7.266-.999-.921-.307-1.63-.662-2.099-1.031-.474-.374-.635-.706-.635-.97s.161-.596.635-.97c.469-.369 1.178-.724 2.099-1.031 1.837-.612 4.406-.999 7.266-.999 2.861 0 5.43.387 7.267.999.921.307 1.63.662 2.099 1.031.474.374.634.706.634.97Z"/>
    <path stroke="#241917" d="M423.5 267c0 .057-.034.191-.281.386-.241.19-.62.383-1.134.554-1.022.341-2.467.56-4.085.56-1.618 0-3.062-.219-4.084-.56-.514-.171-.894-.364-1.135-.554-.246-.195-.281-.329-.281-.386 0-.057.035-.191.281-.386.241-.19.621-.383 1.135-.554 1.022-.341 2.466-.56 4.084-.56 1.618 0 3.063.219 4.085.56.514.171.893.364 1.134.554.247.195.281.329.281.386Z"/>
    <mask id="ay" width="35" height="60" x="525" y="268" maskUnits="userSpaceOnUse" style="mask-type:alpha">
      <path fill="url(#aw)" d="M525.5 268.5V328h8l26-26-34-33.5Z"/>
      <path fill="url(#ax)" fill-opacity=".25" d="M525.5 268.5V328h8l26-26-34-33.5Z"/>
    </mask>
    <g mask="url(#ay)">
      <path fill="url(#az)" d="M525.5 268.5V328h8l26-26-34-33.5Z"/>
      <path fill="url(#aA)" fill-opacity=".25" d="M525.5 268.5V328h8l26-26-34-33.5Z" style="mix-blend-mode:overlay"/>
      <path stroke="#000" d="M523 301.5h39.5M542.5 283v39.5"/>
    </g>
    <mask id="aD" width="51" height="60" x="530" y="284" maskUnits="userSpaceOnUse" style="mask-type:alpha">
      <path fill="url(#aB)" d="M580.5 284v59.5h-8l-42-12 50-47.5Z"/>
      <path fill="url(#aC)" fill-opacity=".25" d="M580.5 284v59.5h-8l-42-12 50-47.5Z"/>
    </mask>
    <g mask="url(#aD)">
      <path fill="url(#aE)" d="M580.5 284v59.5h-8l-42-12 50-47.5Z"/>
      <path fill="url(#aF)" fill-opacity=".25" d="M580.5 284v59.5h-8l-42-12 50-47.5Z" style="mix-blend-mode:overlay"/>
    </g>
    <path fill="url(#aG)" fill-opacity=".8" d="m383 215.5-8.5 8.5v21.5l8.5-6.5v-23.5Z"/>
    <path fill="url(#aH)" fill-opacity=".8" d="m383 243-8.5 8.5V273l8.5-6.5V243Z"/>
    <path fill="url(#aI)" fill-opacity=".8" d="m383 273-8.5 8.5V303l8.5-6.5V273Z"/>
    <g filter="url(#aJ)">
      <path fill="#FFB96D" d="M550.5 242h10v20h-10z"/>
    </g>
    <path fill="#FFB96D" d="M550.5 242h10v20h-10z"/>
    <path stroke="#252A38" d="M555 242v20M560.5 255h-10"/>
    <g filter="url(#aK)">
      <path fill="#FFB96D" d="M550.5 149h10v20h-10z"/>
    </g>
    <path fill="#FFB96D" d="M550.5 149h10v20h-10z"/>
    <path stroke="#252A38" d="M555 149v20M560.5 162h-10"/>
    <path fill="url(#aL)" d="M390 214.095 396 243h3.5l13.5-42.5-23 13.595Z"/>
    <path fill="#291A18" d="M175.5 246h2v7h-2z"/>
    <path fill="#FFB96D" d="M180.5 246h2v7h-2z"/>
    <path fill="#291A18" d="M185.5 246h2v7h-2z"/>
    <path fill="#FFB96D" d="M175.5 262h2v7h-2z"/>
    <path fill="#291A18" d="M180.5 262h2v7h-2zM185.5 262h2v7h-2z"/>
    <path fill="url(#aM)" d="M250.5 236c0-3.314 2.687-6 6-6 3.314 0 6 2.686 6 6v5h-12v-5Z"/>
    <path fill="url(#aN)" fill-opacity=".15" d="M250.5 236c0-3.314 2.687-6 6-6 3.314 0 6 2.686 6 6v5h-12v-5Z" style="mix-blend-mode:overlay"/>
    <path fill="url(#aO)" d="M250.5 250c0-3.314 2.687-6 6-6 3.314 0 6 2.686 6 6v5h-12v-5Z"/>
    <path fill="url(#aP)" fill-opacity=".15" d="M250.5 250c0-3.314 2.687-6 6-6 3.314 0 6 2.686 6 6v5h-12v-5Z" style="mix-blend-mode:overlay"/>
    <path fill="url(#aQ)" d="M250.5 265c0-3.314 2.687-6 6-6 3.314 0 6 2.686 6 6v5h-12v-5Z"/>
    <path fill="url(#aR)" fill-opacity=".15" d="M250.5 265c0-3.314 2.687-6 6-6 3.314 0 6 2.686 6 6v5h-12v-5Z" style="mix-blend-mode:overlay"/>
    <circle cx="372" cy="71.5" r="15.4375" fill="#FFC484" fill-opacity=".1"/>
    <circle cx="372" cy="71.5" r="19.5" fill="#FFC484" fill-opacity=".1"/>
    <path fill="#DEB07E" d="m372 54.8437 1.498 9.2557c.374 2.3047 2.063 4.1765 4.318 4.7828l11.246 3.024-11.246 3.0241c-2.255.6062-3.944 2.478-4.318 4.7827L372 88.9687l-1.498-9.2557c-.374-2.3047-2.063-4.1765-4.318-4.7827l-11.246-3.0241 11.246-3.024c2.255-.6063 3.944-2.4781 4.318-4.7828L372 54.8437Z"/>
    <g filter="url(#aS)">
      <path fill="#FFCD98" fill-rule="evenodd" d="m238.293 47.2994-1.169 5.7749-2.756.775c-.549.1542-.756.8224-.391 1.2601l1.306 1.5681c.071.085.123.184.153.2905l.203.7219a.7842.7842 0 0 0 .311.4343l-1.825.5129c-1.132.3183-1.792 1.4944-1.473 2.6267.318 1.1324 1.494 1.7923 2.626 1.4739l50.728-14.2612c1.132-.3183 1.792-1.4943 1.474-2.6267-.319-1.1324-1.495-1.7922-2.627-1.4739l-1.643.4619c.175-.4112-.01-.9588-.542-1.0839l-6.233-1.4646a.7858.7858 0 0 0-.822.3122l-.142.2013c-3.125-.3284-6.489-.5766-9.326-.542-9.767.1192-24.483 3.7286-27.285 4.4378-.291.0736-.508.3067-.567.6008Z" clip-rule="evenodd"/>
    </g>
    <path stroke="url(#aT)" stroke-width="2.0625" d="m225.702 58.1679-37.063 10.4197"/>
    <path stroke="url(#aU)" stroke-width="1.375" d="m226.378 60.5746-37.063 10.4197"/>
    <circle cx="227.845" cy="58.8638" r="3" fill="#fff" transform="rotate(-15.7 227.845 58.8638)"/>
    <path fill="url(#aV)" d="m301.189 28.8956-32.213 21.0839 35.596-9.0504-3.383-12.0335Z"/>
    <path fill="url(#aW)" d="m238.925 44.7849-1.288 10.6165c-.061.5001.407.9009.892.7646l40.874-11.4913c.693-.1948.683-1.1574-.017-1.3222-3.611-.8493-10.366-2.2966-15.308-2.5165-8.868-.3947-22.024 2.7124-24.635 3.3553-.283.0695-.483.305-.518.5936Z"/>
    <path fill="url(#aX)" d="m235.229 52.8633 1.481 2.063a.699.699 0 0 1 .106.2207l.285 1.0129c.106.3753.495.594.871.4885l41.811-11.7545c.669-.1881.692-1.1282.033-1.3489l-6.265-2.0979a.7059.7059 0 0 0-.84.3239l-1.525 2.7179a.7053.7053 0 0 1-.425.3341l-23.272 6.5428a.7058.7058 0 0 1-.572-.0853l-2.647-1.6968a.7064.7064 0 0 0-.572-.0853l-8.087 2.2736c-.472.1326-.668.6934-.382 1.0913Z"/>
    <path fill="url(#aY)" d="M280.849 44.2684 236.15 56.8346c-1.251.3517-1.98 1.6509-1.628 2.9019.352 1.251 1.651 1.9801 2.902 1.6284l44.698-12.5663c1.251-.3517 1.98-1.6509 1.629-2.9019-.352-1.251-1.651-1.98-2.902-1.6283Z"/>
    <path stroke="url(#aZ)" stroke-linecap="round" d="M245.58 44.3534c4.292-1.0264 14.377-2.7432 20.382-1.3992"/>
    <circle cx="267.541" cy="43.0296" r=".5" fill="#F3C1BA" transform="rotate(-15.7 267.541 43.0296)"/>
    <path fill="#E9E9E9" d="m550 11 .978 6.0409c.459 2.8366 2.539 5.1403 5.314 5.8865L564 25l-7.708 2.0726c-2.775.7462-4.855 3.0499-5.314 5.8865L550 39l-.978-6.0409c-.459-2.8366-2.539-5.1403-5.314-5.8865L536 25l7.708-2.0726c2.775-.7462 4.855-3.0499 5.314-5.8865L550 11ZM269.5 162l.174 1.072c.459 2.837 2.538 5.141 5.313 5.887l2.013.541-2.013.541c-2.775.746-4.854 3.05-5.313 5.887L269.5 177l-.174-1.072c-.459-2.837-2.538-5.141-5.313-5.887L262 169.5l2.013-.541c2.775-.746 4.854-3.05 5.313-5.887L269.5 162Z"/>
    <path fill="#BDBDBD" d="m155.5 0 .545 3.3655c.459 2.8366 2.539 5.1404 5.314 5.8865L166 10.5l-4.641 1.248c-2.775.7461-4.855 3.0499-5.314 5.8865L155.5 21l-.545-3.3655c-.459-2.8366-2.539-5.1404-5.314-5.8865L145 10.5l4.641-1.248c2.775-.7461 4.855-3.05 5.314-5.8865L155.5 0Z"/>
    <g opacity=".6">
      <path fill="url(#ba)" d="m47.085 255.671-9 108h24l-8-108h-7Z"/>
      <path fill="url(#bb)" d="m35.085 258.671-6 106h8l-.4-106h-1.6Z"/>
      <path fill="url(#bc)" d="m65.085 258.671 6 106h-8l.4-106h1.6Z"/>
      <path fill="url(#bd)" fill-rule="evenodd" d="M50.8457 192.723s-3.7399 17.177-4.2392 29.507c-.0582 1.438-.0756 4.712-.0737 8.36l-9.293 17.259c-.0954-.503-.5372-.883-1.0679-.883-.6003 0-1.0869.486-1.0869 1.086v9.902c0 .6.4866 1.087 1.0869 1.087.6003 0 1.087-.487 1.087-1.087v-1.092l9.3754-11.287c.4272 2.571.8364 4.751 1.23 6.549l-1.0016 3.492c-.1283.447.2075.893.6728.893h1.5129c.9916 2.744 1.8845 2.694 2.7249 0h1.9479c.4653 0 .8011-.446.6728-.893l-1.4185-4.946c.2342-1.535.4659-3.291.6962-5.263l.0283-.419 9.2109 11.089v1.877c0 .6.4867 1.087 1.087 1.087s1.0869-.487 1.0869-1.087v-9.902c0-.6-.4866-1.086-1.0869-1.086-.2842 0-.543.109-.7367.287l-8.7109-16.178c.2052-3.84.355-7.343.3171-8.845-.3092-12.254-4.0217-29.507-4.0217-29.507Z" clip-rule="evenodd"/>
      <path fill="#FBBEA4" fill-rule="evenodd" d="M101.509 201.838v-18.167h-.374v2.06h-6.3678v-1.686h-.3746v17.98h2.5862l-2.2207 1.367-.1716.105-.0064.201-.3856 11.987-.217 6.742-.2892 8.99-.2676 8.318-.0482.05.0452.044-.0005.016-.2892 8.989-.3013 9.365-.2832 8.802-.3133 9.739-.3796 11.799-.3374 10.488-.3013 9.364-.4398 13.672-.3676 11.425-.3193 9.926.7488.024.3075-9.559 6.4082 4.967.0012.313-6.5663 4.903.4482.6 6.1218-4.57.0219 5.583.7491-.003-.024-6.138.0692-.052 7.0582 5.47.014.361.748-.029-.022-.573.065-.083-.07-.054-.425-11.089-.439-11.424-.524-13.672-.359-9.364-.402-10.488-.453-11.799-.374-9.739-.337-8.803-.36-9.364-.344-8.99-.324-8.428-.345-8.989-.258-6.743-.031-.796.019-.02-.02-.02-.013-.33.068-.088-.073-.057-.41-10.675-.008-.221-.199-.1-2.7008-1.35h3.6568v-.187Zm-6.7418-14.983v7.117h6.3678v-7.117h-6.3678Zm0 8.24h6.3678v6.555h-6.3678v-6.555Zm5.4668 14.425.175 4.571-2.2437-2.176 1.9127-2.551.156.156Zm-.043-1.102-.171-4.472-2.2539-1.127.0125 3.186 2.4124 2.413Zm-3.1645-3.165-.0093-2.372-1.4626.9 1.4719 1.472Zm-1.7255-.666 1.7297 1.729.0177 4.516L95.159 209l.142-4.413Zm2.4818 2.482 1.7606 1.76-1.7446 2.326-.016-4.086Zm2.2482 7.698-2.2265-2.158.0106 2.713h1.784l.4319-.555Zm-2.9785-2.887-1.926-1.868-.1582 4.917 2.0852-2.78-.001-.269Zm8.3385 132.095-.363-9.464-6.0343 4.506 6.3973 4.958Zm-7.0117-5.434 6.2497-4.667h-6.3496l.018 4.603.0819.064Zm-.8333-.646-.0158-4.021h-5.1723l5.1881 4.021Zm-.3854-98.413h-2.463l2.4529-2.57.0101 2.57Zm-2.9642-.56 2.9499-3.09-.0018-.452-2.733-3.143-.2151 6.685Zm.831-7.119h2.1031l.0095 2.43-2.1126-2.43Zm2.8696 4.442.0127 3.237h2.8023l-2.815-3.237Zm3.466 3.986.051.059.002.039-.103-.098h.05Zm.005-1.136-3.0037-3.454 2.7607-2.892.243 6.346Zm-3.4756-4.045 3.0996-3.247h-3.1124l.0128 3.247Zm-2.3888-18.979h1.5653l.0059 1.525-1.5712-1.525Zm1.539 2.538-2.2873 2.941.161-5.005 2.1263 2.064Zm.7884.765 2.772 2.691h-2.7615l-.0105-2.691Zm2.847 1.719-2.6319-2.554 1.9194-2.468h.5195l.193 5.022Zm-3.5734 4.105-1.9275-2.384h1.9182l.0093 2.384Zm.0071 1.811-.0024-.614-2.4138-2.986-.2219 6.898 2.6381-3.298Zm3.7643 4.045-3.0139-3.728.0146 3.728h2.9993Zm-2.5573-4.355 2.7023 3.343-.246-6.413-2.4563 3.07Zm-1.1911 4.355h-2.2928l2.2816-2.852.0112 2.852Zm.7168-8.24h2.6236l-2.6108 3.263-.0128-3.263Zm-.761-3.037-1.7793 2.288h1.7882l-.0089-2.288Zm1.933-3.706-1.1924 1.533-.006-1.533h1.1984Zm-1.958-2.68-1.4484 1.931h1.4559l-.0075-1.931Zm.4242 108.31h-5.5365l5.5158-5.28.0207 5.28Zm-5.928-.663 5.9032-5.65-.0003-.091-5.5473-5.313-.3556 11.054Zm.388-12.06.0064-.2h5.483l.0214 5.478-5.5108-5.278Zm6.6458 6.365 5.5026-5.267.42 10.939-5.9226-5.672Zm-.3789.674 5.9345 5.684h-5.9123l-.0222-5.684Zm-.0053-1.343 5.8488-5.598-.012-.298h-5.8599l.0231 5.896Zm-1.0243-70.262-.0006-.153-3.0474-3.331-.2223 6.91 3.2703-3.426Zm-2.6701-4.181 2.6651 2.913-.0114-2.913h-2.6537Zm6.9332.8-3.1667 3.317 3.4377 3.758-.271-7.075Zm-3.4981 7.441-.0133-3.391 3.1024 3.391h-3.0891Zm-.0323-8.241.0134 3.399 3.244-3.399h-3.2574Zm-.7285 5.261-2.8441 2.98h2.8558l-.0117-2.98Zm.2449 62.537h-4.0136l4.0022-2.905.0114 2.905Zm-5.1293-.116 5.1143-3.712-.0025-.646-5.1709-3.839-.2675 8.313h.4107l-.0841-.116Zm.7911-8.499 4.317 3.205-.0125-3.205h-4.3045Zm5.0536 0 .0148 3.763.3293.244 5.2025-3.776-.009-.231h-5.5376Zm5.5806 1.132-4.606 3.343 4.874 3.618-.268-6.961Zm-.287 7.483-4.9545-3.679-.3188.232.0135 3.447h5.2598Zm-5.3809-30.902h4.6209l-4.5489 4.784-.0534-.056-.0186-4.728Zm4.8039.894-4.215 4.434 4.57 4.806-.355-9.24Zm.192 10.156-4.9239-5.179-.0488.051.0201 5.128h4.9526Zm-5.723-5.426-.0023-.596-4.3742-4.6-.3263 10.142 4.7028-4.946Zm-3.75-5.624 3.7434 3.937-.0154-3.937H93.58Zm3.7713 11.05-.017-4.343-4.1288 4.343h4.1458Zm.7521.749h4.7246l-4.546 4.31-.1623-.141-.0163-4.169Zm-.7354 3.514-.0138-3.514h-4.0214l4.0352 3.514Zm.0039.997-4.795-4.176-.3025 9.404h.2832l4.8169-4.568-.0026-.66Zm.9315.811-.1785.17.0166 4.247h5.2325l-5.0706-4.417Zm.5461-.517 4.7745 4.158-.322-8.381-4.4525 4.223Zm-1.4572 4.934-.0138-3.54-3.7321 3.54h3.7459Zm-.0872-22.287h-3.3007l3.2883-3.16.0124 3.16Zm-4.2957-.083 4.2792-4.112-.0019-.502-4.0219-3.802-.2734 8.499h.0975l-.0795-.083Zm.8263-8.907h3.4341l.0128 3.259-3.4469-3.259Zm4.1988 3.97-.0155-3.97h4.261l-4.1883 4.024-.0572-.054Zm.6022.569 3.8493-3.698.292 7.613-4.1413-3.915Zm-.5408.52 4.1581 3.931h-4.1998l-.0152-3.877.0569-.054Zm-.1114-13.862h3.5295l-3.5163 3.373-.0132-3.373Zm-4.6738 7.869 3.9407-3.78-.0015-.376-3.6984-3.329-.2408 7.485Zm.9343-7.869 3.001 2.701-.0106-2.701H94.245Zm7.888.445-3.5793 3.433 3.8433 3.459-.264-6.892Zm-.06 7.609-4.0614-3.656-.0098.01.0143 3.646h4.0569Zm-4.8061 0-.0115-2.931-3.0549 2.931h3.0664Zm-.0345-8.803h-2.7375l2.7259-2.973.0116 2.973Zm-3.6405-.123 3.6246-3.954-.0029-.732-3.3605-3.435-.2612 8.121Zm.946-8.492h2.6608l.0107 2.731-2.6715-2.731Zm3.5302 3.609-.1065-.109-.0137-3.5h3.4281l-3.3079 3.609Zm.5246.536 3.1893-3.48.269 7.015-3.4583-3.535Zm-.507.553 3.8323 3.917h-3.9364l-.0148-3.787.1189-.13Zm3.9813 3.917h.02l-.001-.019-.019.019Zm-4.5397 75.289h-5.4991l5.4815-4.492.0176 4.492Zm-6.3529-.269 6.3315-5.188-.0012-.311-6.0015-4.721-.3288 10.22Zm1.3036-10.406 5.023 3.951-.0155-3.951H92.478Zm5.7566 0 .0178 4.542.0398.032 5.5818-4.574h-5.6394Zm6.3464.389-5.6858 4.659 6.0468 4.757-.361-9.416Zm.256 10.286-6.5353-5.141-.0452.037.02 5.104h6.5605Z" clip-rule="evenodd"/>
      <path fill="#FBBCA3" fill-rule="evenodd" d="M11.5095 201.838v-18.167h-.3746v2.06H4.7672v-1.686h-.3746v17.98h2.5863l-2.2208 1.367-.1715.105-.0065.201-.3857 11.987-.2169 6.742-.2892 8.99-.2676 8.318-.0482.05.0452.044-.0005.016-.2892 8.989-.3013 9.365-.2832 8.802-.3133 9.739-.3796 11.799-.3374 10.488-.3013 9.364-.4398 13.672-.3676 11.425-.3193 9.926.7488.024.3075-9.559 6.4082 4.967.0012.313-6.5663 4.903.4482.6 6.1218-4.57.0219 5.583.749-.003-.024-6.138.0693-.052 7.0581 5.47.0138.361.7486-.029-.0219-.573.0644-.083-.0697-.054-.4254-11.089-.4382-11.424-.5245-13.672-.3592-9.364-.4023-10.488-.4526-11.799-.3736-9.739-.3376-8.803-.3593-9.364-.3448-8.99-.3233-8.428-.3448-8.989-.2587-6.743-.0305-.796.0191-.02-.0207-.02-.0126-.33.0682-.088-.0738-.057-.4095-10.675-.0085-.221-.1982-.1-2.7011-1.35h3.6573v-.187Zm-6.7423-14.983v7.117h6.3677v-7.117H4.7672Zm0 8.24h6.3677v6.555H4.7672v-6.555Zm5.4665 14.425.1754 4.571-2.2438-2.176 1.9132-2.551.1552.156Zm-.0422-1.102-.1716-4.472-2.2538-1.127.0125 3.186 2.4129 2.413Zm-3.165-3.165-.0093-2.372-1.4626.9 1.4719 1.472Zm-1.7255-.666 1.7297 1.729.0176 4.516L5.159 209l.142-4.413Zm2.4818 2.482 1.7606 1.76-1.7446 2.326-.016-4.086Zm2.2478 7.698-2.2261-2.158.0106 2.713h1.784l.4315-.555Zm-2.9781-2.887-1.926-1.868-.1582 4.917 2.0852-2.78-.001-.269Zm8.3389 132.095-.363-9.464-6.0347 4.506 6.3977 4.958Zm-7.0122-5.434 6.2499-4.667H8.2794l.018 4.603.0819.064Zm-.8332-.646-.0158-4.021H2.358l5.188 4.021Zm-.3854-98.413h-2.463l2.4529-2.57.01 2.57Zm-2.9642-.56 2.9499-3.09-.0018-.452-2.733-3.143-.2151 6.685Zm.831-7.119h2.103l.0096 2.43-2.1126-2.43Zm2.8696 4.442.0127 3.237h2.8021l-2.8148-3.237Zm3.4662 3.986.0509.059.0015.039-.1023-.098h.0499Zm.0051-1.136-3.004-3.454 2.7605-2.892.2435 6.346Zm-3.476-4.045 3.0993-3.247h-3.112l.0128 3.247Zm-2.3887-18.979H7.069l.006 1.525-1.5713-1.525Zm1.539 2.538-2.2873 2.941.161-5.005 2.1263 2.064Zm.7884.765 2.7718 2.691H7.8415l-.0105-2.691Zm2.8467 1.719-2.6316-2.554 1.9194-2.468h.5196l.1926 5.022Zm-3.573 4.105-1.9276-2.384h1.9182l.0093 2.384Zm.007 1.811-.0024-.614-2.4138-2.986-.222 6.898 2.6382-3.298Zm3.7647 4.045-3.0143-3.728.0146 3.728h2.9997Zm-2.5577-4.355 2.7023 3.343-.246-6.413-2.4563 3.07Zm-1.1911 4.355H4.8347l2.2816-2.852.0112 2.852Zm.7168-8.24h2.6235l-2.6107 3.263-.0128-3.263Zm-.761-3.037-1.7793 2.288h1.7882l-.009-2.288Zm1.933-3.706-1.1924 1.533-.006-1.533h1.1984Zm-1.958-2.68L5.61 215.322h1.456l-.0076-1.931Zm.4242 108.31H1.946l5.5158-5.28.0207 5.28Zm-5.928-.663 5.9032-5.65-.0003-.091-5.5473-5.313-.3556 11.054Zm.388-12.06.0064-.2h5.483l.0214 5.478-5.5108-5.278Zm6.6458 6.365 5.5027-5.267.4196 10.939-5.9223-5.672Zm-.379.674 5.9341 5.684H8.2317l-.0222-5.684Zm-.0052-1.343 5.8485-5.598-.0114-.298H8.1811l.023 5.896Zm-1.0243-70.262-.0006-.153-3.0474-3.331-.2223 6.91 3.2703-3.426Zm-2.6701-4.181 2.6651 2.913-.0114-2.913H4.5098Zm6.9327.8-3.1662 3.317 3.4376 3.758-.2714-7.075Zm-3.4976 7.441-.0133-3.391 3.1021 3.391H7.9449Zm-.0323-8.241.0133 3.399 3.2445-3.399H7.9126Zm-.7285 5.261-2.844 2.98h2.8557l-.0117-2.98Zm.245 62.537H3.4153l4.0022-2.905.0114 2.905Zm-5.1294-.116 5.1143-3.712-.0025-.646-5.171-3.839-.2674 8.313h.4107l-.084-.116Zm.791-8.499 4.3171 3.205-.0125-3.205H3.0908Zm5.0537 0 .0148 3.763.3293.244 5.2024-3.776-.0088-.231H8.1444Zm5.5811 1.132-4.6065 3.343 4.8735 3.618-.267-6.961Zm-.2874 7.483-4.9546-3.679-.3188.232.0135 3.447h5.2599Zm-5.381-30.902h4.6211l-4.5491 4.784-.0534-.056-.0186-4.728Zm4.8043.894-4.2154 4.434 4.5699 4.806-.3545-9.24Zm.1913 10.156-4.9236-5.179-.0488.051.0201 5.128h4.9523ZM7.33 282.751l-.0023-.596-4.3742-4.6-.3263 10.142 4.7028-4.946Zm-3.75-5.624 3.7434 3.937-.0154-3.937H3.58Zm3.7713 11.05-.017-4.343-4.1288 4.343h4.1458Zm.752.749h4.7244l-4.5457 4.31-.1623-.141-.0163-4.169Zm-.7353 3.514-.0138-3.514H3.3328l4.0352 3.514Zm.0039.997-4.795-4.176-.3025 9.404h.2833l4.8168-4.568-.0026-.66Zm.9315.811-.1785.17.0166 4.247h5.2324l-5.0705-4.417Zm.5461-.517 4.774 4.158-.3214-8.381-4.4526 4.223Zm-1.4572 4.934-.0138-3.54-3.7321 3.54h3.746Zm-.0872-22.287H4.0044l3.2883-3.16.0124 3.16Zm-4.2957-.083 4.2792-4.112-.002-.502-4.0218-3.802-.2734 8.499h.0975l-.0795-.083Zm.8263-8.907h3.4341l.0128 3.259-3.4469-3.259Zm4.1988 3.97-.0155-3.97h4.2608l-4.188 4.024-.0572-.054Zm.6022.569 3.8491-3.698.2921 7.613-4.1412-3.915Zm-.5408.52 4.1577 3.931H8.0542l-.0152-3.877.0569-.054Zm-.1114-13.862h3.5298l-3.5166 3.373-.0132-3.373Zm-4.6738 7.869 3.9407-3.78-.0015-.376-3.6984-3.329-.2409 7.485Zm.9343-7.869 3.001 2.701-.0106-2.701H4.245Zm7.8879.445-3.5792 3.433 3.8436 3.459-.2644-6.892Zm-.0597 7.609-4.0616-3.656-.0098.01.0143 3.646h4.0571Zm-4.8063 0-.0115-2.931-3.0549 2.931h3.0664Zm-.0345-8.803H4.495l2.7259-2.973.0116 2.973Zm-3.6405-.123 3.6246-3.954-.0029-.732-3.3605-3.435-.2612 8.121Zm.946-8.492h2.6608l.0107 2.731-2.6715-2.731Zm3.5302 3.609-.1065-.109-.0137-3.5h3.428l-3.3078 3.609Zm.5246.536 3.1895-3.48.2691 7.015-3.4586-3.535Zm-.507.553 3.8321 3.917H7.9816l-.0148-3.787.119-.13Zm3.9815 3.917h.0199l-.0007-.019-.0192.019Zm-4.5399 75.289h-5.499l5.4814-4.492.0176 4.492Zm-6.353-.269 6.3316-5.188-.0012-.311-6.0015-4.721-.3288 10.22ZM2.478 322.45l5.023 3.951-.0155-3.951H2.478Zm5.7567 0 .0177 4.542.0398.032 5.5816-4.574H8.2347Zm6.3459.389-5.6854 4.659 6.0466 4.757-.3612-9.416Zm.2561 10.286-6.535-5.141-.0452.037.02 5.104h6.5602Z" clip-rule="evenodd"/>
    </g>
    <path stroke="url(#be)" stroke-width="3.0781" d="m406.77 144.704 57.104 6.37"/>
    <path stroke="url(#bf)" stroke-width="2.0521" d="m406.357 148.412 57.103 6.37"/>
    <circle cx="4.4772" cy="4.4772" r="4.4772" fill="#F9B16A" transform="matrix(-.994 -.11 -.11 .994 408.728 142.294)"/>
    <path fill="url(#bg)" d="m285.114 117.74 52.545 23.248-54.613-4.708 2.068-18.54Z"/>
    <g filter="url(#bh)">
      <path fill="#FFD3A6" fill-opacity=".8" fill-rule="evenodd" d="m386.089 130.401 2.747 7.83 3.839.428c.748.084 1.17.902.803 1.56l-1.474 2.643c-.068.123-.111.257-.127.397l-.128 1.153c-.028.243-.136.458-.295.62l2.314.258c1.664.186 2.863 1.686 2.677 3.35-.185 1.664-1.685 2.863-3.35 2.678l-69.617-7.766c-1.664-.186-2.863-1.685-2.677-3.35.185-1.664 1.685-2.863 3.349-2.677l1.856.207c-.297-.498-.175-1.226.47-1.514l.426-.191c.069-.043.146-.08.231-.109l.054-.019 7.435-3.329a1.053 1.053 0 0 1 1.204.246l.21.227c4.06-1.211 8.455-2.368 12.21-3.001 12.909-2.177 33.057-.661 36.954-.336.411.034.753.306.889.695Z" clip-rule="evenodd"/>
    </g>
    <path fill="url(#bi)" d="m386.236 125.49 4.467 15.322c.211.722-.381 1.425-1.128 1.342l-62.976-7.025c-1.068-.119-1.286-1.539-.295-1.951 5.112-2.125 14.71-5.892 21.934-7.413 12.963-2.728 33.09-1.339 37.091-1.024.433.034.785.332.907.749Z"/>
    <path fill="url(#bj)" d="m393.635 136.491-1.682 3.397c-.055.11-.09.229-.103.351l-.174 1.56c-.065.579-.586.995-1.164.931l-64.419-7.186c-1.031-.115-1.293-1.494-.376-1.978l8.719-4.607c.447-.236.999-.122 1.315.274l2.904 3.633c.174.218.428.358.706.389l35.857 4c.299.033.598-.063.821-.264l3.487-3.14c.224-.201.523-.297.822-.264l12.46 1.39c.726.081 1.152.859.827 1.514Z"/>
    <path fill="url(#bk)" d="m324.372 134.881 68.867 7.682c1.928.215 3.316 1.951 3.101 3.879-.215 1.927-1.952 3.316-3.879 3.101l-68.868-7.682c-1.927-.215-3.315-1.952-3.1-3.88.215-1.927 1.951-3.315 3.879-3.1Z"/>
    <path stroke="url(#bl)" stroke-linecap="round" stroke-width="1.4924" d="M376.33 126.466c-6.569-.472-21.837-.558-30.354 2.875"/>
    <circle cx=".7462" cy=".7462" r=".7462" fill="#F3C1BA" transform="matrix(-.994 -.11 -.11 .994 344.493 129.175)"/>
  </g>
  <defs>
    <linearGradient id="b" x1="395.5" x2="341.5" y1="106" y2="381.117" gradientUnits="userSpaceOnUse">
      <stop stop-color="#FF523A"/>
      <stop offset="1" stop-color="#FFB76C"/>
    </linearGradient>
    <linearGradient id="d" x1="658.861" x2="596.802" y1="163.295" y2="417.353" gradientUnits="userSpaceOnUse">
      <stop stop-color="#FF523A"/>
      <stop offset="1" stop-color="#FFB76C"/>
    </linearGradient>
    <linearGradient id="f" x1="629.861" x2="567.802" y1="69.2951" y2="323.353" gradientUnits="userSpaceOnUse">
      <stop stop-color="#FF523A"/>
      <stop offset="1" stop-color="#FFB76C"/>
    </linearGradient>
    <linearGradient id="h" x1="422.105" x2="434.221" y1="227.499" y2="501.957" gradientUnits="userSpaceOnUse">
      <stop stop-color="#131313"/>
      <stop offset="1" stop-color="#632D25"/>
    </linearGradient>
    <linearGradient id="j" x1="422.105" x2="434.221" y1="227.499" y2="501.957" gradientUnits="userSpaceOnUse">
      <stop stop-color="#131313"/>
      <stop offset="1" stop-color="#FF523A"/>
    </linearGradient>
    <linearGradient id="k" x1="493" x2="493" y1="190" y2="199" gradientUnits="userSpaceOnUse">
      <stop stop-color="#F6B56E"/>
      <stop offset="1" stop-color="#F6B56E" stop-opacity="0"/>
    </linearGradient>
    <linearGradient id="l" x1="501" x2="501" y1="183" y2="192" gradientUnits="userSpaceOnUse">
      <stop stop-color="#F6B56E"/>
      <stop offset="1" stop-color="#F6B56E" stop-opacity="0"/>
    </linearGradient>
    <linearGradient id="m" x1="499" x2="499" y1="204" y2="213" gradientUnits="userSpaceOnUse">
      <stop stop-color="#F6B56E"/>
      <stop offset="1" stop-color="#F6B56E" stop-opacity="0"/>
    </linearGradient>
    <linearGradient id="n" x1="486" x2="486" y1="219" y2="228" gradientUnits="userSpaceOnUse">
      <stop stop-color="#F6B56E"/>
      <stop offset="1" stop-color="#F6B56E" stop-opacity="0"/>
    </linearGradient>
    <linearGradient id="o" x1="506.383" x2="505.732" y1="223.756" y2="340.998" gradientUnits="userSpaceOnUse">
      <stop stop-color="#FF523A"/>
      <stop offset="1" stop-color="#3B201C" stop-opacity="0"/>
    </linearGradient>
    <linearGradient id="p" x1="606.758" x2="607.015" y1="259.228" y2="431" gradientUnits="userSpaceOnUse">
      <stop stop-color="#FF523A"/>
      <stop offset="1" stop-opacity="0"/>
    </linearGradient>
    <linearGradient id="r" x1="488" x2="478.5" y1="267.462" y2="237.962" gradientUnits="userSpaceOnUse">
      <stop stop-color="#FFB96D"/>
      <stop offset="1" stop-color="#E3E3E3" stop-opacity="0"/>
    </linearGradient>
    <linearGradient id="s" x1="471" x2="461.5" y1="274.462" y2="244.962" gradientUnits="userSpaceOnUse">
      <stop stop-color="#FFB96D"/>
      <stop offset="1" stop-color="#E3E3E3" stop-opacity="0"/>
    </linearGradient>
    <linearGradient id="t" x1="478.75" x2="478.75" y1="260" y2="298.5" gradientUnits="userSpaceOnUse">
      <stop stop-color="#1E1715"/>
      <stop offset="1" stop-color="#291A18"/>
    </linearGradient>
    <linearGradient id="u" x1="450" x2="550.441" y1="110.5" y2="319.067" gradientUnits="userSpaceOnUse">
      <stop stop-color="#4D5B85"/>
      <stop offset="1" stop-opacity="0"/>
    </linearGradient>
    <linearGradient id="v" x1="524.889" x2="525.204" y1="161.947" y2="149.876" gradientUnits="userSpaceOnUse">
      <stop stop-color="#FFB96D" stop-opacity=".61"/>
      <stop offset="1" stop-color="#BABABA" stop-opacity="0"/>
    </linearGradient>
    <linearGradient id="w" x1="501.5" x2="640.715" y1="114.5" y2="307.628" gradientUnits="userSpaceOnUse">
      <stop stop-color="#366EFF"/>
      <stop offset="1" stop-color="#97B3FB" stop-opacity="0"/>
    </linearGradient>
    <linearGradient id="x" x1="446.869" x2="554.833" y1="195.168" y2="440.265" gradientUnits="userSpaceOnUse">
      <stop stop-color="#366EFF"/>
      <stop offset="1" stop-color="#97B3FB" stop-opacity="0"/>
    </linearGradient>
    <linearGradient id="y" x1="551" x2="551" y1="118" y2="290" gradientUnits="userSpaceOnUse">
      <stop stop-color="#fff"/>
      <stop offset="1" stop-color="#fff" stop-opacity="0"/>
    </linearGradient>
    <linearGradient id="z" x1="560.5" x2="560.5" y1="133" y2="290" gradientUnits="userSpaceOnUse">
      <stop stop-color="#fff"/>
      <stop offset="1" stop-color="#fff" stop-opacity="0"/>
    </linearGradient>
    <linearGradient id="A" x1="509.5" x2="608.5" y1="149" y2="149" gradientUnits="userSpaceOnUse">
      <stop stop-color="#fff"/>
      <stop offset="1" stop-color="#fff" stop-opacity="0"/>
    </linearGradient>
    <linearGradient id="B" x1="509.5" x2="608.5" y1="169" y2="169" gradientUnits="userSpaceOnUse">
      <stop stop-color="#fff"/>
      <stop offset="1" stop-color="#fff" stop-opacity="0"/>
    </linearGradient>
    <linearGradient id="C" x1="509.5" x2="608.5" y1="189" y2="189" gradientUnits="userSpaceOnUse">
      <stop stop-color="#fff"/>
      <stop offset="1" stop-color="#fff" stop-opacity="0"/>
    </linearGradient>
    <linearGradient id="D" x1="456.5" x2="552.25" y1="111.5" y2="469.5" gradientUnits="userSpaceOnUse">
      <stop stop-color="#D9D9D9"/>
      <stop offset=".6914" stop-color="#D9D9D9" stop-opacity="0"/>
    </linearGradient>
    <linearGradient id="E" x1="419.937" x2="360.231" y1="197.707" y2="357.979" gradientUnits="userSpaceOnUse">
      <stop stop-color="#FF523A"/>
      <stop offset="1" stop-color="#FFB76C" stop-opacity="0"/>
    </linearGradient>
    <linearGradient id="G" x1="517.937" x2="506.92" y1="56.5591" y2="129.197" gradientUnits="userSpaceOnUse">
      <stop stop-color="#FF523A"/>
      <stop offset="1" stop-color="#FFB76C" stop-opacity="0"/>
    </linearGradient>
    <linearGradient id="I" x1="331.934" x2="331.934" y1="148.397" y2="323.996" gradientUnits="userSpaceOnUse">
      <stop stop-color="#FF523A"/>
      <stop offset="1" stop-opacity="0"/>
    </linearGradient>
    <linearGradient id="J" x1="493.32" x2="494.981" y1="139.027" y2="186.056" gradientUnits="userSpaceOnUse">
      <stop stop-color="#FFB76C"/>
      <stop offset="1" stop-color="#141313" stop-opacity="0"/>
    </linearGradient>
    <linearGradient id="L" x1="256.5" x2="256.5" y1="212.5" y2="293.5" gradientUnits="userSpaceOnUse">
      <stop stop-color="#FF523A"/>
      <stop offset="1" stop-opacity="0"/>
    </linearGradient>
    <linearGradient id="M" x1="475.481" x2="465.981" y1="325.754" y2="296.254" gradientUnits="userSpaceOnUse">
      <stop stop-color="#FFB96D"/>
      <stop offset="1" stop-color="#E3E3E3" stop-opacity="0"/>
    </linearGradient>
    <linearGradient id="N" x1="458.481" x2="448.981" y1="332.754" y2="303.254" gradientUnits="userSpaceOnUse">
      <stop stop-color="#FFB96D"/>
      <stop offset="1" stop-color="#E3E3E3" stop-opacity="0"/>
    </linearGradient>
    <linearGradient id="O" x1="466.231" x2="466.231" y1="318.292" y2="356.792" gradientUnits="userSpaceOnUse">
      <stop stop-color="#2E1C19"/>
      <stop offset="1" stop-color="#391F1B"/>
    </linearGradient>
    <linearGradient id="P" x1="495" x2="495" y1="178" y2="182" gradientUnits="userSpaceOnUse">
      <stop stop-color="#FFB96D"/>
      <stop offset="1" stop-color="#D9D9D9" stop-opacity="0"/>
    </linearGradient>
    <linearGradient id="Q" x1="495" x2="495" y1="192" y2="196" gradientUnits="userSpaceOnUse">
      <stop stop-color="#FFB96D"/>
      <stop offset="1" stop-color="#D9D9D9" stop-opacity="0"/>
    </linearGradient>
    <linearGradient id="R" x1="495" x2="495" y1="206" y2="210" gradientUnits="userSpaceOnUse">
      <stop stop-color="#FFB96D"/>
      <stop offset="1" stop-color="#D9D9D9" stop-opacity="0"/>
    </linearGradient>
    <linearGradient id="S" x1="495" x2="495" y1="220" y2="224" gradientUnits="userSpaceOnUse">
      <stop stop-color="#FFB96D"/>
      <stop offset="1" stop-color="#D9D9D9" stop-opacity="0"/>
    </linearGradient>
    <linearGradient id="T" x1="495" x2="495" y1="185" y2="189" gradientUnits="userSpaceOnUse">
      <stop stop-color="#FFB96D"/>
      <stop offset="1" stop-color="#D9D9D9" stop-opacity="0"/>
    </linearGradient>
    <linearGradient id="U" x1="495" x2="495" y1="199" y2="203" gradientUnits="userSpaceOnUse">
      <stop stop-color="#FFB96D"/>
      <stop offset="1" stop-color="#D9D9D9" stop-opacity="0"/>
    </linearGradient>
    <linearGradient id="V" x1="495" x2="495" y1="213" y2="217" gradientUnits="userSpaceOnUse">
      <stop stop-color="#FFB96D"/>
      <stop offset="1" stop-color="#D9D9D9" stop-opacity="0"/>
    </linearGradient>
    <linearGradient id="W" x1="495" x2="495" y1="227" y2="231" gradientUnits="userSpaceOnUse">
      <stop stop-color="#FFB96D"/>
      <stop offset="1" stop-color="#D9D9D9" stop-opacity="0"/>
    </linearGradient>
    <linearGradient id="X" x1="247" x2="247" y1="200.667" y2="312" gradientUnits="userSpaceOnUse">
      <stop stop-color="#fff"/>
      <stop offset="1" stop-color="#fff" stop-opacity="0"/>
    </linearGradient>
    <linearGradient id="Y" x1="267" x2="267" y1="200.667" y2="312" gradientUnits="userSpaceOnUse">
      <stop stop-color="#fff"/>
      <stop offset="1" stop-color="#fff" stop-opacity="0"/>
    </linearGradient>
    <linearGradient id="Z" x1="286.5" x2="286.5" y1="256" y2="370" gradientUnits="userSpaceOnUse">
      <stop stop-color="#FF523A"/>
      <stop offset="1" stop-color="#3A201C" stop-opacity="0"/>
    </linearGradient>
    <linearGradient id="aa" x1="207" x2="207" y1="256" y2="370" gradientUnits="userSpaceOnUse">
      <stop stop-color="#FFB96D"/>
      <stop offset="1" stop-color="#3A201C" stop-opacity="0"/>
    </linearGradient>
    <linearGradient id="ac" x1="180.5" x2="180.5" y1="240" y2="337" gradientUnits="userSpaceOnUse">
      <stop stop-color="#FFB96D"/>
      <stop offset="1" stop-color="#3A201C" stop-opacity="0"/>
    </linearGradient>
    <linearGradient id="ae" x1="273" x2="273" y1="220" y2="334" gradientUnits="userSpaceOnUse">
      <stop stop-color="#FF523A"/>
      <stop offset="1" stop-color="#3A201C" stop-opacity="0"/>
    </linearGradient>
    <linearGradient id="af" x1="239.5" x2="239.5" y1="220" y2="334" gradientUnits="userSpaceOnUse">
      <stop stop-color="#FF523A"/>
      <stop offset="1" stop-color="#3A201C" stop-opacity="0"/>
    </linearGradient>
    <linearGradient id="ag" x1="310.5" x2="310.5" y1="205" y2="319" gradientUnits="userSpaceOnUse">
      <stop stop-color="#FFB96D"/>
      <stop offset="1" stop-color="#3A201C" stop-opacity="0"/>
    </linearGradient>
    <linearGradient id="ah" x1="241.5" x2="241.5" y1="227.712" y2="255" gradientUnits="userSpaceOnUse">
      <stop stop-color="#FFB96D"/>
      <stop offset="1" stop-color="#fff" stop-opacity="0"/>
    </linearGradient>
    <linearGradient id="aj" x1="271.5" x2="271.5" y1="227.614" y2="254.902" gradientUnits="userSpaceOnUse">
      <stop stop-color="#FFB96D"/>
      <stop offset="1" stop-color="#fff" stop-opacity="0"/>
    </linearGradient>
    <linearGradient id="al" x1="688.5" x2="627.133" y1="213" y2="467.941" gradientUnits="userSpaceOnUse">
      <stop stop-color="#FF523A"/>
      <stop offset="1" stop-color="#FFB76C"/>
    </linearGradient>
    <linearGradient id="av" x1="418" x2="418" y1="255" y2="262.5" gradientUnits="userSpaceOnUse">
      <stop stop-color="#241917"/>
      <stop offset="1" stop-color="#241917" stop-opacity="0"/>
    </linearGradient>
    <linearGradient id="aw" x1="533.5" x2="542.5" y1="267" y2="328" gradientUnits="userSpaceOnUse">
      <stop stop-color="#FFB96D"/>
      <stop offset="1" stop-color="#FFB96D" stop-opacity="0"/>
    </linearGradient>
    <linearGradient id="az" x1="533.5" x2="542.5" y1="267" y2="328" gradientUnits="userSpaceOnUse">
      <stop stop-color="#FFB96D"/>
      <stop offset="1" stop-color="#FFB96D" stop-opacity="0"/>
    </linearGradient>
    <linearGradient id="aB" x1="572.5" x2="563.5" y1="282.5" y2="343.5" gradientUnits="userSpaceOnUse">
      <stop stop-color="#FFB96D"/>
      <stop offset="1" stop-color="#FFB96D" stop-opacity="0"/>
    </linearGradient>
    <linearGradient id="aE" x1="572.5" x2="563.5" y1="282.5" y2="343.5" gradientUnits="userSpaceOnUse">
      <stop stop-color="#FF523A"/>
      <stop offset="1" stop-color="#FF523A" stop-opacity="0"/>
    </linearGradient>
    <linearGradient id="aG" x1="378.75" x2="378.75" y1="215.5" y2="245.5" gradientUnits="userSpaceOnUse">
      <stop stop-color="#FFB96D"/>
      <stop offset="1" stop-color="#CACACA" stop-opacity="0"/>
    </linearGradient>
    <linearGradient id="aH" x1="378.75" x2="378.75" y1="243" y2="273" gradientUnits="userSpaceOnUse">
      <stop stop-color="#FFB96D"/>
      <stop offset="1" stop-color="#CACACA" stop-opacity="0"/>
    </linearGradient>
    <linearGradient id="aI" x1="378.75" x2="378.75" y1="273" y2="303" gradientUnits="userSpaceOnUse">
      <stop stop-color="#FFB96D"/>
      <stop offset="1" stop-color="#CACACA" stop-opacity="0"/>
    </linearGradient>
    <linearGradient id="aL" x1="395.269" x2="391.664" y1="245.48" y2="213.788" gradientUnits="userSpaceOnUse">
      <stop stop-color="#fff"/>
      <stop offset="1" stop-color="#FFB96D" stop-opacity="0"/>
    </linearGradient>
    <linearGradient id="aM" x1="256.5" x2="256.5" y1="230" y2="241" gradientUnits="userSpaceOnUse">
      <stop stop-color="#FFA462"/>
      <stop offset="1" stop-color="#FFA462" stop-opacity="0"/>
    </linearGradient>
    <linearGradient id="aO" x1="256.5" x2="256.5" y1="244" y2="255" gradientUnits="userSpaceOnUse">
      <stop stop-color="#FFA462"/>
      <stop offset="1" stop-color="#FFA462" stop-opacity="0"/>
    </linearGradient>
    <linearGradient id="aQ" x1="256.5" x2="256.5" y1="259" y2="270" gradientUnits="userSpaceOnUse">
      <stop stop-color="#FFA462"/>
      <stop offset="1" stop-color="#FFA462" stop-opacity="0"/>
    </linearGradient>
    <linearGradient id="aT" x1="227.387" x2="190.323" y1="57.6942" y2="68.1139" gradientUnits="userSpaceOnUse">
      <stop stop-color="#fff"/>
      <stop offset="1" stop-color="#FFB96D" stop-opacity="0"/>
    </linearGradient>
    <linearGradient id="aU" x1="228.063" x2="191" y1="60.101" y2="70.5206" gradientUnits="userSpaceOnUse">
      <stop stop-color="#fff"/>
      <stop offset="1" stop-color="#FFB96D" stop-opacity="0"/>
    </linearGradient>
    <linearGradient id="aV" x1="267.511" x2="299.725" y1="50.9379" y2="29.8539" gradientUnits="userSpaceOnUse">
      <stop stop-color="#FFB96D"/>
      <stop offset="1" stop-color="#FFB96D" stop-opacity="0"/>
    </linearGradient>
    <linearGradient id="aW" x1="256.651" x2="256.628" y1="39.3393" y2="58.503" gradientUnits="userSpaceOnUse">
      <stop stop-color="#FFF0EE"/>
      <stop offset="1" stop-color="#3F3F3F"/>
    </linearGradient>
    <linearGradient id="aX" x1="252.205" x2="255.102" y1="46.1292" y2="54.1139" gradientUnits="userSpaceOnUse">
      <stop stop-color="#fff"/>
      <stop offset="1" stop-color="#C7C7C7"/>
    </linearGradient>
    <linearGradient id="aY" x1="258.499" x2="261.048" y1="50.5515" y2="57.6571" gradientUnits="userSpaceOnUse">
      <stop stop-color="#232323"/>
      <stop offset="1" stop-color="#585858"/>
    </linearGradient>
    <linearGradient id="aZ" x1="256.014" x2="255.978" y1="40.8932" y2="44.458" gradientUnits="userSpaceOnUse">
      <stop stop-color="#fff"/>
      <stop offset="1" stop-color="#fff" stop-opacity="0"/>
    </linearGradient>
    <linearGradient id="ba" x1="50.085" x2="50.085" y1="255.671" y2="329.671" gradientUnits="userSpaceOnUse">
      <stop stop-color="#FFC07D"/>
      <stop offset="1" stop-color="#fff" stop-opacity="0"/>
    </linearGradient>
    <linearGradient id="bb" x1="33.085" x2="29.085" y1="258.671" y2="332.171" gradientUnits="userSpaceOnUse">
      <stop stop-color="#FFC07D"/>
      <stop offset="1" stop-color="#fff" stop-opacity="0"/>
    </linearGradient>
    <linearGradient id="bc" x1="67.085" x2="63.0087" y1="258.671" y2="328.829" gradientUnits="userSpaceOnUse">
      <stop stop-color="#FFC07D"/>
      <stop offset="1" stop-color="#fff" stop-opacity="0"/>
    </linearGradient>
    <linearGradient id="bd" x1="50.085" x2="50.085" y1="192.723" y2="259.041" gradientUnits="userSpaceOnUse">
      <stop stop-color="#fff"/>
      <stop offset="1" stop-color="#FFB360"/>
    </linearGradient>
    <linearGradient id="be" x1="404.175" x2="461.278" y1="144.414" y2="150.784" gradientUnits="userSpaceOnUse">
      <stop stop-color="#FFB96D"/>
      <stop offset="1" stop-color="#FFB96D" stop-opacity="0"/>
    </linearGradient>
    <linearGradient id="bf" x1="403.761" x2="460.865" y1="148.122" y2="154.492" gradientUnits="userSpaceOnUse">
      <stop stop-color="#FFB96D"/>
      <stop offset="1" stop-color="#FFB96D" stop-opacity="0"/>
    </linearGradient>
    <linearGradient id="bg" x1="340.047" x2="287.503" y1="142.045" y2="118.797" gradientUnits="userSpaceOnUse">
      <stop stop-color="#FFB96D"/>
      <stop offset="1" stop-color="#FFB96D" stop-opacity="0"/>
    </linearGradient>
    <linearGradient id="bi" x1="354.861" x2="364.1" y1="107.849" y2="141.874" gradientUnits="userSpaceOnUse">
      <stop stop-color="#3A4EFF"/>
      <stop offset="1" stop-color="#3F3F3F"/>
    </linearGradient>
    <linearGradient id="bj" x1="367.004" x2="364.672" y1="130.685" y2="143.145" gradientUnits="userSpaceOnUse">
      <stop stop-color="#fff"/>
      <stop offset="1" stop-color="#C7C7C7"/>
    </linearGradient>
    <linearGradient id="bk" x1="317.434" x2="393.282" y1="134.107" y2="142.567" gradientUnits="userSpaceOnUse">
      <stop stop-color="#FFF7EE"/>
      <stop offset="1" stop-color="#FFB96D"/>
    </linearGradient>
    <linearGradient id="bl" x1="360.128" x2="361.044" y1="123.897" y2="129.138" gradientUnits="userSpaceOnUse">
      <stop stop-color="#fff"/>
      <stop offset="1" stop-color="#fff" stop-opacity="0"/>
    </linearGradient>
    <pattern id="c" width="89.5624" height="10.2212" patternContentUnits="objectBoundingBox">
      <use xlink:href="#bm" transform="scale(.044 .005)"/>
    </pattern>
    <pattern id="e" width="93.0909" height="10.24" patternContentUnits="objectBoundingBox">
      <use xlink:href="#bm" transform="scale(.045 .005)"/>
    </pattern>
    <pattern id="g" width="170.667" height="10.24" patternContentUnits="objectBoundingBox">
      <use xlink:href="#bm" transform="scale(.083 .005)"/>
    </pattern>
    <pattern id="q" width="136.533" height="17.3559" patternContentUnits="objectBoundingBox">
      <use xlink:href="#bm" transform="scale(.067 .008)"/>
    </pattern>
    <pattern id="F" width="204.8" height="14.6286" patternContentUnits="objectBoundingBox">
      <use xlink:href="#bm" transform="scale(.1 .007)"/>
    </pattern>
    <pattern id="H" width="204.8" height="35.9298" patternContentUnits="objectBoundingBox">
      <use xlink:href="#bm" transform="scale(.1 .018)"/>
    </pattern>
    <pattern id="K" width="97.5238" height="56.8889" patternContentUnits="objectBoundingBox">
      <use xlink:href="#bm" transform="scale(.048 .028)"/>
    </pattern>
    <pattern id="ab" width="120.471" height="17.9649" patternContentUnits="objectBoundingBox">
      <use xlink:href="#bm" transform="scale(.059 .009)"/>
    </pattern>
    <pattern id="ad" width="105.026" height="21.1134" patternContentUnits="objectBoundingBox">
      <use xlink:href="#bm" transform="scale(.051 .01)"/>
    </pattern>
    <pattern id="ai" width="227.556" height="76.1283" patternContentUnits="objectBoundingBox">
      <use xlink:href="#bm" transform="scale(.111 .037)"/>
    </pattern>
    <pattern id="ak" width="222.421" height="74.7392" patternContentUnits="objectBoundingBox">
      <use xlink:href="#bm" transform="scale(.109 .036)"/>
    </pattern>
    <pattern id="am" width="91.5646" height="10.2212" patternContentUnits="objectBoundingBox">
      <use xlink:href="#bm" transform="scale(.045 .005)"/>
    </pattern>
    <pattern id="ax" width="60.2353" height="34.4202" patternContentUnits="objectBoundingBox">
      <use xlink:href="#bm" transform="scale(.03 .017)"/>
    </pattern>
    <pattern id="aA" width="60.2353" height="34.4202" patternContentUnits="objectBoundingBox">
      <use xlink:href="#bm" transform="scale(.03 .017)"/>
    </pattern>
    <pattern id="aC" width="40.96" height="34.4202" patternContentUnits="objectBoundingBox">
      <use xlink:href="#bm" transform="scale(.02 .017)"/>
    </pattern>
    <pattern id="aF" width="40.96" height="34.4202" patternContentUnits="objectBoundingBox">
      <use xlink:href="#bm" transform="scale(.02 .017)"/>
    </pattern>
    <pattern id="aN" width="170.667" height="186.182" patternContentUnits="objectBoundingBox">
      <use xlink:href="#bm" transform="scale(.083 .09)"/>
    </pattern>
    <pattern id="aP" width="170.667" height="186.182" patternContentUnits="objectBoundingBox">
      <use xlink:href="#bm" transform="scale(.083 .09)"/>
    </pattern>
    <pattern id="aR" width="170.667" height="186.182" patternContentUnits="objectBoundingBox">
      <use xlink:href="#bm" transform="scale(.083 .09)"/>
    </pattern>
    <filter id="an" width="12" height="17" x="346.5" y="193" color-interpolation-filters="sRGB" filterUnits="userSpaceOnUse">
      <feFlood flood-opacity="0" result="BackgroundImageFix"/>
      <feBlend in="SourceGraphic" in2="BackgroundImageFix" result="shape"/>
      <feGaussianBlur result="effect1_foregroundBlur_1_5" stdDeviation="2.5"/>
    </filter>
    <filter id="ao" width="12" height="17" x="341.5" y="209" color-interpolation-filters="sRGB" filterUnits="userSpaceOnUse">
      <feFlood flood-opacity="0" result="BackgroundImageFix"/>
      <feBlend in="SourceGraphic" in2="BackgroundImageFix" result="shape"/>
      <feGaussianBlur result="effect1_foregroundBlur_1_5" stdDeviation="2.5"/>
    </filter>
    <filter id="ap" width="12" height="17" x="351.5" y="209" color-interpolation-filters="sRGB" filterUnits="userSpaceOnUse">
      <feFlood flood-opacity="0" result="BackgroundImageFix"/>
      <feBlend in="SourceGraphic" in2="BackgroundImageFix" result="shape"/>
      <feGaussianBlur result="effect1_foregroundBlur_1_5" stdDeviation="2.5"/>
    </filter>
    <filter id="aq" width="12" height="17" x="351.5" y="225" color-interpolation-filters="sRGB" filterUnits="userSpaceOnUse">
      <feFlood flood-opacity="0" result="BackgroundImageFix"/>
      <feBlend in="SourceGraphic" in2="BackgroundImageFix" result="shape"/>
      <feGaussianBlur result="effect1_foregroundBlur_1_5" stdDeviation="2.5"/>
    </filter>
    <filter id="ar" width="8" height="11.3333" x="282.5" y="268.667" color-interpolation-filters="sRGB" filterUnits="userSpaceOnUse">
      <feFlood flood-opacity="0" result="BackgroundImageFix"/>
      <feBlend in="SourceGraphic" in2="BackgroundImageFix" result="shape"/>
      <feGaussianBlur result="effect1_foregroundBlur_1_5" stdDeviation="1.6667"/>
    </filter>
    <filter id="as" width="8" height="11.3333" x="279.167" y="279.333" color-interpolation-filters="sRGB" filterUnits="userSpaceOnUse">
      <feFlood flood-opacity="0" result="BackgroundImageFix"/>
      <feBlend in="SourceGraphic" in2="BackgroundImageFix" result="shape"/>
      <feGaussianBlur result="effect1_foregroundBlur_1_5" stdDeviation="1.6667"/>
    </filter>
    <filter id="at" width="8" height="11.3333" x="285.834" y="279.333" color-interpolation-filters="sRGB" filterUnits="userSpaceOnUse">
      <feFlood flood-opacity="0" result="BackgroundImageFix"/>
      <feBlend in="SourceGraphic" in2="BackgroundImageFix" result="shape"/>
      <feGaussianBlur result="effect1_foregroundBlur_1_5" stdDeviation="1.6667"/>
    </filter>
    <filter id="au" width="8" height="11.3333" x="285.834" y="290" color-interpolation-filters="sRGB" filterUnits="userSpaceOnUse">
      <feFlood flood-opacity="0" result="BackgroundImageFix"/>
      <feBlend in="SourceGraphic" in2="BackgroundImageFix" result="shape"/>
      <feGaussianBlur result="effect1_foregroundBlur_1_5" stdDeviation="1.6667"/>
    </filter>
    <filter id="aJ" width="18" height="28" x="546.5" y="238" color-interpolation-filters="sRGB" filterUnits="userSpaceOnUse">
      <feFlood flood-opacity="0" result="BackgroundImageFix"/>
      <feBlend in="SourceGraphic" in2="BackgroundImageFix" result="shape"/>
      <feGaussianBlur result="effect1_foregroundBlur_1_5" stdDeviation="2"/>
    </filter>
    <filter id="aK" width="18" height="28" x="546.5" y="145" color-interpolation-filters="sRGB" filterUnits="userSpaceOnUse">
      <feFlood flood-opacity="0" result="BackgroundImageFix"/>
      <feBlend in="SourceGraphic" in2="BackgroundImageFix" result="shape"/>
      <feGaussianBlur result="effect1_foregroundBlur_1_5" stdDeviation="2"/>
    </filter>
    <filter id="aS" width="63.8982" height="29.4701" x="228.117" y="37.8026" color-interpolation-filters="sRGB" filterUnits="userSpaceOnUse">
      <feFlood flood-opacity="0" result="BackgroundImageFix"/>
      <feBlend in="SourceGraphic" in2="BackgroundImageFix" result="shape"/>
      <feGaussianBlur result="effect1_foregroundBlur_1_5" stdDeviation="2.2275"/>
    </filter>
    <filter id="bh" width="85.6825" height="32.4469" x="315.782" y="123.89" color-interpolation-filters="sRGB" filterUnits="userSpaceOnUse">
      <feFlood flood-opacity="0" result="BackgroundImageFix"/>
      <feBlend in="SourceGraphic" in2="BackgroundImageFix" result="shape"/>
      <feGaussianBlur result="effect1_foregroundBlur_1_5" stdDeviation="2.5"/>
    </filter>
    <clipPath id="a">
      <path fill="#fff" d="M0 0h649v321H0z"/>
    </clipPath>
  </defs>
</svg>
