<svg xmlns="http://www.w3.org/2000/svg" width="25" height="23" fill="none">
  <g clip-path="url(#a)">
    <path fill="#C8B9B9" d="m7.5582 0 2.1317 2.1172c-1.0335 1.7963-1.938 3.5927-2.7131 5.3891-.7752 1.7322-1.2275 3.4324-1.3567 5.1004l4.845 1.0585V23H0v-6.7364c0-3.9777.7752-7.1855 2.3256-9.6235C3.9406 4.1382 5.6848 1.9248 7.5582 0ZM22.093 0l2.1318 2.1172c-1.0336 1.7963-1.938 3.5927-2.7131 5.3891-.7752 1.7322-1.2274 3.4324-1.3566 5.1004L25 13.6652V23H14.5349v-6.7364c0-3.9777.7752-7.1855 2.3256-9.6235C18.4755 4.1382 20.2197 1.9248 22.093 0Z"/>
  </g>
  <defs>
    <clipPath id="a">
      <path fill="#fff" d="M0 0h25v23H0z"/>
    </clipPath>
  </defs>
</svg>
