<svg xmlns="http://www.w3.org/2000/svg" width="32" height="33" fill="none">
  <path stroke="#fff" stroke-linecap="round" stroke-linejoin="round" stroke-width="2" d="M8 27.1449h5.3333m5.3334-13.3333H24M8 19.1449h2.6667v8m8-21.3333h2.6666v8m0 5.3333c1.4728 0 2.6667 1.1939 2.6667 2.6667v2.6667c0 1.4727-1.1939 2.6666-2.6667 2.6666-1.4727 0-2.6666-1.1939-2.6666-2.6666v-2.6667c0-1.4728 1.1939-2.6667 2.6666-2.6667ZM10.6667 5.8116c1.4727 0 2.6666 1.1939 2.6666 2.6666v2.6667c0 1.4728-1.1939 2.6667-2.6666 2.6667C9.1939 13.8116 8 12.6177 8 11.1449V8.4782c0-1.4727 1.194-2.6666 2.6667-2.6666Z"/>
</svg>
