<svg xmlns="http://www.w3.org/2000/svg" width="49" height="48" fill="none">
  <path stroke="#fff" stroke-linecap="round" stroke-linejoin="round" stroke-width="2" d="M24.8513 4h-7a6.9998 6.9998 0 0 0-4.9497 11.9497A6.9997 6.9997 0 0 0 17.8513 18m7-14v14m0-14h7a7 7 0 1 1 0 14m-7 0h-7m7 0h7m-7 0v14m-7-14a6.9997 6.9997 0 0 0-4.9497 2.0503 6.9997 6.9997 0 0 0 0 9.8994A6.9997 6.9997 0 0 0 17.8513 32m14-14a6.9996 6.9996 0 0 0-6.4671 4.3212A6.9997 6.9997 0 0 0 31.8513 32a6.999 6.999 0 0 0 6.4672-4.3212 6.9996 6.9996 0 0 0 0-5.3576A6.9998 6.9998 0 0 0 31.8513 18Zm-14 14a6.9997 6.9997 0 0 0-4.9497 2.0503 6.9997 6.9997 0 0 0 0 9.8994 6.9997 6.9997 0 0 0 9.8995 0A7 7 0 0 0 24.8513 39v-7m-7 0h7"/>
</svg>
