<svg xmlns="http://www.w3.org/2000/svg" width="33" height="32" fill="none">
  <path stroke="#fff" stroke-linecap="round" stroke-linejoin="round" stroke-width="2" d="M24.8513 17.3334 23.018 8.1681a1.3332 1.3332 0 0 0-.9947-1.0347L5.1647 2.7041a1.3333 1.3333 0 0 0-1.6094 1.6093l4.4294 16.8587a1.333 1.333 0 0 0 1.0346.9947l9.1653 1.8333M3.918 3.0668l9.7146 9.7146m8.1614 15.6094a1.3336 1.3336 0 0 1-1.8854 0l-2.1146-2.1147a1.3331 1.3331 0 0 1 0-1.8853l7.448-7.448a1.333 1.333 0 0 1 1.8853 0l2.1147 2.1146a1.3337 1.3337 0 0 1 0 1.8854l-7.448 7.448Zm-3.6094-13.724c0 1.4727-1.1939 2.6666-2.6666 2.6666-1.4728 0-2.6667-1.1939-2.6667-2.6666 0-1.4728 1.1939-2.6667 2.6667-2.6667 1.4727 0 2.6666 1.1939 2.6666 2.6667Z"/>
</svg>
