<svg xmlns="http://www.w3.org/2000/svg" width="33" height="32" fill="none">
  <path stroke="#fff" stroke-linecap="round" stroke-linejoin="round" stroke-width="2" d="M14.1556 29.2a13.3336 13.3336 0 0 0 13.3674-5.931 13.3335 13.3335 0 0 0-.1127-14.6236M18.2889 2.8A13.3333 13.3333 0 0 0 5.1676 23.3547M20.2889 16c0 2.2092-1.7908 4-4 4-2.2091 0-4-1.7908-4-4 0-2.2091 1.7909-4 4-4 2.2092 0 4 1.7909 4 4Zm8-9.3333c0 1.4728-1.1939 2.6667-2.6666 2.6667-1.4728 0-2.6667-1.194-2.6667-2.6667C22.9556 5.1939 24.1495 4 25.6223 4c1.4727 0 2.6666 1.194 2.6666 2.6667ZM9.6223 25.3334C9.6223 26.8061 8.4283 28 6.9556 28c-1.4728 0-2.6667-1.1939-2.6667-2.6666 0-1.4728 1.194-2.6667 2.6667-2.6667 1.4728 0 2.6667 1.1939 2.6667 2.6667Z"/>
</svg>
