<svg xmlns="http://www.w3.org/2000/svg" width="43" height="42" fill="none">
  <path stroke="#fff" stroke-linecap="round" stroke-linejoin="round" stroke-width="2" d="M24.7887 7a3.4999 3.4999 0 0 1 3.5-3.5m0 14a3.5 3.5 0 0 1-3.5-3.5m10.5-10.5a3.4998 3.4998 0 0 1 3.5 3.5m0 7a3.5 3.5 0 0 1-3.5 3.5m-29.75-5.25 5.25 5.25m0 0 5.25-5.25m-5.25 5.25V8.75a5.2499 5.2499 0 0 1 5.25-5.25h1.75m-10.5 21h7c1.933 0 3.5 1.567 3.5 3.5v7c0 1.933-1.567 3.5-3.5 3.5h-7c-1.933 0-3.5-1.567-3.5-3.5v-7c0-1.933 1.567-3.5 3.5-3.5Z"/>
</svg>
