<svg xmlns="http://www.w3.org/2000/svg" width="54" height="54" fill="none">
  <path fill="url(#a)" d="m46.9381 35.5052.0407-.5268c.0122-.2094-12.592-12.168-12.592-12.168h-.2998s12.7755 13.4755 12.8527 12.6948h-.0016Z"/>
  <path fill="url(#b)" d="m20.0468 31.3564-.0505.1101-.0547.1147c-.4017.8378 5.6248 6.7292 6.1095 6.0135l.0662-.0966.073-.1094c.3877-.5884-5.9716-6.4133-6.1437-6.0307l.0002-.0016Z"/>
  <path fill="url(#c)" d="M28.5629 39.6413c-.0156.0375-.1383.2426-.2491.3509-.0188.0375 5.8831 5.8907 5.8831 5.8907h.5315c.0003 0-5.5403-5.9941-6.1655-6.2416Z"/>
  <path fill="url(#d)" d="M46.9873 34.8718c-.276 6.1187-5.338 11.0111-11.5225 11.0111h-.8362l-6.1761-6.0845c.508-.7165.9803-1.4587 1.4008-2.2327h5.6115c1.7746 0 3.2189-1.4435 3.2189-3.2191 0-1.7748-1.4443-3.219-3.2189-3.219h-3.3206c.2532-1.3375.3914-2.7165.3914-4.1276a22.076 22.076 0 0 0-.403-4.1901h2.0627l12.7542 12.5688a14.301 14.301 0 0 0 .0364-.5069h.0014ZM10.3553 8.0555H7v8.3173h3.3553c5.8602 0 10.6285 4.7672 10.6285 10.6272a10.566 10.566 0 0 1-.9875 4.4665l6.1212 6.0332a18.8305 18.8305 0 0 0 3.1848-10.4981c0-10.4475-8.4998-18.946-18.947-18.946Z"/>
  <path fill="url(#e)" d="M35.4648 8.0555h-13.587c3.3188 2.0261 6.0665 4.8991 7.939 8.3173h5.6481c1.7747 0 3.2189 1.4434 3.2189 3.219 0 1.7756-1.4442 3.2186-3.219 3.2186h-1.2692L46.9498 35.379c.03-.3407.0487-.684.0487-1.0324 0-2.804-1.0061-5.3759-2.6766-7.3779 1.6705-2.0009 2.6766-4.5733 2.6766-7.3769.0016-6.3608-5.1726-11.5363-11.5337-11.5363Z"/>
  <path fill="url(#f)" d="M34.6286 45.8829H21.9749c2.5471-1.573 4.7491-3.6496 6.4776-6.0845l6.1761 6.0845Zm-8.5111-8.3848-6.1207-6.0332c-1.6912 3.634-5.376 6.1617-9.6415 6.1617H7v8.3163h3.3553c6.5647 0 12.3634-3.3586 15.7622-8.4465v.0017Z"/>
  <defs>
    <linearGradient id="a" x1="1389.32" x2="3344.88" y1="262.29" y2="2348.31" gradientUnits="userSpaceOnUse">
      <stop stop-color="#F9A03C"/>
      <stop offset="1" stop-color="#F7974E"/>
    </linearGradient>
    <linearGradient id="b" x1="-114.815" x2="790.451" y1="336.647" y2="1219.78" gradientUnits="userSpaceOnUse">
      <stop stop-color="#F9A03C"/>
      <stop offset="1" stop-color="#F7974E"/>
    </linearGradient>
    <linearGradient id="c" x1="315.536" x2="1125.32" y1="648.014" y2="1576.44" gradientUnits="userSpaceOnUse">
      <stop stop-color="#F9A03C"/>
      <stop offset="1" stop-color="#F7974E"/>
    </linearGradient>
    <linearGradient id="d" x1="1166.99" x2="7960.32" y1="-158.763" y2="8808.61" gradientUnits="userSpaceOnUse">
      <stop stop-color="#F26D58"/>
      <stop offset="1" stop-color="#F9A03C"/>
    </linearGradient>
    <linearGradient id="e" x1="3052.77" x2="7495.75" y1="192.325" y2="3111.56" gradientUnits="userSpaceOnUse">
      <stop stop-color="#B84E51"/>
      <stop offset="1" stop-color="#F68E48"/>
    </linearGradient>
    <linearGradient id="f" x1="2301.58" x2="2367.52" y1="2514.71" y2="4183.5" gradientUnits="userSpaceOnUse">
      <stop stop-color="#F9A03C"/>
      <stop offset="1" stop-color="#F7974E"/>
    </linearGradient>
  </defs>
</svg>
