<svg xmlns="http://www.w3.org/2000/svg" width="54" height="54" fill="none">
  <path fill="url(#a)" d="m36.244 26.9997-9.121-12h1.18c.84 0 1.631.392 2.139 1.061l7.059 9.287 7.059-9.287a2.6812 2.6812 0 0 1 2.138-1.061h1.18l-9.121 12 9.547 12.56h-1.18c-.84 0-1.631-.392-2.139-1.061l-7.485-9.847-7.485 9.847a2.6874 2.6874 0 0 1-2.139 1.061h-1.18l9.548-12.56Zm-29.244 1v.783c0 4.199 2.776 8.032 6.868 8.972 4.439 1.02 8.49-1.247 10.228-4.842.27-.558.832-.913 1.451-.913h1.028c-1.319 4.655-5.616 8.059-10.707 7.999C9.777 39.9267 5 34.6937 5 28.1417V25.2837c0-5.427 3.812-10.273 9.171-11.136C21.055 13.0387 27 18.3247 27 24.9997v3H7Zm0-2h18v-1c0-5.648-5.202-10.08-11.076-8.768-4.12.921-6.924 4.77-6.924 9.478v.29Z"/>
  <defs>
    <linearGradient id="a" x1="6.851" x2="37.471" y1="4.5957" y2="35.2157" gradientUnits="userSpaceOnUse">
      <stop stop-color="#6D7479"/>
      <stop offset="1" stop-color="#323538"/>
    </linearGradient>
  </defs>
</svg>
