<svg xmlns="http://www.w3.org/2000/svg" width="54" height="54" fill="none">
  <path fill="#000" d="M11.6119 32.8579c-.6966-.541-1.4396-1.0596-1.9474-1.7899-1.0684-1.2879-1.891-2.7791-2.4533-4.346-.34-1.019-.4563-2.1114-.8945-3.0909-.4584-.7115.0785-1.4892.8678-1.7154.3514-.0666.9693-.3938.2234-.1599-.6686.4844-.7334-.4397-.0477-.4982.468-.0614.6402-.4397.4802-.7802-.5023-.3234 1.218-.6788.3524-1.1614-.9017-.9606 1.2613-1.1455.7277-.0546-.1278.8389 1.5114-.1537 1.131.815.3866.4652 1.4476.1058 1.4213.7585.5631.0382.7564.506 1.285.5419.5478.2443 1.541.4368 1.7274 1.0464-.5435.4249-1.8021-.8776-1.8626.2985.1642 1.7374.1224 3.5272.7662 5.1817.3045 1.0018 1.0427 1.7904 1.7094 2.5707.6378.7642 1.5019 1.3021 2.3825 1.7551.7726.3597 1.6055.5983 2.4474.748.3415-.2579.9444-1.2167 1.4771-.8124.0253.4543-1.0574.9497-.0509.8995.5909-.176 1.0008.4512 1.4874-.1146.4484.5244 1.8635-.335 1.5445.7368-.4313.2748-1.0605.1088-1.4925.4868-.7124-.3513-1.2796.3143-2.0682.2301-.8758.1549-1.7669.2175-2.6548.2188-1.4568-.1136-2.9443-.1615-4.3302-.6623-.7806-.224-1.5425-.6629-2.2286-1.102Zm1.2303.5263c.7623.3255 1.5077.6686 2.3431.7721 1.3254.182 2.6942.4619 4.0244.2066-.602-.2685-1.2244.1045-1.8242-.192-.7193.1529-1.4913-.0389-2.2225-.1333-.8316-.3658-1.7291-.6173-2.5078-1.092-.9731-.3509.5032.45.766.5149.6083.3409-.6689-.1747-.849-.3165-.5095-.2822-.5744-.2232-.0504.0634.1055.061.2098.1249.3204.1768Zm-1.4506-1.0121c.7387.2701-.0032-.513-.3417-.4675-.15-.2569-.573-.4191-.2746-.5571-.5368.1839-.5623-.6997-.8146-.5735-.5678-.177-.221-.8042-.8974-1.1893-.0617-.4058-.672-.7578-.8667-1.3699-.086-.3134-.6895-1.2134-.3187-.3758.3156.8063.871 1.4968 1.3332 2.1865.359.6567.7827 1.343 1.4363 1.7527.2203.2087.4331.5284.7442.5939Zm-2.128-2.307c.135.2384.0258-.1101 0 0Zm3.0127 2.6308c.1636-.0723-.2352-.0911 0 0Zm.401.1444c-.0416-.1994-.1831.1116 0 0Zm.5019.2068c.239-.2247-.3683-.1417 0 0Zm.8603.4734c.1452-.2119-.4647-.08 0 0Zm-1.652-1.1371c.3712-.237-.4794-.0032 0 0Zm.3766.1854c-.0106-.1253-.1342.0562 0 0Zm1.8819 1.1598c.3025.1885 1.7667.4132.8498.0773-.1534.032-1.7-.4319-.8498-.0773Zm-2.9876-2.2974c-.0294-.1257-.4696-.1388 0 0Zm.8761.5041c.228-.157-.4733-.1211 0 0Zm.7369.4461c.3272-.1218-.5308-.1223 0 0Zm-1.9695-1.3336c.355.2688 1.4317.0344.5436-.1605-.4041-.2127-1.3151-.3583-.6942.1283l.1506.0322Zm2.4686 1.4877c.1479-.2488-.6201-.1421 0 0Zm-.7501-.5887c.868.2425-.73-.542-.2142-.0892l.1143.0511.0999.0381Zm1.504.8583c-.7426-.1119.8221.0078 0 0Zm-3.5389-2.2269c-.0321-.1512-.2028.0126 0 0Zm4.9295 2.9971c.0219-.273-.2683.2032 0 0Zm-3.5265-2.1488c-.0497-.1438-.2569-.0059 0 0Zm-1.325-.9432c.472-.028-.6461-.2054 0 0Zm-1.5696-1.0018c-.0587-.2234-.5136-.4016 0 0Zm4.1206 2.5821c-.0406.0213-.0864-.0974 0 0Zm2.5648 1.554c-.0082-.1487-.1396.0563 0 0Zm-2.7918-1.7855c.0462-.1916-.4024-.058 0 0Zm-1.9107-1.1956c.3511-.0372-.5625-.2344 0 0Zm3.2322 1.983c.5472-.214-.5333-.1045 0 0Zm-1.6813-1.1268c.6307.0802-.7503-.4235-.1383-.0451l.1383.0451Zm2.1917 1.3306c.5888-.3476.3947.8138.9989.0981.596-.4297-.5147.5312.2198.0766.5312-.3508 1.3158.1663 1.8115.335.3565-.0173.703.3043 1.0684.1087.7035-.1871-1.3755-.2775-.8306-.6094-.6436.1849-1.1192-.2205-1.4359-.6276-.722-.1646-1.5568-.5291-1.9171-1.16-.1469-.2368.2122.0334-.1268-.3538-.4351-.3821-.6523-.8158-.9444-1.2802-.3489-.1838-.3895-.7247-.4248-.0181.0028-.446-.4213-.7461-.5247-.6214-.0019-.4294.4537-.2141.1348-.5319-.0687-.4451-.2947-.9089-.3627-1.4115-.1055-.2422-.0148-.7611-.3602-.2127-.1259.5796-.0418-.7122.1539-.2862.2569-.4347-.0922-.3836-.1065-.3232.1673-.3668.1059-.887-.0437-.6886.0892-.3887.1409-1.4306-.1334-1.2459.1662-.4065.3153-1.86-.4065-1.3058-.2926.004-.7992.1048-1.0386.2224.7508.4086-.0755.1476-.3812.0826-.0398.3782-.3425.2146-.7207.2183.604.0738-.2942.61-.6407.4017-.45.2124.3884.7426.009.9065.0466.2471-.6895-.0893-.6317.4814-.4369-.1814-.0601.677.1585.3867.743.1985.5231.6513.542 1.0814-.121.2505-.5977-.5891-.1061-.5502-.3879-.6221-.429-.2249-.7514.0641-.075.021.8221.4112.2592.6042.4953.0754.5094.5034.6102.7742.2977.3061.2367-.3381.593.0298-.2255-.3277-1.194-.9235-.4142-.7324-.0042-.3299-.141-.5959.0979-.5895.2365-.423-.2478 1.0431.2855.5054.1476-.0636.1841-.4235.4495.034.3854.3744.1392.6456-.4044.3029.0972.3257.7272.4422.6088.9516.1255.4481.3011.2831.4542.2572.12.4353.1882.1152.1939-.092.5498.1162.421.4371.593.6613.3788.1688-.5422-1.1444.1081-.3949.6843.61.2567.8646-.3574.7669.3887-.031.514.5187 1.0001.4994.4433.2083.7435 1.008-.0207.6751-.265-.2359-1.2028-.527-.4368-.0782.7075.3235 1.2694.517 1.9517.9231.4884.3442.6994.7384.8845.8165-.4105.1935-1.2369-.1546-.6232-.2613-.3828-.0688-.8133-.2599-.4467.2109.3118.2571 1.1045.2298 1.2466.259-.1204.262-.3272.2829.005.3032-.3706.195.1188.2251.1531.3366Zm-.7577-2.1128c-.2254-.2327-.2837-.6688-.04-.2894.1249.0496.4003.7126.04.2894Zm2.4676 1.5477c.1406-.009.0041.1055 0 0Zm-2.8236-2.1184c.0816.2714-.0086-.352 0 0Zm-.2452-.3258c.3575.1532-.2836-.541 0 0Zm-2.972-2.0254c.1666-.0439.082.2813 0 0Zm2.3653 1.2659c.1203.3183.1023-.3793 0 0Zm-1.671-1.1473c.2464.1964-.1178-.2093 0 0Zm1.4341.454c-.2686-.5943.1902-.3246.0594.0974l-.0594-.0974Zm-2.4731-1.6285c-.1201-.195-.3188-.767-.2548-.9417.0579.2844.6125 1.224.2721.3892-.3763-.6997.4497.2272.5347.4017.0395.1736-.2321-.0474-.0481.3597-.3357-.4635-.1981.256-.5039-.2089Zm-.7643-.52c.175.3108.0314-.4534 0 0Zm.3438.1168c.2782.477.164-.3421 0 0Zm-.827-.6317c-.2846-.2792-.4905-.5366.0133-.1733.194.0075-.4313-.5852.0467-.1882.5027.0905.2483.8138-.06.3615Zm.4344-.0112c.1652-.1617.0877.1592 0 0Zm.2673.0846c.304.1944-.2505-.4636 0 0Zm-.5314-.5014c-.8272-.7269 1.0395.3801.1351.1348l-.1351-.1348Zm2.3702 1.3597c-.358-.2119-.0949-1.4919.0272-.6165.348-.1111-.0192.4521.2403.4469-.0409.3554-.157.4832-.2675.1696Zm.8766.5116c.0739.2638.0352-.3857 0 0Zm-.1522-.1485c.0394-.1648.004.194 0 0Zm-2.9323-1.9617c-.5315-.7239 1.5445.7324.3404.1837-.1259-.0325-.2773-.0441-.3404-.1837Zm1.6882.8838c.1123.1011-.0503-.6096 0 0Zm1.2817.8118c.0992-.3472.0074.2297 0 0Zm-2.8885-1.9719c.3158-.0667 1.309.5478.397.1755-.1014-.1107-.3174-.0604-.397-.1755Zm2.7124 1.3348c.0337-.6233.1885-.3723.0011.0893l-.0011-.0893Zm-2.4773-1.5517c.1287-.1864-.3416-.8427.0678-.2354.1769.1388.5122.2325.2162.2909.4656.4056-.1136.1099-.284-.0555Zm2.3431 1.357c.0889-.71.0784.416 0 0Zm-2.6119-2.0128c.0983-.0415.052.1293 0 0Zm.6112.3592c.2902.3634.1573-.3259 0 0Zm1.724.9469c.0325.1821-.0017-.1252 0 0Zm-.0999-.2183c.2226.3086-.2393-.5829 0 0Zm-.1469-.3822c.1365.3026-.0402-.2408 0 0Zm.2391-.3837c-.1642-.2857.2074-1.2591.2488-.6554-.1733.4703-.05.7335.0709.1026.2233-.4965-.0482.9798-.3197.5528Zm.2457-1.4475c.0716-.0868.0159.1045 0 0Zm-.4103 7.9837c.0122.0534-.0973-.0838 0 0Zm.8453.4223c.4703.1191.4679-.0723.0429-.1291-.2286-.21-.9499-.4327-.3043-.0261.0427.107.1778.1045.2614.1552Zm-1.6695-1.0949c.2591.1907.9758.5406.369.0726.2046-.2347-.3915-.3596-.1937-.5166-.503-.3038-.3968-.2768-.0444-.2673-.6045-.2667.0872-.2468.0546-.3835-.233-.0454-1.1576-.4058-.6137.0296-.553-.2783-.1318.1037-.2989.0633-.5654-.1522.5035.4253-.0898.2819.3244.2538.8731.6502.1371.2686-.0969.1378.5267.3468.6798.4514Zm.8841.5015c1.075.342-.527-.4179 0 0Zm4.526 2.7072c.0138-.2106-.147.1796 0 0Zm.4651.1933c.2481-.2373.0102.378.411-.0581.0043-.3122-.0123-.4966-.4606-.1174-.1236.0677-.1788.3554.0496.1755Zm-7.3842-4.5789c-.0762-.2956-.5339-.2941 0 0Zm.4968.3214c-.1845-.302-.6582-.2734 0 0Zm2.8258 1.6827c.2759.242 1.2672.1776.3351.0298-.138-.2015-.8765-.153-.3351-.0298Zm3.8847 2.3688c.4246-.3518-.4114.157 0 0Zm.8831.5993c.0027-.1129-.183.0494 0 0Zm.0014-.1581c-.4556.0291.4702-.4919 0 0Zm-9.3135-5.824c-.4008-.5646-.2491-.8184-.6356-1.2794-.0732-.3525-.663-1.1525-.3051-.305.3278.4957.4253 1.2631.9407 1.5844Zm9.166 5.6676c.8651-.5521-.3551-.2405 0 0Zm.6604.2554c.4332-.3672-.274-.0768 0 0Zm-8.752-5.5372c.124-.1821-.3201-.0233 0 0Zm8.6141 5.3628c.4195-.267-.0966-.226-.076.0246l.076-.0246Zm-5.6926-3.5427c-.0144-.1804-.2215.0153 0 0Zm.3518.1998c-.1118-.2232-.1719.0351 0 0Zm6.0139 3.5234c.5373-.3828-.3258-.0733-.1128.0725l.1128-.0725Zm-.2058-.0982c.4378-.3622-.4622.1605 0 0Zm1.0514.6913c.2939-.1944-.3571-.0629 0 0Zm-9.8632-6.2677c.394.0872 1.5745.958.8781.0602-.3567-.1042-.1428-.9651-.5066-.8127.2442.4028.2009.5742-.3118.3203-.6444-.3106-.3621.1539-.2362.2819-.1716.0385.227.1471.1766.1503Zm-1.795-1.3997c.0706-.288-.6494-1.5847-.34-.6497.1118.1959.1004.567.34.6497Zm3.2946 2.0055c-.0096-.0237-.2028-.1675 0 0Zm.4996.1148c-.0002-.3051-.5522-.1239 0 0Zm4.3294 2.6948c-.3264-.0048-.0826-.2084 0 0Zm.2079.15c-.0307-.1167-.1199.0225 0 0Zm1.716 1.0672c.1651-.1204-.2059-.0154 0 0Zm-9.1508-5.8063c.472-.1804-.5058-.1287 0 0Zm6.8458 4.2585c-.0053-.3018-.301.0748 0 0Zm-7.0323-4.6876c.3032-.1012-.2806-.0666 0 0Zm.8801.4209c-.0055-.0991-.0931.0376 0 0Zm10.7352 6.4999c.3899-.0781 1.2785.1959 1.4221-.1021-.4735-.0114-1.6383-.3299-1.6934.076l.1037.0161.1676.01ZM9.7036 27.0228c.0068-.3057-.2415-.0114 0 0Zm-2.314-1.585c-.1052-.5825-.3998-.0881 0 0Zm.5517.137c.0068-.1871-.505-.1683 0 0Zm.3154.1529c-.0714.0921-.0912-.0729 0 0Zm1.9843 1.2569c.0934-.0848-.2212-.0628 0 0Zm-2.1943-1.6018c-.0534-.44-.6392-.0659 0 0Zm-1.1314-.7248c-.016-.2031-.1103.0766 0 0Zm.1683-.1255c-.0275-.2408-.1445.0307 0 0Zm.9298.548c.3932-.1525-.7162-.3154-.0803-.0288l.0803.0288ZM20.4575 32.67c.2517-.2278-.3198-.0704 0 0Zm1.5034.7694c.1008-.2945-.254.0388 0 0ZM8.1084 24.5993c.0415-.2849-.3117.0566 0 0Zm-1.3229-.8751c-.071-.4022-.0613-1.1083.6184-.8697-.9073.1779.628 1.1135.4341.3748.3816.0184.7464-.2226.5462.1432.7517-.082 1.2728-.7256 1.9989-.6354.5656-.0739 1.184-.1299 1.7935-.3547.5011-.0357.9835-.5684.7089-.8842-.6834-.0571-1.3988.0274-2.1541.1756-.837.1718-1.5973.4982-2.4419.6383-.8231.1092.1656.3009-.0702.3436-.4295.1471.5123.2464-.0556.4015-.3508-.0659-.7159-.1849-.566-.5498-.7886.101-1.4815.4241-.8585 1.2164l.0463.0004Zm1.9-.9555c.185-.6725.9906.5534.3031.0894-.082-.0607-.2171-.1102-.303-.0894Zm.036-.326c.2669-.1963.142.11 0 0Zm.3389.0053c.024-.3094.7756.1638.1239.1114l-.124-.1114Zm.4635-.184c.1692-.1953.0486.1737 0 0Zm.1185-.0784c.2819-.3343 1.596-.2134.6341-.0326-.2578-.1917-.4555.113-.634.0326Zm1.7151-.261c.852.3245-.0429-.9133 0 0Zm.4866-.0027c.1779-.4603.6904-.1847.0823-.0925.0132.049-.0178.2377-.0823.0925Zm-3.9276 2.4412c.5316-.3214-.5643-.2789 0 0Zm.393.1078c.1865-.1957-.4049-.0794 0 0Zm-1.158-.8115c.3037-.2304-.3595-.0876 0 0Zm15.6967 9.6959c.0088-.2673-.2321.1204 0 0Zm-1.595-1.0748c.0454-.3077-.2049.0269 0 0Zm2.0336 1.1784c.4247.0014 1.2868-.1302.3627-.1298-.145.0223-.8449.0175-.3627.1298ZM8.6553 24.2823c.3437-.0233.5378-.3744-.0664-.3542-.9365-.0957.8262.3166-.1202.1987-.1271.0832.1792.1785.1866.1555Zm.3027.1513c-.0358-.2179-.1063.1157 0 0Zm.3591-.9454c.1492-.1827-.2064-.0488 0 0Zm-1.143-1.8866c.6134-.206 1.4522-.4375 1.7418.1015-.2948-.3503-.119-.6951.1595-.183.3936.5182.5907-.2357.3346-.4095.2918.358.6237.5271.1954.0226.4654-.5527-.9319.0724-1.2495.0661-.1528.0678-1.5777.3588-1.1819.4023Zm.3594-.6798c.3499-.2607 1.21.1551.658-.2591-.054-.047-1.2086.3141-.658.2591Zm1.2754.052c.4094.0103-.1766-.5431.3113-.2923-.0801-.2585-.568-.3068-.8066-.4101-.1349.2363.2746.7056.4953.7024Zm-1.0517-1.1431c.1416-.1896-.2483.0961 0 0Zm.5212.1232c.6598-.0864-.1681-.2805-.133-.0069l.133.0069Zm-.9733-.752c-.4645-.5988.8737.1007.4017-.5263-.3973-.3123-.779.3515-.4017.5263Zm5.962 3.1708c.2131-.373-.8797-.5027-.1435-.1322.0678.0224.0524.158.1435.1322Z"/>
  <path fill="#000" d="M24.3247 19.8004c-.0762.2966-.1233.7947-.1412 1.4941 0 .1373-.0628.2059-.1883.2059-.1256 0-.213-.0598-.2623-.1793-.1345-.3232-.2623-.549-.3834-.6773-.1435-.1506-.334-.2413-.5717-.2723-.2555-.0398-.8922-.0598-1.91-.0598-.2332 0-.3856.0244-.4573.0731-.0449.031-.0673.0974-.0673.1992v3.0082c0 .1018.065.1505.195.1461.3991-.0044.9775-.031 1.7352-.0797.148-.0177.2478-.0653.2993-.1428.0516-.0774.102-.2778.1513-.601.0314-.177.1368-.2457.3161-.2058.1525.031.2175.0996.1951.2058-.1256.6021-.1659 1.3857-.1211 2.3508.0045.1151-.0695.1771-.2219.186-.1256.0132-.204-.0532-.2354-.1993-.1166-.5533-.3329-.8488-.649-.8865-.3161-.0376-.8306-.0564-1.5435-.0564-.0807 0-.1211.0288-.1211.0863v2.9883c0 .2213.0829.3719.2488.4515.1301.0665.4103.1262.8407.1793.2197.0222.3161.1174.2892.2856-.0269.1461-.2241.2036-.5918.1726-1.0626-.0841-1.9392-.0796-2.6297.0133-.1928.0266-.2892-.0509-.2892-.2324 0-.1151.0964-.1815.2892-.1992.4394-.0487.6591-.4294.6591-1.1422v-5.6844c0-.2922-.0527-.5168-.158-.674-.1054-.1572-.3016-.2999-.5885-.4283-.1794-.0797-.2466-.1882-.2018-.3254.0224-.0841.0583-.1306.1076-.1395.0449-.0132.1637-.0044.3565.0266.2824.0443.9483.0664 1.9975.0664 1.2375 0 2.3068-.0265 3.208-.0797.3004-.0177.4506.0067.4507.0731a.2197.2197 0 0 1-.0068.0531ZM28.6963 28.2406c0 .1771-.1008.2546-.3026.2324-.6188-.0575-1.3855-.0487-2.3001.0266-.1839.0177-.2971.0133-.3397-.0133-.0426-.0265-.0639-.0996-.0639-.2191 0-.1063.1222-.1959.3666-.269.2443-.073.3665-.291.3665-.6541v-6.0097c0-.3586-.0527-.622-.158-.7903-.1054-.1682-.2904-.2988-.5549-.3918-.139-.0486-.2085-.1173-.2085-.2058 0-.1328.1009-.2324.3027-.2988.3048-.0974.6209-.248.9483-.4516.269-.1594.4394-.2391.5111-.2391.1659 0 .2488.1129.2488.3387 0-.0177-.0089.2037-.0269.6641a31.4731 31.4731 0 0 0-.0134 1.2949l.0269 5.9301c0 .27.0672.4659.2018.5877.1345.1217.3654.2025.6927.2423.2018.0222.3026.0974.3026.2258ZM34.83 27.7957c0 .093-.1715.2335-.5145.4217-.343.1881-.6177.2822-.8239.2822-.1749 0-.3296-.0841-.4641-.2523-.1345-.1683-.2286-.2524-.2824-.2524-.0404 0-.2534.0908-.639.2723s-.7734.2722-1.1635.2722c-.3677 0-.6748-.1062-.9214-.3187-.269-.2346-.4035-.5534-.4035-.9563 0-.7658.8877-1.3148 2.6633-1.6468.3049-.0576.4596-.1793.4641-.3653l.0134-.425c.0269-.726-.2982-1.089-.9752-1.089-.1928 0-.3755.1704-.5481.5113-.1727.3409-.4204.5246-.7432.5512-.3677.0354-.5515-.1173-.5515-.4582 0-.2125.2735-.4604.8205-.7438.5739-.2966 1.1254-.4449 1.6545-.4449.9102 0 1.3608.4272 1.3518 1.2816l-.0269 2.736c-.0045.2877.1188.4316.3699.4316.0494 0 .1435-.011.2825-.0332.139-.0221.2197-.0332.2421-.0332.1301 0 .1951.0863.1951.259Zm-2.0715-1.5141c.0045-.1106-.0213-.1837-.0773-.2191-.0561-.0354-.1446-.0421-.2657-.0199-1.0806.1903-1.6209.5379-1.6209 1.0425 0 .5092.2803.7637.8407.7637.2242 0 .4551-.042.6928-.1262.278-.0973.4169-.2147.417-.3519l.0134-1.0891ZM39.8473 27.0055c0 .4692-.1827.8422-.5482 1.1189-.3654.2767-.8642.4151-1.4964.4151a6.131 6.131 0 0 1-1.2644-.1329c-.3632-.0796-.5739-.1527-.6322-.2191-.0359-.062-.0538-.3652-.0538-.9098 0-.2346.0538-.3563.1614-.3652.1076-.0133.1995.0443.2758.1727.3362.5799.8788.8699 1.6275.8699.6322 0 .9483-.2169.9483-.6508 0-.1904-.0717-.3497-.2152-.4781-.1569-.1461-.4618-.3166-.9147-.5114-.6546-.2877-1.0917-.5401-1.3114-.757-.2377-.2302-.3565-.5401-.3565-.9297 0-.4781.1861-.85.5582-1.1156.3453-.2568.8071-.3851 1.3855-.3852.3632.0001.695.0288.9954.0864.3228.0575.4909.1284.5044.2125.0359.2479.1098.6065.2219 1.0758.0135.0575-.0493.104-.1883.1394-.1479.031-.2466.0067-.2959-.073-.3542-.5711-.8026-.8567-1.3451-.8567-.6143 0-.9214.1948-.9214.5844 0 .2169.0829.3896.2488.518.148.1106.4955.2833 1.0425.5179.5739.2435.964.4627 1.1702.6575.269.2523.4036.591.4036 1.016ZM47.6489 28.2008c0 .1549-.1053.2368-.3161.2457-.3138.0044-.7241.0266-1.2307.0664-.2511.0487-.4305.0177-.5381-.093-.7084-.7526-1.3092-1.5406-1.8024-2.364-.0404-.0709-.0919-.1063-.1547-.1063-.0762 0-.2085.0664-.3968.1992-.2107.1151-.3161.2789-.3161.4914 0 .1506.0045.3675.0134.6508.009.2834.0807.4693.2153.5578.0941.062.3116.1107.6523.1461.2108.0266.3161.1041.3161.2324 0 .1019-.0168.165-.0504.1893-.0336.0244-.1222.0299-.2657.0166-.4483-.0398-1.2061-.0177-2.2732.0664-.269.0221-.4147-.0111-.4372-.0996-.0089-.031-.0134-.0753-.0134-.1328 0-.1372.1367-.2413.4103-.3121.2466-.062.3699-.3475.3699-.8567v-5.8039c0-.363-.0359-.6153-.1077-.757-.0986-.1815-.3048-.3232-.6187-.425-.148-.0487-.2219-.1173-.2219-.2059 0-.1283.1053-.2279.3161-.2988a4.2443 4.2443 0 0 0 .9617-.4582c.2466-.1594.3991-.239.4573-.239.1839 0 .2758.1151.2758.3453 0-.031-.0023.1881-.0067.6574-.0045.3232-.0068.757-.0068 1.3015l.0135 4.1571c0 .1151.0314.1726.0942.1726.0672 0 .1703-.0575.3093-.1726.3722-.2878.8295-.6641 1.372-1.1289.1076-.1107.1614-.1992.1615-.2657-.0001-.1195-.1816-.2036-.5448-.2523-.157-.0177-.2309-.104-.222-.259.0135-.1549.092-.2213.2354-.1992.3229.0443.7936.0686 1.4124.073.4304.0045.8586.0067 1.2846.0067.139.0044.2085.0863.2085.2457 0 .1505-.1099.2324-.3296.2457-.3452.0133-.6703.0908-.9752.2324-.4259.1904-.881.5246-1.3653 1.0028-.0358.0265-.0538.0597-.0538.0996 0 .0619.0762.2103.2287.4449.5604.8411 1.0895 1.4764 1.5872 1.9058.3184.2701.6165.4051.8945.4051.2063 0 .334.0144.3834.0432.0493.0288.0739.1051.0739.2291ZM29.617 30.5153c0 .0155-.0301.0314-.0903.0477-.0392.0104-.0723.0457-.0993.1059-.157.3444-.2973.622-.4211.8329-.0027.0051-.0092.0073-.0196.0064-.0096-.0008-.0162-.0038-.0197-.009-.0209-.031-.0745-.139-.1608-.3241-.0794-.1704-.1221-.2557-.1282-.2557-.0096 0-.0562.0822-.1399.2467-.095.1833-.1513.2879-.1687.3137-.0026.0061-.0087.0086-.0183.0078a.0262.0262 0 0 1-.0222-.0104c-.0637-.0981-.2102-.3667-.4394-.8057-.0262-.0516-.0554-.0843-.0877-.0981-.0558-.0241-.0837-.0418-.0837-.053 0-.0335.0188-.0486.0563-.0452.1682.0173.3156.0138.442-.0103.0288-.0051.0431.0043.0431.0284 0 .0336-.0196.0551-.0588.0646-.0514.012-.0772.031-.0772.0568 0 .0164.0061.0405.0183.0723.0314.0801.0785.1816.1413.3047.0628.1231.0994.1847.1098.1847.007 0 .0441-.0641.1112-.1924.0671-.1283.1007-.1993.1007-.2131 0-.0335-.0113-.0697-.034-.1084-.027-.0568-.0584-.0908-.0942-.102-.0575-.0198-.0863-.0392-.0863-.0581 0-.0345.0196-.0487.0589-.0426.1342.018.2763.0146.4263-.0104.0288-.0051.0431.0035.0431.0258 0 .0328-.0213.053-.064.0607-.0506.0095-.0759.0349-.0759.0762 0 .0198.0057.0431.017.0697.1343.3246.2119.4868.2328.4868.0078 0 .0427-.0632.1046-.1898.0663-.1351.1125-.244.1386-.3267a.0363.0363 0 0 0 .0027-.0142c-.0001-.037-.0293-.0658-.0877-.0865-.0453-.0146-.068-.031-.068-.049 0-.0302.0144-.0418.0432-.0349.0392.0086.1098.0151.2118.0194.0959.0034.1591.003.1897-.0013.0357-.0043.0536.0056.0536.0297ZM30.7757 31.2474c0 .037-.0506.0831-.1517.1382-.1151.0611-.2332.0917-.3544.0917-.1316 0-.2424-.0427-.3322-.1279-.0959-.0904-.1438-.2109-.1438-.3615 0-.1705.0536-.3073.1608-.4106.1003-.0964.2232-.1447.3688-.1447.0863 0 .167.0272.2419.0814.0672.0482.1116.1033.1334.1653.0079.0215.0197.0335.0353.0361.0227.0043.034.0194.034.0452 0 .0353-.0427.0654-.1281.0904l-.6029.1769c.0393.2049.1456.3073.3191.3073.1003 0 .2145-.0361.3426-.1084a.1115.1115 0 0 1 .0563-.0168c.0139 0 .0209.0125.0209.0374Zm-.3099-.5178c0-.0473-.0194-.0888-.0582-.1246-.0388-.0357-.0866-.0536-.1432-.0536-.1605 0-.2407.1141-.2407.3422v.031l.3557-.1059c.0576-.0163.0864-.046.0864-.0891ZM32.0977 30.8846c0 .1704-.0601.3133-.1804.4286-.1151.1111-.252.1666-.4107.1666-.0898 0-.1835-.0146-.2811-.0439-.0942-.0284-.1417-.0542-.1426-.0775a6.3398 6.3398 0 0 1 .0013-.2078 19.951 19.951 0 0 0 .0039-.3177c0-.0998-.0008-.2447-.0026-.4345a54.243 54.243 0 0 1-.0026-.3777c0-.062-.0096-.1046-.0288-.1278-.0174-.0207-.0553-.037-.1137-.0491-.0227-.0077-.034-.0219-.034-.0426 0-.0181.017-.0331.051-.0452.0488-.0172.1094-.046.1818-.0865.0575-.0318.0932-.0478.1072-.0478.027 0 .0405.022.0405.0659l-.0039.1343a7.7558 7.7558 0 0 0-.0013.2466l.0026.4468c0 .0421.0148.0542.0445.0361.1046-.0594.2136-.0891.3269-.0891.1308 0 .2371.039.3191.1169.0819.0779.1229.1797.1229.3054Zm-.2092.1149c0-.118-.0331-.2148-.0994-.2905-.0628-.0715-.1391-.1072-.2289-.1072a.3864.3864 0 0 0-.183.0478c-.0602.0318-.0903.0654-.0903.1007v.346c0 .1662.0929.2492.2786.2492.0967 0 .1748-.0307.2341-.0923.0592-.0615.0889-.1461.0889-.2537ZM34.2138 31.3378a.0472.0472 0 0 1 .0052.0168c0 .018-.0445.0477-.1334.0891-.1029.0473-.1635.071-.1818.071-.0157 0-.0338-.0261-.0542-.0781-.0205-.0521-.0347-.0782-.0425-.0782a9.936 9.936 0 0 1-.1485.0678c-.0998.0452-.1754.0678-.2269.0678-.1151 0-.2149-.0409-.2994-.1226-.1021-.0973-.1531-.2338-.1531-.4094 0-.1472.0602-.2741.1805-.3809.1064-.0938.2149-.1407.3256-.1407.0785 0 .1722.0099.2812.0297.034.006.051-.0039.051-.0297v-.4416c0-.05-.0122-.0852-.0366-.1059-.0157-.0138-.0528-.0301-.1112-.0491-.0279-.0103-.0418-.0271-.0418-.0503 0-.0216.0187-.0375.0562-.0478.0515-.0155.1129-.0413.1844-.0775.0593-.031.0959-.0465.1099-.0465.0322 0 .0484.022.0484.0659l-.004.1285a8.404 8.404 0 0 0-.0039.2524v1.1737c0 .0491.0222.0736.0667.0736a.3823.3823 0 0 0 .0667-.0077c.0305-.0052.051.0047.0615.0297Zm-.4041-.1278v-.4623c0-.0379-.034-.0771-.102-.1175a.452.452 0 0 0-.2354-.0646c-.1822 0-.2734.1111-.2734.3332 0 .1188.0362.2203.1086.3047.0724.0844.1574.1265.255.1265.0445 0 .0968-.0146.1569-.0439.0602-.0292.0903-.0546.0903-.0761ZM35.3475 31.2474c0 .037-.0506.0831-.1517.1382-.1151.0611-.2332.0917-.3544.0917-.1317 0-.2424-.0427-.3322-.1279-.0959-.0904-.1438-.2109-.1438-.3615 0-.1705.0536-.3073.1608-.4106.1003-.0964.2232-.1447.3688-.1447.0863 0 .1669.0272.2419.0814.0672.0482.1116.1033.1334.1653.0079.0215.0196.0335.0353.0361.0227.0043.034.0194.034.0452 0 .0353-.0427.0654-.1281.0904l-.6029.1769c.0392.2049.1456.3073.3191.3073.1002 0 .2145-.0361.3426-.1084a.1112.1112 0 0 1 .0562-.0168c.014 0 .021.0125.021.0374Zm-.31-.5178c0-.0473-.0194-.0888-.0582-.1246-.0388-.0357-.0865-.0536-.1432-.0536-.1604 0-.2406.1141-.2406.3422v.031l.3557-.1059c.0576-.0163.0863-.046.0863-.0891ZM36.7821 30.5127c0 .0163-.0274.0331-.0824.0503-.0357.0104-.0662.0457-.0915.1059-.0427.1016-.1173.2505-.2236.4468-.0898.1661-.1591.2875-.208.3641-.0026.006-.0082.0086-.017.0078a.0263.0263 0 0 1-.0196-.0104 5.6261 5.6261 0 0 1-.4747-.8057c-.0279-.0585-.0553-.0913-.0824-.0981-.0505-.0198-.0758-.0375-.0758-.053 0-.0344.017-.0495.051-.0452.0532.0069.1321.0086.2367.0052.1011-.0026.1722-.0078.2131-.0155.0253-.0052.038.0043.038.0284 0 .0301-.0179.0495-.0536.0581-.068.0181-.1021.0413-.1021.0697 0 .013.0044.0315.0131.0556.0297.0723.0828.1766.1596.3131.0767.1364.1203.2046.1307.2046.0079 0 .0449-.0654.1112-.1962.0698-.1386.1199-.2505.1504-.3357a.067.067 0 0 0 .0065-.0284c0-.0336-.0209-.0612-.0627-.0827-.041-.0163-.0615-.0318-.0615-.0465 0-.0301.0135-.0426.0405-.0374.0349.006.0964.0112.1844.0155.0881.0043.1452.0051.1713.0026.0323-.0061.0484.003.0484.0271ZM37.9421 31.2474c0 .037-.0506.0831-.1517.1382-.1151.0611-.2332.0917-.3544.0917-.1317 0-.2424-.0427-.3322-.1279-.0959-.0904-.1438-.2109-.1438-.3615 0-.1705.0536-.3073.1608-.4106.1003-.0964.2232-.1447.3688-.1447.0863 0 .167.0272.2419.0814.0672.0482.1116.1033.1334.1653.0079.0215.0196.0335.0353.0361.0227.0043.034.0194.034.0452 0 .0353-.0427.0654-.1281.0904l-.6029.1769c.0392.2049.1456.3073.3191.3073.1003 0 .2145-.0361.3426-.1084a.1112.1112 0 0 1 .0563-.0168c.0139 0 .0209.0125.0209.0374Zm-.31-.5178c0-.0473-.0194-.0888-.0582-.1246-.0387-.0357-.0865-.0536-.1432-.0536-.1604 0-.2406.1141-.2406.3422v.031l.3557-.1059c.0576-.0163.0863-.046.0863-.0891ZM38.7503 31.4269c0 .0344-.0196.0495-.0588.0452-.1203-.0112-.2694-.0095-.4473.0051-.0357.0035-.0577.0026-.066-.0025-.0083-.0052-.0124-.0194-.0124-.0427 0-.0206.0237-.038.0712-.0523.0476-.0142.0713-.0566.0713-.1271V30.084c0-.0697-.0102-.1209-.0307-.1537-.0205-.0327-.0565-.0581-.1079-.0761-.027-.0095-.0406-.0229-.0405-.0401-.0001-.0258.0196-.0452.0588-.0581a.829.829 0 0 0 .1844-.0878c.0523-.031.0854-.0465.0994-.0465.0322 0 .0484.022.0484.0659 0-.0034-.0018.0396-.0053.1291-.0026.0852-.0035.1692-.0026.2518l.0053 1.1531c0 .0525.013.0906.0392.1142.0261.0237.071.0394.1347.0472.0392.0043.0588.0189.0588.0439ZM40.0174 30.944c0 .1497-.0562.2765-.1687.3802-.1124.1038-.2519.1556-.4184.1556-.1666 0-.2982-.0456-.395-.1369-.0933-.0895-.1399-.2078-.1399-.355 0-.1524.0588-.2807.1765-.3848.1142-.1007.2507-.1511.4094-.1511.17 0 .3025.0452.3975.1356.0924.0878.1386.2066.1386.3564Zm-.2301.0787c0-.1351-.0332-.2449-.0994-.3292-.0645-.0818-.1465-.1227-.2459-.1227-.0924 0-.1678.0321-.2262.0962-.0584.0641-.0876.1422-.0876.2343 0 .1481.034.2635.102.3461.0627.0757.1447.1136.2458.1136.0959 0 .1718-.0314.2276-.0942.0558-.0629.0837-.1442.0837-.2441ZM41.384 30.9091c0 .161-.0547.2976-.1641.41-.1094.1123-.2369.1685-.3825.1685a.7144.7144 0 0 1-.255-.0465c-.0087-.0035-.0131.0176-.0131.0633v.3886c0 .0629.0519.1033.1556.1214.048.0086.0783.0166.0909.0239.0127.0073.019.0196.019.0368 0 .0292-.0196.0426-.0589.04-.1831-.012-.3439-.0077-.4825.0129-.0288.0043-.0467.0043-.0536 0-.007-.0043-.0105-.0159-.0105-.0348 0-.0147.0248-.0323.0745-.053.0428-.0172.0641-.0585.0641-.1239v-1.1389c0-.0921-.0257-.1498-.0771-.173-.0611-.0267-.0916-.0487-.0916-.0659 0-.0189.0179-.0331.0536-.0426a.5364.5364 0 0 0 .1426-.0594c.041-.0232.0658-.0349.0745-.0349.0262 0 .0475.0237.0641.0711.0244.0688.0405.1033.0484.1033.0017 0 .0392-.0203.1125-.0607.0802-.0439.1586-.0659.2353-.0659.1247 0 .2276.0349.3087.1046.0967.0818.1451.2001.1451.3551Zm-.2223.1033c0-.1403-.0353-.2496-.1059-.328-.0575-.0654-.1251-.0981-.2027-.0981-.0602 0-.1177.0206-.1726.062-.0724.0533-.1086.1278-.1086.2234v.3654c0 .0232.0332.0477.0994.0736a.625.625 0 0 0 .2328.0426c.1717 0 .2576-.1136.2576-.3409ZM43.7472 31.4295c0 .0284-.0135.0417-.0405.04-.1779-.0129-.3435-.0129-.497 0-.034.0026-.051-.0125-.051-.0452 0-.0258.0231-.0396.0693-.0413.0584-.0035.0877-.0504.0877-.1408v-.3434c0-.1929-.0794-.2893-.2381-.2893a.5743.5743 0 0 0-.2301.0452c-.0637.0267-.0959.0534-.0968.0801l-.0052.5126c0 .0534.0065.0887.0196.1059.0096.012.0309.0206.0641.0258.0767.0129.1151.0288.1151.0478 0 .0163-.0022.0275-.0066.0336-.0052.0086-.0209.0124-.0471.0116-.0994-.0035-.2441-.0017-.4341.0051-.0271.0009-.0445-.0013-.0523-.0064-.0079-.0052-.0118-.0172-.0118-.0362 0-.0224.0248-.0361.0745-.0413.0541-.006.0811-.0547.0811-.1459v-.3512c0-.0947-.0218-.1679-.0654-.2195-.0383-.0465-.0872-.0698-.1465-.0698-.0871 0-.1656.0175-.2353.0523-.0698.0349-.1047.0721-.1047.1117v.4713c0 .0534.014.0904.0419.1111.0253.0189.071.0305.1373.0348.0357.0018.0536.0138.0536.0362 0 .025-.0144.0374-.0431.0374-.218 0-.3758.0061-.4734.0181-.0332.0043-.0545.0043-.0641 0-.0079-.0043-.0118-.0146-.0118-.031 0-.0215.0323-.04.0968-.0555.0392-.0103.0588-.0607.0588-.1511v-.3964c0-.1007-.0274-.1588-.0824-.1743-.0462-.0129-.0743-.0224-.0843-.0284-.01-.006-.015-.0159-.015-.0297 0-.0155.0453-.0482.136-.0981.0959-.0534.1547-.0801.1765-.0801.0183 0 .0338.0261.0464.0781.0127.0521.0225.0782.0295.0782.0095 0 .0361-.0134.0797-.0401a.8606.8606 0 0 1 .1465-.0749.6108.6108 0 0 1 .221-.0413c.061 0 .1142.0129.1595.0387a.2992.2992 0 0 1 .0851.0711l.0313.0387.068-.0387a.9176.9176 0 0 1 .1557-.0711.6543.6543 0 0 1 .2157-.0387c.2389 0 .3584.1296.3584.3887v.4183c0 .0491.0117.084.0353.1046.0209.0172.0619.0319.1229.0439.0462.0086.0693.0215.0693.0388ZM44.8522 31.2474c0 .037-.0505.0831-.1517.1382-.115.0611-.2332.0917-.3544.0917-.1316 0-.2423-.0427-.3321-.1279-.0959-.0904-.1439-.2109-.1439-.3615 0-.1705.0536-.3073.1609-.4106.1002-.0964.2232-.1447.3688-.1447.0863 0 .1669.0272.2419.0814.0671.0482.1116.1033.1334.1653.0078.0215.0196.0335.0353.0361.0227.0043.034.0194.034.0452 0 .0353-.0427.0654-.1282.0904l-.6028.1769c.0392.2049.1456.3073.319.3073.1003 0 .2145-.0361.3427-.1084a.1112.1112 0 0 1 .0562-.0168c.014 0 .0209.0125.0209.0374Zm-.3099-.5178c0-.0473-.0194-.0888-.0582-.1246-.0388-.0357-.0865-.0536-.1432-.0536-.1604 0-.2406.1141-.2406.3422v.031l.3557-.1059c.0575-.0163.0863-.046.0863-.0891ZM46.4215 31.4411c0 .0267-.0196.0387-.0588.0361-.1875-.0094-.3296-.0112-.4264-.0051-.0497.0034-.0767-.0026-.081-.0181a.07.07 0 0 1-.0027-.022c0-.0172.0253-.0327.0759-.0464.0462-.013.0693-.0573.0693-.133v-.3435c0-.1971-.0867-.2957-.2602-.2957a.4438.4438 0 0 0-.2158.0542c-.0628.0353-.0942.0719-.0942.1098v.4726c0 .0809.0536.1261.1609.1356.0409.0034.0614.0163.0614.0387 0 .0215-.0056.0344-.017.0387-.0052.0018-.02.0022-.0444.0013a2.5403 2.5403 0 0 0-.4237.0207c-.0314.0043-.051.0056-.0589.0039-.0174-.0035-.0261-.0168-.0261-.0401 0-.0206.0248-.0383.0745-.0529.0462-.0138.0693-.071.0693-.1717v-.3913c0-.0663-.0087-.1085-.0261-.1265-.0122-.0129-.0528-.031-.1217-.0543-.0174-.006-.0261-.018-.0261-.0361 0-.0172.0179-.0323.0536-.0452.0488-.0181.1024-.0469.1609-.0865.0488-.0327.0802-.0491.0941-.0491.0235 0 .0392.0265.0471.0794.0078.053.0187.0794.0327.0794-.007 0 .0375-.0251.1334-.0755.0959-.0504.1905-.0755.2838-.0755.2258 0 .3395.1269.3413.3809l.0026.4158c0 .0533.0139.0916.0418.1149.021.0172.0615.0318.1217.0439.0392.0077.0588.0219.0588.0426ZM47.261 31.3429c0 .0414-.0383.0767-.115.1059a.5787.5787 0 0 1-.2067.0388c-.1892 0-.2837-.0995-.2837-.2983v-.4674c0-.0594-.0048-.0958-.0144-.1092-.0096-.0133-.0414-.0264-.0955-.0393-.0139-.0035-.0209-.0168-.0209-.0401 0-.0249.0052-.04.0157-.0452.0941-.0456.1761-.1274.2458-.2453.0096-.0163.0284-.0215.0563-.0155.0191.006.0292.0172.03.0336l.0053.1614c0 .012.0022.0207.0065.0258.0061.0078.0201.0116.0419.0116h.2916c.0166 0 .0166.0203 0 .0607-.0201.0491-.0497.0736-.0889.0736h-.1975c-.034 0-.0549.0056-.0628.0168-.0061.0078-.0091.0289-.0091.0633v.4222c0 .1068.0096.1743.0287.2027.0253.0362.0842.0543.1766.0543a.515.515 0 0 0 .1111-.0149 1.1694 1.1694 0 0 1 .0694-.0148c.0104 0 .0156.0064.0156.0193ZM47.8548 31.4011c0 .2238-.0955.3921-.2864.5048-.0175.0104-.0301.0155-.038.0155-.0122 0-.0235-.0137-.034-.0413a.073.073 0 0 1-.0052-.0232c0-.0147.0249-.0388.0746-.0723.0854-.0586.1281-.1249.1281-.1989 0-.0379-.0248-.0723-.0745-.1033-.0698-.043-.1046-.096-.1046-.1588a.1403.1403 0 0 1 .0431-.1052c.0288-.028.0671-.042.1151-.042.0575 0 .1022.0207.134.062.0319.0413.0478.0955.0478.1627ZM29.0219 33.324c0 .1497-.0562.2765-.1687.3802-.1124.1038-.2519.1556-.4184.1556-.1665 0-.2982-.0456-.395-.1368-.0933-.0896-.1399-.2079-.1399-.3551 0-.1524.0589-.2807.1765-.3848.1143-.1007.2507-.1511.4094-.1511.17 0 .3025.0452.3975.1356.0924.0878.1386.2066.1386.3564Zm-.2301.0787c0-.1351-.0331-.2449-.0994-.3292-.0645-.0818-.1465-.1227-.2459-.1227-.0924 0-.1678.0321-.2262.0962-.0584.0641-.0876.1422-.0876.2343 0 .1481.034.2635.102.3461.0628.0758.1447.1136.2458.1136.0959 0 .1718-.0314.2276-.0942.0558-.0629.0837-.1442.0837-.2441ZM30.6135 33.8211c0 .0267-.0196.0387-.0588.0361-.1875-.0094-.3296-.0111-.4263-.0051-.0497.0034-.0768-.0026-.0811-.0181a.0705.0705 0 0 1-.0026-.022c0-.0172.0252-.0327.0758-.0464.0462-.013.0693-.0573.0693-.133v-.3435c0-.1971-.0867-.2957-.2602-.2957a.444.444 0 0 0-.2158.0542c-.0628.0353-.0942.0719-.0942.1098v.4726c0 .0809.0537.1261.1609.1356.041.0034.0615.0163.0615.0387 0 .0215-.0057.0344-.017.0387-.0053.0018-.0201.0022-.0445.0013a2.5403 2.5403 0 0 0-.4237.0207c-.0314.0043-.051.0056-.0589.0039-.0174-.0035-.0261-.0168-.0261-.0401 0-.0206.0248-.0383.0745-.0529.0462-.0138.0693-.071.0693-.1717v-.3913c0-.0663-.0087-.1084-.0261-.1265-.0122-.0129-.0528-.031-.1216-.0543-.0175-.006-.0262-.018-.0262-.0361 0-.0172.0179-.0323.0536-.0452.0488-.0181.1025-.0469.1609-.0865.0488-.0327.0802-.0491.0941-.0491.0236 0 .0393.0265.0471.0794.0078.053.0187.0794.0327.0794-.007 0 .0375-.0251.1334-.0755.0959-.0504.1905-.0755.2838-.0755.2258 0 .3395.1269.3413.3809l.0026.4158c0 .0533.014.0916.0419.1149.0209.0172.0614.0318.1216.0439.0392.0077.0588.0219.0588.0426ZM31.7067 33.6274c0 .037-.0505.0831-.1517.1382-.1151.0611-.2332.0916-.3544.0916-.1316 0-.2423-.0426-.3321-.1278-.0959-.0904-.1439-.2109-.1439-.3615 0-.1705.0536-.3074.1609-.4107.1002-.0964.2232-.1446.3687-.1446.0864 0 .167.0271.242.0814.0671.0482.1116.1033.1334.1652.0078.0216.0196.0336.0353.0362.0226.0043.034.0194.034.0452 0 .0353-.0427.0654-.1282.0904l-.6029.1769c.0393.2049.1456.3073.3191.3073.1003 0 .2145-.0362.3427-.1085a.111.111 0 0 1 .0562-.0168c.014 0 .0209.0125.0209.0375Zm-.3099-.5178c0-.0473-.0194-.0889-.0582-.1246-.0388-.0357-.0865-.0536-.1432-.0536-.1604 0-.2406.1141-.2406.3422v.031l.3557-.1059c.0575-.0164.0863-.0461.0863-.0891ZM33.8004 33.7178a.048.048 0 0 1 .0053.0168c0 .0181-.0445.0477-.1334.0891-.1029.0473-.1635.071-.1818.071-.0157 0-.0338-.0261-.0543-.0781-.0205-.0521-.0346-.0782-.0425-.0782a8.975 8.975 0 0 1-.1484.0678c-.0998.0452-.1755.0678-.2269.0678-.1151 0-.2149-.0409-.2995-.1226-.102-.0973-.153-.2338-.153-.4094 0-.1472.0602-.2741.1805-.3809.1063-.0938.2149-.1407.3256-.1407.0785 0 .1722.0099.2812.0297.034.006.051-.0039.051-.0297v-.4416c0-.0499-.0122-.0852-.0366-.1059-.0157-.0138-.0528-.0301-.1112-.0491-.0279-.0103-.0418-.0271-.0418-.0503 0-.0215.0187-.0375.0562-.0478.0514-.0155.1129-.0413.1844-.0775.0593-.031.0959-.0465.1098-.0465.0323 0 .0484.022.0484.0659l-.0039.1285a8.404 8.404 0 0 0-.0039.2524v1.1737c0 .0491.0222.0736.0667.0736a.3833.3833 0 0 0 .0667-.0077c.0305-.0052.051.0047.0614.0297Zm-.4041-.1278v-.4623c0-.0379-.034-.077-.102-.1175a.4525.4525 0 0 0-.2354-.0646c-.1822 0-.2733.1111-.2733.3332 0 .1188.0362.2203.1086.3047.0723.0844.1573.1265.255.1265.0444 0 .0967-.0146.1569-.0439.0602-.0292.0902-.0546.0902-.0761ZM34.7878 32.9288c0 .1042-.0305.1563-.0915.1563-.0096 0-.0414-.0061-.0955-.0181-.054-.0121-.0937-.0181-.119-.0181-.0976 0-.1465.065-.1465.195v.3809c0 .0448.0157.0766.0471.0956.0183.0111.0641.0262.1373.0452.0393.0094.0589.0241.0589.0439 0 .0232-.0033.0372-.0098.0419-.0066.0048-.0229.0058-.0491.0032-.1918-.0198-.3435-.0206-.4551-.0025-.0348.006-.0571.006-.0667 0-.0078-.0052-.0117-.0203-.0117-.0452 0-.0233.0242-.0418.0725-.0555.0484-.0138.0726-.0551.0726-.124v-.4145c0-.0542-.0072-.0908-.0216-.1097-.0143-.019-.0538-.0444-.1183-.0762l-.0078-.0039c-.0175-.0086-.0262-.0207-.0262-.0362 0-.0172.0179-.0318.0536-.0439a.579.579 0 0 0 .1648-.0878c.041-.0318.0671-.0477.0785-.0477.0313 0 .0501.0267.0562.08.0078.068.017.102.0275.102.0008 0 .0496-.0323.1464-.0968a.371.371 0 0 1 .2093-.0633c.0627 0 .0941.0332.0941.0994ZM36.0838 33.324c0 .1497-.0562.2765-.1687.3802-.1124.1038-.2519.1556-.4184.1556-.1666 0-.2982-.0456-.395-.1368-.0933-.0896-.1399-.2079-.1399-.3551 0-.1524.0588-.2807.1765-.3848.1142-.1007.2507-.1511.4094-.1511.17 0 .3025.0452.3975.1356.0924.0878.1386.2066.1386.3564Zm-.2301.0787c0-.1351-.0332-.2449-.0994-.3292-.0645-.0818-.1465-.1227-.2459-.1227-.0924 0-.1678.0321-.2262.0962-.0584.0641-.0876.1422-.0876.2343 0 .1481.034.2635.102.3461.0627.0758.1447.1136.2458.1136.0959 0 .1718-.0314.2276-.0942.0558-.0629.0837-.1442.0837-.2441ZM37.4503 33.2891c0 .161-.0547.2976-.1641.41-.1094.1123-.2369.1685-.3825.1685a.7144.7144 0 0 1-.255-.0465c-.0087-.0035-.0131.0176-.0131.0633v.3886c0 .0629.0519.1033.1556.1214.048.0086.0783.0166.0909.0239.0126.0073.019.0196.019.0368 0 .0293-.0197.0426-.0589.04-.1831-.012-.3439-.0077-.4825.0129-.0288.0043-.0467.0043-.0537 0-.0069-.0043-.0104-.0159-.0104-.0348 0-.0147.0248-.0323.0745-.053.0427-.0172.0641-.0585.0641-.1239v-1.1389c0-.0921-.0257-.1498-.0772-.173-.061-.0267-.0915-.0487-.0915-.0659 0-.0189.0179-.0331.0536-.0426a.5378.5378 0 0 0 .1426-.0594c.0409-.0232.0658-.0349.0745-.0349.0262 0 .0475.0237.0641.0711.0244.0688.0405.1033.0484.1033.0017 0 .0392-.0203.1124-.0607.0802-.0439.1587-.0659.2354-.0659.1247 0 .2276.0349.3087.1046.0967.0818.1451.2002.1451.3551Zm-.2223.1033c0-.1403-.0353-.2496-.1059-.328-.0576-.0654-.1251-.0981-.2027-.0981-.0602 0-.1177.0207-.1726.062-.0724.0533-.1086.1278-.1086.2234v.3654c0 .0232.0331.0478.0994.0736a.625.625 0 0 0 .2328.0426c.1717 0 .2576-.1136.2576-.3409ZM39.3885 33.7204c0 .0181-.0333.0454-.1.082-.0667.0366-.1201.0549-.1602.0549-.034 0-.0641-.0164-.0903-.0491-.0261-.0327-.0444-.0491-.0549-.0491-.0078 0-.0493.0177-.1242.053-.075.0353-.1504.0529-.2263.0529-.0715 0-.1312-.0207-.1791-.062-.0523-.0456-.0785-.1076-.0785-.1859 0-.1489.1726-.2557.5179-.3202.0593-.0112.0893-.0349.0902-.0711l.0026-.0826c.0052-.1412-.058-.2118-.1896-.2118-.0375 0-.073.0332-.1066.0995-.0336.0662-.0817.102-.1445.1071-.0715.0069-.1072-.0228-.1072-.0891 0-.0413.0531-.0895.1595-.1446.1116-.0577.2188-.0865.3217-.0865.177 0 .2646.0831.2629.2492l-.0053.532c-.0008.056.0231.0839.072.0839a.4255.4255 0 0 0 .0549-.0064.5597.5597 0 0 1 .0471-.0065c.0253 0 .0379.0168.0379.0504Zm-.4028-.2944c.0009-.0215-.0041-.0357-.015-.0426-.0109-.0069-.0281-.0082-.0517-.0039-.2101.037-.3151.1046-.3151.2027 0 .099.0544.1485.1634.1485a.4038.4038 0 0 0 .1347-.0245c.0541-.019.0811-.0418.0811-.0685l.0026-.2117ZM40.2673 33.7229c0 .0414-.0384.0767-.1151.1059a.5764.5764 0 0 1-.2066.0388c-.1892 0-.2838-.0995-.2838-.2983v-.4674c0-.0594-.0048-.0958-.0144-.1091-.0096-.0134-.0414-.0265-.0955-.0394-.0139-.0035-.0209-.0168-.0209-.0401 0-.0249.0052-.04.0157-.0451.0942-.0457.1761-.1274.2459-.2454.0095-.0163.0283-.0215.0562-.0155.0192.006.0292.0172.0301.0336l.0052.1614c0 .0121.0022.0207.0065.0258.0061.0078.0201.0116.0419.0116h.2916c.0166 0 .0166.0203 0 .0607-.02.0491-.0497.0736-.0889.0736h-.1975c-.034 0-.0549.0056-.0628.0168-.0061.0078-.0091.0289-.0091.0633v.4222c0 .1068.0096.1743.0288.2027.0252.0362.0841.0543.1765.0543a.5166.5166 0 0 0 .1112-.0149 1.1987 1.1987 0 0 1 .0693-.0148c.0104 0 .0157.0064.0157.0193ZM42.1608 33.7204c0 .0181-.0333.0454-.1.082-.0667.0366-.1201.0549-.1602.0549-.034 0-.0641-.0164-.0902-.0491-.0262-.0327-.0445-.0491-.055-.0491-.0078 0-.0492.0177-.1242.053-.075.0353-.1504.0529-.2262.0529-.0715 0-.1312-.0207-.1792-.062-.0523-.0456-.0785-.1076-.0785-.1859 0-.1489.1727-.2557.5179-.3202.0593-.0112.0894-.0349.0902-.0711l.0027-.0826c.0052-.1412-.058-.2118-.1897-.2118-.0375 0-.073.0332-.1066.0995-.0335.0662-.0817.102-.1445.1071-.0715.0069-.1072-.0228-.1072-.0891 0-.0413.0532-.0895.1596-.1446.1115-.0577.2188-.0865.3217-.0865.1769 0 .2646.0831.2628.2492l-.0052.532c-.0009.056.0231.0839.0719.0839a.4255.4255 0 0 0 .0549-.0064.5716.5716 0 0 1 .0471-.0065c.0253 0 .0379.0168.0379.0504Zm-.4027-.2944c.0008-.0215-.0042-.0357-.0151-.0426-.0109-.0069-.0281-.0082-.0516-.0039-.2102.037-.3152.1046-.3152.2027 0 .099.0545.1485.1635.1485a.4038.4038 0 0 0 .1347-.0245c.054-.019.081-.0418.081-.0685l.0027-.2117ZM43.704 33.7229c0 .0414-.0383.0767-.115.1059a.5769.5769 0 0 1-.2067.0388c-.1892 0-.2838-.0995-.2838-.2983v-.4674c0-.0594-.0047-.0958-.0143-.1091-.0096-.0134-.0414-.0265-.0955-.0394-.014-.0035-.0209-.0168-.0209-.0401 0-.0249.0052-.04.0157-.0451.0941-.0457.1761-.1274.2458-.2454.0096-.0163.0284-.0215.0563-.0155.0191.006.0292.0172.03.0336l.0053.1614c0 .0121.0021.0207.0065.0258.0061.0078.0201.0116.0419.0116h.2916c.0165 0 .0165.0203 0 .0607-.0201.0491-.0497.0736-.0889.0736h-.1975c-.034 0-.0549.0056-.0628.0168-.0061.0078-.0091.0289-.0091.0633v.4222c0 .1068.0096.1743.0287.2027.0253.0362.0842.0543.1766.0543a.5157.5157 0 0 0 .1111-.0149 1.1987 1.1987 0 0 1 .0693-.0148c.0105 0 .0157.0064.0157.0193ZM44.3592 32.3504c0 .0396-.0151.0764-.0451.1104-.0301.034-.063.051-.0988.051-.0409 0-.0745-.0121-.1007-.0362-.0261-.0241-.0392-.0555-.0392-.0942 0-.0379.0159-.0732.0477-.1059.0319-.0327.0661-.0491.1027-.0491.0889 0 .1334.0413.1334.124Zm.1451 1.4616c-.0043.025-.0148.0392-.0313.0427-.0044.0008-.0253 0-.0628-.0026a2.3739 2.3739 0 0 0-.3832.0051c-.034.0035-.0553.0022-.0641-.0038-.0087-.0061-.013-.0198-.013-.0413 0-.0198.0231-.0362.0693-.0491.0505-.0147.0758-.0624.0758-.1433v-.3383c0-.0681-.007-.1158-.0209-.1434-.0192-.0378-.0589-.0667-.119-.0865-.027-.0095-.0405-.0237-.0405-.0426 0-.025.0196-.0435.0588-.0555a.7632.7632 0 0 0 .1949-.0891c.0453-.031.0732-.0465.0836-.0465.0349 0 .0519.0224.051.0671a45.7503 45.7503 0 0 0-.0052.6896c0 .0559.0083.0959.0249.12.0183.0267.0531.0457.1046.0569.0567.0129.0824.0331.0771.0606ZM46.8073 33.8095c0 .0284-.0135.0417-.0406.04-.1778-.0129-.3435-.0129-.4969 0-.034.0026-.051-.0125-.051-.0452 0-.0258.0231-.0396.0693-.0413.0584-.0035.0876-.0504.0876-.1408v-.3434c0-.1929-.0793-.2893-.238-.2893a.5752.5752 0 0 0-.2302.0452c-.0636.0267-.0959.0534-.0967.0801l-.0053.5126c0 .0534.0066.0887.0197.1059.0095.012.0309.0206.064.0258.0768.0129.1151.0288.1151.0478 0 .0163-.0022.0275-.0065.0336-.0053.0086-.021.0124-.0471.0116-.0994-.0035-.2441-.0017-.4342.0051-.027.0009-.0444-.0012-.0523-.0064-.0078-.0052-.0118-.0172-.0118-.0362 0-.0224.0249-.0361.0746-.0413.054-.006.0811-.0547.0811-.1459v-.3512c0-.0947-.0218-.1679-.0654-.2195-.0384-.0465-.0872-.0697-.1465-.0697-.0872 0-.1656.0174-.2354.0522-.0697.0349-.1046.0721-.1046.1117v.4713c0 .0534.0139.0904.0418.1111.0253.0189.0711.0305.1374.0348.0357.0018.0536.0138.0536.0362 0 .025-.0144.0374-.0432.0374-.2179 0-.3757.0061-.4734.0181-.0331.0043-.0545.0043-.0641 0-.0078-.0043-.0117-.0146-.0117-.031 0-.0215.0322-.04.0967-.0555.0393-.0103.0589-.0607.0589-.1511v-.3964c0-.1007-.0275-.1588-.0824-.1743-.0462-.0129-.0743-.0224-.0844-.0284-.01-.006-.015-.0159-.015-.0297 0-.0155.0453-.0482.136-.0981.0959-.0534.1548-.0801.1766-.0801.0183 0 .0337.0261.0464.0781.0126.0521.0224.0782.0294.0782.0096 0 .0362-.0134.0798-.0401a.857.857 0 0 1 .1465-.0749.61.61 0 0 1 .221-.0413c.061 0 .1142.0129.1595.0388a.2968.2968 0 0 1 .085.071l.0314.0387.068-.0387a.9082.9082 0 0 1 .1556-.071.652.652 0 0 1 .2158-.0388c.2389 0 .3583.1296.3583.3887v.4183c0 .0491.0118.084.0353.1046.0209.0172.0619.0319.123.0439.0462.0086.0693.0216.0693.0388ZM47.9123 33.6274c0 .037-.0506.0831-.1517.1382-.1151.0611-.2332.0916-.3544.0916-.1317 0-.2424-.0426-.3322-.1278-.0959-.0904-.1438-.2109-.1438-.3615 0-.1705.0536-.3074.1608-.4107.1003-.0964.2232-.1446.3688-.1446.0863 0 .167.0271.2419.0814.0672.0482.1116.1033.1334.1652.0079.0216.0197.0336.0353.0362.0227.0043.034.0194.034.0452 0 .0353-.0427.0654-.1281.0904l-.6029.1769c.0392.2049.1456.3073.3191.3073.1003 0 .2145-.0362.3426-.1085a.1115.1115 0 0 1 .0563-.0168c.0139 0 .0209.0125.0209.0375Zm-.3099-.5178c0-.0473-.0194-.0889-.0582-.1246-.0388-.0357-.0866-.0536-.1432-.0536-.1605 0-.2407.1141-.2407.3422v.031l.3557-.1059c.0576-.0164.0864-.0461.0864-.0891Z"/>
</svg>
