<svg xmlns="http://www.w3.org/2000/svg" width="54" height="54" fill="none">
  <g fill="#00ACD7" clip-path="url(#a)">
    <path d="M7.4713 23.1421c-.0896 0-.112-.0443-.0672-.1108l.4703-.5984c.0448-.0665.1568-.1108.2464-.1108h7.9951c.0896 0 .112.0664.0672.1329l-.3807.5763c-.0448.0665-.1568.133-.224.133l-8.1071-.0222ZM4.0896 25.1812c-.0896 0-.112-.0443-.0672-.1108l.4703-.5984c.0448-.0665.1568-.1109.2463-.1109h10.2123c.0896 0 .1344.0665.112.133l-.1792.532c-.0224.0886-.1119.133-.2015.133l-10.593.0221ZM9.5093 27.2203c-.0896 0-.112-.0664-.0672-.1329l.3135-.5541c.0448-.0665.1344-.133.224-.133h4.479c.0896 0 .1344.0665.1344.1551l-.0448.532c0 .0886-.0896.1551-.1568.1551l-4.8821-.0222ZM32.7556 22.7432c-1.4109.3546-2.3739.6206-3.7624.9752-.3359.0886-.3583.1108-.6495-.2216-.3359-.3768-.5823-.6206-1.0526-.8423-1.4109-.6871-2.777-.4876-4.0535.3325-1.5229.9752-2.3067 2.4159-2.2843 4.2112.0224 1.7731 1.2541 3.236 3.0233 3.4798 1.5229.1995 2.7995-.3325 3.8072-1.4629.2016-.2438.3808-.5097.6047-.82h-4.3223c-.4703 0-.5823-.2882-.4255-.665.2911-.6871.8286-1.8396 1.1422-2.4159.0672-.133.2239-.3546.5599-.3546h8.1519c-.0448.5984-.0448 1.1969-.1344 1.7953-.2464 1.5958-.851 3.0587-1.8364 4.3442-1.6125 2.1056-3.7177 3.4133-6.3827 3.7679-2.1947.2882-4.2327-.133-6.0243-1.4628-1.6573-1.2412-2.5979-2.8814-2.8443-4.9205-.2911-2.4159.4256-4.588 1.9036-6.4941 1.5901-2.0613 3.6953-3.369 6.2707-3.8344 2.1052-.3768 4.1208-.133 5.9348 1.086 1.187.7758 2.038 1.8396 2.5979 3.1252.1343.1995.0447.3103-.224.3768Z"/>
    <path d="M40.1685 35c-2.038-.0443-3.8968-.6206-5.4645-1.9505-1.3213-1.1303-2.1499-2.571-2.4187-4.2777-.4031-2.5045.2912-4.721 1.8141-6.6936 1.6348-2.1277 3.6056-3.236 6.2706-3.7014 2.2844-.399 4.4343-.1773 6.3827 1.1304 1.7692 1.1968 2.8666 2.8148 3.1578 4.9426.3807 2.9922-.4927 5.4303-2.5755 7.5137-1.4781 1.485-3.2921 2.4159-5.3749 2.837-.6047.1108-1.2093.133-1.7916.1995Zm5.3301-8.9544c-.0224-.2881-.0224-.5097-.0672-.7314-.4031-2.1942-2.4411-3.4354-4.5687-2.9478-2.0827.4654-3.4264 1.7731-3.9191 3.8565-.4032 1.7289.4479 3.4798 2.0603 4.1891 1.2318.5319 2.4635.4654 3.6505-.133 1.7692-.9087 2.7322-2.3272 2.8442-4.2334Z"/>
  </g>
  <defs>
    <clipPath id="a">
      <path fill="#fff" d="M4 18h46v17H4z"/>
    </clipPath>
  </defs>
</svg>
