<svg xmlns="http://www.w3.org/2000/svg" width="54" height="54" fill="none">
  <path fill="#16111C" d="M15.4688 7h1.7968v1.7813h1.6563V7h1.7968v5.3906h-1.7968v-1.7968h-1.6406v1.7968h-1.8125m7.6249-3.5937h-1.5859V7h4.9766v1.7969h-1.5938v3.5937h-1.7969M27.2734 7h1.8828l1.1563 1.8984L31.4687 7h1.8829v5.3906h-1.7969V9.7188l-1.2578 1.9374-1.2578-1.9375v2.6719h-1.7657M34.2422 7h1.7969v3.6094h2.5468v1.7812h-4.3437"/>
  <path fill="#E44D26" d="m15.4062 43.7969-2.5781-28.9375h28.3438l-2.5782 28.9218L26.9766 47"/>
  <path fill="#F16529" d="M27 44.5391V17.2344h11.5859L36.375 41.9219"/>
  <path fill="#EBEBEB" d="M18.0938 20.7734H27v3.5469h-5.0156l.3281 3.6328H27v3.5391h-7.9375m.1562 1.7812h3.5625l.25 2.836L27 37.1719v3.7031l-7.2812-2.0312"/>
  <path fill="#fff" d="M35.875 20.7734h-8.8906v3.5469h8.5625m-.3203 3.6328h-8.2422V31.5h4.375l-.4141 4.6094-3.9609 1.0625v3.6875l7.2656-2.0156"/>
</svg>
