<svg xmlns="http://www.w3.org/2000/svg" width="54" height="54" fill="none">
  <rect width="40" height="40" x="7" y="7" fill="#fff" rx="8"/>
  <path fill="#101010" d="M35.143 10.7716c.39-.0052.7829-.0103 1.1757-.0129.0055.2007.0139.5994.0194.8001-.4011 0-.8023-.0026-1.2006-.0026 0-.1955.0055-.5865.0055-.7846Z" opacity=".85"/>
  <path fill="#131313" d="M11.3436 10.9362c.716.0051 1.4347.0077 2.1563.0102-.0613 1.1835.1894 2.4132-.1728 3.5657-.468.8284-1.6325.6663-2.471.6818-.0334-.2624-.0669-.5248-.0975-.7873.482-.036 1.0057.0515 1.4486-.1775.287-.8206.1588-1.6979.0864-2.5417-.2452.0051-.7327.0103-.9778.0128.0083-.1903.0195-.5737.0278-.764ZM25.6877 11.2603c.8441-.6019 1.9528-.355 2.8917-.1209a99.872 99.872 0 0 0-.0056.9159c-.7271-.2701-2.1089-.8593-2.2927.2521.6881.193 1.4152.3062 2.0392.6509.663.4991.4764 1.6336-.287 1.9758-.8691.4759-1.8999.2161-2.8164.0437-.053-.3524-.1059-.7023-.1532-1.0548.7716.3139 2.3345 1.0574 2.5657-.144-.7745-.2702-1.7384-.3088-2.3011-.9262-.2479-.5248-.2061-1.2554.3594-1.5925ZM41.0906 11.0829h.9862c.0084.2907.0195.5814.0334.8721l1.0085.0103c.0056.1775.0139.53.0195.7049-.2563-.0026-.7689-.0077-1.0252-.0129.0139.5892-.1504 1.2323.17 1.7752.2395.0231.7187.0668.9583.09-.0251 1.0831-1.3623.5917-2.0699.4219a20.555 20.555 0 0 1-.0947-1.9861 114.2616 114.2616 0 0 1-.5404-.7049l.546-.463c.0028-.1776.0055-.5326.0083-.7075ZM14.3691 11.9884c.9082-.0437 2.1785-.355 2.7496.512.2034.8592.0752 1.7519.1059 2.6266-.4067-.0334-.8135-.0694-1.2174-.1029-.4625.036-1.0057.3525-1.4319.0695-.7076-.3139-.7188-1.4716.0251-1.752.5404-.2058 1.131-.2418 1.6965-.3653-.5377-.5145-1.301-.319-1.9779-.2521.0139-.1853.039-.5531.0501-.7358Zm.8859 1.7674a33.0972 33.0972 0 0 0-.0836.7512c.3093-.0154.6185-.0283.9305-.0437.0223-.2702.0474-.5403.0724-.8104-.3092.0334-.6156.0695-.9193.1029ZM17.6396 11.8983c.2674.0489.8051.1467 1.0725.1956.2814.5968.4736 1.2245.7466 1.8265.2285-.6431.4402-1.294.6463-1.9449.2675-.0051.8051-.0128 1.0726-.018a41.6896 41.6896 0 0 1-1.2759 3.2698 7.5293 7.5293 0 0 1-1.0809-.2109c-.507-.9982-.8413-2.0633-1.1812-3.1181ZM21.523 12.7191a9.9726 9.9726 0 0 1 .2647-.7281c.8636-.1157 2.0336-.2855 2.627.4605.2034.8902.078 1.8112.0975 2.7142-.4095-.0515-.8162-.1029-1.223-.1544-.7298.3576-1.9473.229-1.9305-.7203-.1393-1.1268 1.3845-1.1423 2.2119-1.2915-.4986-.6174-1.3623-.2907-2.0476-.2804Zm1.0085 1.0599c-.0306.2315-.0585.4657-.0864.6972.3065.0077.6129.0154.9221.0206.0279-.2856.0558-.5686.0836-.8541-.3064.0437-.6129.09-.9193.1363ZM28.9752 13.5603c-.0864-1.3995 1.8414-2.1327 2.9947-1.3867.0279.1981.0808.5969.1059.795-.5293-.1544-1.0726-.5043-1.6409-.2676-.6017.53-.4763 1.8755.5433 1.7957.2813-.0823.8413-.247 1.1227-.3293-.0502.2213-.1477.6638-.1951.8824-1.2062.5248-3.0253-.0952-2.9306-1.4895ZM32.5382 11.8881c.4178.1029.8441.2058 1.2647.3164.3148-.1055.6324-.2084.9528-.3139.0139.247.0473.741.0641.9879-.4012.018-.8024.036-1.1979.0541-.0279.7383-.0363 1.4741-.0418 2.2124-.2619.0026-.7884.0052-1.0503.0077-.0139-1.0882-.0167-2.1764.0084-3.2646ZM37.0679 11.9575c.7689.1595 1.5434.1107 2.3095-.0308 1.2007.2289 1.2285 1.8008.7716 2.6241-.3788.71-1.3065.6431-2.0225.6071l.0168 1.1242a151.0024 151.0024 0 0 1-1.0782-.0128c0-1.4356-.0027-2.8737.0028-4.3118Zm1.0865.7564c-.0111.5994-.0167 1.2014-.0111 1.8008.3454-.0874.7911-.0257 1.053-.301.195-.4888.0418-1.0162.0028-1.5204a145.605 145.605 0 0 0-1.0447.0206ZM35.2431 11.9653h.989a101.2397 101.2397 0 0 1 0 3.1849h-.989a86.7046 86.7046 0 0 1 0-3.1849Z"/>
  <path fill="#D6BA32" d="M14.5725 17.2161c2.7775-.1081 5.5605.0308 8.3407-.0129 3.0672-.09 6.1316-.0154 9.2016-.0051 2.4348.0051 4.8696-.0103 7.3044.0077-.7661 7.8028-1.5377 15.6056-2.2481 23.4135-3.2622.8567-6.5272 1.7005-9.7894 2.5521-.4179.1595-.8469.0103-1.248-.0901-3.1007-.8232-6.2013-1.6387-9.3075-2.4311-.8079-7.8054-1.5684-15.6185-2.2537-23.4341Zm12.4749 2.0349c-.1142 3.8487-.0167 7.6973-.0501 11.546.0306 3.5194-.0558 7.0413.0445 10.5607 2.7413-.5969 5.4463-1.3301 8.1513-2.053.6798-6.6811 1.3428-13.3623 1.9111-20.0511-3.3513-.0309-6.7055.0051-10.0568-.0026Zm-3.4878 15.0293c-1.6102-.4064-3.2009-.8747-4.8334-1.1962-.0474.8952-.0307 1.7905.0808 2.6807 2.3902.5376 4.7303 1.2451 7.1233 1.7725.0167-5.0964-.0084-10.1954.0111-15.2917-.78-.018-1.56-.0283-2.3401-.0438-.0891 4.0236-.0055 8.0524-.0417 12.0785Z"/>
  <path fill="#FFDA3E" d="M27.0474 19.251c3.3513.0077 6.7054-.0283 10.0567.0025-.5683 6.6889-1.2313 13.37-1.911 20.0511-2.705.723-5.4101 1.4562-8.1513 2.053-.1003-3.5194-.0139-7.0413-.0446-10.5607.0334-3.8486-.0641-7.6973.0502-11.5459Zm.9388 2.9919c.0111 3.3136.0139 6.6297 0 9.9433 1.638-.2444 3.2705-.5248 4.903-.8001-.0251.7718-.0585 1.5436-.0947 2.3154-1.5907.391-3.1786.7949-4.7777 1.1576-.025.8902-.0278 1.7803-.0195 2.673 2.0142-.4168 3.9977-.9416 5.9979-1.4072.2507-.1081.7327-.0952.7104-.458.2423-2.3822.3928-4.7748.6268-7.1622-1.6576.1261-3.2984.3834-4.956.4888-.0139-1.3532-.0167-2.7064.0056-4.0596 1.7439 0 3.485 0 5.229.0026.1114-.903.2089-1.8086.2841-2.7141-2.6354.0102-5.2735-.0232-7.9089.0205Z"/>
  <path fill="#EBEBEB" d="M23.5596 34.2803c.0362-4.0262-.0473-8.0549.0418-12.0785.78.0154 1.5601.0257 2.3401.0437-.0195 5.0964.0056 10.1953-.0111 15.2917-2.3931-.5274-4.7331-1.2348-7.1234-1.7725-.1114-.8901-.1281-1.7854-.0808-2.6807 1.6325.3216 3.2232.7898 4.8334 1.1963Z"/>
</svg>
