<svg xmlns="http://www.w3.org/2000/svg" width="54" height="54" fill="none">
  <path fill="#16111C" d="M8.9527 17v13.5337l6.1322-6.74h.2794l-4.5456 5.0009 5.9916 8.5835h-1.9545l-5.1582-7.3985-.752.8439v6.5552H7V17h1.9527Zm16.0156 20.4906c-1.9623 0-3.5577-.5433-4.7861-1.63-1.2245-1.0867-1.8391-2.7624-1.8439-5.0272 0-2.2643.6362-4.0197 1.9085-5.2662 1.2723-1.2461 2.8904-1.874 4.8543-1.8838 1.9623 0 3.5577.544 4.7861 1.6318 1.2245 1.0879 1.8383 2.764 1.8415 5.0284 0 2.2666-.6362 4.0246-1.9085 5.2738-1.2723 1.2488-2.89 1.8736-4.8531 1.8744l.0012-.0012Zm.1812-13.5896c-1.4119 0-2.5825.6117-3.5118 1.8353-.9293 1.2235-1.3943 2.9278-1.3951 5.1129 0 2.1831.4273 3.7999 1.2821 4.8504.8547 1.0506 1.9878 1.5758 3.3993 1.5758 1.4119 0 2.5825-.6117 3.5118-1.8353.9301-1.2235 1.3952-2.9265 1.3952-5.1088 0-2.1831-.4274-3.7999-1.2821-4.8504-.8547-1.0506-1.9886-1.5766-3.4017-1.5782l.0023-.0017Zm20.3231 13.4765c-1.2643 0-2.1284-.2352-2.5923-.7057-.4279-.3981-.6419-.7441-.6419-1.0381v-.5715c-.9106 1.6127-2.369 2.4191-4.3751 2.4191-2.3436 0-3.673-1.0326-3.9881-3.0979a3.9138 3.9138 0 0 1-.0556-.666 2.8406 2.8406 0 0 1 .1119-.7477c.0738-.2722.2877-.5708.6419-.8958.7099-.6532 2.2654-1.0521 4.6665-1.1967.5942-.0545 1.1419-.0817 1.6428-.0817.5006 0 .9558.0175 1.3658.0525v-4.5023c-.037-.0175-.037-.104 0-.2595a1.0016 1.0016 0 0 0-.0969-.5972 3.7362 3.7362 0 0 0-.3996-.7214c-.1687-.2352-.4659-.4386-.8914-.61a4.5515 4.5515 0 0 0-1.6722-.2595 9.5501 9.5501 0 0 0-2.4235.3715c-.9186.2449-1.5918.485-2.0198.7202l-.1119-.1907c1.5785-.7261 3.301-1.1063 5.0464-1.1139 1.9128 0 3.1764.3353 3.7906 1.006.4826.5249.7239 1.0774.7239 1.6575v9.0978c0 .5261.1077.9293.3231 1.2096.2153.2799.4337.4292.6551.4479l.3063.0542h.8657v.214l-.8717.0053Zm-7.1636-.1091c.9827.0013 1.9312-.3518 2.6628-.9914.7898-.661 1.2125-1.2996 1.2684-1.9158v-3.2834a19.336 19.336 0 0 0-1.5208-.0595c-.5071 0-1.0138.0272-1.5178.0817-1.4131.1644-2.3336.4725-2.7616.9243-.428.4518-.6409 1.077-.639 1.8756.0006.1634.0096.3267.027.4893.1667 1.9234.9935 2.8851 2.4804 2.8851l.0006-.0059Z"/>
</svg>
