<svg xmlns="http://www.w3.org/2000/svg" width="54" height="54" fill="none">
  <g clip-path="url(#a)">
    <path fill="#FF2D20" fill-rule="evenodd" d="M46.7008 15.8953a.5995.5995 0 0 1 .0224.1608v8.44a.5968.5968 0 0 1-.0862.3084.6285.6285 0 0 1-.2354.2254l-7.3672 4.0785v8.0838c0 .22-.1216.4231-.32.5339L23.336 46.2384c-.0352.0192-.0736.0315-.112.0446-.0144.0046-.028.0131-.0432.0169a.6694.6694 0 0 1-.328 0c-.0176-.0046-.0336-.0138-.0504-.02-.0352-.0123-.072-.0231-.1056-.0415L7.3216 37.7261a.63.63 0 0 1-.2353-.2255A.598.598 0 0 1 7 37.1922v-25.32a.606.606 0 0 1 .0224-.1615c.0048-.0177.016-.0339.0224-.0516.012-.0323.0232-.0654.0408-.0954.012-.02.0296-.0361.044-.0546.0184-.0246.0352-.05.0568-.0715.0184-.0177.0424-.0308.0632-.0462.0232-.0184.044-.0384.0704-.053l7.6888-4.2562a.6614.6614 0 0 1 .32-.0822.6614.6614 0 0 1 .32.0822l7.688 4.2562h.0016c.0256.0153.0472.0346.0704.0523.0208.0154.044.0292.0624.0461.0224.0223.0384.0477.0576.0723.0136.0185.032.0346.0432.0546.0184.0308.0288.0631.0416.0954.0064.0177.0176.0339.0224.0523a.6001.6001 0 0 1 .0224.1608v15.8146l6.4064-3.5469v-8.0846a.599.599 0 0 1 .0224-.16c.0056-.0185.016-.0346.0224-.0523.0128-.0323.024-.0654.0416-.0954.012-.02.0296-.0362.0432-.0546.0192-.0246.0352-.05.0576-.0716.0184-.0177.0416-.0307.0624-.0461.024-.0185.0448-.0385.0704-.0531l7.6896-4.2561a.66.66 0 0 1 .32-.0824.66.66 0 0 1 .32.0824l7.688 4.2561c.0272.0154.048.0346.072.0523.02.0154.0432.0292.0616.0462.0224.0223.0384.0477.0576.0723.0144.0184.032.0346.0432.0546.0184.03.0288.0631.0416.0954.0072.0177.0176.0338.0224.0523Zm-1.2592 8.2446v-7.0185l-2.6904 1.4893-3.7168 2.0577v7.0184l6.408-3.5469h-.0008Zm-7.688 12.6962V29.813l-3.656 2.0077-10.44 5.7292v7.0892l14.096-7.803ZM8.2816 12.9376v23.8985l14.0944 7.8023v-7.0877l-7.3632-4.007-.0024-.0015-.0032-.0015c-.0248-.0139-.0456-.0339-.0688-.0508-.02-.0154-.0432-.0277-.0608-.0446l-.0016-.0023c-.0208-.0193-.0352-.0431-.0528-.0646-.016-.0208-.0352-.0385-.048-.06l-.0008-.0023c-.0144-.0231-.0232-.0508-.0336-.077-.0104-.023-.024-.0446-.0304-.0692-.008-.0292-.0096-.0608-.0128-.0908-.0032-.023-.0096-.0461-.0096-.0692V16.4845l-3.716-2.0584-2.6904-1.4885Zm7.048-4.6108L8.924 11.8722l6.404 3.5454 6.4048-3.5462-6.4048-3.5446h.0016Zm3.3312 22.1262 3.716-2.0569V12.9376l-2.6904 1.4892-3.7168 2.0577V31.943l2.6912-1.49Zm19.7336-17.9423-6.4048 3.5454 6.4048 3.5453 6.404-3.5461-6.404-3.5446Zm-.6408 8.1577-3.7168-2.0577-2.6904-1.4893v7.0185l3.716 2.0569 2.6912 1.49v-7.0184ZM23.016 36.4845l9.3944-5.1569 4.696-2.5769-6.4-3.5431-7.3688 4.0792-6.716 3.7177 6.3944 3.48Z" clip-rule="evenodd"/>
  </g>
  <defs>
    <clipPath id="a">
      <path fill="#fff" d="M7 7h40v40H7z"/>
    </clipPath>
  </defs>
</svg>
