<svg xmlns="http://www.w3.org/2000/svg" width="54" height="54" fill="none">
  <g clip-path="url(#a)">
    <mask id="b" width="50" height="27" x="2" y="14" maskUnits="userSpaceOnUse" style="mask-type:luminance">
      <path fill="#fff" d="M2.703 27.4841c0 7.0588 10.8784 12.7811 24.297 12.7811 13.4186 0 24.297-5.7223 24.297-12.7811 0-7.0586-10.8784-12.7811-24.297-12.7811-13.4186 0-24.297 5.7225-24.297 12.7811Z"/>
    </mask>
    <g mask="url(#b)">
      <path fill="url(#c)" d="M2.703 27.4841c0 7.0588 10.8784 12.7811 24.297 12.7811 13.4186 0 24.297-5.7223 24.297-12.7811 0-7.0586-10.8784-12.7811-24.297-12.7811-13.4186 0-24.297 5.7225-24.297 12.7811Z"/>
    </g>
    <mask id="d" width="52" height="29" x="1" y="13" maskUnits="userSpaceOnUse" style="mask-type:luminance">
      <path fill="#fff" d="M1.6907 13.2477h50.6186v28.4729H1.6907V13.2477Z"/>
    </mask>
    <g mask="url(#d)">
      <path fill="#777BB3" d="M27 39.3163c12.8944 0 23.3478-5.2975 23.3478-11.8322 0-6.5346-10.4534-11.8322-23.3478-11.8322-12.8945 0-23.3478 5.2976-23.3478 11.8322 0 6.5347 10.4533 11.8322 23.3478 11.8322Z"/>
    </g>
    <mask id="e" width="52" height="29" x="1" y="13" maskUnits="userSpaceOnUse" style="mask-type:luminance">
      <path fill="#fff" d="M1.6907 13.2477h50.6186v28.4729H1.6907V13.2477Z"/>
    </mask>
    <g mask="url(#e)">
      <path fill="#000" d="M15.9038 28.9512c1.0602 0 1.8518-.1956 2.3526-.581.4955-.3815.8377-1.0424 1.017-1.9644.1673-.8617.1035-1.4634-.1893-1.7881-.2994-.3317-.9467-.4999-1.9239-.4999h-1.6944l-.9394 4.8334h1.3774Zm-5.542 5.9538a.2635.2635 0 0 1-.2587-.3139l2.4895-12.8085a.2635.2635 0 0 1 .2588-.2133h5.3654c1.6862 0 2.9413.4578 3.7302 1.361.7931.9079 1.038 2.1769.7279 3.7719-.1262.6497-.3433 1.2532-.6451 1.7935-.3022.5409-.7017 1.0414-1.1874 1.4878-.5814.5441-1.2394.9387-1.9541 1.1709-.7033.2291-1.6065.3453-2.6845.3453h-2.1726l-.6204 3.1919a.2636.2636 0 0 1-.2587.2134h-2.7903Z"/>
      <path fill="#fff" d="M15.6832 24.3814h1.477c1.1795 0 1.5892.2588 1.7284.413.2309.2561.2745.796.1261 1.5614-.1668.8568-.476 1.4643-.9191 1.8054-.4536.3493-1.1911.5263-2.1918.5263h-1.0575l.8369-4.3061Zm2.5336-3.0758h-5.3655a.5272.5272 0 0 0-.5175.4266L9.8444 34.5408a.5273.5273 0 0 0 .5175.6278h2.7902a.5273.5273 0 0 0 .5176-.4267l.5789-2.9787h1.9552c1.1057 0 2.0366-.1205 2.7664-.3582.7506-.2439 1.4411-.6574 2.0523-1.2289.5055-.4651.9219-.9871 1.2374-1.5517.3156-.5648.5423-1.1947.6738-1.872.3265-1.6789.0613-3.0233-.7882-3.9956-.8411-.963-2.163-1.4512-3.9287-1.4512Zm-4.0102 7.9091h1.6972c1.125 0 1.9629-.2118 2.5135-.6357.5506-.4239.922-1.1314 1.115-2.1229.1846-.9519.1005-1.6236-.2523-2.015-.3533-.3913-1.0598-.587-2.1198-.587h-1.9117l-1.0419 5.3606Zm4.0102-7.3818c1.6141 0 2.7916.4235 3.5317 1.2708.74.8472.9629 2.0298.6676 3.5481-.1215.6255-.3271 1.1973-.6164 1.7153-.2898.5184-.6681.9925-1.1356 1.4223-.5572.5214-1.1761.8929-1.8572 1.1142-.681.2219-1.5485.3324-2.6031.3324h-2.3899l-.6618 3.4053h-2.7902l2.4894-12.8084h5.3655Z"/>
      <path fill="#000" d="M29.0724 31.4997a.2632.2632 0 0 1-.2033-.096.2631.2631 0 0 1-.0555-.2179l1.1012-5.6673c.1048-.539.0789-.9258-.0726-1.0893-.0928-.0999-.3716-.2675-1.1958-.2675h-1.9951l-1.3845 7.1246a.2637.2637 0 0 1-.2588.2134h-2.7682a.2636.2636 0 0 1-.2588-.3139l2.4894-12.8086a.2636.2636 0 0 1 .2588-.2132h2.7682a.2634.2634 0 0 1 .2588.3139l-.6007 3.0914h2.1462c1.635 0 2.7437.2882 3.3894.8812.6582.605.8636 1.5723.6105 2.8754l-1.1582 5.9604a.2637.2637 0 0 1-.2588.2134h-2.8122Z"/>
      <path fill="#fff" d="M27.4974 17.9003h-2.7682a.5273.5273 0 0 0-.5176.4266l-2.4894 12.8085a.527.527 0 0 0 .5176.6278h2.7682a.5273.5273 0 0 0 .5176-.4266l1.343-6.9113h1.7778c.8228 0 .9955.1758 1.0024.1833.0499.0537.1156.3024.0072.8596l-1.1012 5.6672a.527.527 0 0 0 .5176.6278h2.8121a.5275.5275 0 0 0 .5177-.4266l1.1581-5.9604c.2718-1.3992.0393-2.4487-.6908-3.1198-.6967-.6398-1.8637-.9508-3.5678-.9508h-1.8265l.5398-2.7774a.5272.5272 0 0 0-.5176-.6279Zm0 .5272-.6618 3.4054h2.4661c1.5517 0 2.622.2708 3.211.8118.5891.5413.7655 1.4185.5301 2.6309l-1.1583 5.9604h-2.8121l1.1012-5.6672c.1253-.6447.0793-1.0844-.1383-1.3189-.2177-.2345-.6807-.3519-1.3889-.3519h-2.2125l-1.4259 7.338h-2.7682l2.4894-12.8085h2.7682Z"/>
      <path fill="#000" d="M37.6817 28.9512c1.0603 0 1.8518-.1956 2.3526-.581.4955-.3814.8377-1.0423 1.0172-1.9644.1672-.8617.1035-1.4634-.1894-1.7881-.2994-.3317-.9467-.4999-1.924-.4999h-1.6944l-.9393 4.8334h1.3773Zm-5.5418 5.9538a.2634.2634 0 0 1-.2588-.3139l2.4894-12.8085a.2637.2637 0 0 1 .2589-.2133h5.3653c1.6863 0 2.9413.4578 3.7303 1.361.7931.9078 1.038 2.1768.7279 3.7719-.1263.6497-.3433 1.2532-.6452 1.7935-.3022.5409-.7016 1.0414-1.1873 1.4878-.5814.5441-1.2395.9387-1.9541 1.1709-.7033.2291-1.6065.3453-2.6846.3453h-2.1726l-.6202 3.1919a.2637.2637 0 0 1-.2589.2134h-2.7901Z"/>
      <path fill="#fff" d="M37.4611 24.3814h1.4771c1.1794 0 1.5891.2588 1.7283.413.231.2561.2746.796.1261 1.5613-.1668.8569-.476 1.4644-.919 1.8055-.4537.3493-1.1912.5263-2.1919.5263h-1.0574l.8368-4.3061Zm2.5336-3.0758h-5.3654a.5273.5273 0 0 0-.5175.4266l-2.4894 12.8086a.527.527 0 0 0 .5175.6278h2.7902a.5273.5273 0 0 0 .5176-.4267l.5788-2.9787h1.9553c1.1057 0 2.0365-.1205 2.7663-.3582.7506-.2439 1.4413-.6575 2.0525-1.2291.5055-.465.9217-.9869 1.2372-1.5515.3156-.5648.5423-1.1947.6739-1.872.3264-1.679.0612-3.0234-.7882-3.9957-.8412-.9629-2.163-1.4511-3.9288-1.4511Zm-4.0101 7.9091h1.6971c1.125 0 1.9629-.2118 2.5135-.6357.5507-.4239.922-1.1314 1.115-2.1229.1847-.9519.1006-1.6236-.2523-2.015-.3533-.3913-1.0597-.587-2.1197-.587h-1.9118l-1.0418 5.3606Zm4.0101-7.3818c1.6141 0 2.7916.4235 3.5317 1.2708.7402.8472.9629 2.0298.6677 3.5481-.1216.6255-.3271 1.1973-.6165 1.7153-.2898.5184-.6681.9925-1.1356 1.4223-.5572.5214-1.1761.8929-1.8572 1.1142-.681.2219-1.5485.3324-2.603.3324h-2.39l-.6617 3.4053h-2.7902l2.4894-12.8084h5.3654Z"/>
    </g>
  </g>
  <defs>
    <radialGradient id="c" cx="0" cy="0" r="1" gradientTransform="matrix(31.905 0 0 31.905 17.2911 19.1965)" gradientUnits="userSpaceOnUse">
      <stop stop-color="#AEB2D5"/>
      <stop offset=".3" stop-color="#AEB2D5"/>
      <stop offset=".75" stop-color="#484C89"/>
      <stop offset="1" stop-color="#484C89"/>
    </radialGradient>
    <clipPath id="a">
      <path fill="#fff" d="M2 14h50v26.9683H2z"/>
    </clipPath>
  </defs>
</svg>
