<svg xmlns="http://www.w3.org/2000/svg" width="54" height="54" fill="none">
  <path fill="url(#a)" d="M26.9263 9.4013c-1.1958.0055-2.3376.1075-3.3417.2854-2.9609.523-3.4983 1.6174-3.4983 3.6365v2.6661h6.9939v.8885H17.462c-2.0327 0-3.8139 1.2219-4.3696 3.5452-.6422 2.6635-.6707 4.3278 0 7.1087.4972 2.0708 1.6847 3.5452 3.7174 3.5452h2.405v-3.1956c0-2.3087 1.9974-4.3461 4.3695-4.3461h6.9861c1.9448 0 3.4983-1.6012 3.4983-3.5531v-6.66c0-1.8954-1.5991-3.3182-3.4983-3.6365-1.2015-.2-2.4482-.2909-3.6443-.2854l.0002.001Zm-3.7826 2.1441c.7226 0 1.3125.5997 1.3125 1.3369 0 .7346-.5901 1.3289-1.3125 1.3289-.7249 0-1.3124-.594-1.3124-1.3289 0-.7372.5875-1.3369 1.3124-1.3369Z"/>
  <path fill="url(#b)" d="M34.9402 16.8758v3.1069c0 2.4081-2.0415 4.4348-4.3695 4.4348h-6.9861c-1.9137 0-3.4983 1.6377-3.4983 3.553v6.66c0 1.8955 1.6485 3.0105 3.4983 3.5531 2.214.6511 4.3383.7688 6.9861 0 1.7609-.5097 3.4982-1.536 3.4982-3.5531v-2.666h-6.986v-.8886h10.4843c2.0327 0 2.7913-1.4178 3.4983-3.5452.7301-2.191.6991-4.2991 0-7.1087-.5025-2.0235-1.4619-3.5452-3.4983-3.5452h-2.6243l-.0027-.001Zm-3.9286 16.8678c.7249 0 1.3124.594 1.3124 1.3289 0 .7372-.5875 1.3369-1.3124 1.3369-.7227 0-1.3125-.5997-1.3125-1.3369 0-.7346.5901-1.3289 1.3125-1.3289Z"/>
  <path fill="url(#c)" d="M36.5415 42.7168c0 .482-.9876.9443-2.7456 1.2852-1.758.3409-4.1424.5323-6.6285.5323-2.4862 0-4.8706-.1914-6.6286-.5323s-2.7456-.8032-2.7456-1.2852c0-.4821.9876-.9444 2.7456-1.2852 1.758-.3409 4.1424-.5324 6.6286-.5324 2.4861 0 4.8705.1915 6.6285.5324 1.758.3408 2.7456.8031 2.7456 1.2852Z" opacity=".4438"/>
  <defs>
    <linearGradient id="a" x1="12.5995" x2="28.7337" y1="9.4007" y2="23.1442" gradientUnits="userSpaceOnUse">
      <stop stop-color="#5A9FD4"/>
      <stop offset="1" stop-color="#306998"/>
    </linearGradient>
    <linearGradient id="b" x1="30.8466" x2="25.0493" y1="34.857" y2="26.7459" gradientUnits="userSpaceOnUse">
      <stop stop-color="#FFD43B"/>
      <stop offset="1" stop-color="#FFE873"/>
    </linearGradient>
    <radialGradient id="c" cx="0" cy="0" r="1" gradientTransform="matrix(0 -1.818 7.992 0 27.1798 42.7095)" gradientUnits="userSpaceOnUse">
      <stop stop-color="#B8B8B8" stop-opacity=".498"/>
      <stop offset="1" stop-color="#7F7F7F" stop-opacity="0"/>
    </radialGradient>
  </defs>
</svg>
