<svg xmlns="http://www.w3.org/2000/svg" width="54" height="54" fill="none">
  <g clip-path="url(#a)">
    <path fill="#61DAFB" d="M27 30.5265c1.969 0 3.5652-1.5789 3.5652-3.5265S28.969 23.4735 27 23.4735c-1.969 0-3.5652 1.5789-3.5652 3.5265S25.031 30.5265 27 30.5265Z"/>
    <path stroke="#61DAFB" d="M26.9304 34.2504c10.5655 0 19.1305-3.2347 19.1305-7.225 0-3.9903-8.565-7.225-19.1305-7.225-10.5654 0-19.1304 3.2347-19.1304 7.225 0 3.9903 8.565 7.225 19.1304 7.225Z"/>
    <path stroke="#61DAFB" d="M20.6047 30.6379c5.2827 9.0506 12.3973 14.7701 15.8909 12.775 3.4937-1.9951 2.0433-10.9494-3.2394-20-5.2828-9.0506-12.3974-14.7701-15.891-12.775-3.4936 1.9951-2.0433 10.9494 3.2395 20Z"/>
    <path stroke="#61DAFB" d="M20.6047 23.4129c-5.2827 9.0505-6.7331 18.0049-3.2395 20 3.4936 1.9951 10.6083-3.7244 15.891-12.775s6.7331-18.0049 3.2394-20c-3.4936-1.9951-10.6082 3.7244-15.8909 12.775Z"/>
  </g>
  <defs>
    <clipPath id="a">
      <path fill="#fff" d="M7 7h40v40H7z"/>
    </clipPath>
  </defs>
</svg>
