<svg xmlns="http://www.w3.org/2000/svg" width="54" height="54" fill="none">
  <g clip-path="url(#a)">
    <path fill="#764ABC" d="M34.7158 34.7039c1.4761-.1591 2.5959-1.4847 2.545-3.0755-.0508-1.5906-1.3235-2.8633-2.8505-2.8633h-.1017c-1.5781.0531-2.7997 1.4317-2.7488 3.0754.051.7954.3563 1.4847.8144 1.9619-1.7306 3.5527-4.3775 6.1509-8.3478 8.3249-2.6978 1.4847-5.4973 2.015-8.2969 1.6439-2.2906-.3182-4.0722-1.3786-5.1922-3.1286-1.6287-2.5982-1.7814-5.4086-.407-8.2188.9672-2.0149 2.4941-3.4996 3.4613-4.242-.2036-.6893-.5091-1.8558-.6618-2.7041-7.3807 5.5675-6.6172 13.097-4.3775 16.6496 1.6797 2.6513 5.0902 4.2951 8.8569 4.2951 1.018 0 2.036-.1062 3.0541-.3711 6.5154-1.3257 11.4529-5.3557 14.2525-11.3474Zm8.9587-6.575c-3.8686-4.7192-9.5695-7.3174-16.085-7.3174h-.8143c-.4582-.9544-1.4254-1.5908-2.4943-1.5908h-.1018c-1.5779.0531-2.7994 1.4316-2.7486 3.0755.0509 1.5907 1.3234 2.8633 2.8504 2.8633h.1018c1.1198-.0531 2.087-.7954 2.4942-1.8029h.9162c3.8686 0 7.5335 1.1665 10.8422 3.4466 2.545 1.7499 4.3775 4.03 5.3955 6.7871.8653 2.2271.8144 4.4011-.1019 6.257-1.4252 2.8102-3.8175 4.348-6.9734 4.348-2.0361 0-3.9703-.6364-4.9885-1.1136-.5598.5303-1.5779 1.3786-2.2906 1.909 2.1889 1.0604 4.4286 1.6437 6.5664 1.6437 4.8866 0 8.5006-2.8103 9.875-5.6206 1.4761-3.0755 1.3742-8.3779-2.4433-12.8849Zm-25.8581 7.4762c.0509 1.5909 1.3234 2.8633 2.8505 2.8633h.1018c1.578-.0529 2.7996-1.4316 2.7486-3.0753-.0507-1.5909-1.3234-2.8633-2.8504-2.8633h-.1017c-.1019 0-.2547 0-.3563.0529-2.087-3.6057-2.9523-7.5293-2.6469-11.7713.2035-3.1815 1.2216-5.9388 3.0032-8.219 1.476-1.9619 4.3265-2.9163 6.2609-2.9692 5.3955-.1061 7.6859 6.8931 7.8387 9.7035.6618.159 1.7816.5302 2.5452.7954-.6109-8.5899-5.7011-13.044-10.5875-13.044-4.5813 0-8.8061 3.4466-10.4859 8.537-2.3414 6.7871-.8144 13.3091 2.0361 18.4524-.2544.3711-.4072.9543-.3563 1.5376Z"/>
  </g>
  <defs>
    <clipPath id="a">
      <path fill="#fff" d="M7 7h40v40H7z"/>
    </clipPath>
  </defs>
</svg>
