<svg xmlns="http://www.w3.org/2000/svg" width="54" height="54" fill="none">
  <g fill-rule="evenodd" clip-path="url(#a)" clip-rule="evenodd">
    <path fill="url(#b)" d="M37.9898 33.4015 15.1522 47l29.5703-2.0121L47 15.0879l-9.0102 18.3136Z"/>
    <path fill="url(#c)" d="m44.771 44.9674-2.5416-17.5908-6.9229 9.1669 9.4645 8.4239Z"/>
    <path fill="url(#d)" d="m44.8053 44.9674-18.6199-1.4657-10.9342 3.46 29.5541-1.9943Z"/>
    <path fill="url(#e)" d="m15.2774 46.9656 4.6515-15.2809-10.2357 2.1947 5.5842 13.0862Z"/>
    <path fill="url(#f)" d="m35.3047 36.5941-4.2801-16.8114L18.7761 31.296l16.5286 5.2981Z"/>
    <path fill="url(#g)" d="m46.0289 20.0195-11.5783-9.4827-3.2241 10.4525 14.8024-.9698Z"/>
    <path fill="url(#h)" d="m40.6143 7.1559-6.8097 3.7737-4.2962-3.8243 11.1059.0506Z"/>
    <path fill="url(#i)" d="m7 39.0053 2.8527-5.2172-2.3076-6.2152L7 39.0053Z"/>
    <path fill="#fff" d="m7.3917 27.3766 2.3217 6.6039 10.0883-2.2697 11.5177-10.7339 3.2504-10.3531L29.4517 7l-8.7013 3.2655c-2.7415 2.557-8.0612 7.6162-8.253 7.7113-.1898.0972-3.5128 6.3954-5.1057 9.3998Z"/>
    <path fill="url(#j)" d="M15.5439 15.513c5.9416-5.9075 13.6012-9.3977 16.5407-6.4237 2.9376 2.974-.1777 10.2014-6.1193 16.1069-5.9415 5.9054-13.5062 9.588-16.4437 6.614-2.9395-2.972.0808-10.3917 6.0223-16.2972Z"/>
    <path fill="url(#k)" d="M15.2774 46.9595 19.8926 31.63l15.3273 4.9378c-5.5419 5.211-11.7055 9.6163-19.9425 10.3917Z"/>
    <path fill="url(#l)" d="m31.3396 20.9468 3.9348 15.6291c4.6293-4.8811 8.7841-10.1286 10.8189-16.6191l-14.7537.99Z"/>
    <path fill="url(#m)" d="M46.0531 20.0357c1.5748-4.7656 1.9382-11.6024-5.4875-12.8717l-6.0929 3.3748 11.5804 9.4969Z"/>
    <path fill="#9E1209" d="M7 38.9364c.218 7.8654 5.8769 7.9826 8.2875 8.0516l-5.568-13.0399L7 38.9364Z"/>
    <path fill="url(#n)" d="M31.3616 20.9711c3.5572 2.1925 10.7265 6.5958 10.8718 6.6767.2259.1276 3.0909-4.8446 3.741-7.6546l-14.6128.9779Z"/>
    <path fill="url(#o)" d="m19.8865 31.63 6.1697 11.9365c3.6481-1.984 6.5048-4.4013 9.1212-6.9906L19.8865 31.63Z"/>
    <path fill="url(#p)" d="M9.6952 33.9643 8.821 44.4026c1.6495 2.2593 3.9187 2.4557 6.2989 2.2796-1.7221-4.298-5.1622-12.892-5.4247-12.7179Z"/>
    <path fill="url(#q)" d="M34.4365 10.5651 46.6931 12.29c-.6541-2.7796-2.6629-4.5733-6.0869-5.1341l-6.1697 3.4092Z"/>
  </g>
  <defs>
    <linearGradient id="b" x1="42.1433" x2="33.6694" y1="50.6378" y2="35.7181" gradientUnits="userSpaceOnUse">
      <stop stop-color="#FB7655"/>
      <stop offset=".41" stop-color="#E42B1E"/>
      <stop offset=".99" stop-color="#900"/>
      <stop offset="1" stop-color="#900"/>
    </linearGradient>
    <linearGradient id="c" x1="46.3469" x2="35.453" y1="38.0877" y2="30.7975" gradientUnits="userSpaceOnUse">
      <stop stop-color="#871101"/>
      <stop offset=".99" stop-color="#911209"/>
      <stop offset="1" stop-color="#911209"/>
    </linearGradient>
    <linearGradient id="d" x1="37.6456" x2="26.7521" y1="51.0905" y2="43.8006" gradientUnits="userSpaceOnUse">
      <stop stop-color="#871101"/>
      <stop offset=".99" stop-color="#911209"/>
      <stop offset="1" stop-color="#911209"/>
    </linearGradient>
    <linearGradient id="e" x1="14.8123" x2="16.5074" y1="32.7902" y2="43.7759" gradientUnits="userSpaceOnUse">
      <stop stop-color="#fff"/>
      <stop offset=".23" stop-color="#E57252"/>
      <stop offset=".46" stop-color="#DE3B20"/>
      <stop offset=".99" stop-color="#A60003"/>
      <stop offset="1" stop-color="#A60003"/>
    </linearGradient>
    <linearGradient id="f" x1="26.408" x2="27.0327" y1="22.531" y2="33.7438" gradientUnits="userSpaceOnUse">
      <stop stop-color="#fff"/>
      <stop offset=".23" stop-color="#E4714E"/>
      <stop offset=".56" stop-color="#BE1A0D"/>
      <stop offset=".99" stop-color="#A80D00"/>
      <stop offset="1" stop-color="#A80D00"/>
    </linearGradient>
    <linearGradient id="g" x1="36.6983" x2="38.5677" y1="12.1667" y2="20.2007" gradientUnits="userSpaceOnUse">
      <stop stop-color="#fff"/>
      <stop offset=".18" stop-color="#E46342"/>
      <stop offset=".4" stop-color="#C82410"/>
      <stop offset=".99" stop-color="#A80D00"/>
      <stop offset="1" stop-color="#A80D00"/>
    </linearGradient>
    <linearGradient id="h" x1="31.0198" x2="39.0421" y1="9.3366" y2="5.3365" gradientUnits="userSpaceOnUse">
      <stop stop-color="#fff"/>
      <stop offset=".54" stop-color="#C81F11"/>
      <stop offset=".99" stop-color="#BF0905"/>
      <stop offset="1" stop-color="#BF0905"/>
    </linearGradient>
    <linearGradient id="i" x1="7.788" x2="8.4512" y1="29.9891" y2="36.6105" gradientUnits="userSpaceOnUse">
      <stop stop-color="#fff"/>
      <stop offset=".31" stop-color="#DE4024"/>
      <stop offset=".99" stop-color="#BF190B"/>
      <stop offset="1" stop-color="#BF190B"/>
    </linearGradient>
    <linearGradient id="j" x1="3.2539" x2="34.3465" y1="38.4009" y2="6.5177" gradientUnits="userSpaceOnUse">
      <stop stop-color="#BD0012"/>
      <stop offset=".07" stop-color="#fff"/>
      <stop offset=".17" stop-color="#fff"/>
      <stop offset=".27" stop-color="#C82F1C"/>
      <stop offset=".33" stop-color="#820C01"/>
      <stop offset=".46" stop-color="#A31601"/>
      <stop offset=".72" stop-color="#B31301"/>
      <stop offset=".99" stop-color="#E82609"/>
      <stop offset="1" stop-color="#E82609"/>
    </linearGradient>
    <linearGradient id="k" x1="27.002" x2="17.6603" y1="41.6256" y2="39.3264" gradientUnits="userSpaceOnUse">
      <stop stop-color="#8C0C01"/>
      <stop offset=".54" stop-color="#990C00"/>
      <stop offset=".99" stop-color="#A80D0E"/>
      <stop offset="1" stop-color="#A80D0E"/>
    </linearGradient>
    <linearGradient id="l" x1="43.0422" x2="34.7254" y1="30.3859" y2="22.9525" gradientUnits="userSpaceOnUse">
      <stop stop-color="#7E110B"/>
      <stop offset=".99" stop-color="#9E0C00"/>
      <stop offset="1" stop-color="#9E0C00"/>
    </linearGradient>
    <linearGradient id="m" x1="46.0902" x2="41.9454" y1="16.7048" y2="12.2861" gradientUnits="userSpaceOnUse">
      <stop stop-color="#79130D"/>
      <stop offset=".99" stop-color="#9E120B"/>
      <stop offset="1" stop-color="#9E120B"/>
    </linearGradient>
    <linearGradient id="p" x1="12.3843" x2="8.9993" y1="46.9506" y2="35.4983" gradientUnits="userSpaceOnUse">
      <stop stop-color="#8B2114"/>
      <stop offset=".43" stop-color="#9E100A"/>
      <stop offset=".99" stop-color="#B3100C"/>
      <stop offset="1" stop-color="#B3100C"/>
    </linearGradient>
    <linearGradient id="q" x1="38.2201" x2="45.7771" y1="8.9836" y2="12.3101" gradientUnits="userSpaceOnUse">
      <stop stop-color="#B31000"/>
      <stop offset=".44" stop-color="#910F08"/>
      <stop offset=".99" stop-color="#791C12"/>
      <stop offset="1" stop-color="#791C12"/>
    </linearGradient>
    <radialGradient id="n" cx="0" cy="0" r="1" gradientTransform="matrix(10.167 0 0 10.195 36.0378 23.0721)" gradientUnits="userSpaceOnUse">
      <stop stop-color="#A80D00"/>
      <stop offset=".99" stop-color="#7E0E08"/>
      <stop offset="1" stop-color="#7E0E08"/>
    </radialGradient>
    <radialGradient id="o" cx="0" cy="0" r="1" gradientTransform="matrix(13.515 0 0 13.553 21.9583 36.5073)" gradientUnits="userSpaceOnUse">
      <stop stop-color="#A30C00"/>
      <stop offset=".99" stop-color="#800E08"/>
      <stop offset="1" stop-color="#800E08"/>
    </radialGradient>
    <clipPath id="a">
      <path fill="#fff" d="M7 7h40v40H7z"/>
    </clipPath>
  </defs>
</svg>
