<svg xmlns="http://www.w3.org/2000/svg" width="54" height="54" fill="none">
  <path stroke="#131313" stroke-width="2" d="M27 44.8125c9.8376 0 17.8125-7.9749 17.8125-17.8125S36.8376 9.1875 27 9.1875 9.1875 17.1624 9.1875 27 17.1624 44.8125 27 44.8125Z"/>
  <path fill="#131313" d="M22.2558 26.0141c4.2698-3.4885 8.4465-7.0979 12.8093-10.4839-2.2884 3.5164-4.6418 6.986-6.9303 10.5023-1.9628.0094-3.9255.0095-5.879-.0184Zm3.6093 1.944c1.9721 0 3.9349 0 5.8977.028-4.2977 3.4697-8.4558 7.1069-12.828 10.4837 2.2885-3.5164 4.6419-6.9953 6.9303-10.5117Z"/>
</svg>
