<svg xmlns="http://www.w3.org/2000/svg" width="43" height="43" fill="none">
  <path stroke="#fff" stroke-linecap="round" stroke-linejoin="round" stroke-width="2" d="M37.1407 28.0694a17.4994 17.4994 0 0 1-12.7182 10.3509A17.4996 17.4996 0 0 1 8.719 33.6986 17.4997 17.4997 0 0 1 7.3243 10.363a17.4997 17.4997 0 0 1 6.6989-5.1486m22.75 16.0475c.966 0 1.7587-.7857 1.6625-1.7465A17.5004 17.5004 0 0 0 22.7679 3.8512c-.9625-.0963-1.7465.6965-1.7465 1.6625v14a1.75 1.75 0 0 0 1.75 1.75l14.0018-.0018Z"/>
</svg>
