<svg width="43" height="43" viewBox="0 0 43 43" fill="none" xmlns="http://www.w3.org/2000/svg">
<path d="M21.1602 26.9395C18.2607 26.9395 15.9102 29.29 15.9102 32.1895C15.9102 35.0889 18.2607 37.4395 21.1602 37.4395C24.0597 37.4395 26.4102 35.0889 26.4102 32.1895C26.4102 29.29 24.0597 26.9395 21.1602 26.9395ZM21.1602 26.9395L21.1602 21.6895M10.6602 16.4395C13.5597 16.4395 15.9102 14.0889 15.9102 11.1895C15.9102 8.28996 13.5597 5.93945 10.6602 5.93945C7.76066 5.93945 5.41016 8.28996 5.41016 11.1895C5.41016 14.0889 7.76066 16.4395 10.6602 16.4395ZM10.6602 16.4395L10.6602 19.9395C10.6602 20.9895 11.3602 21.6895 12.4102 21.6895L29.9102 21.6895C30.9602 21.6895 31.6602 20.9895 31.6602 19.9395L31.6602 16.4395M31.6602 16.4395C34.5597 16.4395 36.9102 14.0889 36.9102 11.1895C36.9102 8.28996 34.5597 5.93945 31.6602 5.93945C28.7607 5.93945 26.4102 8.28996 26.4102 11.1895C26.4102 14.0889 28.7607 16.4395 31.6602 16.4395Z" stroke="white" stroke-width="2" stroke-linecap="round" stroke-linejoin="round"/>
</svg>
