<svg width="33" height="33" viewBox="0 0 33 33" fill="none" xmlns="http://www.w3.org/2000/svg">
<path d="M17.1523 3.10596H16.5656C15.8584 3.10596 15.1801 3.38691 14.68 3.88701C14.1799 4.3871 13.8989 5.06538 13.8989 5.77262V6.01262C13.8985 6.48026 13.775 6.93954 13.541 7.34441C13.307 7.74927 12.9706 8.08547 12.5656 8.31929L11.9923 8.65262C11.5869 8.88667 11.127 9.00989 10.6589 9.00989C10.1909 9.00989 9.731 8.88667 9.32562 8.65262L9.12562 8.54596C8.5137 8.19297 7.78673 8.09722 7.10429 8.2797C6.42184 8.46219 5.83969 8.908 5.48562 9.51929L5.19228 10.026C4.8393 10.6379 4.74354 11.3648 4.92603 12.0473C5.10851 12.7297 5.55433 13.3119 6.16562 13.666L6.36562 13.7993C6.76865 14.032 7.10378 14.3661 7.33768 14.7684C7.57159 15.1707 7.69614 15.6273 7.69895 16.0926V16.7726C7.70082 17.2425 7.57848 17.7046 7.34434 18.112C7.1102 18.5194 6.77256 18.8577 6.36562 19.0926L6.16562 19.2126C5.55433 19.5667 5.10851 20.1488 4.92603 20.8313C4.74354 21.5137 4.8393 22.2407 5.19228 22.8526L5.48562 23.3593C5.83969 23.9706 6.42184 24.4164 7.10429 24.5989C7.78673 24.7814 8.5137 24.6856 9.12562 24.3326L9.32562 24.226C9.731 23.9919 10.1909 23.8687 10.6589 23.8687C11.127 23.8687 11.5869 23.9919 11.9923 24.226L12.5656 24.5593C12.9706 24.7931 13.307 25.1293 13.541 25.5342C13.775 25.939 13.8985 26.3983 13.8989 26.866V27.106C13.8989 27.8132 14.1799 28.4915 14.68 28.9916C15.1801 29.4917 15.8584 29.7726 16.5656 29.7726H17.1523C17.8595 29.7726 18.5378 29.4917 19.0379 28.9916C19.538 28.4915 19.8189 27.8132 19.8189 27.106V26.866C19.8194 26.3983 19.9429 25.939 20.1769 25.5342C20.4109 25.1293 20.7473 24.7931 21.1523 24.5593L21.7256 24.226C22.131 23.9919 22.5909 23.8687 23.0589 23.8687C23.527 23.8687 23.9869 23.9919 24.3923 24.226L24.5923 24.3326C25.2042 24.6856 25.9312 24.7814 26.6136 24.5989C27.2961 24.4164 27.8782 23.9706 28.2323 23.3593L28.5256 22.8393C28.8786 22.2274 28.9744 21.5004 28.7919 20.818C28.6094 20.1355 28.1636 19.5534 27.5523 19.1993L27.3523 19.0926C26.9453 18.8577 26.6077 18.5194 26.3736 18.112C26.1394 17.7046 26.0171 17.2425 26.019 16.7726V16.106C26.0171 15.6361 26.1394 15.174 26.3736 14.7666C26.6077 14.3592 26.9453 14.0209 27.3523 13.786L27.5523 13.666C28.1636 13.3119 28.6094 12.7297 28.7919 12.0473C28.9744 11.3648 28.8786 10.6379 28.5256 10.026L28.2323 9.51929C27.8782 8.908 27.2961 8.46219 26.6136 8.2797C25.9312 8.09722 25.2042 8.19297 24.5923 8.54596L24.3923 8.65262C23.9869 8.88667 23.527 9.00989 23.0589 9.00989C22.5909 9.00989 22.131 8.88667 21.7256 8.65262L21.1523 8.31929C20.7473 8.08547 20.4109 7.74927 20.1769 7.34441C19.9429 6.93954 19.8194 6.48026 19.8189 6.01262V5.77262C19.8189 5.06538 19.538 4.3871 19.0379 3.88701C18.5378 3.38691 17.8595 3.10596 17.1523 3.10596Z" stroke="white" stroke-width="2" stroke-linecap="round" stroke-linejoin="round"/>
<path d="M16.8589 20.4393C19.0681 20.4393 20.8589 18.6484 20.8589 16.4393C20.8589 14.2302 19.0681 12.4393 16.8589 12.4393C14.6498 12.4393 12.8589 14.2302 12.8589 16.4393C12.8589 18.6484 14.6498 20.4393 16.8589 20.4393Z" stroke="white" stroke-width="2" stroke-linecap="round" stroke-linejoin="round"/>
</svg>
