<svg xmlns="http://www.w3.org/2000/svg" width="42" height="172" fill="none"><path fill="url(#a)" d="M18 63 9 171h24L25 63h-7Z"/><path fill="url(#b)" d="M6 66 0 172h8L7.6 66H6Z"/><path fill="url(#c)" d="m36 66 6 106h-8l.4-106H36Z"/><path fill="url(#d)" fill-rule="evenodd" d="M21.76.052s-3.74 17.177-4.238 29.507c-.059 1.438-.076 4.712-.074 8.36L8.155 55.177A1.087 1.087 0 0 0 6 55.381v9.902a1.087 1.087 0 0 0 2.174 0V64.19l9.375-11.288c.428 2.571.837 4.752 1.23 6.55l-1.001 3.492a.7.7 0 0 0 .673.893h1.512c.992 2.744 1.885 2.693 2.725 0h1.948a.7.7 0 0 0 .673-.893l-1.419-4.947c.235-1.535.466-3.29.697-5.262l.028-.42 9.211 11.09v1.877a1.087 1.087 0 1 0 2.174 0V55.38a1.087 1.087 0 0 0-1.824-.8l-8.71-16.177c.205-3.84.354-7.343.316-8.845C25.473 17.304 21.761.052 21.761.052Z" clip-rule="evenodd"/><defs><linearGradient id="a" x1="21" x2="21" y1="63" y2="137" gradientUnits="userSpaceOnUse"><stop stop-color="#FFC07D"/><stop offset="1" stop-color="#fff" stop-opacity="0"/></linearGradient><linearGradient id="b" x1="4" x2="0" y1="66" y2="139.5" gradientUnits="userSpaceOnUse"><stop stop-color="#FFC07D"/><stop offset="1" stop-color="#fff" stop-opacity="0"/></linearGradient><linearGradient id="c" x1="38" x2="33.924" y1="66" y2="136.157" gradientUnits="userSpaceOnUse"><stop stop-color="#FFC07D"/><stop offset="1" stop-color="#fff" stop-opacity="0"/></linearGradient><linearGradient id="d" x1="21" x2="21" y1=".052" y2="66.37" gradientUnits="userSpaceOnUse"><stop stop-color="#fff"/><stop offset="1" stop-color="#FFB360"/></linearGradient></defs></svg>