<svg xmlns="http://www.w3.org/2000/svg" xmlns:xlink="http://www.w3.org/1999/xlink" fill="none" viewBox="0 0 1440 234">
  <path fill="#261614" d="m1055.34 52 4.33 17.8-4.16-.47-.59.86c.84.77 1.57 1.96 2.55 2.24 2.79.8 3.67 2.74 4.24 5.28 1.51 6.7 3.19 13.35 4.94 20.63-3.03-.18-5.44-.52-7.81-.36-1.41.1-3.92.99-3.92 1.56-.04 2.11-1 4.96 2.56 5.75a44.1 44.1 0 0 1 8.63 2.63c1.56.71 3.34 2.25 3.83 3.79 1.65 5.28 2.77 10.73 4.25 16.75l-16.56-2.53c-.11.36-.21.73-.3 1.09 4.23 1.45 8.37 3.21 12.7 4.26 4.17 1 6 3.2 6.98 7.43 2.85 12.45 6.27 24.78 9.45 37.15.21.82.32 1.67.58 3.08h-30.38c0 7.97.09 15.4-.08 22.82-.02 1.4-1.03 2.79-1.59 4.18l-1.64-.43v-26.4h-30.72c1.61-6.28 2.94-11.99 4.61-17.59.31-1.01 1.93-2 3.13-2.34 5.82-1.6 11.74-2.85 17.54-4.5 1.71-.48 3.18-1.8 4.76-2.75l-.54-1.32-23.2 3.65c1.65-6.18 3.09-11.92 4.78-17.57.26-.87 1.68-1.46 2.65-2.04 5.43-3.25 10.84-6.52 16.34-9.64 2.17-1.23 3.36-2.6 1.94-5.56l-18.68 7.13 18.52-74.45.86-.13Z"/>
  <path fill="#261614" d="m1006.12 95 3.46 14.22-3.32-.38-.48.69c.68.61 1.26 1.56 2.04 1.78 2.23.64 2.94 2.2 3.39 4.22 1.2 5.35 2.55 10.66 3.95 16.48-2.42-.14-4.35-.42-6.25-.29-1.12.08-3.12.79-3.13 1.24-.02 1.7-.79 3.97 2.05 4.6 2.35.52 4.72 1.12 6.89 2.1 1.25.57 2.67 1.8 3.06 3.02 1.32 4.22 2.21 8.58 3.4 13.38l-13.23-2.02-.24.87c3.38 1.16 6.69 2.57 10.14 3.4 3.34.81 4.8 2.56 5.58 5.94 2.27 9.94 5.01 19.78 7.54 29.67.17.65.26 1.33.47 2.45h-24.26c0 6.37.07 12.3-.07 18.23-.02 1.12-.82 2.23-1.26 3.34l-1.32-.34v-21.08H980c1.28-5.02 2.35-9.58 3.68-14.05.25-.81 1.54-1.6 2.5-1.87 4.65-1.28 9.37-2.28 14.01-3.6 1.37-.38 2.54-1.44 3.8-2.2l-.43-1.05-18.53 2.92c1.32-4.94 2.47-9.52 3.82-14.03.2-.7 1.34-1.17 2.11-1.64 4.34-2.59 8.66-5.2 13.06-7.7 1.73-.97 2.68-2.06 1.54-4.43l-14.92 5.7 14.79-59.47.69-.1Z"/>
  <mask id="a" width="829" height="367" x="623" y="43" maskUnits="userSpaceOnUse" style="mask-type:alpha">
    <path fill="#0E0E0E" d="M1244.73 76.05C1325.09 58.52 1452 43 1452 43v367H628.48s-12.33-62.88 0-100.53c22.4-68.46 101.31-78.18 180.02-84.47 162.93-13.02 139.5-37.61 216.78-50.82 205.05-35.05 139.82-80.77 219.45-98.14Z"/>
  </mask>
  <g mask="url(#a)">
    <path fill="#0E0E0E" d="M1244.73 76.05C1325.09 58.52 1452 43 1452 43v367H628.48s-12.33-62.88 0-100.53c22.4-68.46 101.31-78.18 180.02-84.47 162.93-13.02 139.5-37.61 216.78-50.82 205.05-35.05 139.82-80.77 219.45-98.14Z"/>
    <path fill="url(#b)" fill-opacity=".7" d="M1244.73 76.05C1325.09 58.52 1452 43 1452 43v122.5L628.48 374s-12.33-26.88 0-64.53c22.4-68.46 101.31-78.18 180.02-84.47 162.93-13.02 139.5-37.61 216.78-50.82 205.05-35.05 139.82-80.77 219.45-98.14Z"/>
    <path fill="url(#c)" fill-opacity=".3" d="M1244.73 76.05C1325.09 58.52 1452 43 1452 43v122.5L628.48 374s-12.33-26.88 0-64.53c22.4-68.46 101.31-78.18 180.02-84.47 162.93-13.02 139.5-37.61 216.78-50.82 205.05-35.05 139.82-80.77 219.45-98.14Z" style="mix-blend-mode:overlay"/>
    <path fill="url(#d)" d="M1507-33 710 155.5l-40 196 862-55.5-25-329Z"/>
  </g>
  <mask id="e" width="739" height="486" x="-30" y="0" maskUnits="userSpaceOnUse" style="mask-type:alpha">
    <path fill="#0E0E0E" d="M519.5 171.5c-69.67-37-177.15-61.3-255.93-65.5C104 97.5-29.5.5-29.5.5L-21 486h661.5l36-83.5 32.5-163s-114.12-27.97-189.5-68Z"/>
  </mask>
  <g mask="url(#e)">
    <path fill="#0E0E0E" d="M519.5 171.5c-69.67-37-177.15-61.3-255.93-65.5C104 97.5-29.5.5-29.5.5L-21 486h661.5l36-83.5 32.5-163s-114.12-27.97-189.5-68Z"/>
    <path fill="url(#f)" fill-opacity=".7" d="M519.5 171.5c-69.67-37-177.15-61.3-255.93-65.5C104 97.5-29.5.5-29.5.5L-21 116l661.5 160 68.5-36.5s-114.12-27.97-189.5-68Z"/>
    <path fill="url(#g)" fill-opacity=".3" d="M519.5 171.5c-69.67-37-177.15-61.3-255.93-65.5C104 97.5-29.5.5-29.5.5L-21 116l661.5 160 68.5-36.5s-114.12-27.97-189.5-68Z" style="mix-blend-mode:overlay"/>
    <path fill="url(#h)" d="m-83 44 797 188.5L700 373h-808l25-329Z"/>
  </g>
  <defs>
    <linearGradient id="b" x1="949" x2="1037.5" y1="43" y2="374" gradientUnits="userSpaceOnUse">
      <stop stop-color="#FF523A"/>
      <stop offset=".6" stop-color="#FF523A" stop-opacity="0"/>
    </linearGradient>
    <linearGradient id="d" x1="1094" x2="1076" y1="64" y2="264" gradientUnits="userSpaceOnUse">
      <stop stop-color="#0E0E0E" stop-opacity="0"/>
      <stop offset="1" stop-color="#0E0E0E"/>
    </linearGradient>
    <linearGradient id="f" x1="340" x2="301" y1="28" y2="174" gradientUnits="userSpaceOnUse">
      <stop stop-color="#FF523A"/>
      <stop offset="1" stop-color="#0E0E0E"/>
    </linearGradient>
    <linearGradient id="h" x1="330" x2="303" y1="141" y2="373" gradientUnits="userSpaceOnUse">
      <stop stop-color="#0E0E0E" stop-opacity="0"/>
      <stop offset="1" stop-color="#0E0E0E"/>
    </linearGradient>
    <pattern id="c" width="2.47" height="6.19" patternContentUnits="objectBoundingBox">
      <use xlink:href="#i" transform="scale(.001 .003)"/>
    </pattern>
    <pattern id="g" width="2.77" height="7.43" patternContentUnits="objectBoundingBox">
      <use xlink:href="#i" transform="scale(.001 .004)"/>
    </pattern>
  </defs>
</svg>
