<svg xmlns="http://www.w3.org/2000/svg" xmlns:xlink="http://www.w3.org/1999/xlink" width="1440" height="310" fill="none"><g fill-rule="evenodd" clip-rule="evenodd" opacity=".7"><path fill="#FF523A" fill-opacity=".06" d="M258.496 190.862c-96.808 7.727-207.01 40.578-351.926 118.507l-42.156-67.793L-182 155.264l43.156-23.207C14.239 49.737 137.663 11.275 251.699 2.173c113.962-9.096 214.543 11.51 319.951 40.903 32.358 9.023 65.38 18.928 99.713 29.226 187.775 56.322 414.787 164.41 786.997 164.41h49v58h-49c-387.34 0-628.362 18.904-817.042-37.771-33.793-10.151-65.94-19.808-96.992-28.466-101.467-28.295-188.948-45.345-285.83-37.613Z"/><path fill="url(#a)" fill-opacity=".1" d="M258.496 190.862c-96.808 7.727-207.01 40.578-351.926 118.507l-42.156-67.793L-182 155.264l43.156-23.207C14.239 49.737 137.663 11.275 251.699 2.173c113.962-9.096 214.543 11.51 319.951 40.903 32.358 9.023 65.38 18.928 99.713 29.226 187.775 56.322 414.787 164.41 786.997 164.41h49v58h-49c-387.34 0-628.362 18.904-817.042-37.771-33.793-10.151-65.94-19.808-96.992-28.466-101.467-28.295-188.948-45.345-285.83-37.613Z" style="mix-blend-mode:overlay"/></g><defs><pattern id="a" width="1.212" height="6.62" patternContentUnits="objectBoundingBox"><use xlink:href="#b" transform="scale(0 .003)"/></pattern></defs></svg>