<svg xmlns="http://www.w3.org/2000/svg" width="1143" height="573" fill="none"><path fill="#D9D9D9" d="m8 0 .577 3.563a4 4 0 0 0 2.91 3.224L16 8l-4.513 1.214a4 4 0 0 0-2.91 3.223L8 16l-.577-3.563a4 4 0 0 0-2.91-3.223L0 8l4.513-1.214a4 4 0 0 0 2.91-3.223L8 0Z"/><circle cx="193" cy="244" r="19" fill="#FFC484" fill-opacity=".1"/><circle cx="193" cy="244" r="24" fill="#FFC484" fill-opacity=".1"/><path fill="#DCB183" d="m193 231 .854 5.277a7.304 7.304 0 0 0 5.314 5.886L206 244l-6.832 1.837a7.304 7.304 0 0 0-5.314 5.886L193 257l-.854-5.277a7.304 7.304 0 0 0-5.314-5.886L180 244l6.832-1.837a7.304 7.304 0 0 0 5.314-5.886L193 231Z"/><path fill="#D1D1D1" d="m806 559 .112.69a7.304 7.304 0 0 0 5.314 5.887L813 566l-1.574.423a7.304 7.304 0 0 0-5.314 5.887L806 573l-.112-.69a7.304 7.304 0 0 0-5.314-5.887L799 566l1.574-.423a7.304 7.304 0 0 0 5.314-5.887L806 559Z"/><path fill="#EFEFEF" d="m1122 64 1.84 11.392a7.305 7.305 0 0 0 5.32 5.886L1143 85l-13.84 3.722a7.305 7.305 0 0 0-5.32 5.886L1122 106l-1.84-11.392a7.305 7.305 0 0 0-5.32-5.886L1101 85l13.84-3.722a7.305 7.305 0 0 0 5.32-5.886L1122 64Z"/></svg>