<svg xmlns="http://www.w3.org/2000/svg" xmlns:xlink="http://www.w3.org/1999/xlink" width="1440" height="257" fill="none">
  <path fill="#FF523A" fill-opacity=".02" fill-rule="evenodd" d="M777.95 57.8711c316.27-123.898 609.9-18.4533 713.56 35.692l43.43 22.6859-45.37 139.864-43.43-22.686c-90.34-47.188-352.87-176.8325-632.443-67.308-354.241 138.775-623.022 67.439-777.2769 47.734-20.3723-2.603-38.747-4.95-55.0571-6.61l9.9207-46.496c17.419 1.772 36.584 4.199 57.4728 6.844C201.982 186.995 447.961 187.145 777.95 57.8711Z" clip-rule="evenodd"/>
  <path fill="url(#a)" fill-opacity=".1" fill-rule="evenodd" d="M777.95 57.8711c316.27-123.898 609.9-18.4533 713.56 35.692l43.43 22.6859-45.37 139.864-43.43-22.686c-90.34-47.188-352.87-176.8325-632.443-67.308-354.241 138.775-623.022 67.439-777.2769 47.734-20.3723-2.603-38.747-4.95-55.0571-6.61l9.9207-46.496c17.419 1.772 36.584 4.199 57.4728 6.844C201.982 186.995 447.961 187.145 777.95 57.8711Z" clip-rule="evenodd" style="mix-blend-mode:overlay"/>
  <defs>
    <pattern id="a" width="1.3182" height="7.9965" patternContentUnits="objectBoundingBox">
      <use xlink:href="#b" transform="scale(0 .004)"/>
    </pattern>
  </defs>
</svg>
