<svg xmlns="http://www.w3.org/2000/svg" width="1143" height="573" fill="none">
  <path fill="#D9D9D9" d="m8 0 .5768 3.563a4 4 0 0 0 2.9099 3.2235L16 8l-4.5132 1.2135a4 4 0 0 0-2.91 3.2236L8 16l-.5768-3.5629a4 4 0 0 0-2.91-3.2235L0 8l4.5133-1.2135a4 4 0 0 0 2.9099-3.2236L8 0Z"/>
  <circle cx="193" cy="244" r="19" fill="#FFC484" fill-opacity=".1"/>
  <circle cx="193" cy="244" r="24" fill="#FFC484" fill-opacity=".1"/>
  <path fill="#DCB183" d="m193 231 .854 5.277c.459 2.836 2.539 5.14 5.314 5.886L206 244l-6.832 1.837c-2.775.746-4.855 3.05-5.314 5.886L193 257l-.854-5.277c-.459-2.836-2.539-5.14-5.314-5.886L180 244l6.832-1.837c2.775-.746 4.855-3.05 5.314-5.886L193 231Z"/>
  <path fill="#D1D1D1" d="m806 559 .112.69c.459 2.837 2.539 5.141 5.314 5.887L813 566l-1.574.423c-2.775.746-4.855 3.05-5.314 5.887L806 573l-.112-.69c-.459-2.837-2.539-5.141-5.314-5.887L799 566l1.574-.423c2.775-.746 4.855-3.05 5.314-5.887L806 559Z"/>
  <path fill="#EFEFEF" d="m1122 64 1.84 11.3916c.46 2.8366 2.54 5.1404 5.32 5.8865L1143 85l-13.84 3.7219c-2.78.7461-4.86 3.0499-5.32 5.8865L1122 106l-1.84-11.3916c-.46-2.8366-2.54-5.1404-5.32-5.8865L1101 85l13.84-3.7219c2.78-.7461 4.86-3.0499 5.32-5.8865L1122 64Z"/>
</svg>
