<svg xmlns="http://www.w3.org/2000/svg" width="125" height="36" fill="none"><g filter="url(#a)"><path fill="#FFCD98" fill-rule="evenodd" d="m53.688 8.61-2.233 5.452-2.853.243a.786.786 0 0 0-.621 1.164l.989 1.786a.786.786 0 0 1 .095.314l.064.747a.783.783 0 0 0 .223.485l-1.888.161a2.13 2.13 0 0 0 .361 4.244l52.504-4.47a2.13 2.13 0 1 0-.361-4.245l-1.7.145c.249-.371.17-.944-.33-1.167l-5.845-2.61a.786.786 0 0 0-.867.152l-.177.171c-3.007-.91-6.265-1.786-9.058-2.285-9.615-1.72-24.748-.94-27.633-.77a.772.772 0 0 0-.67.483Z" clip-rule="evenodd"/></g><path stroke="url(#b)" stroke-width="2.063" d="M39.279 16.918.918 20.185"/><path stroke="url(#c)" stroke-width="1.375" d="M39.49 19.409 1.13 22.676"/><circle cx="41.253" cy="18.004" r="3" fill="#fff" transform="rotate(-4.9 41.253 18.004)"/><path fill="url(#d)" d="M118.923 2.357 83.32 17.01l36.664-2.198-1.061-12.455Z"/><path fill="url(#e)" d="M54.782 6.259 51.52 16.444c-.154.48.23.962.732.919L94.56 13.76c.717-.061.889-1.008.232-1.302-3.387-1.513-9.75-4.204-14.562-5.35-8.636-2.054-22.142-1.475-24.827-1.335a.688.688 0 0 0-.62.486Z"/><path fill="url(#f)" d="m49.633 13.498 1.067 2.305a.708.708 0 0 1 .063.237l.09 1.048a.706.706 0 0 0 .763.644l43.275-3.686c.692-.059.892-.978.286-1.318l-5.76-3.238a.706.706 0 0 0-.885.16l-2.009 2.383a.706.706 0 0 1-.48.248l-24.087 2.051a.706.706 0 0 1-.546-.191l-2.28-2.164a.706.706 0 0 0-.546-.191l-8.37.712a.706.706 0 0 0-.581 1Z"/><path fill="url(#g)" d="m96.055 13.633-46.264 3.94a2.353 2.353 0 0 0 .4 4.688l46.264-3.94a2.353 2.353 0 0 0-.4-4.689Z"/><path stroke="url(#h)" stroke-linecap="round" d="M61.4 7.086c4.408-.2 14.636.009 20.281 2.458"/><circle cx="83.218" cy="9.914" r=".5" fill="#F3C1BA" transform="rotate(-4.9 83.218 9.914)"/><defs><linearGradient id="b" x1="41.022" x2="2.661" y1="16.769" y2="20.036" gradientUnits="userSpaceOnUse"><stop stop-color="#fff"/><stop offset="1" stop-color="#FFB96D" stop-opacity="0"/></linearGradient><linearGradient id="c" x1="41.235" x2="2.873" y1="19.261" y2="22.527" gradientUnits="userSpaceOnUse"><stop stop-color="#fff"/><stop offset="1" stop-color="#FFB96D" stop-opacity="0"/></linearGradient><linearGradient id="d" x1="81.702" x2="117.305" y1="17.676" y2="3.023" gradientUnits="userSpaceOnUse"><stop stop-color="#FFB96D"/><stop offset="1" stop-color="#FFB96D" stop-opacity="0"/></linearGradient><linearGradient id="e" x1="73.215" x2="69.59" y1="4.243" y2="23.06" gradientUnits="userSpaceOnUse"><stop stop-color="#FFF0EE"/><stop offset="1" stop-color="#3F3F3F"/></linearGradient><linearGradient id="f" x1="67.572" x2="68.916" y1="10.076" y2="18.462" gradientUnits="userSpaceOnUse"><stop stop-color="#fff"/><stop offset="1" stop-color="#C7C7C7"/></linearGradient><linearGradient id="g" x1="72.923" x2="74.09" y1="15.602" y2="23.06" gradientUnits="userSpaceOnUse"><stop stop-color="#232323"/><stop offset="1" stop-color="#585858"/></linearGradient><linearGradient id="h" x1="72.297" x2="71.592" y1="5.649" y2="9.144" gradientUnits="userSpaceOnUse"><stop stop-color="#fff"/><stop offset="1" stop-color="#fff" stop-opacity="0"/></linearGradient><filter id="a" width="65.674" height="24.321" x="41.06" y="3.348" color-interpolation-filters="sRGB" filterUnits="userSpaceOnUse"><feFlood flood-opacity="0" result="BackgroundImageFix"/><feBlend in="SourceGraphic" in2="BackgroundImageFix" result="shape"/><feGaussianBlur result="effect1_foregroundBlur_557_24088" stdDeviation="2.228"/></filter></defs></svg>