<svg xmlns="http://www.w3.org/2000/svg" width="125" height="36" fill="none">
  <g filter="url(#a)">
    <path fill="#FFCD98" fill-rule="evenodd" d="m53.6885 8.61-2.2335 5.4523-2.853.2429c-.5677.0484-.8971.6657-.6211 1.1642l.9888 1.7858a.786.786 0 0 1 .0955.3141l.0637.7471a.783.783 0 0 0 .2232.485l-1.8881.1607c-1.172.0999-2.0412 1.1309-1.9414 2.3029.0998 1.172 1.1308 2.0412 2.3028 1.9414l52.5036-4.4713c1.172-.0998 2.042-1.1308 1.942-2.3028-.1-1.172-1.131-2.0412-2.303-1.9414l-1.7007.1448c.2494-.3709.1708-.9435-.3288-1.1665l-5.8458-2.6101a.7862.7862 0 0 0-.8663.1521l-.1773.171c-3.0073-.9099-6.2653-1.7862-9.0578-2.2854-9.6154-1.7189-24.7481-.9403-27.6331-.7704-.2996.0177-.556.2059-.6697.4836Z" clip-rule="evenodd"/>
  </g>
  <path stroke="url(#b)" stroke-width="2.0625" d="M39.2788 16.9177.9176 20.1846"/>
  <path stroke="url(#c)" stroke-width="1.375" d="M39.4909 19.409 1.1298 22.6758"/>
  <circle cx="41.2531" cy="18.0042" r="3" fill="#fff" transform="rotate(-4.9 41.2531 18.0042)"/>
  <path fill="url(#d)" d="M118.923 2.3572 83.3204 17.0098l36.6636-2.1977-1.061-12.455Z"/>
  <path fill="url(#e)" d="m54.7817 6.259-3.2608 10.1852c-.1536.4797.2303.9613.7322.9186L94.5594 13.76c.7171-.0611.8885-1.0084.2314-1.302-3.387-1.5129-9.7496-4.2043-14.5618-5.3492-8.6355-2.0546-22.1415-1.476-24.827-1.3354-.2904.0152-.5317.2088-.6203.4857Z"/>
  <path fill="url(#f)" d="m49.6328 13.4985 1.0674 2.3047a.708.708 0 0 1 .0628.2367l.0893 1.0484a.7058.7058 0 0 0 .7632.6434l43.2754-3.6853c.6926-.059.892-.978.2861-1.3186l-5.7592-3.2383a.7058.7058 0 0 0-.8856.1603l-2.0088 2.3828a.7062.7062 0 0 1-.4798.2483l-24.0878 2.0513a.706.706 0 0 1-.5458-.1913l-2.2804-2.164a.7063.7063 0 0 0-.5458-.1913l-8.3704.7129c-.4881.0415-.7865.5555-.5806 1Z"/>
  <path fill="url(#g)" d="m96.0554 13.6325-46.2639 3.9398c-1.2948.1103-2.2551 1.2493-2.1448 2.5441.1102 1.2948 1.2493 2.2551 2.5441 2.1448l46.2639-3.9398c1.2948-.1103 2.2551-1.2493 2.1448-2.5441-.1103-1.2948-1.2493-2.2551-2.5441-2.1448Z"/>
  <path stroke="url(#h)" stroke-linecap="round" d="M61.3994 7.0864c4.4085-.2012 14.6367.0084 20.2816 2.4571"/>
  <circle cx="83.2181" cy="9.9143" r=".5" fill="#F3C1BA" transform="rotate(-4.9 83.2181 9.9143)"/>
  <defs>
    <linearGradient id="b" x1="41.0224" x2="2.6613" y1="16.7693" y2="20.0361" gradientUnits="userSpaceOnUse">
      <stop stop-color="#fff"/>
      <stop offset="1" stop-color="#FFB96D" stop-opacity="0"/>
    </linearGradient>
    <linearGradient id="c" x1="41.2346" x2="2.8735" y1="19.2605" y2="22.5273" gradientUnits="userSpaceOnUse">
      <stop stop-color="#fff"/>
      <stop offset="1" stop-color="#FFB96D" stop-opacity="0"/>
    </linearGradient>
    <linearGradient id="d" x1="81.7021" x2="117.305" y1="17.6758" y2="3.0232" gradientUnits="userSpaceOnUse">
      <stop stop-color="#FFB96D"/>
      <stop offset="1" stop-color="#FFB96D" stop-opacity="0"/>
    </linearGradient>
    <linearGradient id="e" x1="73.2154" x2="69.5903" y1="4.2426" y2="23.0604" gradientUnits="userSpaceOnUse">
      <stop stop-color="#FFF0EE"/>
      <stop offset="1" stop-color="#3F3F3F"/>
    </linearGradient>
    <linearGradient id="f" x1="67.5724" x2="68.9164" y1="10.0756" y2="18.4624" gradientUnits="userSpaceOnUse">
      <stop stop-color="#fff"/>
      <stop offset="1" stop-color="#C7C7C7"/>
    </linearGradient>
    <linearGradient id="g" x1="72.9234" x2="74.0903" y1="15.6024" y2="23.0603" gradientUnits="userSpaceOnUse">
      <stop stop-color="#232323"/>
      <stop offset="1" stop-color="#585858"/>
    </linearGradient>
    <linearGradient id="h" x1="72.2974" x2="71.592" y1="5.6492" y2="9.1438" gradientUnits="userSpaceOnUse">
      <stop stop-color="#fff"/>
      <stop offset="1" stop-color="#fff" stop-opacity="0"/>
    </linearGradient>
    <filter id="a" width="65.6739" height="24.3211" x="41.0598" y="3.3483" color-interpolation-filters="sRGB" filterUnits="userSpaceOnUse">
      <feFlood flood-opacity="0" result="BackgroundImageFix"/>
      <feBlend in="SourceGraphic" in2="BackgroundImageFix" result="shape"/>
      <feGaussianBlur result="effect1_foregroundBlur_557_24088" stdDeviation="2.2275"/>
    </filter>
  </defs>
</svg>
