<svg xmlns="http://www.w3.org/2000/svg" width="1440" height="323" fill="none"><path fill="url(#a)" d="M-133 62.5s225.08 44.963 309.5 56c69.143 9.04 175.498 23.038 175.498 23.038l187.697 14.452s161.451 32.08 208.686 32.878c127.678 2.157 249.057-36.796 311.289-55.511 201.96-60.734 402.56-42.355 402.56-42.355l23.94 161.361-1804.866 69.654L-133 62.5Z"/><path fill="#FDCDB2" d="M573.141 130c.391 1.649.785 3.298 1.21 5.088-.505-.059-.833-.099-1.162-.136l-.166.247c.236.22.439.561.714.64.78.227 1.026.785 1.186 1.51.42 1.914.89 3.815 1.38 5.896-.847-.05-1.52-.148-2.184-.102-.394.028-1.094.282-1.096.445-.01.605-.278 1.419.717 1.644.821.185 1.651.402 2.411.753.437.202.934.642 1.07 1.081.461 1.511.774 3.069 1.19 4.79-1.673-.262-3.153-.492-4.63-.724-.029.104-.058.208-.085.311 1.183.415 2.342.919 3.551 1.217 1.166.289 1.678.914 1.951 2.123.796 3.56 1.752 7.083 2.64 10.621.058.234.09.476.162.879h-8.489c0 2.278.024 4.402-.022 6.525-.007.4-.29.795-.444 1.192l-.459-.121v-7.544H564c.449-1.798.821-3.429 1.289-5.029.084-.291.538-.575.874-.669 1.627-.459 3.28-.817 4.902-1.286.478-.139.889-.519 1.33-.788l-.152-.378-6.483 1.045c.461-1.768.864-3.407 1.337-5.022.072-.249.468-.419.739-.585 1.518-.928 3.031-1.861 4.569-2.755.606-.35.939-.741.541-1.587l-5.221 2.036 5.175-21.28.241-.037Z"/><path fill="#FBBEA4" fill-rule="evenodd" d="M924.424 52.166V34h-.374v2.06h-6.368v-1.686h-.375v17.98h2.586l-2.22 1.366-.172.106-.006.201-.386 11.986-.217 6.743-.289 8.99-.268 8.317-.048.051.045.043v.016l-.289 8.99-.302 9.364-.283 8.803-.313 9.739-.38 11.799-.337 10.488-.301 9.364-.44 13.672-.368 11.424-.319 9.926.749.025.307-9.559 6.408 4.966.002.314-6.567 4.903.449.6 6.121-4.571.022 5.583.749-.003-.024-6.138.069-.051 7.059 5.47.013.361.749-.029-.022-.573.064-.083-.069-.054-.426-11.089-.438-11.424-.524-13.672-.36-9.365-.402-10.488-.452-11.799-.374-9.739-.338-8.802-.359-9.364-.345-8.99-.323-8.428-.345-8.99-.258-6.742-.031-.797.019-.02-.021-.02-.012-.33.068-.087-.074-.057-.409-10.675-.009-.222-.198-.099-2.701-1.35h3.657v-.188Zm-6.742-14.983V44.3h6.368v-7.117h-6.368Zm0 8.241h6.368v6.555h-6.368v-6.555Zm5.466 14.424.176 4.572-2.244-2.176 1.913-2.551.155.155Zm-.042-1.102-.171-4.471-2.254-1.127.012 3.185 2.413 2.413Zm-3.165-3.165-.009-2.372-1.463.9 1.472 1.472Zm-1.725-.666 1.729 1.73.018 4.516-1.889-1.832.142-4.414Zm2.481 2.482 1.761 1.76-1.745 2.327-.016-4.087Zm2.248 7.7-2.226-2.16.011 2.714h1.784l.431-.555Zm-2.978-2.889-1.926-1.867-.158 4.917 2.085-2.78-.001-.27Zm8.339 132.096-.363-9.464-6.035 4.506 6.398 4.958Zm-7.012-5.435 6.25-4.666h-6.35l.018 4.603.082.063Zm-.833-.645-.016-4.021h-5.172l5.188 4.021Zm-.386-98.413h-2.463l2.453-2.57.01 2.57Zm-2.964-.56 2.95-3.09-.002-.453-2.733-3.143-.215 6.686Zm.831-7.119h2.103l.01 2.43-2.113-2.43Zm2.87 4.442.012 3.237h2.802l-2.814-3.237Zm3.466 3.986.051.058.001.04-.102-.098h.05Zm.005-1.136-3.004-3.455 2.76-2.892.244 6.347Zm-3.476-4.045 3.099-3.247h-3.112l.013 3.247ZM918.418 66.4h1.566l.006 1.525-1.572-1.525Zm1.539 2.538-2.287 2.94.161-5.004 2.126 2.064Zm.789.765 2.771 2.69h-2.761l-.01-2.69Zm2.846 1.719-2.631-2.554 1.919-2.468h.52l.192 5.022Zm-3.573 4.104-1.927-2.384h1.918l.009 2.384Zm.007 1.812-.002-.614-2.414-2.986-.222 6.897 2.638-3.297Zm3.765 4.045-3.014-3.728.014 3.728h3Zm-2.558-4.355 2.703 3.342-.246-6.412-2.457 3.07Zm-1.191 4.355h-2.293l2.282-2.852.011 2.852Zm.717-8.24h2.624l-2.611 3.263-.013-3.264Zm-.761-3.038-1.779 2.288h1.788l-.009-2.288Zm1.933-3.705-1.192 1.533-.006-1.533h1.198Zm-1.958-2.68-1.448 1.93h1.456l-.008-1.93Zm.424 108.309h-5.536l5.516-5.279.02 5.279Zm-5.928-.662 5.904-5.65-.001-.091-5.547-5.313-.356 11.054Zm.388-12.06.007-.2h5.483l.021 5.478-5.511-5.278Zm6.646 6.365 5.503-5.267.419 10.939-5.922-5.672Zm-.379.674 5.934 5.683h-5.912l-.022-5.683Zm-.005-1.344 5.848-5.597-.011-.298h-5.86l.023 5.895Zm-1.024-70.261-.001-.153-3.047-3.331-.223 6.91 3.271-3.426Zm-2.671-4.181 2.666 2.913-.012-2.913h-2.654Zm6.933.8-3.166 3.317 3.438 3.757-.272-7.074Zm-3.497 7.44-.014-3.39 3.102 3.39h-3.088Zm-.033-8.24.014 3.399 3.244-3.4h-3.258Zm-.728 5.261-2.844 2.98h2.855l-.011-2.98Zm.245 62.536h-4.014l4.002-2.904.012 2.904Zm-5.13-.115 5.115-3.712-.003-.647-5.171-3.839-.267 8.313h.41l-.084-.115Zm.791-8.5 4.318 3.205-.013-3.205h-4.305Zm5.054 0 .015 3.763.329.245 5.203-3.776-.009-.232h-5.538Zm5.581 1.132-4.606 3.344 4.873 3.618-.267-6.962Zm-.287 7.483-4.955-3.678-.319.231.014 3.447h5.26Zm-5.381-30.902h4.621l-4.549 4.785-.054-.057-.018-4.728Zm4.804.895-4.215 4.433 4.57 4.807-.355-9.24Zm.191 10.155-4.923-5.178-.049.051.02 5.127h4.952Zm-5.722-5.425-.003-.596-4.374-4.6-.326 10.142 4.703-4.946Zm-3.75-5.625 3.743 3.937-.015-3.937h-3.728Zm3.771 11.05-.017-4.342-4.129 4.342h4.146Zm.752.749h4.724l-4.545 4.311-.163-.142-.016-4.169Zm-.735 3.515-.014-3.515h-4.022l4.036 3.515Zm.004.997-4.795-4.177-.303 9.404h.283l4.817-4.568-.002-.659Zm.931.811-.178.169.016 4.247h5.233l-5.071-4.416Zm.546-.518 4.774 4.158-.321-8.38-4.453 4.222Zm-1.457 4.934-.014-3.539-3.732 3.539h3.746Zm-.087-22.287h-3.301l3.288-3.159.013 3.159Zm-4.296-.083 4.279-4.111-.002-.502-4.022-3.802-.273 8.498h.098l-.08-.083Zm.826-8.907h3.435l.012 3.259-3.447-3.259Zm4.199 3.97-.015-3.97h4.26l-4.188 4.024-.057-.054Zm.602.57 3.849-3.699.293 7.614-4.142-3.915Zm-.54.519 4.157 3.931h-4.199l-.015-3.876.057-.055Zm-.112-13.861h3.53l-3.517 3.373-.013-3.373Zm-4.674 7.869 3.941-3.78-.001-.377-3.699-3.328-.241 7.485Zm.935-7.869 3.001 2.701-.011-2.701h-2.99Zm7.888.445-3.58 3.433 3.844 3.459-.264-6.892Zm-.06 7.608-4.062-3.655-.01.009.015 3.646h4.057Zm-4.806 0-.012-2.93-3.055 2.93h3.067Zm-.035-8.802h-2.737l2.725-2.974.012 2.974Zm-3.64-.124 3.624-3.954-.003-.731-3.36-3.435-.261 8.12Zm.946-8.491h2.66l.011 2.73-2.671-2.73Zm3.53 3.608-.107-.109-.013-3.5h3.428l-3.308 3.609Zm.524.537 3.19-3.48.269 7.015-3.459-3.535Zm-.507.553 3.832 3.917h-3.936l-.015-3.788.119-.129Zm3.982 3.917h.02l-.001-.019-.019.019Zm-4.54 75.289h-5.499l5.481-4.492.018 4.492Zm-6.353-.269 6.332-5.188-.002-.311-6.001-4.721-.329 10.22Zm1.304-10.407 5.023 3.952-.016-3.952h-5.007Zm5.756 0 .018 4.543.04.031 5.581-4.574h-5.639Zm6.346.39-5.685 4.659 6.047 4.756-.362-9.415Zm.256 10.286-6.535-5.141-.045.037.02 5.104h6.56Z" clip-rule="evenodd"/><path fill="#FBBCA3" fill-rule="evenodd" d="M834.424 52.166V34h-.374v2.06h-6.368v-1.686h-.375v17.98h2.586l-2.22 1.366-.172.106-.006.201-.386 11.986-.217 6.743-.289 8.99-.268 8.317-.048.051.045.043v.016l-.289 8.99-.302 9.364-.283 8.803-.313 9.739-.38 11.799-.337 10.488-.301 9.364-.44 13.672-.368 11.424-.319 9.926.749.025.307-9.559 6.408 4.966.002.314-6.567 4.903.449.6 6.121-4.571.022 5.583.749-.003-.024-6.138.069-.051 7.059 5.47.013.361.749-.029-.022-.573.064-.083-.069-.054-.426-11.089-.438-11.424-.524-13.672-.36-9.365-.402-10.488-.452-11.799-.374-9.739-.338-8.802-.359-9.364-.345-8.99-.323-8.428-.345-8.99-.258-6.742-.031-.797.019-.02-.021-.02-.012-.33.068-.087-.074-.057-.409-10.675-.009-.222-.198-.099-2.701-1.35h3.657v-.188Zm-6.742-14.983V44.3h6.368v-7.117h-6.368Zm0 8.241h6.368v6.555h-6.368v-6.555Zm5.466 14.424.176 4.572-2.244-2.176 1.913-2.551.155.155Zm-.042-1.102-.171-4.471-2.254-1.127.012 3.185 2.413 2.413Zm-3.165-3.165-.009-2.372-1.463.9 1.472 1.472Zm-1.725-.666 1.729 1.73.018 4.516-1.889-1.832.142-4.414Zm2.481 2.482 1.761 1.76-1.745 2.327-.016-4.087Zm2.248 7.7-2.226-2.16.011 2.714h1.784l.431-.555Zm-2.978-2.889-1.926-1.867-.158 4.917 2.085-2.78-.001-.27Zm8.339 132.096-.363-9.464-6.035 4.506 6.398 4.958Zm-7.012-5.435 6.25-4.666h-6.35l.018 4.603.082.063Zm-.833-.645-.016-4.021h-5.172l5.188 4.021Zm-.386-98.413h-2.463l2.453-2.57.01 2.57Zm-2.964-.56 2.95-3.09-.002-.453-2.733-3.143-.215 6.686Zm.831-7.119h2.103l.01 2.43-2.113-2.43Zm2.87 4.442.012 3.237h2.802l-2.814-3.237Zm3.466 3.986.051.058.001.04-.102-.098h.05Zm.005-1.136-3.004-3.455 2.76-2.892.244 6.347Zm-3.476-4.045 3.099-3.247h-3.112l.013 3.247ZM828.418 66.4h1.566l.006 1.525-1.572-1.525Zm1.539 2.538-2.287 2.94.161-5.004 2.126 2.064Zm.789.765 2.771 2.69h-2.761l-.01-2.69Zm2.846 1.719-2.631-2.554 1.919-2.468h.52l.192 5.022Zm-3.573 4.104-1.927-2.384h1.918l.009 2.384Zm.007 1.812-.002-.614-2.414-2.986-.222 6.897 2.638-3.297Zm3.765 4.045-3.014-3.728.014 3.728h3Zm-2.558-4.355 2.703 3.342-.246-6.412-2.457 3.07Zm-1.191 4.355h-2.293l2.282-2.852.011 2.852Zm.717-8.24h2.624l-2.611 3.263-.013-3.264Zm-.761-3.038-1.779 2.288h1.788l-.009-2.288Zm1.933-3.705-1.192 1.533-.006-1.533h1.198Zm-1.958-2.68-1.448 1.93h1.456l-.008-1.93Zm.424 108.309h-5.536l5.516-5.279.02 5.279Zm-5.928-.662 5.904-5.65-.001-.091-5.547-5.313-.356 11.054Zm.388-12.06.007-.2h5.483l.021 5.478-5.511-5.278Zm6.646 6.365 5.503-5.267.419 10.939-5.922-5.672Zm-.379.674 5.934 5.683h-5.912l-.022-5.683Zm-.005-1.344 5.848-5.597-.011-.298h-5.86l.023 5.895Zm-1.024-70.261-.001-.153-3.047-3.331-.223 6.91 3.271-3.426Zm-2.671-4.181 2.666 2.913-.012-2.913h-2.654Zm6.933.8-3.166 3.317 3.438 3.757-.272-7.074Zm-3.497 7.44-.014-3.39 3.102 3.39h-3.088Zm-.033-8.24.014 3.399 3.244-3.4h-3.258Zm-.728 5.261-2.844 2.98h2.855l-.011-2.98Zm.245 62.536h-4.014l4.002-2.904.012 2.904Zm-5.13-.115 5.115-3.712-.003-.647-5.171-3.839-.267 8.313h.41l-.084-.115Zm.791-8.5 4.318 3.205-.013-3.205h-4.305Zm5.054 0 .015 3.763.329.245 5.203-3.776-.009-.232h-5.538Zm5.581 1.132-4.606 3.344 4.873 3.618-.267-6.962Zm-.287 7.483-4.955-3.678-.319.231.014 3.447h5.26Zm-5.381-30.902h4.621l-4.549 4.785-.054-.057-.018-4.728Zm4.804.895-4.215 4.433 4.57 4.807-.355-9.24Zm.191 10.155-4.923-5.178-.049.051.02 5.127h4.952Zm-5.722-5.425-.003-.596-4.374-4.6-.326 10.142 4.703-4.946Zm-3.75-5.625 3.743 3.937-.015-3.937h-3.728Zm3.771 11.05-.017-4.342-4.129 4.342h4.146Zm.752.749h4.724l-4.545 4.311-.163-.142-.016-4.169Zm-.735 3.515-.014-3.515h-4.022l4.036 3.515Zm.004.997-4.795-4.177-.303 9.404h.283l4.817-4.568-.002-.659Zm.931.811-.178.169.016 4.247h5.233l-5.071-4.416Zm.546-.518 4.774 4.158-.321-8.38-4.453 4.222Zm-1.457 4.934-.014-3.539-3.732 3.539h3.746Zm-.087-22.287h-3.301l3.288-3.159.013 3.159Zm-4.296-.083 4.279-4.111-.002-.502-4.022-3.802-.273 8.498h.098l-.08-.083Zm.826-8.907h3.435l.012 3.259-3.447-3.259Zm4.199 3.97-.015-3.97h4.26l-4.188 4.024-.057-.054Zm.602.57 3.849-3.699.293 7.614-4.142-3.915Zm-.54.519 4.157 3.931h-4.199l-.015-3.876.057-.055Zm-.112-13.861h3.53l-3.517 3.373-.013-3.373Zm-4.674 7.869 3.941-3.78-.001-.377-3.699-3.328-.241 7.485Zm.935-7.869 3.001 2.701-.011-2.701h-2.99Zm7.888.445-3.58 3.433 3.844 3.459-.264-6.892Zm-.06 7.608-4.062-3.655-.01.009.015 3.646h4.057Zm-4.806 0-.012-2.93-3.055 2.93h3.067Zm-.035-8.802h-2.737l2.725-2.974.012 2.974Zm-3.64-.124 3.624-3.954-.003-.731-3.36-3.435-.261 8.12Zm.946-8.491h2.66l.011 2.73-2.671-2.73Zm3.53 3.608-.107-.109-.013-3.5h3.428l-3.308 3.609Zm.524.537 3.19-3.48.269 7.015-3.459-3.535Zm-.507.553 3.832 3.917h-3.936l-.015-3.788.119-.129Zm3.982 3.917h.02l-.001-.019-.019.019Zm-4.54 75.289h-5.499l5.481-4.492.018 4.492Zm-6.353-.269 6.332-5.188-.002-.311-6.001-4.721-.329 10.22Zm1.304-10.407 5.023 3.952-.016-3.952h-5.007Zm5.756 0 .018 4.543.04.031 5.581-4.574h-5.639Zm6.346.39-5.685 4.659 6.047 4.756-.362-9.415Zm.256 10.286-6.535-5.141-.045.037.02 5.104h6.56Z" clip-rule="evenodd"/><defs><linearGradient id="a" x1="683.5" x2="725.317" y1="30.499" y2="278.031" gradientUnits="userSpaceOnUse"><stop stop-color="#FFE5C9"/><stop offset="1" stop-color="#FAAE96"/></linearGradient></defs></svg>