<svg xmlns="http://www.w3.org/2000/svg" xmlns:xlink="http://www.w3.org/1999/xlink" width="421" height="657" fill="none">
  <mask id="a" width="23" height="23" x="311" y="163" maskUnits="userSpaceOnUse" style="mask-type:alpha">
    <circle cx="322.12" cy="174.25" r="11.12" fill="#D9D9D9"/>
  </mask>
  <g mask="url(#a)">
    <circle cx="322.41" cy="173.95" r="11.41" fill="url(#b)"/>
  </g>
  <path fill="url(#c)" d="M326.8 165.74c-.16.9-1.38.03-3.03-.26-1.65-.28-3.1.11-2.94-.79.16-.9 1.62-1.4 3.27-1.1 1.65.28 2.86 1.25 2.7 2.15Z" opacity=".9"/>
  <path fill="url(#d)" d="M331.28 177.33c-1.5.52-1.22-2.08-2.18-4.83-.95-2.75-2.46-4.72-.96-5.24 1.5-.52 3.18 1.4 4.13 4.15.96 2.75.51 5.4-.99 5.92Z" opacity=".9"/>
  <path fill="url(#e)" d="M317.12 182.37c-5.26-2.77-8.36-12.02 3.88-18.87l-40.83 18.96c-.11.05-.2.13-.26.24l-42.02 78.56c-.18.32 0 .72.37.8l67.39 14.95c.36.08.7-.2.71-.57.2-4.98 3.9-20.46 6.1-29.76l.01-.08 4.96-63.68a.58.58 0 0 0-.31-.55Z"/>
  <path fill="url(#f)" fill-opacity=".1" d="M317.12 182.37c-5.26-2.77-8.36-12.02 3.88-18.87l-40.83 18.96c-.11.05-.2.13-.26.24l-42.02 78.56c-.18.32 0 .72.37.8l67.39 14.95c.36.08.7-.2.71-.57.2-4.98 3.9-20.46 6.1-29.76l.01-.08 4.96-63.68a.58.58 0 0 0-.31-.55Z" style="mix-blend-mode:overlay"/>
  <path fill="url(#g)" d="m322.5 220-11.5-2.4c.18-3.67 1.58-2.03 1.58-3.71 0-1.68.4-6.48.06-8.67-3.57-11.76-.44-18.9 1.57-21 .14-.28 0-2.01-.1-3.17a1 1 0 0 1 .94-1.1c1.59-.07 4.6-.15 6.45.05 2.03.22 4.4 1.24 5.45 1.73.34.16.54.5.59.88.42 3.37 4.38 3.48 7.22 3.41.44 0 .85.27.9.7.04.31.02.64-.16.78-.97.74-3.31 1.11-3.38 1.97-.24 2.77-1.3 2.87.4 6.98-.88.79-4.88 2.57-4.04 4.67.84 2.1.64 11.07 1.52 15.88l-4-3.5-3.5 6.5Z"/>
  <mask id="h" width="26" height="43" x="310" y="180" maskUnits="userSpaceOnUse" style="mask-type:alpha">
    <path fill="#131313" d="m320.49 222.35-8.55-2.35c.19-3.66 0-4.58 0-6.25s.43-6.44.06-8.62c-3.77-11.7-.13-19.54 2-21.63.22-.42-.1-1.37 0-2.5 0 0 3.26-.78 6-.5 2.15.22 5.35 1.25 6.77 1.74.44.16.62.55.3.9-1.16 1.22-4.21 3.54-3.57 3.36 2.29-.65 4.58-.03 5.89.49.6.24.78.97.4 1.52-.4.6-.92 1.37-1.29 1.99-1.12 1.87-1 5-1 5s1.5-8.5 7.5-9c.8-.07-1 3.5-1 3.5s-3.17 17.83-2.88 18.5c.89 2.09.2 4.53.88 9.5l-7.63 3.04-3.88 1.31Z"/>
  </mask>
  <g mask="url(#h)">
    <path fill="#131313" d="m320.49 222.35-8.55-2.35c.19-3.66 0-4.58 0-6.25s.43-6.44.06-8.62c-3.77-11.7-.13-19.54 2-21.63.22-.42-.1-1.37 0-2.5 0 0 3.26-.78 6-.5 2.15.22 5.35 1.25 6.77 1.74.44.16.62.55.3.9-1.16 1.22-4.21 3.54-3.57 3.36 2.29-.65 4.58-.03 5.89.49.6.24.78.97.4 1.52-.4.6-.92 1.37-1.29 1.99-1.12 1.87-1 5-1 5s1.5-8.5 7.5-9c.8-.07-1 3.5-1 3.5s-3.17 17.83-2.88 18.5c.89 2.09.2 4.53.88 9.5l-7.63 3.04-3.88 1.31Z"/>
    <path fill="url(#i)" fill-rule="evenodd" d="m332.5 200.5-.7 6.98-.05.96c.6-.84.99-1.61 1.25-2.44l-.5 9c-1.09.6-1.44.83-1.82.87-.4.03-.82-.16-2.18-.37 1.73-.43 3.2-2.55 1.6-4.06-1.6.83-3.1 1.38-5.1 1.06a8.91 8.91 0 0 0 3.97-2.01c-.48.1-.97.13-1.55.18-.41.03-.88.07-1.42.14 3.35-1.07 4.22-3.88 5.08-6.67.4-1.27.8-2.54 1.42-3.64Z" clip-rule="evenodd"/>
    <path fill="url(#j)" d="M331.97 216.76c-5.22-.68-15.15.68-19.47 1.45l-.97 1.52c11.56-2.27 18.62-2.43 20.46-1.97l-.02-1Z"/>
    <path fill="url(#k)" d="M332 217.86c-5.08-.17-15.76 1.02-19.98 1.36l-.96.56c11.3-.98 19.15-1.7 20.94-1.56v-.36Z"/>
  </g>
  <mask id="l" width="43" height="61" x="304" y="218" maskUnits="userSpaceOnUse" style="mask-type:alpha">
    <path fill="#131313" d="m311 219.5 21-1.5 1.5 5c3.5 8.5 2.54 13.5 4.14 20.84.46 2.13-.49 4.32-.64 6.66-.06.89.64.99.64 1.5L335 272.5l10.22 2.45 1.1 2.21h-19.87L328 272c-.95-5.8-1.2-14.9-.78-20.91.19-2.61.88-3.52.78-4.09-.92-5.38-3.83-10.65-4.87-16-.16 2.71.3 4.66 0 7.18-.18 1.54-.31 2.69-.31 2.98 0 .75-.6 1.41-1.16 2.04-.42.47-.83.92-.94 1.38-.04.15-1.16.67-1.22.92a45.42 45.42 0 0 0-1 6.5l-6.5 21.5 7.14 1.27 1.66 2.4-12.16 1.54-4.22-.99c.53-9.8 2.75-31.88 6.32-34.2l.76-10.52-.72-8.07-.28-.93.5-4.5Z"/>
  </mask>
  <g mask="url(#l)">
    <path fill="#131313" d="m311 219.5 21-1.5 1.5 5c3.5 8.5 2.54 13.5 4.14 20.84.46 2.13-.49 4.32-.64 6.66-.06.89.64.99.64 1.5L335 272.5l10.22 2.45 1.1 2.21h-19.87L328 272c-.95-5.8-2.2-14.9-1.78-20.91.19-2.61.88-3.52.78-4.09-.92-5.38-2.83-10.65-3.87-16-.16 2.71.3 4.66 0 7.18-.18 1.54-.31 2.69-.31 2.98 0 .75-.6 1.41-1.16 2.04-.42.47-.83.92-.94 1.38l-.16.6a47.1 47.1 0 0 0-1.42 7.01l-6.04 21.27 6.04 1.31 1.66 2.4-12.16 1.54-4.22-.99c.53-9.8 2.75-31.88 6.32-34.2l.76-10.52-.72-8.07-.28-.93.5-4.5Z"/>
    <path fill="url(#m)" d="m323 232 1 4 .97 16.43-2.72 22.34c1.1 1.23 2.12 3.91-2.57 4.83-4.69.9-5.9-5.14-7.18-6.1 0-1.8 0-17.25 4.5-24.99 2.5-.51 1.54-2.26 2.5-3.01-2-1-1.03-1.16.5-3l3-10.5Z"/>
    <path fill="url(#n)" d="m323 232 1 4 .97 16.43-2.72 22.34c1.1 1.23 2.12 3.91-2.57 4.83-4.69.9-5.9-5.14-7.18-6.1 0-1.8 0-17.25 4.5-24.99 2.5-.51 1.54-2.26 2.5-3.01-2-1-1.03-1.16.5-3l3-10.5Z" style="mix-blend-mode:overlay"/>
    <path fill="url(#o)" d="m310.5 219 2.15 1.1s-.86 2.03-1.15 3.4c-.64 3.06.5 8 .5 8l-.5 11 4.67 1.56c.11.03.06.29-.07.28-1.73-.12-4.58-.03-5.6 1.66-1.97 3.29-3 10-3 10l-2.5 22-1 .5 1-18.5 5-32 .5-9Z"/>
    <path fill="url(#p)" d="m310.5 219 2.15 1.1s-.86 2.03-1.15 3.4c-.64 3.06.5 8 .5 8l-.5 11 4.67 1.56c.11.03.06.29-.07.28-1.73-.12-4.58-.03-5.6 1.66-1.97 3.29-3 10-3 10l-2.5 22-1 .5 1-18.5 5-32 .5-9Z" style="mix-blend-mode:overlay"/>
    <path fill="url(#q)" d="M312.5 245c-4.05-1.35-6.83 21.5-7.5 32h1.5c2-16.5 9-31 6-32Z"/>
    <path fill="url(#r)" d="M312.5 245c-4.05-1.35-6.83 21.5-7.5 32h1.5c2-16.5 9-31 6-32Z" style="mix-blend-mode:overlay"/>
    <path fill="url(#s)" d="M339.06 279.5c-.54-1.15-2.39-4.63-4.18-6.33-1.06-1.02-2.19-15.53-1.88-22.17.08-1.66.5-1.86.93-1.98l.95-2.02-5.25-17.1a1 1 0 0 1 .08-.77L332 225l2.88-9 10.23 57.7 3.66 5.8h-9.71Z"/>
    <path fill="url(#t)" d="M339.06 279.5c-.54-1.15-2.39-4.63-4.18-6.33-1.06-1.02-2.19-15.53-1.88-22.17.08-1.66.5-1.86.93-1.98l.95-2.02-5.25-17.1a1 1 0 0 1 .08-.77L332 225l2.88-9 10.23 57.7 3.66 5.8h-9.71Z" style="mix-blend-mode:overlay"/>
    <path fill="url(#u)" d="M324.07 235.26 322 227.5l1.5.5c1 3.5 1 9 1 9l-.43-1.74Z"/>
    <path fill="url(#v)" d="M324.07 235.26 322 227.5l1.5.5c1 3.5 1 9 1 9l-.43-1.74Z" style="mix-blend-mode:overlay"/>
    <path fill="url(#w)" d="M335 250c-1.15-1.7 1.73 2.87 2-4.5l-2.5-10-4-6s1.31-2.4 2-4c.97-2.27 2-6 2-6l10.3 45.33-12.3 9.17 4-21.5c-.34-1.16-.35-.8-1.5-2.5Z"/>
    <path fill="url(#x)" d="M335 250c-1.15-1.7 1.73 2.87 2-4.5l-2.5-10-4-6s1.31-2.4 2-4c.97-2.27 2-6 2-6l10.3 45.33-12.3 9.17 4-21.5c-.34-1.16-.35-.8-1.5-2.5Z" style="mix-blend-mode:overlay"/>
  </g>
  <mask id="y" width="14" height="16" x="314" y="166" maskUnits="userSpaceOnUse" style="mask-type:alpha">
    <path fill="#131313" d="m317.83 181.26-.04-1c-1.8-1.77-4.78-6.18-2.38-9.64 1.18-1.27 3.3-3.24 5.18-4.06a6.1 6.1 0 0 1 1.03-.33c1.83-.33 5.76.97 5.98 2.18l-1 1.44c.3 1.63.63 2.67.4 4.12.24 1.3.82 4.32 0 5.7-.18.3-1.1.59-1.34.7v1.57s-2.2.1-3.84 0c-1.57-.1-3.99-.68-3.99-.68Z"/>
  </mask>
  <g mask="url(#y)">
    <path fill="#131313" d="m317.83 181.26-.04-1c-1.8-1.77-4.78-6.18-2.38-9.64 1.18-1.27 3.3-3.24 5.18-4.06a6.1 6.1 0 0 1 1.03-.33c1.83-.33 5.76.97 5.98 2.18l-1 1.44c.3 1.63 1.99 3.18 1.68 4.24.28 1.58-.76 6.53-2.13 7.17l-.15.48s-2.55.3-4.18.2c-1.57-.1-3.99-.68-3.99-.68Z"/>
    <path fill="url(#z)" d="m324.29 171.48 3.46-2.62 2.2 7.46-2.38 5.35-4.23.1c.83-1.55.4-4.38-.2-6.62a3.46 3.46 0 0 1 1.15-3.67Z"/>
    <path fill="url(#A)" fill-opacity=".6" d="M316 174c.43 2.5 4 4.5 4 4.5l-2.43 2.06c-2.19-2-4.28-5.25-3.02-8.76 3.25-9.06 13.4-4.81 13.4-4.81l-.47 1.57.01.02c-.05.16-.05.13 0-.02a6.19 6.19 0 0 0-2.88-1.27l-.86.28c-.2.13-.43.24-.7.24-3.26.05-7.48 3.69-7.05 6.19Z"/>
    <path fill="url(#B)" d="M323.11 175.24c.28.91.77 1.57.09 1.78-.69.2-1.47-.37-1.75-1.28-.27-.91.06-1.82.74-2.03.69-.21.64.61.92 1.53Z"/>
  </g>
  <path fill="#131313" d="M303.22 188.96c.06-1.71 1.56-3 3.26-2.83l17.15 1.84a2.95 2.95 0 0 1 2.62 3.22l-2.52 25.48a2.95 2.95 0 0 1-2.4 2.6l-8.1 1.47a2.95 2.95 0 0 1-2.1-.4l-2.4-1.52c-.17-.1-.36-.2-.55-.27l-4.44-1.64a2.22 2.22 0 0 1-1.45-2.16l.93-25.8Z"/>
  <path fill="url(#C)" d="m308.23 193.64-4.17-.56.2-3.83c.04-.94.86-1.65 1.8-1.57l14.66 1.24v1.94l-11.94-.83-.55 3.6Z"/>
  <path fill="url(#D)" fill-opacity=".55" d="m308.23 193.64-4.17-.56.2-3.83c.04-.94.86-1.65 1.8-1.57l14.66 1.24v1.94l-11.94-.83-.55 3.6Z" style="mix-blend-mode:overlay"/>
  <circle cx="305.73" cy="196.41" r="2.22" fill="url(#E)" fill-opacity=".5" transform="rotate(28 305.73 196.41)"/>
  <circle cx="305.73" cy="196.41" r="2.22" fill="url(#F)" fill-opacity=".55" style="mix-blend-mode:overlay" transform="rotate(28 305.73 196.41)"/>
  <circle cx="311.86" cy="197.19" r="2.22" fill="url(#G)" fill-opacity=".5" transform="rotate(28 311.86 197.2)"/>
  <circle cx="311.86" cy="197.19" r="2.22" fill="url(#H)" fill-opacity=".55" style="mix-blend-mode:overlay" transform="rotate(28 311.86 197.2)"/>
  <path fill="url(#I)" fill-opacity=".6" d="m306.86 200.4-1.86-.48a.55.55 0 0 0-.7.5l-.76 14.09c-.02.28.17.52.44.57l4.46.9c.35.07.68-.22.66-.58-.17-3.44-.25-6.4.27-8.62.1-.4-.25-.83-.66-.9a2.35 2.35 0 0 1-1.6-.86c-1.1-1.56-.61-2.76.06-3.73.22-.32.07-.78-.31-.88Z"/>
  <path fill="url(#J)" fill-opacity=".55" d="m306.86 200.4-1.86-.48a.55.55 0 0 0-.7.5l-.76 14.09c-.02.28.17.52.44.57l4.46.9c.35.07.68-.22.66-.58-.17-3.44-.25-6.4.27-8.62.1-.4-.25-.83-.66-.9a2.35 2.35 0 0 1-1.6-.86c-1.1-1.56-.61-2.76.06-3.73.22-.32.07-.78-.31-.88Z" style="mix-blend-mode:overlay"/>
  <path fill="url(#K)" d="m321.1 216.66-12.59-.22c-.62 0-.79.84-.22 1.07l3.98 1.62c.06.03.12.04.19.04l10.15.5c.47.02.76-.54.45-.91l-1.53-1.89a.55.55 0 0 0-.42-.2Z"/>
  <path fill="url(#L)" fill-opacity=".55" d="m321.1 216.66-12.59-.22c-.62 0-.79.84-.22 1.07l3.98 1.62c.06.03.12.04.19.04l10.15.5c.47.02.76-.54.45-.91l-1.53-1.89a.55.55 0 0 0-.42-.2Z" style="mix-blend-mode:overlay"/>
  <path fill="url(#M)" d="M359 182.3c-.33 1.07-.98.95-1.35 1.33l-1.46 1.03-1.82-3.91c.3-.16.94-.6 1.11-1.14.22-.68 4.3-3.39 5.2-3.85.93-.48 2.3-1.5 2.3-1.5s.73-.9 1.32-.34c.47.45-.98 2.3-1.76 3.17 4.27.97-.52 6.52-1.9 6.09a3.54 3.54 0 0 1-1.63-.89Z"/>
  <mask id="N" width="31" height="18" x="328" y="179" maskUnits="userSpaceOnUse" style="mask-type:alpha">
    <path fill="#131313" d="M330.58 190.57c-2.11 3.4-4.06 3.29-.94 5.65 1.93 1.46 7.82.69 10.36-1.22 1.66-1.24 3.5-2.5 5.5-3.5l.82-.54 6.68-4.46c3.26-1.95 5.55-3.24 5.56-3.39.03-1.69-1.86-3.8-2.89-3.69-.43.05-15.11 8.73-20.7 8.2-2.12-.21-3.33 1.23-4.4 2.95Z"/>
  </mask>
  <g mask="url(#N)">
    <path fill="url(#O)" d="M326.07 195.94c-2.65-2.88-1.33-7.4 2.25-9.2 2.54-1.27 1.99-.29 7.58.25 5.58.54 18.74-7.45 19.77-7.56 1.03-.12 2.92 2 2.89 3.68-.03 1.36-12.58 8.92-18.85 12.53-3.56 2.76-11.23 2.92-13.64.3Z"/>
    <path fill="url(#P)" d="m341.29 184.46 13.97-5.48 2.57.6-14.52 9.1s-2.36.11-2.84-1.29c-.42-1.21.81-2.93.81-2.93Z"/>
    <path fill="url(#Q)" fill-opacity=".55" d="m341.29 184.46 13.97-5.48 2.57.6-14.52 9.1s-2.36.11-2.84-1.29c-.42-1.21.81-2.93.81-2.93Z" style="mix-blend-mode:overlay"/>
    <path fill="url(#R)" d="m322.5 183.43 9.32 2.38s-5.93 1.17-6.52 5.02c-.6 3.86 1.76 7.25 1.76 7.25l-6.64-1.02 2.09-13.63Z"/>
    <g opacity=".9">
      <mask id="S" width="6" height="8" x="335" y="187" maskUnits="userSpaceOnUse" style="mask-type:alpha">
        <path fill="#C23729" d="M335.85 193.38a.56.56 0 0 1-.37-.77l.87-2c.28-.7.39-2.1.42-2.91.01-.33.3-.59.63-.55l2.5.28c.26.03.46.24.48.5.04.72.07 2.19-.17 3.35-.19.92-.72 2.01-1.01 2.58a.54.54 0 0 1-.62.26l-2.73-.74Z"/>
      </mask>
      <g mask="url(#S)">
        <path fill="#fff" d="m334.59 193.25 1.59-6.34 1.78.2s.03 2.13-.13 3.47c-.15 1.3-.64 3.3-.64 3.3l-2.6-.63Z"/>
        <path fill="#061B79" d="M336.5 193.87s1.2-2.15 1.34-3.56c.13-1.24.12-3.2.12-3.2l1.78.21-1.02 6.9-2.21-.35Z"/>
        <path fill="#C23729" d="M337.89 194.2s1-2.14 1.23-3.57c.21-1.3.26-3.35.26-3.35l1.78.2-.77 6.77-2.5-.06Z"/>
      </g>
    </g>
  </g>
  <path fill="url(#T)" d="M109.51 266.5c102.27 0 192.7-21.2 285.99-21.5a2 2 0 0 1 2 2v30a2 2 0 0 1-2 2H-219a2 2 0 0 1-2-2v-50c0-1.1.9-2 2-2 63.05.56 112.55 26.71 186 34.5 55.32 5.87 142.22 7 142.5 7h.01Z"/>
  <path fill="url(#U)" d="M367.5 151.5H421l-20.8 92.14-4.28-.14-28.42-92Z"/>
  <path fill="#211A1A" d="M395 243.5h7V279h-7v-35.5Z"/>
  <path fill="url(#V)" fill-opacity=".4" d="M19 24c-139.73 0-253 113.27-253 253h506C272 137.27 158.73 24 19 24Z"/>
  <path fill="url(#W)" fill-opacity=".1" d="M19 0c-152.98 0-277 124.02-277 277h554C296 124.02 171.98 0 19 0Z"/>
  <path fill="url(#X)" fill-opacity=".3" d="M17.5 58c-125.23 0-226.75 101.52-226.75 226.75h453.5C244.25 159.52 142.73 58 17.5 58Z"/>
  <path fill="url(#Y)" d="M145.2 156.34 40.26 183a2 2 0 0 0-.97 3.3l75.99 82.03a2 2 0 0 0 3.4-.85l28.94-108.7a2 2 0 0 0-2.42-2.45Z"/>
  <path fill="url(#Z)" fill-opacity=".08" d="M145.2 156.34 40.26 183a2 2 0 0 0-.97 3.3l75.99 82.03a2 2 0 0 0 3.4-.85l28.94-108.7a2 2 0 0 0-2.42-2.45Z" style="mix-blend-mode:overlay"/>
  <path fill="url(#aa)" d="M148.74 157.5 55 189l161.5 87-67.76-118.5Z"/>
  <path fill="url(#ab)" fill-opacity=".08" d="M148.74 157.5 55 189l161.5 87-67.76-118.5Z" style="mix-blend-mode:overlay"/>
  <path fill="url(#ac)" d="m149 156.42 72.5 26.5L118 84.42l31 72Z"/>
  <path fill="url(#ad)" fill-opacity=".08" d="m149 156.42 72.5 26.5L118 84.42l31 72Z" style="mix-blend-mode:overlay"/>
  <path fill="url(#ae)" d="m117 85 30.5 69.5L15.5 85H117Z"/>
  <path fill="url(#af)" fill-opacity=".08" d="m117 85 30.5 69.5L15.5 85H117Z" style="mix-blend-mode:overlay"/>
  <path fill="url(#ag)" d="M114.5 84H14V59l100.5 25Z"/>
  <path fill="url(#ah)" fill-opacity=".08" d="M114.5 84H14V59l100.5 25Z" style="mix-blend-mode:overlay"/>
  <path fill="url(#ai)" d="M147 156 14.5 186V85.5L147 156Z"/>
  <path fill="url(#aj)" fill-opacity=".08" d="M147 156 14.5 186V85.5L147 156Z" style="mix-blend-mode:overlay"/>
  <path fill="url(#ak)" fill-opacity=".5" d="m220.5 184.5-4 91-66-118 70 27Z"/>
  <path fill="url(#al)" fill-opacity=".08" d="m220.5 184.5-4 91-66-118 70 27Z" style="mix-blend-mode:overlay"/>
  <path fill="url(#am)" fill-opacity=".5" d="M221.5 188.5 244 277h-27.5l5-88.5Z"/>
  <path fill="url(#an)" fill-opacity=".08" d="M221.5 188.5 244 277h-27.5l5-88.5Z" style="mix-blend-mode:overlay"/>
  <path fill="url(#ao)" fill-opacity=".4" d="m13 187 134.5-30.5-86.5 72L13 187Z"/>
  <path fill="url(#ap)" fill-opacity=".4" d="m29 93 117.15 61.06L23 132l6-39Z"/>
  <path fill="url(#aq)" fill-opacity=".4" d="M52 104.5 117 85l-41 33-24-13.5Z"/>
  <path fill="url(#ar)" fill-opacity=".2" d="M76.5 118 39 181l-4.5 1.5 17-77 25 12.5Z"/>
  <path fill="url(#as)" fill-opacity=".4" d="m149 155-29.5-67.5 77 73L149 155Z"/>
  <path fill="url(#at)" fill-opacity=".4" d="m220.5 184.5-55-21.5 51 83.5 4-62Z"/>
  <path stroke="#1F1A19" stroke-width="1.6" d="m-182.6 183.8-20.8 93.6h24.8m-4-93.6 100-99.2m-100 99.2 4 93.6m-4-93.6 68.8-28m31.2-71.2 96.8-26.4m-96.8 26.4-31.2 71.2m31.2-71.2h200M14.2 58.2l103.2 26.4M14.2 58.2v26.4m103.2 0 104 99.2m-104-99.2 31.2 71.2m72.8 28 23.2 93.6h-28m4.8-93.6-4.8 93.6m4.8-93.6-72.8-28m-327.2 121.6 64.8-121.6m-64.8 121.6h96.4m-31.6-121.6 128-71.2m-128 71.2 128 31.2m-128-31.2 31.6 121.6M14.2 84.6l134.4 71.2M14.2 84.6V187m0 90.4h103.2m-103.2 0V187m0 90.4h-96.4m230.8-121.6-31.2 121.6m31.2-121.6 68 121.6m-68-121.6L14.2 187m103.2 90.4h99.2m-99.2 0L14.2 187m0 0-96.4 90.4"/>
  <path fill="url(#au)" d="m77.57 235.34 27.5-.9-10.79 30.2-4.28-.14-12.43-29.16Z"/>
  <path fill="#211A1A" d="M89 265h7v14h-7v-14Z"/>
  <path fill="#211A1A" d="M-233 277h635v7h-635z"/>
  <path stroke="#211A1A" stroke-linecap="round" d="M190 284c-13.5 17.5-30 30-51.5 39.5"/>
  <path stroke="#211A1A" stroke-linecap="round" stroke-width="2" d="M180 283c-9.7 11.52-21.55 19.75-37 26"/>
  <mask id="aw" width="261" height="374" x="-108" y="283" maskUnits="userSpaceOnUse" style="mask-type:alpha">
    <path fill="url(#av)" d="m-108 283 260.5.5s-34.77 94.88-52.25 156C82.77 500.62 63.5 657 63.5 657H-20s-18.82-156.38-36-217.5C-73.18 378.38-108 283-108 283Z"/>
  </mask>
  <g mask="url(#aw)">
    <path fill="url(#ax)" d="m-108 283 260.5.5s-34.77 94.88-52.25 156C82.77 500.62 63.5 657 63.5 657H-20s-18.82-156.38-36-217.5C-73.18 378.38-108 283-108 283Z"/>
    <path fill="url(#ay)" d="M-108 284h260.5l-10 26-237.5 5-13-31Z"/>
    <g opacity=".5">
      <path fill="url(#az)" d="M49 306h15v15H49z"/>
      <path fill="url(#aA)" fill-opacity=".08" d="M49 306h15v15H49z" style="mix-blend-mode:overlay"/>
    </g>
    <path stroke="url(#aB)" stroke-opacity=".5" d="M45.5 302.5h21v21h-21z"/>
    <path stroke="url(#aC)" stroke-opacity=".08" d="M45.5 302.5h21v21h-21z" style="mix-blend-mode:overlay"/>
    <g opacity=".4">
      <g opacity=".5">
        <path fill="url(#aD)" d="M38.1 338.1h25.5v25.5H38.1z"/>
        <path fill="url(#aE)" fill-opacity=".08" d="M38.1 338.1h25.5v25.5H38.1z" style="mix-blend-mode:overlay"/>
      </g>
      <path stroke="url(#aF)" stroke-opacity=".5" stroke-width="1.7" d="M32.15 332.15h35.7v35.7h-35.7z"/>
      <path stroke="url(#aG)" stroke-opacity=".08" stroke-width="1.7" d="M32.15 332.15h35.7v35.7h-35.7z" style="mix-blend-mode:overlay"/>
    </g>
    <g opacity=".4">
      <g opacity=".5">
        <path fill="url(#aH)" d="M95.1 295.1h10.5v10.5H95.1z"/>
        <path fill="url(#aI)" fill-opacity=".08" d="M95.1 295.1h10.5v10.5H95.1z" style="mix-blend-mode:overlay"/>
      </g>
      <path stroke="url(#aJ)" stroke-opacity=".5" stroke-width=".7" d="M92.65 292.65h14.7v14.7h-14.7z"/>
      <path stroke="url(#aK)" stroke-opacity=".08" stroke-width=".7" d="M92.65 292.65h14.7v14.7h-14.7z" style="mix-blend-mode:overlay"/>
    </g>
    <g opacity=".4">
      <g opacity=".5">
        <path fill="url(#aL)" d="M130.45 304.45h17.25v17.25h-17.25z"/>
        <path fill="url(#aM)" fill-opacity=".08" d="M130.45 304.45h17.25v17.25h-17.25z" style="mix-blend-mode:overlay"/>
      </g>
      <path stroke="url(#aN)" stroke-opacity=".5" stroke-width="1.15" d="M126.42 300.43h24.15v24.15h-24.15z"/>
      <path stroke="url(#aO)" stroke-opacity=".08" stroke-width="1.15" d="M126.42 300.43h24.15v24.15h-24.15z" style="mix-blend-mode:overlay"/>
    </g>
    <g opacity=".5">
      <path fill="url(#aP)" d="M82.4 326.4h12v12h-12z"/>
      <path fill="url(#aQ)" fill-opacity=".08" d="M82.4 326.4h12v12h-12z" style="mix-blend-mode:overlay"/>
    </g>
    <path stroke="url(#aR)" stroke-opacity=".5" stroke-width=".8" d="M79.6 323.6h16.8v16.8H79.6z"/>
    <path stroke="url(#aS)" stroke-opacity=".08" stroke-width=".8" d="M79.6 323.6h16.8v16.8H79.6z" style="mix-blend-mode:overlay"/>
    <g opacity=".5">
      <path fill="url(#aT)" fill-opacity=".2" d="M82.4 361.4h12v12h-12z"/>
      <path fill="url(#aU)" fill-opacity=".08" d="M82.4 361.4h12v12h-12z" style="mix-blend-mode:overlay"/>
    </g>
    <path stroke="url(#aV)" stroke-opacity=".2" stroke-width=".8" d="M79.6 358.6h16.8v16.8H79.6z"/>
    <path stroke="url(#aW)" stroke-opacity=".08" stroke-width=".8" d="M79.6 358.6h16.8v16.8H79.6z" style="mix-blend-mode:overlay"/>
  </g>
  <path stroke="#131313" d="M397.5 245c-94 0-185 21.5-287.99 21.5h-.01c-.28 0-87.18-1.13-142.5-7-74.23-7.87-124-34.5-188-34.5"/>
  <path fill="#211A1A" d="M289 130h2v149h-2z"/>
  <mask id="aX" width="89" height="49" x="200" y="129" maskUnits="userSpaceOnUse" style="mask-type:alpha">
    <path fill="#D9D9D9" d="M200 145.6c0-.68.34-1.31.93-1.66 5.24-3.13 31.33-17.97 46.07-12.94 22 7.5 42 0 42 0v47s-37-1-49-8.5c-9.6-6-29.4 3.02-36.97 6.89-1.37.7-3.03-.3-3.03-1.84v-28.94Z"/>
  </mask>
  <g mask="url(#aX)">
    <path fill="url(#aY)" d="M201.17 138.96c.04-.67.4-1.27.98-1.6 5.52-3.1 34.4-18.54 49.83-12.03 22.9 9.66 44.6 2.35 44.6 2.35l-2.93 52.85s-36.22.35-51.94-14c-12.14-11.1-30.93.34-38.85 6.12-1.43 1.04-3.55-.05-3.46-1.81l1.77-31.88Z"/>
    <path fill="#E7E7E7" d="M200.21 156.23c.04-.7.42-1.32 1.05-1.63 5.53-2.84 33.1-16.25 47.93-10.44 22.13 8.67 43.03 2.26 43.03 2.26l-2.6 46.93s-34.94.17-50.16-12.65c-11.74-9.88-29.77.15-37.41 5.26-1.44.96-3.47-.14-3.38-1.86l1.54-27.87Z"/>
    <path fill="url(#aZ)" d="M200.21 156.23c.04-.7.42-1.32 1.05-1.63 5.53-2.84 33.1-16.25 47.93-10.44 22.13 8.67 43.03 2.26 43.03 2.26l-2.6 46.93s-34.94.17-50.16-12.65c-11.74-9.88-29.77.15-37.41 5.26-1.44.96-3.47-.14-3.38-1.86l1.54-27.87Z"/>
    <path fill="#E7E7E7" d="M195.2 168.4c.04-.72.44-1.35 1.08-1.66 5.8-2.8 34.87-16.17 50.54-10.3 23.37 8.73 46.68 6.06 46.68 6.06l-3.87 43.25s-36.87.07-52.97-12.8c-12.53-10.02-31.79.28-39.69 5.31-1.43.92-3.42-.17-3.32-1.87l1.55-28Z"/>
    <path fill="url(#ba)" d="M195.2 168.4c.04-.72.44-1.35 1.08-1.66 5.8-2.8 34.87-16.17 50.54-10.3 23.37 8.73 46.68 6.06 46.68 6.06l-3.87 43.25s-36.87.07-52.97-12.8c-12.53-10.02-31.79.28-39.69 5.31-1.43.92-3.42-.17-3.32-1.87l1.55-28Z"/>
    <path fill="url(#bb)" fill-opacity=".6" d="M260.5 124s12.5 7.4 15 7.4 13.5.4 13.5.4V185s-9 0-13.5-1.85-16.5-7.4-16.5-7.4l1.5-51.75Z"/>
    <path fill="url(#bc)" fill-opacity=".08" d="M260.5 124s12.5 7.4 15 7.4 13.5.4 13.5.4V185s-9 0-13.5-1.85-16.5-7.4-16.5-7.4l1.5-51.75Z" style="mix-blend-mode:overlay"/>
    <path fill="url(#bd)" fill-opacity=".3" d="M223.5 117s12.5 8 15 8 13.5.44 13.5.44V183s-9 0-13.5-2-16.5-8-16.5-8l1.5-56Z"/>
    <path fill="url(#be)" fill-opacity=".08" d="M223.5 117s12.5 8 15 8 13.5.44 13.5.44V183s-9 0-13.5-2-16.5-8-16.5-8l1.5-56Z" style="mix-blend-mode:overlay"/>
  </g>
  <path fill="#211A1A" d="m289.96 127 2.96 2.96-2.96 2.96-2.96-2.96zM286 277a4 4 0 0 1 8 0h-8Z"/>
  <defs>
    <linearGradient id="b" x1="340.5" x2="319.3" y1="158.5" y2="183.85" gradientUnits="userSpaceOnUse">
      <stop stop-color="#F85039"/>
      <stop offset="1" stop-color="#FFC281" stop-opacity=".85"/>
    </linearGradient>
    <linearGradient id="c" x1="324.64" x2="323.73" y1="163.53" y2="165.7" gradientUnits="userSpaceOnUse">
      <stop stop-color="#D9D9D9"/>
      <stop offset="1" stop-color="#D9D9D9" stop-opacity="0"/>
    </linearGradient>
    <linearGradient id="d" x1="332.82" x2="329.24" y1="172.18" y2="173.32" gradientUnits="userSpaceOnUse">
      <stop stop-color="#D9D9D9"/>
      <stop offset="1" stop-color="#D9D9D9" stop-opacity="0"/>
    </linearGradient>
    <linearGradient id="e" x1="402.66" x2="290.82" y1="184.76" y2="201.13" gradientUnits="userSpaceOnUse">
      <stop stop-color="#FFB96D"/>
      <stop offset="1" stop-color="#FFB96D" stop-opacity="0"/>
    </linearGradient>
    <linearGradient id="g" x1="350.5" x2="333.5" y1="179" y2="208" gradientUnits="userSpaceOnUse">
      <stop stop-color="#FFBE77"/>
      <stop offset="1" stop-color="#FF523A"/>
    </linearGradient>
    <linearGradient id="i" x1="331.5" x2="326" y1="209.5" y2="212" gradientUnits="userSpaceOnUse">
      <stop stop-color="#BA402F"/>
      <stop offset=".8" stop-color="#BA402F" stop-opacity="0"/>
    </linearGradient>
    <linearGradient id="j" x1="336.89" x2="320.5" y1="213.15" y2="218.02" gradientUnits="userSpaceOnUse">
      <stop stop-color="#FF523A"/>
      <stop offset="1" stop-color="#FF523A" stop-opacity="0"/>
    </linearGradient>
    <linearGradient id="k" x1="336.84" x2="325.85" y1="216.49" y2="225" gradientUnits="userSpaceOnUse">
      <stop stop-color="#FF523A"/>
      <stop offset="1" stop-color="#FF523A" stop-opacity="0"/>
    </linearGradient>
    <linearGradient id="m" x1="333.13" x2="303.23" y1="246.45" y2="258.46" gradientUnits="userSpaceOnUse">
      <stop stop-color="#FF693A"/>
      <stop offset="1" stop-color="#E75562" stop-opacity="0"/>
    </linearGradient>
    <linearGradient id="o" x1="326.43" x2="288.44" y1="235.24" y2="259.63" gradientUnits="userSpaceOnUse">
      <stop stop-color="#FFB96D"/>
      <stop offset="1" stop-color="#E75562" stop-opacity="0"/>
    </linearGradient>
    <linearGradient id="q" x1="295.5" x2="311.5" y1="249" y2="263.5" gradientUnits="userSpaceOnUse">
      <stop stop-color="#FF523A"/>
      <stop offset="1" stop-color="#FF523A" stop-opacity="0"/>
    </linearGradient>
    <linearGradient id="s" x1="378.99" x2="322.55" y1="229.72" y2="270.25" gradientUnits="userSpaceOnUse">
      <stop offset=".24" stop-color="#FE532D"/>
      <stop offset="1" stop-color="#D7505C" stop-opacity="0"/>
    </linearGradient>
    <linearGradient id="u" x1="372.14" x2="315.7" y1="227.07" y2="267.6" gradientUnits="userSpaceOnUse">
      <stop offset=".24" stop-color="#FE532D"/>
      <stop offset="1" stop-color="#D7505C" stop-opacity="0"/>
    </linearGradient>
    <linearGradient id="w" x1="349.8" x2="334.66" y1="236.21" y2="244.08" gradientUnits="userSpaceOnUse">
      <stop offset=".24" stop-color="#FFB96D"/>
      <stop offset="1" stop-color="#88352D"/>
    </linearGradient>
    <linearGradient id="z" x1="328.25" x2="324.15" y1="173.78" y2="175.54" gradientUnits="userSpaceOnUse">
      <stop stop-color="#F6563C"/>
      <stop offset="1" stop-color="#131313" stop-opacity=".54"/>
    </linearGradient>
    <linearGradient id="A" x1="312.88" x2="316.99" y1="169.78" y2="180.59" gradientUnits="userSpaceOnUse">
      <stop stop-color="#FFC382"/>
      <stop offset="1" stop-color="#131313" stop-opacity="0"/>
    </linearGradient>
    <linearGradient id="B" x1="318.34" x2="322.52" y1="175.13" y2="175.13" gradientUnits="userSpaceOnUse">
      <stop stop-color="#FF523A"/>
      <stop offset="1" stop-color="#FF523A" stop-opacity="0"/>
    </linearGradient>
    <linearGradient id="C" x1="306.29" x2="310.53" y1="180.04" y2="193.64" gradientUnits="userSpaceOnUse">
      <stop offset="0" stop-color="#fff"/>
      <stop offset="1" stop-color="#131313"/>
    </linearGradient>
    <linearGradient id="E" x1="304.34" x2="305.45" y1="190.31" y2="198.08" gradientUnits="userSpaceOnUse">
      <stop stop-color="#fff"/>
      <stop offset="1" stop-color="#131313"/>
    </linearGradient>
    <linearGradient id="G" x1="310.48" x2="311.59" y1="191.09" y2="198.86" gradientUnits="userSpaceOnUse">
      <stop stop-color="#fff"/>
      <stop offset="1" stop-color="#131313"/>
    </linearGradient>
    <linearGradient id="I" x1="300.26" x2="306.56" y1="190.58" y2="215.28" gradientUnits="userSpaceOnUse">
      <stop stop-color="#EAEAEA"/>
      <stop offset="1" stop-color="#131313"/>
    </linearGradient>
    <linearGradient id="K" x1="304.91" x2="307.94" y1="208.07" y2="222.37" gradientUnits="userSpaceOnUse">
      <stop stop-color="#fff"/>
      <stop offset="1" stop-color="#131313"/>
    </linearGradient>
    <linearGradient id="M" x1="363.03" x2="358.35" y1="170.36" y2="181.2" gradientUnits="userSpaceOnUse">
      <stop stop-color="#FFB96D"/>
      <stop offset="1" stop-color="#131313"/>
    </linearGradient>
    <linearGradient id="O" x1="364.86" x2="327.95" y1="175.5" y2="192.86" gradientUnits="userSpaceOnUse">
      <stop stop-color="#FB3115"/>
      <stop offset=".83" stop-color="#131313"/>
    </linearGradient>
    <linearGradient id="P" x1="355.71" x2="342.03" y1="174.6" y2="188.78" gradientUnits="userSpaceOnUse">
      <stop stop-color="#fff"/>
      <stop offset="1" stop-color="#fff" stop-opacity="0"/>
    </linearGradient>
    <linearGradient id="R" x1="333.69" x2="323.28" y1="178.79" y2="191.45" gradientUnits="userSpaceOnUse">
      <stop stop-color="#FFEDDA"/>
      <stop offset="1" stop-color="#131313"/>
    </linearGradient>
    <linearGradient id="T" x1="88" x2="88" y1="233.5" y2="279" gradientUnits="userSpaceOnUse">
      <stop stop-color="#fff" stop-opacity=".69"/>
      <stop offset="1" stop-color="#131313" stop-opacity="0"/>
    </linearGradient>
    <linearGradient id="U" x1="397.44" x2="398.4" y1="250.54" y2="213.63" gradientUnits="userSpaceOnUse">
      <stop stop-color="#FFB96D" stop-opacity=".61"/>
      <stop offset="1" stop-color="#BABABA" stop-opacity="0"/>
    </linearGradient>
    <linearGradient id="V" x1="95.46" x2="28.04" y1="-3.11" y2="308.97" gradientUnits="userSpaceOnUse">
      <stop stop-color="#FF523A"/>
      <stop offset="1" stop-color="#DCDCDC" stop-opacity="0"/>
    </linearGradient>
    <linearGradient id="W" x1="102.71" x2="28.89" y1="-29.68" y2="312.01" gradientUnits="userSpaceOnUse">
      <stop stop-color="#FF523A"/>
      <stop offset="1" stop-color="#DCDCDC" stop-opacity="0"/>
    </linearGradient>
    <linearGradient id="X" x1="86.02" x2="25.6" y1="33.71" y2="313.4" gradientUnits="userSpaceOnUse">
      <stop stop-color="#FF523A"/>
      <stop offset="1" stop-color="#DCDCDC" stop-opacity="0"/>
    </linearGradient>
    <linearGradient id="Y" x1="149" x2="84.73" y1="155" y2="220.24" gradientUnits="userSpaceOnUse">
      <stop stop-color="#FF523A" stop-opacity=".54"/>
      <stop offset="1" stop-color="#FFB96D" stop-opacity="0"/>
    </linearGradient>
    <linearGradient id="aa" x1="180" x2="115.73" y1="161.5" y2="226.74" gradientUnits="userSpaceOnUse">
      <stop stop-color="#FF523A" stop-opacity=".54"/>
      <stop offset="1" stop-color="#FFB96D" stop-opacity="0"/>
    </linearGradient>
    <linearGradient id="ac" x1="191.5" x2="82.75" y1="87.92" y2="147.97" gradientUnits="userSpaceOnUse">
      <stop stop-color="#FF523A"/>
      <stop offset="1" stop-color="#FFB96D" stop-opacity="0"/>
    </linearGradient>
    <linearGradient id="ae" x1="114.5" x2="5.75" y1="59.92" y2="119.97" gradientUnits="userSpaceOnUse">
      <stop stop-color="#FF523A"/>
      <stop offset="1" stop-color="#FFB96D" stop-opacity="0"/>
    </linearGradient>
    <linearGradient id="ag" x1="155" x2="4.35" y1="37" y2="74.38" gradientUnits="userSpaceOnUse">
      <stop stop-color="#FF523A"/>
      <stop offset="1" stop-color="#FFB96D" stop-opacity="0"/>
    </linearGradient>
    <linearGradient id="ai" x1="95" x2="-36.77" y1="94" y2="160.58" gradientUnits="userSpaceOnUse">
      <stop stop-color="#FF523A" stop-opacity=".47"/>
      <stop offset="1" stop-color="#FFB96D" stop-opacity="0"/>
    </linearGradient>
    <linearGradient id="ak" x1="190.5" x2="81.75" y1="138.92" y2="198.97" gradientUnits="userSpaceOnUse">
      <stop stop-color="#FF523A"/>
      <stop offset="1" stop-color="#FFB96D" stop-opacity="0"/>
    </linearGradient>
    <linearGradient id="am" x1="205" x2="96.25" y1="167.15" y2="227.2" gradientUnits="userSpaceOnUse">
      <stop stop-color="#FF523A"/>
      <stop offset="1" stop-color="#FFB96D" stop-opacity="0"/>
    </linearGradient>
    <linearGradient id="ao" x1="163.5" x2="66.54" y1="141.44" y2="233.45" gradientUnits="userSpaceOnUse">
      <stop stop-color="#F3F3F3"/>
      <stop offset="1" stop-color="#D9D9D9" stop-opacity="0"/>
    </linearGradient>
    <linearGradient id="ap" x1="173.59" x2="40.17" y1="154.81" y2="162.99" gradientUnits="userSpaceOnUse">
      <stop stop-color="#F3F3F3"/>
      <stop offset="1" stop-color="#D9D9D9" stop-opacity="0"/>
    </linearGradient>
    <linearGradient id="aq" x1="83.95" x2="27.43" y1="30.28" y2="151.41" gradientUnits="userSpaceOnUse">
      <stop stop-color="#F3F3F3"/>
      <stop offset="1" stop-color="#D9D9D9" stop-opacity="0"/>
    </linearGradient>
    <linearGradient id="ar" x1="112.5" x2="37.12" y1="152" y2="182.28" gradientUnits="userSpaceOnUse">
      <stop stop-color="#F3F3F3"/>
      <stop offset="1" stop-color="#D9D9D9" stop-opacity="0"/>
    </linearGradient>
    <linearGradient id="as" x1="101.21" x2="194.85" y1="63.81" y2="159.2" gradientUnits="userSpaceOnUse">
      <stop stop-color="#F3F3F3"/>
      <stop offset="1" stop-color="#D9D9D9" stop-opacity="0"/>
    </linearGradient>
    <linearGradient id="at" x1="221.5" x2="194.31" y1="175" y2="200.9" gradientUnits="userSpaceOnUse">
      <stop stop-color="#F3F3F3"/>
      <stop offset="1" stop-color="#D9D9D9" stop-opacity="0"/>
    </linearGradient>
    <linearGradient id="au" x1="91.52" x2="92.49" y1="271.54" y2="234.63" gradientUnits="userSpaceOnUse">
      <stop stop-color="#FFB96D" stop-opacity=".61"/>
      <stop offset="1" stop-color="#BABABA" stop-opacity="0"/>
    </linearGradient>
    <linearGradient id="av" x1="112.5" x2="22.5" y1="257.5" y2="596" gradientUnits="userSpaceOnUse">
      <stop stop-color="#131313"/>
      <stop offset="1" stop-color="#B0685E"/>
    </linearGradient>
    <linearGradient id="ax" x1="112.5" x2="22.5" y1="257.5" y2="596" gradientUnits="userSpaceOnUse">
      <stop stop-color="#131313"/>
      <stop offset="1" stop-color="#B0685E"/>
    </linearGradient>
    <linearGradient id="ay" x1="22" x2="22" y1="264" y2="311.5" gradientUnits="userSpaceOnUse">
      <stop stop-color="#FF523A" stop-opacity=".82"/>
      <stop offset="1" stop-color="#2F2220" stop-opacity="0"/>
    </linearGradient>
    <linearGradient id="az" x1="80.61" x2="52.21" y1="294.75" y2="321" gradientUnits="userSpaceOnUse">
      <stop stop-color="#FFB96D"/>
      <stop offset="1" stop-color="#FFB96D" stop-opacity="0"/>
    </linearGradient>
    <linearGradient id="aB" x1="88.14" x2="50.29" y1="288" y2="323" gradientUnits="userSpaceOnUse">
      <stop stop-color="#FFB96D"/>
      <stop offset="1" stop-color="#FFB96D" stop-opacity="0"/>
    </linearGradient>
    <linearGradient id="aD" x1="91.83" x2="43.56" y1="318.98" y2="363.6" gradientUnits="userSpaceOnUse">
      <stop stop-color="#FFB96D"/>
      <stop offset="1" stop-color="#FFB96D" stop-opacity="0"/>
    </linearGradient>
    <linearGradient id="aF" x1="104.64" x2="40.29" y1="307.5" y2="367" gradientUnits="userSpaceOnUse">
      <stop stop-color="#FFB96D"/>
      <stop offset="1" stop-color="#FFB96D" stop-opacity="0"/>
    </linearGradient>
    <linearGradient id="aH" x1="117.22" x2="97.35" y1="287.23" y2="305.6" gradientUnits="userSpaceOnUse">
      <stop stop-color="#FFB96D"/>
      <stop offset="1" stop-color="#FFB96D" stop-opacity="0"/>
    </linearGradient>
    <linearGradient id="aJ" x1="122.5" x2="96" y1="282.5" y2="307" gradientUnits="userSpaceOnUse">
      <stop stop-color="#FFB96D"/>
      <stop offset="1" stop-color="#FFB96D" stop-opacity="0"/>
    </linearGradient>
    <linearGradient id="aL" x1="166.8" x2="134.15" y1="291.51" y2="321.7" gradientUnits="userSpaceOnUse">
      <stop stop-color="#FFB96D"/>
      <stop offset="1" stop-color="#FFB96D" stop-opacity="0"/>
    </linearGradient>
    <linearGradient id="aN" x1="175.46" x2="131.93" y1="283.75" y2="324" gradientUnits="userSpaceOnUse">
      <stop stop-color="#FFB96D"/>
      <stop offset="1" stop-color="#FFB96D" stop-opacity="0"/>
    </linearGradient>
    <linearGradient id="aP" x1="107.69" x2="84.97" y1="317.4" y2="338.4" gradientUnits="userSpaceOnUse">
      <stop stop-color="#FFB96D"/>
      <stop offset="1" stop-color="#FFB96D" stop-opacity="0"/>
    </linearGradient>
    <linearGradient id="aR" x1="113.71" x2="83.43" y1="312" y2="340" gradientUnits="userSpaceOnUse">
      <stop stop-color="#FFB96D"/>
      <stop offset="1" stop-color="#FFB96D" stop-opacity="0"/>
    </linearGradient>
    <linearGradient id="aT" x1="107.69" x2="84.97" y1="352.4" y2="373.4" gradientUnits="userSpaceOnUse">
      <stop stop-color="#FFB96D"/>
      <stop offset="1" stop-color="#FFB96D" stop-opacity="0"/>
    </linearGradient>
    <linearGradient id="aV" x1="113.71" x2="83.43" y1="347" y2="375" gradientUnits="userSpaceOnUse">
      <stop stop-color="#FFB96D"/>
      <stop offset="1" stop-color="#FFB96D" stop-opacity="0"/>
    </linearGradient>
    <linearGradient id="aY" x1="275" x2="201.07" y1="130" y2="155.71" gradientUnits="userSpaceOnUse">
      <stop stop-color="#E7E7E7"/>
      <stop offset="1" stop-color="#B0B0B0"/>
    </linearGradient>
    <linearGradient id="aZ" x1="283" x2="202.07" y1="144.5" y2="170.72" gradientUnits="userSpaceOnUse">
      <stop stop-color="#081A6F"/>
      <stop offset="1" stop-color="#061457"/>
    </linearGradient>
    <linearGradient id="ba" x1="253" x2="204.56" y1="151" y2="174.13" gradientUnits="userSpaceOnUse">
      <stop stop-color="#B23327"/>
      <stop offset="1" stop-color="#852921"/>
    </linearGradient>
    <linearGradient id="bb" x1="293.5" x2="260.29" y1="164.67" y2="162.41" gradientUnits="userSpaceOnUse">
      <stop stop-color="#FFB96D"/>
      <stop offset="1" stop-color="#D9D9D9" stop-opacity="0"/>
    </linearGradient>
    <pattern id="f" width="13.62" height="10" patternContentUnits="objectBoundingBox">
      <use xlink:href="#bf" transform="scale(.007 .005)"/>
    </pattern>
    <pattern id="n" width="6.21" height="1.52" patternContentUnits="objectBoundingBox">
      <use xlink:href="#bg" transform="scale(.003 0)"/>
    </pattern>
    <pattern id="p" width="5.97" height="1.22" patternContentUnits="objectBoundingBox">
      <use xlink:href="#bg" transform="scale(.003 0)"/>
    </pattern>
    <pattern id="r" width="8.83" height="2.27" patternContentUnits="objectBoundingBox">
      <use xlink:href="#bg" transform="scale(.004 .001)"/>
    </pattern>
    <pattern id="t" width="3.77" height="1.14" patternContentUnits="objectBoundingBox">
      <use xlink:href="#bg" transform="scale(.002 0)"/>
    </pattern>
    <pattern id="v" width="29.08" height="7.65" patternContentUnits="objectBoundingBox">
      <use xlink:href="#bg" transform="scale(.014 .004)"/>
    </pattern>
    <pattern id="x" width="5.08" height="1.33" patternContentUnits="objectBoundingBox">
      <use xlink:href="#bg" transform="scale(.002 0)"/>
    </pattern>
    <pattern id="D" width="12.67" height="34.55" patternContentUnits="objectBoundingBox">
      <use xlink:href="#bh" transform="scale(.006 .017)"/>
    </pattern>
    <pattern id="F" width="47.5" height="47.5" patternContentUnits="objectBoundingBox">
      <use xlink:href="#bh" transform="scale(.023)"/>
    </pattern>
    <pattern id="H" width="47.5" height="47.5" patternContentUnits="objectBoundingBox">
      <use xlink:href="#bh" transform="scale(.023)"/>
    </pattern>
    <pattern id="J" width="34.55" height="12.88" patternContentUnits="objectBoundingBox">
      <use xlink:href="#bh" transform="scale(.017 .006)"/>
    </pattern>
    <pattern id="L" width="11.52" height="63.33" patternContentUnits="objectBoundingBox">
      <use xlink:href="#bh" transform="scale(.006 .03)"/>
    </pattern>
    <pattern id="Q" width="1" height="1" patternContentUnits="objectBoundingBox">
      <use xlink:href="#bi" transform="matrix(0 0 0 .002 0 -1.53)"/>
    </pattern>
    <pattern id="Z" width="18.37" height="17.73" patternContentUnits="objectBoundingBox">
      <use xlink:href="#bj" transform="scale(.009)"/>
    </pattern>
    <pattern id="ab" width="12.68" height="17.28" patternContentUnits="objectBoundingBox">
      <use xlink:href="#bj" transform="scale(.006 .008)"/>
    </pattern>
    <pattern id="ad" width="26.63" height="17.01" patternContentUnits="objectBoundingBox">
      <use xlink:href="#bj" transform="scale(.013 .008)"/>
    </pattern>
    <pattern id="af" width="18.37" height="20.67" patternContentUnits="objectBoundingBox">
      <use xlink:href="#bj" transform="scale(.009 .01)"/>
    </pattern>
    <pattern id="ah" width="20.99" height="42.36" patternContentUnits="objectBoundingBox">
      <use xlink:href="#bj" transform="scale(.01 .02)"/>
    </pattern>
    <pattern id="aj" width="15.08" height="20.44" patternContentUnits="objectBoundingBox">
      <use xlink:href="#bj" transform="scale(.007 .01)"/>
    </pattern>
    <pattern id="al" width="33.3" height="15.71" patternContentUnits="objectBoundingBox">
      <use xlink:href="#bj" transform="scale(.016 .008)"/>
    </pattern>
    <pattern id="an" width="76.71" height="22.43" patternContentUnits="objectBoundingBox">
      <use xlink:href="#bj" transform="scale(.037 .011)"/>
    </pattern>
    <pattern id="aA" width="136.53" height="136.53" patternContentUnits="objectBoundingBox">
      <use xlink:href="#bj" transform="scale(.067)"/>
    </pattern>
    <pattern id="aC" width="102.4" height="102.4" patternContentUnits="objectBoundingBox">
      <use xlink:href="#bj" transform="scale(.05)"/>
    </pattern>
    <pattern id="aE" width="136.53" height="136.53" patternContentUnits="objectBoundingBox">
      <use xlink:href="#bj" transform="scale(.067)"/>
    </pattern>
    <pattern id="aG" width="102.4" height="102.4" patternContentUnits="objectBoundingBox">
      <use xlink:href="#bj" transform="scale(.05)"/>
    </pattern>
    <pattern id="aI" width="136.53" height="136.53" patternContentUnits="objectBoundingBox">
      <use xlink:href="#bj" transform="scale(.067)"/>
    </pattern>
    <pattern id="aK" width="102.4" height="102.4" patternContentUnits="objectBoundingBox">
      <use xlink:href="#bj" transform="scale(.05)"/>
    </pattern>
    <pattern id="aM" width="136.53" height="136.53" patternContentUnits="objectBoundingBox">
      <use xlink:href="#bj" transform="scale(.067)"/>
    </pattern>
    <pattern id="aO" width="102.4" height="102.4" patternContentUnits="objectBoundingBox">
      <use xlink:href="#bj" transform="scale(.05)"/>
    </pattern>
    <pattern id="aQ" width="136.53" height="136.53" patternContentUnits="objectBoundingBox">
      <use xlink:href="#bj" transform="scale(.067)"/>
    </pattern>
    <pattern id="aS" width="102.4" height="102.4" patternContentUnits="objectBoundingBox">
      <use xlink:href="#bj" transform="scale(.05)"/>
    </pattern>
    <pattern id="aU" width="136.53" height="136.53" patternContentUnits="objectBoundingBox">
      <use xlink:href="#bj" transform="scale(.067)"/>
    </pattern>
    <pattern id="aW" width="102.4" height="102.4" patternContentUnits="objectBoundingBox">
      <use xlink:href="#bj" transform="scale(.05)"/>
    </pattern>
    <pattern id="bc" width="68.27" height="33.57" patternContentUnits="objectBoundingBox">
      <use xlink:href="#bj" transform="scale(.033 .016)"/>
    </pattern>
    <pattern id="be" width="68.27" height="31.03" patternContentUnits="objectBoundingBox">
      <use xlink:href="#bj" transform="scale(.033 .015)"/>
    </pattern>
    <radialGradient id="bd" cx="0" cy="0" r="1" gradientTransform="matrix(-12.75 -6.778 23.608 -44.41 237 150)" gradientUnits="userSpaceOnUse">
      <stop stop-color="#fff" stop-opacity=".56"/>
      <stop offset="1" stop-color="#D9D9D9" stop-opacity="0"/>
    </radialGradient>
  </defs>
</svg>
