<svg xmlns="http://www.w3.org/2000/svg" width="1298" height="616" fill="none">
  <path fill="#D9D9D9" d="m245.5 154 1.01 6.238a3.999 3.999 0 0 0 2.91 3.224L257 165.5l-7.58 2.038a3.999 3.999 0 0 0-2.91 3.224L245.5 177l-1.01-6.238a3.999 3.999 0 0 0-2.91-3.224L234 165.5l7.58-2.038a3.999 3.999 0 0 0 2.91-3.224L245.5 154ZM528.5 32l.515 3.1807a3.9988 3.9988 0 0 0 2.91 3.2236L536 39.5l-4.075 1.0957a3.9988 3.9988 0 0 0-2.91 3.2236L528.5 47l-.515-3.1807a3.9988 3.9988 0 0 0-2.91-3.2236L521 39.5l4.075-1.0957a3.9988 3.9988 0 0 0 2.91-3.2236L528.5 32Z"/>
  <path fill="#FFD09E" d="m722.5 489 .515 3.181a3.9978 3.9978 0 0 0 2.91 3.223L730 496.5l-4.075 1.096a3.9978 3.9978 0 0 0-2.91 3.223L722.5 504l-.515-3.181a3.9978 3.9978 0 0 0-2.91-3.223L715 496.5l4.075-1.096a3.9978 3.9978 0 0 0 2.91-3.223L722.5 489Z"/>
  <path fill="#D9D9D9" d="m1010.5 244 1.01 6.238c.25 1.554 1.39 2.815 2.91 3.224l7.58 2.038-7.58 2.038c-1.52.409-2.66 1.67-2.91 3.224L1010.5 267l-1.01-6.238c-.25-1.554-1.39-2.815-2.91-3.224L999 255.5l7.58-2.038c1.52-.409 2.66-1.67 2.91-3.224l1.01-6.238ZM1140.5 0l1.01 6.2383c.25 1.5533 1.39 2.815 2.91 3.2235L1152 11.5l-7.58 2.0382c-1.52.4086-2.66 1.6702-2.91 3.2235L1140.5 23l-1.01-6.2383c-.25-1.5533-1.39-2.8149-2.91-3.2235L1129 11.5l7.58-2.0382c1.52-.4086 2.66-1.6702 2.91-3.2235L1140.5 0Z"/>
  <path fill="#D1D1D1" d="m488 594 .607 3.748c.459 2.836 2.539 5.14 5.314 5.886L499 605l-5.079 1.366c-2.775.746-4.855 3.05-5.314 5.886L488 616l-.607-3.748c-.459-2.836-2.539-5.14-5.314-5.886L477 605l5.079-1.366c2.775-.746 4.855-3.05 5.314-5.886L488 594Z"/>
  <path fill="#BF915F" d="m271 598 .112.69c.459 2.837 2.539 5.141 5.314 5.887L278 605l-1.574.423c-2.775.746-4.855 3.05-5.314 5.887L271 612l-.112-.69c-.459-2.837-2.539-5.141-5.314-5.887L264 605l1.574-.423c2.775-.746 4.855-3.05 5.314-5.887L271 598ZM1287 399l.11.69c.46 2.837 2.54 5.141 5.32 5.887l1.57.423-1.57.423c-2.78.746-4.86 3.05-5.32 5.887l-.11.69-.11-.69c-.46-2.837-2.54-5.141-5.32-5.887L1280 406l1.57-.423c2.78-.746 4.86-3.05 5.32-5.887l.11-.69Z"/>
  <path fill="#DCB183" d="m17.5 177 1.4111 8.716c.4592 2.837 2.5389 5.141 5.3138 5.887L35 194.5l-10.7751 2.897c-2.7749.746-4.8546 3.05-5.3138 5.887L17.5 212l-1.4111-8.716c-.4592-2.837-2.5389-5.141-5.3138-5.887L0 194.5l10.7751-2.897c2.7749-.746 4.8546-3.05 5.3138-5.887L17.5 177Z"/>
  <circle cx="1286.5" cy="406.5" r="9.1042" fill="#FFC484" fill-opacity=".1"/>
  <circle cx="1286.5" cy="406.5" r="11.5" fill="#FFC484" fill-opacity=".1"/>
  <circle cx="1010.5" cy="424.5" r="16.2292" fill="#FFC484" fill-opacity=".1"/>
  <circle cx="1010.5" cy="424.5" r="20.5" fill="#FFC484" fill-opacity=".1"/>
  <path fill="#FFD3A4" d="m1011 413 .61 3.748c.46 2.836 2.54 5.14 5.31 5.886L1022 424l-5.08 1.366c-2.77.746-4.85 3.05-5.31 5.886L1011 435l-.61-3.748c-.46-2.836-2.54-5.14-5.31-5.886L1000 424l5.08-1.366c2.77-.746 4.85-3.05 5.31-5.886L1011 413Z"/>
</svg>
