<svg xmlns="http://www.w3.org/2000/svg" xmlns:xlink="http://www.w3.org/1999/xlink" width="1440" height="507" fill="none"><path fill="url(#a)" d="M1119.74 308.995c1.59-.018-14.3-.042-13.72 0 .11.006.4.03.58-.132.13-.115.17-.296.17-.573-.05-2.303-.06-4.606-.08-6.909 0-.042.05-.084.12-.223 3.31 0-.53-.015 2.77.018.63 0 .8-.15.78-.729-.05-2.074-.02-4.154-.02-6.318h1.89c.04-.422.1-.765.1-1.109.01-1.754.01-3.509 0-5.257 0-.615.1-1.236-.5-1.748-.14-.121-.09-.615.07-.808.87-1.007.37-2.122.31-3.171-.03-.343-.76-.657-1.34-1.121.52 0 .83-.03 1.14 0 1.09.126 1.14.102 1.14-.898.01-2.207.01-4.407.02-6.614 0-1.302-.04-2.604.01-3.906.02-.585-.16-1.025-.66-1.374-.97-.682-1.32-1.556-1.2-2.641.09-.844.02-1.7.07-2.55.02-.253.14-.555.33-.729.48-.452.64-.953.63-1.568-.04-1.392-.02-2.785-.02-4.214-1.03-.289-1.04-.307-.81-1.344.28-.024.58-.048.97-.078 0-1.266.31-2.629-.1-3.78-.33-.91-.67-1.513.27-2.176-.03-1.435.36-2.894-.28-4.299-.2-.44-.36-.813.44-.91.18-.024.46-.331.48-.524.06-1.098.09-2.207.03-3.304-.02-.313-.33-.699-.62-.904-1.15-.79-1.61-1.773-1.43-3.063.11-.813.02-1.651.02-2.477 0-.591.08-1.164-.44-1.694-.23-.235-.11-.742-.15-1.128 1.07-.108 1.62-.614 1.63-1.519.01-.904.01-1.802.01-2.707.01-1.712.29-3.369 1.15-4.931.67-1.211.83-2.483.27-3.888 1.19-.024 1.02-.73 1.01-1.387-.01-2.23.02-4.455 0-6.685 0-.283-.16-.633-.37-.838-.35-.326-.29-.519.11-.675.63-.235.76-.675.76-1.218 0-2.056.04-4.105-.01-6.161-.02-.374-.35-.808-.67-1.091-.65-.573-.62-.874.14-1.326.24-.145.45-.501.47-.766.07-1.423.29-2.888.01-4.268-.16-.814-.11-1.423.06-2.213.3-1.507.52-3.189.05-4.605-.37-1.128.26-1.929.2-2.888-.04-.784.15-1.579.25-2.574.15.838.25 1.495.4 2.146.17.724.36 1.441.54 2.164.02.091.09.223.05.278-.91 1.024-.28 2.2-.42 3.297-.07.543-.07 1.109.02 1.652.08.464.35.898.5 1.35.06.181.05.398 0 .579-.1.344-.35.675-.37 1.019-.06 1.302-.04 2.604-.06 3.906-.01.458.12.826.65 1.031.69.265.63.705.13 1.037-.75.5-.86 1.133-.83 1.905.06 1.778.04 3.557.02 5.335 0 .742.1 1.381 1.05 1.447-1.09 2.315-.22 4.702-.51 7.011-.07.518-.05 1.055-.01 1.573.02.248.15.615.35.688.57.229.62.536.47 1.012-.34 1.122-.09 2.207.48 3.201.93 1.586 1.05 3.298 1.14 5.022.05 1.127.03 2.255.02 3.382 0 .458.21.615.71.615.3 0 .85.084.86.193.07.368-.01.772-.1 1.151-.11.44-.4.868-.42 1.308-.05 1.303-.02 2.605-.01 3.907 0 .47-.06.85-.56 1.163-1.16.73-1.72 1.706-1.45 3.027.11.482.01 1-.02 1.501-.02.506-.04.964.76 1.006.09 0 .24.374.23.561-.13 1.387-.34 2.767-.42 4.16-.02.307.38.627.53.958.12.247.34.627.22.754-.63.735-.48 1.567-.48 2.381 0 .476.01.952 0 1.429-.02.494-.06.964.75 1.006.13.006.37.338.34.489-.04.229-.23.578-.42.615-.63.12-.6.44-.58.886.05 1.224-.02 2.453.05 3.677.02.41.31.808.47 1.212.18.422.47.832.5 1.266.09.898-.02 1.802.05 2.701.06.687-.11 1.241-.71 1.663-.98.688-1.2 1.574-1.18 2.653.08 3.231.04 6.462.05 9.694 0 1.067.01 1.061 1.18.91.3-.036.6 0 .91 0 .04.066.08.133.13.193-.27.193-.56.355-.79.579-.24.229-.58.506-.58.765-.02 1.007-.27 2.05.55 2.966.14.157-.09.585-.17.88-.12.374-.38.742-.38 1.109"/><path fill="url(#b)" d="M-133.5 243s248.672 43.36 409.5 64c102.355 13.137 263.173 24.797 263.173 24.797s162.839 85.826 210.087 86.964c127.713 3.077 247.725-79.096 309.88-99.93 201.69-67.612 536.29-158.287 536.29-158.287l-109.19 276.81-1804.871 69.655L-133.5 243Z"/><path fill="url(#c)" d="M1011.19 300c.52 2.099 1.04 4.198 1.61 6.476-.67-.076-1.11-.126-1.55-.173-.07.104-.15.21-.22.314.32.28.59.713.95.814 1.04.289 1.37.999 1.58 1.923.56 2.435 1.19 4.854 1.84 7.503-1.13-.063-2.02-.189-2.91-.129-.52.035-1.46.358-1.46.566-.01.769-.37 1.806.96 2.092 1.09.236 2.2.512 3.21.958.58.258 1.25.817 1.43 1.377.61 1.923 1.03 3.905 1.58 6.095-2.23-.333-4.2-.625-6.17-.92-.04.132-.08.264-.11.395 1.58.528 3.12 1.169 4.73 1.549 1.56.368 2.24 1.163 2.6 2.703 1.07 4.53 2.34 9.014 3.52 13.517.08.298.12.606.22 1.118h-11.32c0 2.9.03-4.398-.03-1.696-.01.509-.38 1.012-.59 1.518l-.61-.154v.398H999c.599-2.287 1.09-4.364 1.72-6.4.11-.371.72-.732 1.16-.852 2.17-.584 4.38-1.04 6.54-1.637.64-.176 1.18-.659 1.77-1.002-.06-.16-.13-.32-.2-.481-2.76.424-5.53.849-8.64 1.329.61-2.249 1.15-4.336 1.78-6.39.1-.318.62-.535.98-.745 2.03-1.182 4.05-2.369 6.1-3.507.8-.446 1.25-.942.72-2.02-2.23.83-4.45 1.659-6.96 2.592 2.34-9.196 4.62-18.139 6.9-27.084.1-.016.21-.031.32-.047Z"/><mask id="d" width="52" height="55" x="355" y="270" maskUnits="userSpaceOnUse" style="mask-type:alpha"><path fill="#F9A879" d="M406.99 321.437v-3.28c-.137-.068-.181-.106-.225-.112a45.119 45.119 0 0 0-1.327-.019c-1.07 0-1.076 0-1.082-1.033 0-5.67-.013-11.34.012-17.003 0-.595-.169-.77-.751-.733-.726.05-1.458.038-2.184-.031-.207-.019-.545-.338-.545-.519-.025-3.924-.012-7.854-.031-11.778 0-.244-.163-.645-.35-.714-2.91-1.114-5.827-2.221-8.762-3.254-.757-.269-1.345-.626-1.752-1.308a1976.95 1976.95 0 0 0-4.807-8.023c-.732-1.214-1.477-2.422-2.209-3.63-.694.357-1.289.676-1.89.97-4.456 2.184-8.918 4.362-13.361 6.565-.351.175-.638.526-.87.857-.588.858-1.076 1.784-1.696 2.616-.382.52-.519 1.033-.519 1.652.012 10.427.012 20.853.012 31.279 0 .457-.056.908-.094 1.415h-6.871c0 1.765-.019 3.454.012 5.138.006.488-.131.632-.619.607-.739-.044-1.484-.013-2.078-.013 0 1.108-.006 2.059 0 3.017v.012h51.987c.013-.895 0-1.783 0-2.678Z"/></mask><g mask="url(#d)"><path fill="#F9A879" d="M406.99 321.437v-3.28c-.137-.068-.181-.106-.225-.112a45.119 45.119 0 0 0-1.327-.019c-1.07 0-1.076 0-1.082-1.033 0-5.67-.013-11.34.012-17.003 0-.595-.169-.77-.751-.733-.726.05-1.458.038-2.184-.031-.207-.019-.545-.338-.545-.519-.025-3.924-.012-7.854-.031-11.778 0-.244-.163-.645-.35-.714-2.91-1.114-5.827-2.221-8.762-3.254-.757-.269-1.345-.626-1.752-1.308a1976.95 1976.95 0 0 0-4.807-8.023c-.732-1.214-1.477-2.422-2.209-3.63-.694.357-1.289.676-1.89.97-4.456 2.184-8.918 4.362-13.361 6.565-.351.175-.638.526-.87.857-.588.858-1.076 1.784-1.696 2.616-.382.52-.519 1.033-.519 1.652.012 10.427.012 20.853.012 31.279 0 .457-.056.908-.094 1.415h-6.871c0 1.765-.019 3.454.012 5.138.006.488-.131.632-.619.607-.739-.044-1.484-.013-2.078-.013 0 1.108-.006 2.059 0 3.017v.012h51.987c.013-.895 0-1.783 0-2.678Z"/><path fill="url(#e)" d="m367.158 276.587-2.158 5.52v11.04L406 314v-11.04l-3.776-1.227v-14.72l-11.869-4.906L383.342 268l-16.184 8.587Z"/></g><mask id="f" width="20" height="70" x="424" y="256" maskUnits="userSpaceOnUse" style="mask-type:alpha"><path fill="#F9A879" d="M443.956 266.572c0-2.461.031-4.926.044-7.387 0-.119-.066-.347-.071-.347-.591.105-.945-.26-1.302-.624-.036-.036-.142.004-.217.008-.512.018-1.029.04-1.541.049-.781.009-1.969-.651-2.062-1.191-.066-.374-.225-.448-.556-.378-.376.079-.641-.013-.711-.453-.018-.096-.252-.215-.398-.228-.437-.031-.879-.009-1.32-.018-2.884-.066-5.458.862-7.595 2.716-2.628 2.272-4.513 4.992-4.191 8.714.013.145 0 .29 0 .439l.026 58.128h19.889v-59.424l.005-.004Z"/></mask><g mask="url(#f)"><path fill="url(#g)" d="M443.956 266.572c0-2.461.031-4.926.044-7.387 0-.119-.066-.347-.071-.347-.591.105-.945-.26-1.302-.624-.036-.036-.142.004-.217.008-.512.018-1.029.04-1.541.049-.781.009-1.969-.651-2.062-1.191-.066-.374-.225-.448-.556-.378-.376.079-.641-.013-.711-.453-.018-.096-.252-.215-.398-.228-.437-.031-.879-.009-1.32-.018-2.884-.066-5.458.862-7.595 2.716-2.628 2.272-4.513 4.992-4.191 8.714.013.145 0 .29 0 .439l.026 58.128h19.889v-59.424l.005-.004Z"/></g><path fill="url(#h)" fill-opacity=".3" d="M622 51h126L586.417 471.875H569L622 51Z"/><path fill="url(#i)" fill-opacity=".1" d="M622 51h126L586.417 471.875H569L622 51Z" style="mix-blend-mode:overlay"/><defs><linearGradient id="a" x1="1101" x2="1113.5" y1="173.5" y2="309" gradientUnits="userSpaceOnUse"><stop stop-color="#FF523A"/><stop offset="1" stop-color="#FFB96D"/></linearGradient><linearGradient id="b" x1="783.5" x2="770.436" y1="278" y2="429.582" gradientUnits="userSpaceOnUse"><stop stop-color="#FFB96D"/><stop offset="1" stop-color="#F29685"/></linearGradient><linearGradient id="c" x1="1028.5" x2="1017.5" y1="300" y2="342" gradientUnits="userSpaceOnUse"><stop stop-color="#F87361"/><stop offset="1" stop-color="#FBAE75"/></linearGradient><linearGradient id="e" x1="383.342" x2="382.645" y1="265.547" y2="302.957" gradientUnits="userSpaceOnUse"><stop stop-color="#FFF2E4"/><stop offset="1" stop-color="#F9A879" stop-opacity="0"/></linearGradient><linearGradient id="g" x1="434" x2="434" y1="226" y2="326" gradientUnits="userSpaceOnUse"><stop stop-color="#FF523A"/><stop offset="1" stop-color="#F9A879"/></linearGradient><linearGradient id="h" x1="586.283" x2="682.32" y1="443.619" y2="117.536" gradientUnits="userSpaceOnUse"><stop stop-color="#FFB96D" stop-opacity=".61"/><stop offset="1" stop-color="#BABABA" stop-opacity="0"/></linearGradient><pattern id="i" width="12.922" height="4.488" patternContentUnits="objectBoundingBox"><use xlink:href="#j" transform="scale(.006 .002)"/></pattern></defs></svg>