<svg xmlns="http://www.w3.org/2000/svg" xmlns:xlink="http://www.w3.org/1999/xlink" width="158" height="166" fill="none"><circle cx="62.615" cy="73.739" r="17.5" fill="#FFCB93" fill-opacity=".05" transform="rotate(-122.6 62.615 73.74)"/><circle cx="61.924" cy="73.587" r="23" fill="#FFCB93" fill-opacity=".05" transform="rotate(-122.6 61.924 73.587)"/><g opacity=".6"><path stroke="#FFC88C" d="m70.95 80.85 57.562 33.313M71.24 76.981 118 101.537"/><mask id="b" width="58" height="56" x="51" y="78" maskUnits="userSpaceOnUse" style="mask-type:alpha"><path fill="url(#a)" d="m52.04 82.016-.835-3.128 4.012 4.132-.242.417 2.437 2.524.22.824 2.228 2.403 48.811 43.143-.423.73-48.81-43.143-2.322-1.762-5.077-6.14Z"/></mask><g mask="url(#b)"><path fill="url(#c)" d="m52.04 82.016-.835-3.128 4.012 4.132-.242.417 2.437 2.524.22.824 2.228 2.403 48.811 43.143-.423.73-48.81-43.143-2.322-1.762-5.077-6.14Z"/><path fill="#FF523A" d="m55.365 83.245-3.073 1.702 10.023 11.786 2.595-4.484-9.545-9.004Z"/></g><mask id="e" width="76" height="25" x="61" y="60" maskUnits="userSpaceOnUse" style="mask-type:alpha"><path fill="url(#d)" d="m64.411 60.64-3.128.834 5.581 1.42.242-.417 3.402.856.824-.22 3.194.735 61.724 20.828.423-.73-61.725-20.828-2.684-1.136-7.853-1.343Z"/></mask><g mask="url(#e)"><path fill="url(#f)" d="m64.411 60.64-3.128.834 5.581 1.42.242-.417 3.402.856.824-.22 3.194.735 61.724 20.828.423-.73-61.725-20.828-2.684-1.136-7.853-1.343Z"/><path fill="#FF523A" d="m67.133 62.91-.055-3.511 15.212 2.818-2.595 4.484-12.562-3.79Z"/></g><mask id="g" width="25" height="25" x="49" y="61" maskUnits="userSpaceOnUse" style="mask-type:alpha"><circle cx="61.801" cy="73.327" r="11.928" fill="#D9D9D9" transform="rotate(-60 61.8 73.327)"/></mask><g mask="url(#g)"><circle cx="61.801" cy="73.327" r="11.928" fill="url(#h)" transform="rotate(-60 61.8 73.327)"/><circle cx="61.801" cy="73.327" r="11.928" fill="url(#i)" fill-opacity=".3" style="mix-blend-mode:overlay" transform="rotate(-60 61.8 73.327)"/><path fill="url(#j)" d="M73.397 78.786C60.683 86.323 50.3 75.162 50.884 66.453c-5.408 2.995-1.887 14.406.382 20.266l17.54 3.609 4.591-11.542Z"/><path fill="url(#k)" fill-opacity=".3" d="M73.397 78.786C60.683 86.323 50.3 75.162 50.884 66.453c-5.408 2.995-1.887 14.406.382 20.266l17.54 3.609 4.591-11.542Z" style="mix-blend-mode:overlay"/></g></g><path fill="url(#l)" fill-opacity=".3" d="M89.096 39.03C-.324 43.93 34.49 95.656 63.074 120.907c0 0-58.491-30.278-51.217-61.62 6.642-28.617 47.476-35.713 77.24-20.257Z"/><path fill="url(#m)" fill-opacity=".3" d="M89.096 39.03C-.324 43.93 34.49 95.656 63.074 120.907c0 0-58.491-30.278-51.217-61.62 6.642-28.617 47.476-35.713 77.24-20.257Z" style="mix-blend-mode:overlay"/><defs><linearGradient id="a" x1="46.618" x2="112.835" y1="86.814" y2="125.136" gradientUnits="userSpaceOnUse"><stop stop-color="#fff"/><stop offset="1" stop-color="#BFBFBF"/></linearGradient><linearGradient id="c" x1="46.618" x2="112.835" y1="86.814" y2="125.136" gradientUnits="userSpaceOnUse"><stop stop-color="#fff"/><stop offset="1" stop-color="#BFBFBF"/></linearGradient><linearGradient id="d" x1="65.87" x2="132.086" y1="53.549" y2="91.871" gradientUnits="userSpaceOnUse"><stop stop-color="#fff"/><stop offset="1" stop-color="#BFBFBF"/></linearGradient><linearGradient id="f" x1="65.87" x2="132.086" y1="53.549" y2="91.871" gradientUnits="userSpaceOnUse"><stop stop-color="#fff"/><stop offset="1" stop-color="#BFBFBF"/></linearGradient><linearGradient id="h" x1="61.801" x2="61.801" y1="61.4" y2="85.255" gradientUnits="userSpaceOnUse"><stop stop-color="#FF523A"/><stop offset="1" stop-color="#FFCE99"/></linearGradient><linearGradient id="j" x1="52.214" x2="69.975" y1="74.739" y2="89.751" gradientUnits="userSpaceOnUse"><stop stop-color="#FF523A"/><stop offset="1" stop-color="#FFB96D"/></linearGradient><linearGradient id="l" x1="-17.718" x2="56.466" y1="53.851" y2="70.523" gradientUnits="userSpaceOnUse"><stop stop-color="#FF523A"/><stop offset="1" stop-color="#FFC88C" stop-opacity="0"/></linearGradient><pattern id="i" width="85.85" height="85.85" patternContentUnits="objectBoundingBox"><use xlink:href="#n" transform="scale(.042)"/></pattern><pattern id="k" width="114.083" height="72.757" patternContentUnits="objectBoundingBox"><use xlink:href="#n" transform="scale(.056 .036)"/></pattern><pattern id="m" width="23.071" height="24.338" patternContentUnits="objectBoundingBox"><use xlink:href="#n" transform="scale(.011 .012)"/></pattern></defs></svg>