<svg xmlns="http://www.w3.org/2000/svg" xmlns:xlink="http://www.w3.org/1999/xlink" width="1440" height="641" fill="none"><mask id="b" width="1626" height="385" x="0" y="242" maskUnits="userSpaceOnUse" style="mask-type:alpha"><path fill="url(#a)" d="M0 423.615S504.638 524.5 836.5 524.5c49.439 0 89.536-6.301 111.125-10.595 10.946-2.178 19.6-10.183 23.327-20.704L987.5 446.5l638.5-204L1440 627H0V423.615Z"/></mask><g mask="url(#b)"><path fill="url(#c)" d="M0 423.615S504.638 534 836.5 534c52.52 0 94.497-11.769 114.942-18.824 8.783-3.031 15.314-10.131 18.417-18.888L987.5 446.5l589-186.5L1440 627H0V423.615Z"/><path fill="url(#d)" d="m1043 450.5-62-4.5c-1.6 22.8-14.667 50.167-21 61l42 16c20.8-1.6 37.83-47.5 41-72.5Z"/><path fill="url(#e)" fill-opacity=".1" d="m1043 450.5-62-4.5c-1.6 22.8-14.667 50.167-21 61l42 16c20.8-1.6 37.83-47.5 41-72.5Z" style="mix-blend-mode:overlay"/></g><mask id="f" width="47" height="98" x="1352" y="154" maskUnits="userSpaceOnUse" style="mask-type:alpha"><path fill="#E95640" d="M1395.72 193.318c.14-.148.26-.246.34-.367.05-.08.1-.228.06-.287a.37.37 0 0 0-.29-.144c-.97.051-1.88-.227-2.77-.559-.35-.132-.65-.406-.96-.639-.72-.545-1.45-1.072-2.12-1.667-.44-.384-.77-.885-1.16-1.316-.49-.525-1.07-.911-1.72-1.219-1.17-.558-1.79-1.605-2.36-2.695-.35-.672-.66-1.381-1.11-1.988-.53-.722-1.38-.889-2.23-.97-.6-.057-1.14-.25-1.66-.546-.55-.306-1.11-.578-1.69-.81-.23-.091-.33-.212-.35-.42-.06-.646-.13-1.292-.15-1.939-.01-.142.13-.3.23-.438.29-.423.61-.824.87-1.266.27-.453.22-.945.06-1.438-.07-.231-.13-.493-.09-.724.26-1.574-.97-2.16-2.16-2.171-.12 0-.28.017-.37-.045-.5-.341-1.02-.283-1.53-.083-.42.165-.82.393-1.24.588-.33.158-.5.417-.48.786l.09 1.765c.01.093.01.191 0 .281-.2.97.02 1.916.24 2.843.18.79.28 1.127.1 1.965-.42.076-.92-.2-1.16-.547-.31-.473-.66-.928-1.04-1.356-.32-.361-.52-.755-.56-1.226-.07-.894-.2-1.777-.53-2.617-.14-.349-.35-.669-.46-1.024a4.885 4.885 0 0 1-.2-1.138 96.119 96.119 0 0 1-.07-3.395c-.01-.576.05-1.153.06-1.729.03-1.413.19-2.839-.19-4.228-.13-.477-.38-.923-.6-1.373a4.46 4.46 0 0 0-.41-.653c-.09-.132-.2-.317-.33-.344-.5-.106-.4-.47-.4-.799 0-.114.01-.227.02-.423.73.368 1.42.34 2.11-.136-.14-.321-.22-.688-.43-.973-.25-.355-.61-.64-.35-1.241-.3.09-.48.147-.7.213-.03-.103-.07-.209-.09-.289-.22-.093-.42-.208-.64-.261-.37-.093-.75-.153-1.13-.218-.81-.138-.83-.167-.88-.972-.02-.198-.08-.395-.09-.593-.01-.375-.24-.47-.61-.493.03.536.05 1.061.12 1.579.04.349.06.621-.35.755-.08.025-.15.2-.16.308-.01.401.02.803.02 1.204-.01.212.06.327.28.371.31.061.44.249.44.576 0 1.286.02 2.572.02 3.858 0 .114-.02.227-.04.396l-.19-.172c-.21-.205-.35-.123-.39.121-.02.203-.13.282-.28.395-.13.099-.21.299-.24.468-.03.179.01.378.05.561.1.43-.08.736-.42.954-.22.138-.26.321-.32.55-.19.829.01 1.59.36 2.326.48 1.021.41 2.081.24 3.148-.15 1.047-.37 2.088-.49 3.141-.14 1.197-.17 2.398.21 3.575.09.289-.02.34-.33.33-.52-.017-.96-.228-1.44-.4-.77-.276-1.8-.076-2.2.528-.25.377-.47.772-.69 1.17-.06.116-.05.273-.06.412-.01.115.02.251-.03.343-.24.414-.28.869-.3 1.322-.02.561.01 1.07.58 1.472.76.542.86 1.416.82 2.286-.02.464-.21.861-.58 1.174-.17.146-.31.319-.46.487-.24.265-.62.477-.34.937-.51-.045-.65.129-.54.519-.2.079-.47.101-.57.244-.28.396-.69.796-.42 1.354.32.666.66 1.322 1.02 1.97.14.249.15.424-.05.658-.5.589-.99 1.192-1.16 1.982-.02.107-.18.192-.29.27-.31.22-.71.364-.76.818-.05.404.06.5.47.471.14-.011.33-.016.44.059.5.344.98.716 1.47 1.08.21.156.24.367.16.6-.2.551-.39 1.106-.59 1.655-.18.508-.21 1.007.02 1.509.15.342.28.705.47 1.027.27.467.05.833-.18 1.209-.03.048-.1.079-.12.129-.1.382-.4.609-.66.869-.29.291-.32.677-.14.981.38.623.35 1.312.43 1.98.06.533.03.588.37.986-.4.638-.38.697.32 1.309-.24.202-.53.368-.7.614-.2.282-.07.586.24.837-.24.152-.46.263-.64.414-.34.271-.68.536-.97.853-.48.537-.45.902-.1 1.531.54.974 1.37 1.641 2.23 2.308.84.651 1.71 1.244 2.65 1.734.09.042.16.237.13.331-.29 1.005-.95 1.705-1.88 2.157-.1.048-.23.036-.35.036-1.23.002-2.47.011-3.71-.005-.3-.003-.41.062-.41.386 0 1.44-.02 2.881-.03 4.321-.01.509 0 1.021 0 1.546h.29c-.02.095-.02.192-.06.236-.41.39-.3.895-.3 1.37 0 .091.15.181.28.319 0-.041.01.017 0 .025-.39.201-.31.562-.31.889-.01 1.167 0 2.335 0 3.556l-2.47 4.251s.19 8.159 0 14.376c1.23.118 2.5.029 3.73.029l42.26-.001c0-5.175.06-9.23 0-14.404 0 0-.31-1.449-.5-1.525-1.09-.446-2.18-.894-3.27-1.343-1.21-.498-2.42-.989-3.62-1.507-.12-.049-.22-.272-.22-.42-.07-1.496-.11-2.996-.17-4.493-.01-.272-.06-.547-.02-.814.06-.479-.19-.702-.6-.851-.24-.088-.46-.169-.4-.536.05-.319-.28-.652-.61-.73-.17-.04-.35-.069-.52-.1-.73-.126-1.02-.399-1.13-1.11-.07-.397-.28-.682-.58-.933-.23-.195-.44-.409-.67-.621.11-.127.23-.206.25-.306.03-.164.04-.353-.01-.512-.09-.282-.28-.541-.33-.826-.08-.394-.12-.786-.36-1.13-.07-.095-.07-.246-.07-.37 0-1.263-.02-2.529.05-3.788.04-.743-.32-1.328-.53-1.982-.17-.554-.27-1.137-.37-1.712-.17-.962-.32-1.929-.47-2.896-.06-.38-.1-.763-.16-1.19.1.046.17.056.2.093.33.426.66.849.96 1.292.11.155.13.37.18.556.08.231.11.498.24.687.26.37.57.714.89 1.041.57.574 1.29.598 2.02.496.47-.065.93-.177 1.38-.297.57-.151.67-.337.57-.91-.11-.618.07-1.165.46-1.646.05-.054.1-.104.14-.158.63-.75.44-1.396-.48-1.748-.97-.373-1.8-.954-2.41-1.808-.54-.755-1.07-1.514-1.59-2.28-.64-.928-1.27-1.859-1.88-2.803-.47-.721-1.08-1.195-1.94-1.399-1.17-.276-1.83-1.181-1.94-2.363-.08-.795-.26-1.581-.38-2.374-.05-.349-.06-.702-.09-1.067.58-.124 1.13-.196 1.65-.371.44-.148.85-.383 1.24-.645.15-.105.28-.395.26-.578-.18-1.333-.54-2.602-1.6-3.536-.24-.203-.54-.327-.83-.501.04-.152.08-.319.13-.533.11.057.18.095.25.141.66.431 1.32.859 1.97 1.299.21.141.43.294.58.488a11.797 11.797 0 0 0 4.74 3.612c.76.321 1.55.575 2.31.888.22.09.42.263.6.428.26.244.65.356.93.138.46-.362.95-.272 1.46-.205.28.036.56.029.84.063.33.039.65.081.97.162.37.096.72.144 1.04-.127.07-.062.17-.196.14-.242-.04-.087-.16-.161-.26-.191-.21-.062-.43-.091-.7-.144l-.01-.008Zm-21.48 11.435c.12-.232.29-.456.33-.7.03-.199-.07-.436-.16-.631-.04-.082-.23-.087-.34-.149-.06-.036-.1-.115-.16-.198.46-.081.56-.041.78.265.03.046.07.125.11.124.4-.027.43.313.53.551.29.681.51 1.395.85 2.052.44.877.74 1.791.96 2.743.19.846.52 1.63 1.11 2.289.13.141.23.341.26.528.1.556.21 1.117.22 1.678.01.918.15 1.799.41 2.678.19.625.28 1.282.38 1.929.09.558.11 1.127.19 1.686.08.64.22 1.276.3 1.917.04.372.2.631.55.733.28.082.59.092.87.16.11.025.19.124.29.189-.11.102-.2.217-.32.302-.05.034-.14.006-.21.006-.78 0-1.57.014-2.35-.008a2.696 2.696 0 0 1-.82-.17 9.7 9.7 0 0 1-1.16-.521c-.6-.314-1.22-.474-1.9-.426-.58.04-1.17 0-1.75.011-.56.009-1.1-.015-1.62-.263-.45-.211-.44-.166-.37-.651.1-.82.34-1.649-.13-2.452-.12-.206-.14-.471-.19-.714-.02-.124.01-.259.02-.318.75.095 1.45.2 2.15.261.18.015.37-.11.56-.171 0-.046 0-.093.01-.139-.43-.323-.85-.645-1.28-.966.32-.522.33-.483.87-.624.81-.214 1.18-.428 1.05-1.212-.04-.222.09-.474.15-.708.1-.323.13-.677-.26-.879-.46-.237-.89-.53-1.32-.817a.704.704 0 0 1-.28-.34c-.14-.473-.24-.96-.37-1.434-.06-.201-.04-.344.1-.513.63-.799.79-2.518-.19-3.192.12-.212.22-.432.34-.646.21-.361.48-.594.91-.705.33-.082.59-.369.89-.569-.1-.026-.2-.059-.3-.077-.32-.062-.52-.281-.51-.603 0-.079.05-.157.08-.234.07.063.14.121.2.192.09.115.16.327.26.342.27.042.28.191.26.394Zm-7.52-13.173c.07-.445.11-.818.17-1.19.16-.893.34-1.781.46-2.677.07-.533.04-1.08.04-1.622.01-.456-.04-.914 0-1.365.08-.837.18-1.661-.15-2.477-.09-.234-.1-.506-.12-.762-.08-.691-.14-1.382-.21-2.075-.01-.128 0-.26 0-.39.21.373.36.753.53 1.123.29.651.56 1.314.91 1.939.29.52.43 1.03.29 1.616-.17.71-.23 1.419.07 2.117.08.183.17.364.21.556.15.628.28 1.258.42 1.887.06.264.14.524.18.791.09.579.15 1.162.23 1.742.03.201.09.396.15.622l-3.18.168v-.003Zm-3.09 27.88a.804.804 0 0 0 .08-.024c.28.385.55.771.86 1.201h-1.11c.06-.411.12-.794.17-1.177Zm2.09-61.045c.16.153.32.235.33.338.04.241.01.494-.01.74 0 .059-.09.109-.14.163-.06-.056-.17-.11-.17-.17-.02-.315-.01-.633-.01-1.071Zm9.08 24.236c-.02.034-.08.121-.14.207-.06-.082-.15-.164-.15-.249-.01-.214-.13-.279-.31-.305-.05-.006-.09-.087-.13-.134.05-.035.1-.094.16-.105.31-.053.58.184.58.586h-.01Z"/></mask><g mask="url(#f)"><path fill="#E95640" d="M1395.72 193.318c.14-.148.26-.246.34-.367.05-.08.1-.228.06-.287a.37.37 0 0 0-.29-.144c-.97.051-1.88-.227-2.77-.559-.35-.132-.65-.406-.96-.639-.72-.545-1.45-1.072-2.12-1.667-.44-.384-.77-.885-1.16-1.316-.49-.525-1.07-.911-1.72-1.219-1.17-.558-1.79-1.605-2.36-2.695-.35-.672-.66-1.381-1.11-1.988-.53-.722-1.38-.889-2.23-.97-.6-.057-1.14-.25-1.66-.546-.55-.306-1.11-.578-1.69-.81-.23-.091-.33-.212-.35-.42-.06-.646-.13-1.292-.15-1.939-.01-.142.13-.3.23-.438.29-.423.61-.824.87-1.266.27-.453.22-.945.06-1.438-.07-.231-.13-.493-.09-.724.26-1.574-.97-2.16-2.16-2.171-.12 0-.28.017-.37-.045-.5-.341-1.02-.283-1.53-.083-.42.165-.82.393-1.24.588-.33.158-.5.417-.48.786l.09 1.765c.01.093.01.191 0 .281-.2.97.02 1.916.24 2.843.18.79.28 1.127.1 1.965-.42.076-.92-.2-1.16-.547-.31-.473-.66-.928-1.04-1.356-.32-.361-.52-.755-.56-1.226-.07-.894-.2-1.777-.53-2.617-.14-.349-.35-.669-.46-1.024a4.885 4.885 0 0 1-.2-1.138 96.119 96.119 0 0 1-.07-3.395c-.01-.576.05-1.153.06-1.729.03-1.413.19-2.839-.19-4.228-.13-.477-.38-.923-.6-1.373a4.46 4.46 0 0 0-.41-.653c-.09-.132-.2-.317-.33-.344-.5-.106-.4-.47-.4-.799 0-.114.01-.227.02-.423.73.368 1.42.34 2.11-.136-.14-.321-.22-.688-.43-.973-.25-.355-.61-.64-.35-1.241-.3.09-.48.147-.7.213-.03-.103-.07-.209-.09-.289-.22-.093-.42-.208-.64-.261-.37-.093-.75-.153-1.13-.218-.81-.138-.83-.167-.88-.972-.02-.198-.08-.395-.09-.593-.01-.375-.24-.47-.61-.493.03.536.05 1.061.12 1.579.04.349.06.621-.35.755-.08.025-.15.2-.16.308-.01.401.02.803.02 1.204-.01.212.06.327.28.371.31.061.44.249.44.576 0 1.286.02 2.572.02 3.858 0 .114-.02.227-.04.396l-.19-.172c-.21-.205-.35-.123-.39.121-.02.203-.13.282-.28.395-.13.099-.21.299-.24.468-.03.179.01.378.05.561.1.43-.08.736-.42.954-.22.138-.26.321-.32.55-.19.829.01 1.59.36 2.326.48 1.021.41 2.081.24 3.148-.15 1.047-.37 2.088-.49 3.141-.14 1.197-.17 2.398.21 3.575.09.289-.02.34-.33.33-.52-.017-.96-.228-1.44-.4-.77-.276-1.8-.076-2.2.528-.25.377-.47.772-.69 1.17-.06.116-.05.273-.06.412-.01.115.02.251-.03.343-.24.414-.28.869-.3 1.322-.02.561.01 1.07.58 1.472.76.542.86 1.416.82 2.286-.02.464-.21.861-.58 1.174-.17.146-.31.319-.46.487-.24.265-.62.477-.34.937-.51-.045-.65.129-.54.519-.2.079-.47.101-.57.244-.28.396-.69.796-.42 1.354.32.666.66 1.322 1.02 1.97.14.249.15.424-.05.658-.5.589-.99 1.192-1.16 1.982-.02.107-.18.192-.29.27-.31.22-.71.364-.76.818-.05.404.06.5.47.471.14-.011.33-.016.44.059.5.344.98.716 1.47 1.08.21.156.24.367.16.6-.2.551-.39 1.106-.59 1.655-.18.508-.21 1.007.02 1.509.15.342.28.705.47 1.027.27.467.05.833-.18 1.209-.03.048-.1.079-.12.129-.1.382-.4.609-.66.869-.29.291-.32.677-.14.981.38.623.35 1.312.43 1.98.06.533.03.588.37.986-.4.638-.38.697.32 1.309-.24.202-.53.368-.7.614-.2.282-.07.586.24.837-.24.152-.46.263-.64.414-.34.271-.68.536-.97.853-.48.537-.45.902-.1 1.531.54.974 1.37 1.641 2.23 2.308.84.651 1.71 1.244 2.65 1.734.09.042.16.237.13.331-.29 1.005-.95 1.705-1.88 2.157-.1.048-.23.036-.35.036-1.23.002-2.47.011-3.71-.005-.3-.003-.41.062-.41.386 0 1.44-.02 2.881-.03 4.321-.01.509 0 1.021 0 1.546h.29c-.02.095-.02.192-.06.236-.41.39-.3.895-.3 1.37 0 .091.15.181.28.319 0-.041.01.017 0 .025-.39.201-.31.562-.31.889-.01 1.167 0 2.335 0 3.556l-2.47 4.251s.19 8.159 0 14.376c1.23.118 2.5.029 3.73.029l42.26-.001c0-5.175.06-9.23 0-14.404 0 0-.31-1.449-.5-1.525-1.09-.446-2.18-.894-3.27-1.343-1.21-.498-2.42-.989-3.62-1.507-.12-.049-.22-.272-.22-.42-.07-1.496-.11-2.996-.17-4.493-.01-.272-.06-.547-.02-.814.06-.479-.19-.702-.6-.851-.24-.088-.46-.169-.4-.536.05-.319-.28-.652-.61-.73-.17-.04-.35-.069-.52-.1-.73-.126-1.02-.399-1.13-1.11-.07-.397-.28-.682-.58-.933-.23-.195-.44-.409-.67-.621.11-.127.23-.206.25-.306.03-.164.04-.353-.01-.512-.09-.282-.28-.541-.33-.826-.08-.394-.12-.786-.36-1.13-.07-.095-.07-.246-.07-.37 0-1.263-.02-2.529.05-3.788.04-.743-.32-1.328-.53-1.982-.17-.554-.27-1.137-.37-1.712-.17-.962-.32-1.929-.47-2.896-.06-.38-.1-.763-.16-1.19.1.046.17.056.2.093.33.426.66.849.96 1.292.11.155.13.37.18.556.08.231.11.498.24.687.26.37.57.714.89 1.041.57.574 1.29.598 2.02.496.47-.065.93-.177 1.38-.297.57-.151.67-.337.57-.91-.11-.618.07-1.165.46-1.646.05-.054.1-.104.14-.158.63-.75.44-1.396-.48-1.748-.97-.373-1.8-.954-2.41-1.808-.54-.755-1.07-1.514-1.59-2.28-.64-.928-1.27-1.859-1.88-2.803-.47-.721-1.08-1.195-1.94-1.399-1.17-.276-1.83-1.181-1.94-2.363-.08-.795-.26-1.581-.38-2.374-.05-.349-.06-.702-.09-1.067.58-.124 1.13-.196 1.65-.371.44-.148.85-.383 1.24-.645.15-.105.28-.395.26-.578-.18-1.333-.54-2.602-1.6-3.536-.24-.203-.54-.327-.83-.501.04-.152.08-.319.13-.533.11.057.18.095.25.141.66.431 1.32.859 1.97 1.299.21.141.43.294.58.488a11.797 11.797 0 0 0 4.74 3.612c.76.321 1.55.575 2.31.888.22.09.42.263.6.428.26.244.65.356.93.138.46-.362.95-.272 1.46-.205.28.036.56.029.84.063.33.039.65.081.97.162.37.096.72.144 1.04-.127.07-.062.17-.196.14-.242-.04-.087-.16-.161-.26-.191-.21-.062-.43-.091-.7-.144l-.01-.008Zm-21.48 11.435c.12-.232.29-.456.33-.7.03-.199-.07-.436-.16-.631-.04-.082-.23-.087-.34-.149-.06-.036-.1-.115-.16-.198.46-.081.56-.041.78.265.03.046.07.125.11.124.4-.027.43.313.53.551.29.681.51 1.395.85 2.052.44.877.74 1.791.96 2.743.19.846.52 1.63 1.11 2.289.13.141.23.341.26.528.1.556.21 1.117.22 1.678.01.918.15 1.799.41 2.678.19.625.28 1.282.38 1.929.09.558.11 1.127.19 1.686.08.64.22 1.276.3 1.917.04.372.2.631.55.733.28.082.59.092.87.16.11.025.19.124.29.189-.11.102-.2.217-.32.302-.05.034-.14.006-.21.006-.78 0-1.57.014-2.35-.008a2.696 2.696 0 0 1-.82-.17 9.7 9.7 0 0 1-1.16-.521c-.6-.314-1.22-.474-1.9-.426-.58.04-1.17 0-1.75.011-.56.009-1.1-.015-1.62-.263-.45-.211-.44-.166-.37-.651.1-.82.34-1.649-.13-2.452-.12-.206-.14-.471-.19-.714-.02-.124.01-.259.02-.318.75.095 1.45.2 2.15.261.18.015.37-.11.56-.171 0-.046 0-.093.01-.139-.43-.323-.85-.645-1.28-.966.32-.522.33-.483.87-.624.81-.214 1.18-.428 1.05-1.212-.04-.222.09-.474.15-.708.1-.323.13-.677-.26-.879-.46-.237-.89-.53-1.32-.817a.704.704 0 0 1-.28-.34c-.14-.473-.24-.96-.37-1.434-.06-.201-.04-.344.1-.513.63-.799.79-2.518-.19-3.192.12-.212.22-.432.34-.646.21-.361.48-.594.91-.705.33-.082.59-.369.89-.569-.1-.026-.2-.059-.3-.077-.32-.062-.52-.281-.51-.603 0-.079.05-.157.08-.234.07.063.14.121.2.192.09.115.16.327.26.342.27.042.28.191.26.394Zm-7.52-13.173c.07-.445.11-.818.17-1.19.16-.893.34-1.781.46-2.677.07-.533.04-1.08.04-1.622.01-.456-.04-.914 0-1.365.08-.837.18-1.661-.15-2.477-.09-.234-.1-.506-.12-.762-.08-.691-.14-1.382-.21-2.075-.01-.128 0-.26 0-.39.21.373.36.753.53 1.123.29.651.56 1.314.91 1.939.29.52.43 1.03.29 1.616-.17.71-.23 1.419.07 2.117.08.183.17.364.21.556.15.628.28 1.258.42 1.887.06.264.14.524.18.791.09.579.15 1.162.23 1.742.03.201.09.396.15.622l-3.18.168v-.003Zm-3.09 27.88a.804.804 0 0 0 .08-.024c.28.385.55.771.86 1.201h-1.11c.06-.411.12-.794.17-1.177Zm2.09-61.045c.16.153.32.235.33.338.04.241.01.494-.01.74 0 .059-.09.109-.14.163-.06-.056-.17-.11-.17-.17-.02-.315-.01-.633-.01-1.071Zm9.08 24.236c-.02.034-.08.121-.14.207-.06-.082-.15-.164-.15-.249-.01-.214-.13-.279-.31-.305-.05-.006-.09-.087-.13-.134.05-.035.1-.094.16-.105.31-.053.58.184.58.586h-.01Z"/><path fill="url(#g)" fill-opacity=".15" d="M1395.72 193.318c.14-.148.26-.246.34-.367.05-.08.1-.228.06-.287a.37.37 0 0 0-.29-.144c-.97.051-1.88-.227-2.77-.559-.35-.132-.65-.406-.96-.639-.72-.545-1.45-1.072-2.12-1.667-.44-.384-.77-.885-1.16-1.316-.49-.525-1.07-.911-1.72-1.219-1.17-.558-1.79-1.605-2.36-2.695-.35-.672-.66-1.381-1.11-1.988-.53-.722-1.38-.889-2.23-.97-.6-.057-1.14-.25-1.66-.546-.55-.306-1.11-.578-1.69-.81-.23-.091-.33-.212-.35-.42-.06-.646-.13-1.292-.15-1.939-.01-.142.13-.3.23-.438.29-.423.61-.824.87-1.266.27-.453.22-.945.06-1.438-.07-.231-.13-.493-.09-.724.26-1.574-.97-2.16-2.16-2.171-.12 0-.28.017-.37-.045-.5-.341-1.02-.283-1.53-.083-.42.165-.82.393-1.24.588-.33.158-.5.417-.48.786l.09 1.765c.01.093.01.191 0 .281-.2.97.02 1.916.24 2.843.18.79.28 1.127.1 1.965-.42.076-.92-.2-1.16-.547-.31-.473-.66-.928-1.04-1.356-.32-.361-.52-.755-.56-1.226-.07-.894-.2-1.777-.53-2.617-.14-.349-.35-.669-.46-1.024a4.885 4.885 0 0 1-.2-1.138 96.119 96.119 0 0 1-.07-3.395c-.01-.576.05-1.153.06-1.729.03-1.413.19-2.839-.19-4.228-.13-.477-.38-.923-.6-1.373a4.46 4.46 0 0 0-.41-.653c-.09-.132-.2-.317-.33-.344-.5-.106-.4-.47-.4-.799 0-.114.01-.227.02-.423.73.368 1.42.34 2.11-.136-.14-.321-.22-.688-.43-.973-.25-.355-.61-.64-.35-1.241-.3.09-.48.147-.7.213-.03-.103-.07-.209-.09-.289-.22-.093-.42-.208-.64-.261-.37-.093-.75-.153-1.13-.218-.81-.138-.83-.167-.88-.972-.02-.198-.08-.395-.09-.593-.01-.375-.24-.47-.61-.493.03.536.05 1.061.12 1.579.04.349.06.621-.35.755-.08.025-.15.2-.16.308-.01.401.02.803.02 1.204-.01.212.06.327.28.371.31.061.44.249.44.576 0 1.286.02 2.572.02 3.858 0 .114-.02.227-.04.396l-.19-.172c-.21-.205-.35-.123-.39.121-.02.203-.13.282-.28.395-.13.099-.21.299-.24.468-.03.179.01.378.05.561.1.43-.08.736-.42.954-.22.138-.26.321-.32.55-.19.829.01 1.59.36 2.326.48 1.021.41 2.081.24 3.148-.15 1.047-.37 2.088-.49 3.141-.14 1.197-.17 2.398.21 3.575.09.289-.02.34-.33.33-.52-.017-.96-.228-1.44-.4-.77-.276-1.8-.076-2.2.528-.25.377-.47.772-.69 1.17-.06.116-.05.273-.06.412-.01.115.02.251-.03.343-.24.414-.28.869-.3 1.322-.02.561.01 1.07.58 1.472.76.542.86 1.416.82 2.286-.02.464-.21.861-.58 1.174-.17.146-.31.319-.46.487-.24.265-.62.477-.34.937-.51-.045-.65.129-.54.519-.2.079-.47.101-.57.244-.28.396-.69.796-.42 1.354.32.666.66 1.322 1.02 1.97.14.249.15.424-.05.658-.5.589-.99 1.192-1.16 1.982-.02.107-.18.192-.29.27-.31.22-.71.364-.76.818-.05.404.06.5.47.471.14-.011.33-.016.44.059.5.344.98.716 1.47 1.08.21.156.24.367.16.6-.2.551-.39 1.106-.59 1.655-.18.508-.21 1.007.02 1.509.15.342.28.705.47 1.027.27.467.05.833-.18 1.209-.03.048-.1.079-.12.129-.1.382-.4.609-.66.869-.29.291-.32.677-.14.981.38.623.35 1.312.43 1.98.06.533.03.588.37.986-.4.638-.38.697.32 1.309-.24.202-.53.368-.7.614-.2.282-.07.586.24.837-.24.152-.46.263-.64.414-.34.271-.68.536-.97.853-.48.537-.45.902-.1 1.531.54.974 1.37 1.641 2.23 2.308.84.651 1.71 1.244 2.65 1.734.09.042.16.237.13.331-.29 1.005-.95 1.705-1.88 2.157-.1.048-.23.036-.35.036-1.23.002-2.47.011-3.71-.005-.3-.003-.41.062-.41.386 0 1.44-.02 2.881-.03 4.321-.01.509 0 1.021 0 1.546h.29c-.02.095-.02.192-.06.236-.41.39-.3.895-.3 1.37 0 .091.15.181.28.319 0-.041.01.017 0 .025-.39.201-.31.562-.31.889-.01 1.167 0 2.335 0 3.556l-2.47 4.251s.19 8.159 0 14.376c1.23.118 2.5.029 3.73.029l42.26-.001c0-5.175.06-9.23 0-14.404 0 0-.31-1.449-.5-1.525-1.09-.446-2.18-.894-3.27-1.343-1.21-.498-2.42-.989-3.62-1.507-.12-.049-.22-.272-.22-.42-.07-1.496-.11-2.996-.17-4.493-.01-.272-.06-.547-.02-.814.06-.479-.19-.702-.6-.851-.24-.088-.46-.169-.4-.536.05-.319-.28-.652-.61-.73-.17-.04-.35-.069-.52-.1-.73-.126-1.02-.399-1.13-1.11-.07-.397-.28-.682-.58-.933-.23-.195-.44-.409-.67-.621.11-.127.23-.206.25-.306.03-.164.04-.353-.01-.512-.09-.282-.28-.541-.33-.826-.08-.394-.12-.786-.36-1.13-.07-.095-.07-.246-.07-.37 0-1.263-.02-2.529.05-3.788.04-.743-.32-1.328-.53-1.982-.17-.554-.27-1.137-.37-1.712-.17-.962-.32-1.929-.47-2.896-.06-.38-.1-.763-.16-1.19.1.046.17.056.2.093.33.426.66.849.96 1.292.11.155.13.37.18.556.08.231.11.498.24.687.26.37.57.714.89 1.041.57.574 1.29.598 2.02.496.47-.065.93-.177 1.38-.297.57-.151.67-.337.57-.91-.11-.618.07-1.165.46-1.646.05-.054.1-.104.14-.158.63-.75.44-1.396-.48-1.748-.97-.373-1.8-.954-2.41-1.808-.54-.755-1.07-1.514-1.59-2.28-.64-.928-1.27-1.859-1.88-2.803-.47-.721-1.08-1.195-1.94-1.399-1.17-.276-1.83-1.181-1.94-2.363-.08-.795-.26-1.581-.38-2.374-.05-.349-.06-.702-.09-1.067.58-.124 1.13-.196 1.65-.371.44-.148.85-.383 1.24-.645.15-.105.28-.395.26-.578-.18-1.333-.54-2.602-1.6-3.536-.24-.203-.54-.327-.83-.501.04-.152.08-.319.13-.533.11.057.18.095.25.141.66.431 1.32.859 1.97 1.299.21.141.43.294.58.488a11.797 11.797 0 0 0 4.74 3.612c.76.321 1.55.575 2.31.888.22.09.42.263.6.428.26.244.65.356.93.138.46-.362.95-.272 1.46-.205.28.036.56.029.84.063.33.039.65.081.97.162.37.096.72.144 1.04-.127.07-.062.17-.196.14-.242-.04-.087-.16-.161-.26-.191-.21-.062-.43-.091-.7-.144l-.01-.008Zm-21.48 11.435c.12-.232.29-.456.33-.7.03-.199-.07-.436-.16-.631-.04-.082-.23-.087-.34-.149-.06-.036-.1-.115-.16-.198.46-.081.56-.041.78.265.03.046.07.125.11.124.4-.027.43.313.53.551.29.681.51 1.395.85 2.052.44.877.74 1.791.96 2.743.19.846.52 1.63 1.11 2.289.13.141.23.341.26.528.1.556.21 1.117.22 1.678.01.918.15 1.799.41 2.678.19.625.28 1.282.38 1.929.09.558.11 1.127.19 1.686.08.64.22 1.276.3 1.917.04.372.2.631.55.733.28.082.59.092.87.16.11.025.19.124.29.189-.11.102-.2.217-.32.302-.05.034-.14.006-.21.006-.78 0-1.57.014-2.35-.008a2.696 2.696 0 0 1-.82-.17 9.7 9.7 0 0 1-1.16-.521c-.6-.314-1.22-.474-1.9-.426-.58.04-1.17 0-1.75.011-.56.009-1.1-.015-1.62-.263-.45-.211-.44-.166-.37-.651.1-.82.34-1.649-.13-2.452-.12-.206-.14-.471-.19-.714-.02-.124.01-.259.02-.318.75.095 1.45.2 2.15.261.18.015.37-.11.56-.171 0-.046 0-.093.01-.139-.43-.323-.85-.645-1.28-.966.32-.522.33-.483.87-.624.81-.214 1.18-.428 1.05-1.212-.04-.222.09-.474.15-.708.1-.323.13-.677-.26-.879-.46-.237-.89-.53-1.32-.817a.704.704 0 0 1-.28-.34c-.14-.473-.24-.96-.37-1.434-.06-.201-.04-.344.1-.513.63-.799.79-2.518-.19-3.192.12-.212.22-.432.34-.646.21-.361.48-.594.91-.705.33-.082.59-.369.89-.569-.1-.026-.2-.059-.3-.077-.32-.062-.52-.281-.51-.603 0-.079.05-.157.08-.234.07.063.14.121.2.192.09.115.16.327.26.342.27.042.28.191.26.394Zm-7.52-13.173c.07-.445.11-.818.17-1.19.16-.893.34-1.781.46-2.677.07-.533.04-1.08.04-1.622.01-.456-.04-.914 0-1.365.08-.837.18-1.661-.15-2.477-.09-.234-.1-.506-.12-.762-.08-.691-.14-1.382-.21-2.075-.01-.128 0-.26 0-.39.21.373.36.753.53 1.123.29.651.56 1.314.91 1.939.29.52.43 1.03.29 1.616-.17.71-.23 1.419.07 2.117.08.183.17.364.21.556.15.628.28 1.258.42 1.887.06.264.14.524.18.791.09.579.15 1.162.23 1.742.03.201.09.396.15.622l-3.18.168v-.003Zm-3.09 27.88a.804.804 0 0 0 .08-.024c.28.385.55.771.86 1.201h-1.11c.06-.411.12-.794.17-1.177Zm2.09-61.045c.16.153.32.235.33.338.04.241.01.494-.01.74 0 .059-.09.109-.14.163-.06-.056-.17-.11-.17-.17-.02-.315-.01-.633-.01-1.071Zm9.08 24.236c-.02.034-.08.121-.14.207-.06-.082-.15-.164-.15-.249-.01-.214-.13-.279-.31-.305-.05-.006-.09-.087-.13-.134.05-.035.1-.094.16-.105.31-.053.58.184.58.586h-.01Z" style="mix-blend-mode:overlay"/><path fill="url(#h)" d="M1395.72 193.318c.14-.148.26-.246.34-.367.05-.08.1-.228.06-.287a.37.37 0 0 0-.29-.144c-.97.051-1.88-.227-2.77-.559-.35-.132-.65-.406-.96-.639-.72-.545-1.45-1.072-2.12-1.667-.44-.384-.77-.885-1.16-1.316-.49-.525-1.07-.911-1.72-1.219-1.17-.558-1.79-1.605-2.36-2.695-.35-.672-.66-1.381-1.11-1.988-.53-.722-1.38-.889-2.23-.97-.6-.057-1.14-.25-1.66-.546-.55-.306-1.11-.578-1.69-.81-.23-.091-.33-.212-.35-.42-.06-.646-.13-1.292-.15-1.939-.01-.142.13-.3.23-.438.29-.423.61-.824.87-1.266.27-.453.22-.945.06-1.438-.07-.231-.13-.493-.09-.724.26-1.574-.97-2.16-2.16-2.171-.12 0-.28.017-.37-.045-.5-.341-1.02-.283-1.53-.083-.42.165-.82.393-1.24.588-.33.158-.5.417-.48.786l.09 1.765c.01.093.01.191 0 .281-.2.97.02 1.916.24 2.843.18.79.28 1.127.1 1.965-.42.076-.92-.2-1.16-.547-.31-.473-.66-.928-1.04-1.356-.32-.361-.52-.755-.56-1.226-.07-.894-.2-1.777-.53-2.617-.14-.349-.35-.669-.46-1.024a4.885 4.885 0 0 1-.2-1.138 96.119 96.119 0 0 1-.07-3.395c-.01-.576.05-1.153.06-1.729.03-1.413.19-2.839-.19-4.228-.13-.477-.38-.923-.6-1.373a4.46 4.46 0 0 0-.41-.653c-.09-.132-.2-.317-.33-.344-.5-.106-.4-.47-.4-.799 0-.114.01-.227.02-.423.73.368 1.42.34 2.11-.136-.14-.321-.22-.688-.43-.973-.25-.355-.61-.64-.35-1.241-.3.09-.48.147-.7.213-.03-.103-.07-.209-.09-.289-.22-.093-.42-.208-.64-.261-.37-.093-.75-.153-1.13-.218-.81-.138-.83-.167-.88-.972-.02-.198-.08-.395-.09-.593-.01-.375-.24-.47-.61-.493.03.536.05 1.061.12 1.579.04.349.06.621-.35.755-.08.025-.15.2-.16.308-.01.401.02.803.02 1.204-.01.212.06.327.28.371.31.061.44.249.44.576 0 1.286.02 2.572.02 3.858 0 .114-.02.227-.04.396l-.19-.172c-.21-.205-.35-.123-.39.121-.02.203-.13.282-.28.395-.13.099-.21.299-.24.468-.03.179.01.378.05.561.1.43-.08.736-.42.954-.22.138-.26.321-.32.55-.19.829.01 1.59.36 2.326.48 1.021.41 2.081.24 3.148-.15 1.047-.37 2.088-.49 3.141-.14 1.197-.17 2.398.21 3.575.09.289-.02.34-.33.33-.52-.017-.96-.228-1.44-.4-.77-.276-1.8-.076-2.2.528-.25.377-.47.772-.69 1.17-.06.116-.05.273-.06.412-.01.115.02.251-.03.343-.24.414-.28.869-.3 1.322-.02.561.01 1.07.58 1.472.76.542.86 1.416.82 2.286-.02.464-.21.861-.58 1.174-.17.146-.31.319-.46.487-.24.265-.62.477-.34.937-.51-.045-.65.129-.54.519-.2.079-.47.101-.57.244-.28.396-.69.796-.42 1.354.32.666.66 1.322 1.02 1.97.14.249.15.424-.05.658-.5.589-.99 1.192-1.16 1.982-.02.107-.18.192-.29.27-.31.22-.71.364-.76.818-.05.404.06.5.47.471.14-.011.33-.016.44.059.5.344.98.716 1.47 1.08.21.156.24.367.16.6-.2.551-.39 1.106-.59 1.655-.18.508-.21 1.007.02 1.509.15.342.28.705.47 1.027.27.467.05.833-.18 1.209-.03.048-.1.079-.12.129-.1.382-.4.609-.66.869-.29.291-.32.677-.14.981.38.623.35 1.312.43 1.98.06.533.03.588.37.986-.4.638-.38.697.32 1.309-.24.202-.53.368-.7.614-.2.282-.07.586.24.837-.24.152-.46.263-.64.414-.34.271-.68.536-.97.853-.48.537-.45.902-.1 1.531.54.974 1.37 1.641 2.23 2.308.84.651 1.71 1.244 2.65 1.734.09.042.16.237.13.331-.29 1.005-.95 1.705-1.88 2.157-.1.048-.23.036-.35.036-1.23.002-2.47.011-3.71-.005-.3-.003-.41.062-.41.386 0 1.44-.02 2.881-.03 4.321-.01.509 0 1.021 0 1.546h.29c-.02.095-.02.192-.06.236-.41.39-.3.895-.3 1.37 0 .091.15.181.28.319 0-.041.01.017 0 .025-.39.201-.31.562-.31.889-.01 1.167 0 2.335 0 3.556l-2.47 4.251s.19 8.159 0 14.376c1.23.118 2.5.029 3.73.029l42.26-.001c0-5.175.06-9.23 0-14.404 0 0-.31-1.449-.5-1.525-1.09-.446-2.18-.894-3.27-1.343-1.21-.498-2.42-.989-3.62-1.507-.12-.049-.22-.272-.22-.42-.07-1.496-.11-2.996-.17-4.493-.01-.272-.06-.547-.02-.814.06-.479-.19-.702-.6-.851-.24-.088-.46-.169-.4-.536.05-.319-.28-.652-.61-.73-.17-.04-.35-.069-.52-.1-.73-.126-1.02-.399-1.13-1.11-.07-.397-.28-.682-.58-.933-.23-.195-.44-.409-.67-.621.11-.127.23-.206.25-.306.03-.164.04-.353-.01-.512-.09-.282-.28-.541-.33-.826-.08-.394-.12-.786-.36-1.13-.07-.095-.07-.246-.07-.37 0-1.263-.02-2.529.05-3.788.04-.743-.32-1.328-.53-1.982-.17-.554-.27-1.137-.37-1.712-.17-.962-.32-1.929-.47-2.896-.06-.38-.1-.763-.16-1.19.1.046.17.056.2.093.33.426.66.849.96 1.292.11.155.13.37.18.556.08.231.11.498.24.687.26.37.57.714.89 1.041.57.574 1.29.598 2.02.496.47-.065.93-.177 1.38-.297.57-.151.67-.337.57-.91-.11-.618.07-1.165.46-1.646.05-.054.1-.104.14-.158.63-.75.44-1.396-.48-1.748-.97-.373-1.8-.954-2.41-1.808-.54-.755-1.07-1.514-1.59-2.28-.64-.928-1.27-1.859-1.88-2.803-.47-.721-1.08-1.195-1.94-1.399-1.17-.276-1.83-1.181-1.94-2.363-.08-.795-.26-1.581-.38-2.374-.05-.349-.06-.702-.09-1.067.58-.124 1.13-.196 1.65-.371.44-.148.85-.383 1.24-.645.15-.105.28-.395.26-.578-.18-1.333-.54-2.602-1.6-3.536-.24-.203-.54-.327-.83-.501.04-.152.08-.319.13-.533.11.057.18.095.25.141.66.431 1.32.859 1.97 1.299.21.141.43.294.58.488a11.797 11.797 0 0 0 4.74 3.612c.76.321 1.55.575 2.31.888.22.09.42.263.6.428.26.244.65.356.93.138.46-.362.95-.272 1.46-.205.28.036.56.029.84.063.33.039.65.081.97.162.37.096.72.144 1.04-.127.07-.062.17-.196.14-.242-.04-.087-.16-.161-.26-.191-.21-.062-.43-.091-.7-.144l-.01-.008Zm-21.48 11.435c.12-.232.29-.456.33-.7.03-.199-.07-.436-.16-.631-.04-.082-.23-.087-.34-.149-.06-.036-.1-.115-.16-.198.46-.081.56-.041.78.265.03.046.07.125.11.124.4-.027.43.313.53.551.29.681.51 1.395.85 2.052.44.877.74 1.791.96 2.743.19.846.52 1.63 1.11 2.289.13.141.23.341.26.528.1.556.21 1.117.22 1.678.01.918.15 1.799.41 2.678.19.625.28 1.282.38 1.929.09.558.11 1.127.19 1.686.08.64.22 1.276.3 1.917.04.372.2.631.55.733.28.082.59.092.87.16.11.025.19.124.29.189-.11.102-.2.217-.32.302-.05.034-.14.006-.21.006-.78 0-1.57.014-2.35-.008a2.696 2.696 0 0 1-.82-.17 9.7 9.7 0 0 1-1.16-.521c-.6-.314-1.22-.474-1.9-.426-.58.04-1.17 0-1.75.011-.56.009-1.1-.015-1.62-.263-.45-.211-.44-.166-.37-.651.1-.82.34-1.649-.13-2.452-.12-.206-.14-.471-.19-.714-.02-.124.01-.259.02-.318.75.095 1.45.2 2.15.261.18.015.37-.11.56-.171 0-.046 0-.093.01-.139-.43-.323-.85-.645-1.28-.966.32-.522.33-.483.87-.624.81-.214 1.18-.428 1.05-1.212-.04-.222.09-.474.15-.708.1-.323.13-.677-.26-.879-.46-.237-.89-.53-1.32-.817a.704.704 0 0 1-.28-.34c-.14-.473-.24-.96-.37-1.434-.06-.201-.04-.344.1-.513.63-.799.79-2.518-.19-3.192.12-.212.22-.432.34-.646.21-.361.48-.594.91-.705.33-.082.59-.369.89-.569-.1-.026-.2-.059-.3-.077-.32-.062-.52-.281-.51-.603 0-.079.05-.157.08-.234.07.063.14.121.2.192.09.115.16.327.26.342.27.042.28.191.26.394Zm-7.52-13.173c.07-.445.11-.818.17-1.19.16-.893.34-1.781.46-2.677.07-.533.04-1.08.04-1.622.01-.456-.04-.914 0-1.365.08-.837.18-1.661-.15-2.477-.09-.234-.1-.506-.12-.762-.08-.691-.14-1.382-.21-2.075-.01-.128 0-.26 0-.39.21.373.36.753.53 1.123.29.651.56 1.314.91 1.939.29.52.43 1.03.29 1.616-.17.71-.23 1.419.07 2.117.08.183.17.364.21.556.15.628.28 1.258.42 1.887.06.264.14.524.18.791.09.579.15 1.162.23 1.742.03.201.09.396.15.622l-3.18.168v-.003Zm-3.09 27.88a.804.804 0 0 0 .08-.024c.28.385.55.771.86 1.201h-1.11c.06-.411.12-.794.17-1.177Zm2.09-61.045c.16.153.32.235.33.338.04.241.01.494-.01.74 0 .059-.09.109-.14.163-.06-.056-.17-.11-.17-.17-.02-.315-.01-.633-.01-1.071Zm9.08 24.236c-.02.034-.08.121-.14.207-.06-.082-.15-.164-.15-.249-.01-.214-.13-.279-.31-.305-.05-.006-.09-.087-.13-.134.05-.035.1-.094.16-.105.31-.053.58.184.58.586h-.01Z"/></g><mask id="i" width="52" height="85" x="1352" y="253" maskUnits="userSpaceOnUse" style="mask-type:alpha"><path fill="#E95640" d="M1352 253v84.512h52V253h-52Z"/></mask><g mask="url(#i)"><path fill="#D86A57" d="M1352 253v84.512l52-19.012V253h-52Z"/><path fill="url(#j)" d="M1352 236.217h25v86.523l-25 9.67v-96.193Z"/><path fill="url(#k)" fill-opacity=".15" d="M1352 236.217h25v86.523l-25 9.67v-96.193Z" style="mix-blend-mode:overlay"/></g><mask id="l" width="52" height="10" x="1349" y="243" maskUnits="userSpaceOnUse" style="mask-type:alpha"><path fill="#E95640" d="M1349 243v10h52v-10h-52Z"/></mask><g mask="url(#l)"><path fill="#E95640" d="M1349 243v10h52v-10h-52Z"/><path fill="url(#m)" d="M1349 243h25v11.234l-25 1.255V243Z"/><path fill="url(#n)" fill-opacity=".15" d="M1349 243h25v11.234l-25 1.255V243Z" style="mix-blend-mode:overlay"/></g><path fill="url(#o)" d="M1050.17 277c-21.63 0-39.17 18.356-39.17 41h78.34c0-22.644-17.54-41-39.17-41Z"/><path fill="url(#p)" fill-opacity=".1" d="M1050.17 277c-21.63 0-39.17 18.356-39.17 41h78.34c0-22.644-17.54-41-39.17-41Z" style="mix-blend-mode:overlay"/><path stroke="url(#q)" stroke-width=".5" d="m1017.23 302.994-3.3 15.006h3.93m-.63-15.006 15.85-15.905m-15.85 15.905.63 15.006m-.63-15.006 10.9-4.49m4.95-11.415 15.34-4.232m-15.34 4.232-4.95 11.415m4.95-11.415h31.7m-16.36-4.232 16.36 4.232m-16.36-4.232v4.232m16.36 0 16.49 15.905m-16.49-15.905 4.95 11.415m11.54 4.49 3.68 15.006h-4.44m.76-15.006-.76 15.006m.76-15.006-11.54-4.49M1017.86 318l10.27-19.496M1017.86 318h15.28m-5.01-19.496 20.29-11.415m-20.29 11.415 20.29 5.003m-20.29-5.003 5.01 19.496m15.28-30.911 21.31 11.415m-21.31-11.415v16.418m0 14.493h16.36m-16.36 0v-14.493m0 14.493h-15.28m36.59-19.496L1064.78 318m4.95-19.496L1080.51 318m-10.78-19.496-21.31 5.003M1064.78 318h15.73m-15.73 0-16.36-14.493m0 0L1033.14 318"/><circle cx="1048.5" cy="282.5" r="1.5" fill="#fff"/><circle cx="1048.5" cy="287.5" r="1.5" fill="#fff"/><circle cx="1048.5" cy="303.5" r="1.5" fill="#CCACA0"/><circle cx="1028.5" cy="298.5" r="1.5" fill="#E0E0E0"/><circle cx="1033.5" cy="286.5" r="1.5" fill="#fff"/><circle cx="1017.5" cy="303.5" r="1.5" fill="#D8C1B9"/><circle cx="1069.5" cy="298.5" r="1.5" fill="#C3C3C3"/><circle cx="1065.5" cy="287.5" r="1.5" fill="#F7F7F7"/><circle cx="1081.5" cy="303.5" r="1.5" fill="#B98979"/><path fill="url(#r)" d="M1011 318h76v2h-76z"/><path fill="url(#s)" fill-opacity=".25" d="M1011 318h76v2h-76z" style="mix-blend-mode:overlay"/><path fill="url(#t)" d="M1025 320h48.5s-18.4 0-18.5 39.5c-.06 22.921 0 75.5 0 75.5s-2.23 1-5.5 1-5.5-1-5.5-1 1.51-52.836 1.5-75.5c-.02-35-20.5-39.5-20.5-39.5Z"/><path fill="url(#u)" fill-opacity=".25" d="M1025 320h48.5s-18.4 0-18.5 39.5c-.06 22.921 0 75.5 0 75.5s-2.23 1-5.5 1-5.5-1-5.5-1 1.51-52.836 1.5-75.5c-.02-35-20.5-39.5-20.5-39.5Z" style="mix-blend-mode:overlay"/><path fill="url(#v)" fill-opacity=".7" d="M631.5 66 831 1.5 982 595l-21.645 4.073L631.5 66Z"/><path fill="url(#w)" fill-opacity=".1" d="M631.5 66 831 1.5 982 595l-21.645 4.073L631.5 66Z" style="mix-blend-mode:overlay"/><defs><linearGradient id="a" x1="913.999" x2="972.361" y1="404" y2="572.777" gradientUnits="userSpaceOnUse"><stop stop-color="#FF523A"/><stop offset="1" stop-color="#AE6151"/></linearGradient><linearGradient id="c" x1="914" x2="972.362" y1="404" y2="572.777" gradientUnits="userSpaceOnUse"><stop stop-color="#FD715D"/><stop offset="1" stop-color="#AE6151"/></linearGradient><linearGradient id="d" x1="947" x2="1002" y1="391" y2="497" gradientUnits="userSpaceOnUse"><stop/><stop offset="1" stop-opacity="0"/></linearGradient><linearGradient id="h" x1="1352" x2="1374.02" y1="144.715" y2="240.719" gradientUnits="userSpaceOnUse"><stop stop-color="#FFD09D"/><stop offset="1" stop-color="#E95640" stop-opacity="0"/></linearGradient><linearGradient id="j" x1="1332.5" x2="1384.61" y1="255.557" y2="259.317" gradientUnits="userSpaceOnUse"><stop offset=".009" stop-color="#281A17"/><stop offset="1" stop-color="#E95640" stop-opacity="0"/></linearGradient><linearGradient id="m" x1="1329.5" x2="1369.52" y1="245.511" y2="267.752" gradientUnits="userSpaceOnUse"><stop offset=".009" stop-color="#281A17"/><stop offset="1" stop-color="#E95640" stop-opacity="0"/></linearGradient><linearGradient id="o" x1="1034.5" x2="1051.53" y1="263.096" y2="317.573" gradientUnits="userSpaceOnUse"><stop stop-color="#D9D9D9"/><stop offset="1" stop-color="#D9D9D9" stop-opacity="0"/></linearGradient><linearGradient id="q" x1="1045.41" x2="1049.44" y1="287.25" y2="318" gradientUnits="userSpaceOnUse"><stop stop-color="#fff"/><stop offset="1" stop-color="#fff" stop-opacity="0"/></linearGradient><linearGradient id="r" x1="1081.5" x2="1081.37" y1="320" y2="316.53" gradientUnits="userSpaceOnUse"><stop stop-color="#DE6B58"/><stop offset="1" stop-color="#fff"/></linearGradient><linearGradient id="t" x1="1033.5" x2="1055" y1="317.5" y2="427.5" gradientUnits="userSpaceOnUse"><stop stop-color="#fff"/><stop offset="1" stop-color="#DA6A58"/></linearGradient><linearGradient id="v" x1="958.253" x2="844.758" y1="519.048" y2="198.462" gradientUnits="userSpaceOnUse"><stop stop-color="#FFB96D" stop-opacity=".61"/><stop offset="1" stop-color="#BABABA" stop-opacity="0"/></linearGradient><pattern id="e" width="24.675" height="26.597" patternContentUnits="objectBoundingBox"><use xlink:href="#x" transform="scale(.012 .013)"/></pattern><pattern id="g" width="44.506" height="20.898" patternContentUnits="objectBoundingBox"><use xlink:href="#x" transform="scale(.022 .01)"/></pattern><pattern id="k" width="81.92" height="21.29" patternContentUnits="objectBoundingBox"><use xlink:href="#x" transform="scale(.04 .01)"/></pattern><pattern id="n" width="81.92" height="163.983" patternContentUnits="objectBoundingBox"><use xlink:href="#x" transform="scale(.04 .08)"/></pattern><pattern id="p" width="26.143" height="49.951" patternContentUnits="objectBoundingBox"><use xlink:href="#x" transform="scale(.013 .024)"/></pattern><pattern id="s" width="26.947" height="1024" patternContentUnits="objectBoundingBox"><use xlink:href="#x" transform="scale(.013 .5)"/></pattern><pattern id="u" width="42.227" height="17.655" patternContentUnits="objectBoundingBox"><use xlink:href="#x" transform="scale(.02 .009)"/></pattern><pattern id="w" width="9.768" height="3.345" patternContentUnits="objectBoundingBox"><use xlink:href="#y" transform="scale(.005 .002)"/></pattern></defs></svg>