<svg xmlns="http://www.w3.org/2000/svg" xmlns:xlink="http://www.w3.org/1999/xlink" width="733" height="440" fill="none">
  <g opacity=".75">
    <mask id="b" width="935" height="551" x="-204" y="31" maskUnits="userSpaceOnUse" style="mask-type:alpha">
      <path fill="#FDDBB5" d="M27.58 572.88a215.97 215.97 0 0 0 94.32-26.19 171.2 171.2 0 0 0 111.28 34.71c55.81-2.44 104.25-31.24 133.85-73.89a90.43 90.43 0 0 0 72.95 31.82 90.72 90.72 0 0 0 21.28-3.48c13.2 30.47 50.65 45.05 85.75 43.52 26.4-1.16 186.22-.28 182.99-74.37-4.56-104.46-107.05-75.45-108.92-118.41-3.05-69.85-46.99-74.74-92.45-72.75-3.63.15-7.2.55-10.68 1.15-11.89-38.47-48.5-65.64-90.55-63.8-1 .04-2 .1-3 .17a36.86 36.86 0 0 0-47.71-22.4c-28.7-60.9-91.82-101.8-163.2-98.7-5.73.26-11.39.79-16.96 1.58C156.17 68.6 84.2 28.02 3.95 31.52c-119.82 5.23-212.7 106.77-207.46 226.79 5.23 120.02 111.27 319.8 231.09 314.57Z"/>
      <path fill="url(#a)" fill-opacity=".4" d="M27.58 572.88a215.97 215.97 0 0 0 94.32-26.19 171.2 171.2 0 0 0 111.28 34.71c55.81-2.44 104.25-31.24 133.85-73.89a90.43 90.43 0 0 0 72.95 31.82 90.72 90.72 0 0 0 21.28-3.48c13.2 30.47 50.65 45.05 85.75 43.52 26.4-1.16 186.22-.28 182.99-74.37-4.56-104.46-107.05-75.45-108.92-118.41-3.05-69.85-46.99-74.74-92.45-72.75-3.63.15-7.2.55-10.68 1.15-11.89-38.47-48.5-65.64-90.55-63.8-1 .04-2 .1-3 .17a36.86 36.86 0 0 0-47.71-22.4c-28.7-60.9-91.82-101.8-163.2-98.7-5.73.26-11.39.79-16.96 1.58C156.17 68.6 84.2 28.02 3.95 31.52c-119.82 5.23-212.7 106.77-207.46 226.79 5.23 120.02 111.27 319.8 231.09 314.57Z"/>
    </mask>
    <g mask="url(#b)">
      <path fill="#FDDBB5" d="M33.15 570.5a213.7 213.7 0 0 0 96.75-27.9c31.67 25.14 71.54 39.33 114.26 37.47 57.27-2.5 106.92-33.3 137.21-79 18 22.07 45.15 35.58 74.92 34.28a89.21 89.21 0 0 0 21.83-3.7c13.6 32.73 52.07 48.45 88.09 46.88 27.1-1.18 151.59-38.89 164.73-92.72 1.35-94.44-87.1-67.86-89.12-113.96-3.27-74.96-48.36-80.29-95.02-78.25-3.72.16-7.37.57-10.95 1.22-12.28-41.3-49.9-70.53-93.05-68.65-1.04.05-2.06.1-3.08.19-5.39-16.09-20.33-27.33-37.4-26.58a36.22 36.22 0 0 0-11.61 2.44C361.13 136.82 296.27 92.8 223.04 96c-5.89.26-11.7.82-17.4 1.66C164.07 29.72 90.13-13.97 7.8-10.37c-122.95 5.36-218.06 114.11-212.44 242.9C-199.02 361.3-89.8 575.87 33.16 570.5Z"/>
      <path fill="url(#c)" fill-opacity=".4" d="M33.15 570.5a213.7 213.7 0 0 0 96.75-27.9c31.67 25.14 71.54 39.33 114.26 37.47 57.27-2.5 106.92-33.3 137.21-79 18 22.07 45.15 35.58 74.92 34.28a89.21 89.21 0 0 0 21.83-3.7c13.6 32.73 52.07 48.45 88.09 46.88 27.1-1.18 151.59-38.89 164.73-92.72 1.35-94.44-87.1-67.86-89.12-113.96-3.27-74.96-48.36-80.29-95.02-78.25-3.72.16-7.37.57-10.95 1.22-12.28-41.3-49.9-70.53-93.05-68.65-1.04.05-2.06.1-3.08.19-5.39-16.09-20.33-27.33-37.4-26.58a36.22 36.22 0 0 0-11.61 2.44C361.13 136.82 296.27 92.8 223.04 96c-5.89.26-11.7.82-17.4 1.66C164.07 29.72 90.13-13.97 7.8-10.37c-122.95 5.36-218.06 114.11-212.44 242.9C-199.02 361.3-89.8 575.87 33.16 570.5Z" style="mix-blend-mode:overlay"/>
      <path fill="url(#d)" fill-rule="evenodd" d="M108 360.86c-21.99 20.26-48.75 32.63-78 33.9-80.51 3.52-149.47-78.3-154.02-182.75-4.56-104.45 57-191.97 137.5-195.49 62.3-2.72 117.69 45.67 141.66 116.1-13.65 8.3-24.35 19.85-27.22 35.57-.46 2.53 2.77 3.66 4.39 1.66 8.3-10.2 22-22.74 40.12-31.39a145.04 145.04 0 0 1 47.33-10.1c67.9-2.96 127 41.22 145.96 103.67a25.83 25.83 0 0 0-5.4 6.97c-.93 1.76.85 2.78 2.17 1.29 3.67-4.14 8.9-9.33 17.25-12.91 2.8-.83 5.7-1.23 8.65-1.15 11.85.32 22.29 8.25 29.35 20.63-13.54 3.64-26.6 11.15-34.88 20.8-1.53 1.78.68 3.2 2.43 1.63 9.11-8.15 22.4-15.46 39.01-17.92 34.43 6.34 64.45 27.34 83.82 56.95-15.26 6.85-29.89 17.96-37.52 34.5-.85 1.84 1.17 3.2 2.65 1.82 13.44-12.59 41.92-37.91 78.07-31.41 1.54.27 2.87-1.2 2.38-2.68l-3.12-9.32.87.01.58.02c38.67 1.21 80.37 44.07 91.62 95.4a91.12 91.12 0 0 1 17.88-1.2c47.81 1.51 85.41 39.7 83.97 85.31-1.43 45.61-41.36 81.36-89.18 79.85-30-.94-55.99-16.33-70.82-38.94-14.7 6.5-29.22 10.25-40.73 9.9-24.55-.78-46.16-16.1-60.7-39.85-20.57 17.79-46.54 28.92-75.13 30.16-63.99 2.8-119.2-44.84-131.53-109.68a145.12 145.12 0 0 1-44.86 9.14c-50.83 2.22-96.73-21.98-124.55-60.49Z" clip-rule="evenodd"/>
      <path fill="url(#e)" fill-opacity=".2" fill-rule="evenodd" d="M108 360.86c-21.99 20.26-48.75 32.63-78 33.9-80.51 3.52-149.47-78.3-154.02-182.75-4.56-104.45 57-191.97 137.5-195.49 62.3-2.72 117.69 45.67 141.66 116.1-13.65 8.3-24.35 19.85-27.22 35.57-.46 2.53 2.77 3.66 4.39 1.66 8.3-10.2 22-22.74 40.12-31.39a145.04 145.04 0 0 1 47.33-10.1c67.9-2.96 127 41.22 145.96 103.67a25.83 25.83 0 0 0-5.4 6.97c-.93 1.76.85 2.78 2.17 1.29 3.67-4.14 8.9-9.33 17.25-12.91 2.8-.83 5.7-1.23 8.65-1.15 11.85.32 22.29 8.25 29.35 20.63-13.54 3.64-26.6 11.15-34.88 20.8-1.53 1.78.68 3.2 2.43 1.63 9.11-8.15 22.4-15.46 39.01-17.92 34.43 6.34 64.45 27.34 83.82 56.95-15.26 6.85-29.89 17.96-37.52 34.5-.85 1.84 1.17 3.2 2.65 1.82 13.44-12.59 41.92-37.91 78.07-31.41 1.54.27 2.87-1.2 2.38-2.68l-3.12-9.32.87.01.58.02c38.67 1.21 80.37 44.07 91.62 95.4a91.12 91.12 0 0 1 17.88-1.2c47.81 1.51 85.41 39.7 83.97 85.31-1.43 45.61-41.36 81.36-89.18 79.85-30-.94-55.99-16.33-70.82-38.94-14.7 6.5-29.22 10.25-40.73 9.9-24.55-.78-46.16-16.1-60.7-39.85-20.57 17.79-46.54 28.92-75.13 30.16-63.99 2.8-119.2-44.84-131.53-109.68a145.12 145.12 0 0 1-44.86 9.14c-50.83 2.22-96.73-21.98-124.55-60.49Z" clip-rule="evenodd" style="mix-blend-mode:overlay"/>
    </g>
  </g>
  <defs>
    <pattern id="a" width="2.22" height="3.59" patternContentUnits="objectBoundingBox">
      <use xlink:href="#f" transform="scale(.001 .002)"/>
    </pattern>
    <pattern id="c" width="2.22" height="3.34" patternContentUnits="objectBoundingBox">
      <use xlink:href="#f" transform="scale(.001 .002)"/>
    </pattern>
    <pattern id="e" width="2.39" height="3.58" patternContentUnits="objectBoundingBox">
      <use xlink:href="#f" transform="scale(.001 .002)"/>
    </pattern>
    <linearGradient id="d" x1="409.76" x2="418.79" y1="39.91" y2="663.71" gradientUnits="userSpaceOnUse">
      <stop offset=".4" stop-color="#FF8675"/>
      <stop offset="1" stop-color="#FEE4C9"/>
    </linearGradient>
  </defs>
</svg>
