<svg xmlns="http://www.w3.org/2000/svg" width="190" height="60" fill="none"><path stroke="url(#a)" stroke-width="3.078" d="m130.855 31.964 57.103 6.37"/><path stroke="url(#b)" stroke-width="2.052" d="m130.441 35.672 57.104 6.37"/><circle cx="4.477" cy="4.477" r="4.477" fill="#F9B16A" transform="scale(-1 1) rotate(-6.32 201.462 1218.504)"/><path fill="url(#c)" d="m9.199 5 52.544 23.248L7.131 23.54 9.199 5Z"/><g filter="url(#d)"><path fill="#FFD3A6" fill-opacity=".8" fill-rule="evenodd" d="m110.173 17.662 2.747 7.83 3.839.427c.749.084 1.17.903.803 1.56l-1.474 2.644a1.047 1.047 0 0 0-.126.396l-.129 1.153a1.049 1.049 0 0 1-.294.62l2.313.258a3.034 3.034 0 0 1-.672 6.028l-69.617-7.766a3.033 3.033 0 0 1 .672-6.027l1.855.207c-.296-.497-.174-1.225.47-1.514l.426-.19a1.146 1.146 0 0 1 .231-.11l.054-.018 7.435-3.33a1.053 1.053 0 0 1 1.204.247l.21.227c4.06-1.212 8.455-2.369 12.21-3.002 12.91-2.177 33.058-.66 36.955-.336.41.034.752.307.888.696Z" clip-rule="evenodd"/></g><path fill="url(#e)" d="m110.32 12.75 4.468 15.322a1.054 1.054 0 0 1-1.128 1.342l-62.977-7.025c-1.067-.119-1.286-1.539-.294-1.951 5.112-2.125 14.71-5.892 21.933-7.413 12.964-2.729 33.091-1.339 37.092-1.024.432.034.785.332.906.749Z"/><path fill="url(#f)" d="m117.72 23.752-1.683 3.396a1.075 1.075 0 0 0-.103.351l-.174 1.56a1.053 1.053 0 0 1-1.164.93l-64.419-7.185c-1.03-.115-1.292-1.494-.375-1.978l8.718-4.607a1.053 1.053 0 0 1 1.315.274l2.904 3.633c.175.218.429.358.707.39l35.856 3.999a1.054 1.054 0 0 0 .822-.264l3.487-3.14c.223-.201.522-.297.821-.264l12.46 1.39c.727.081 1.152.86.828 1.515Z"/><path fill="url(#g)" d="m48.456 22.14 68.868 7.683a3.512 3.512 0 0 1-.779 6.98L47.678 29.12a3.512 3.512 0 1 1 .778-6.98Z"/><path stroke="url(#h)" stroke-linecap="round" stroke-width="1.492" d="M100.415 13.726c-6.57-.472-21.837-.558-30.354 2.875"/><circle cx=".746" cy=".746" r=".746" fill="#F3C1BA" transform="scale(-1 1) rotate(-6.365 113.512 624.918)"/><defs><linearGradient id="a" x1="128.259" x2="185.363" y1="31.675" y2="38.044" gradientUnits="userSpaceOnUse"><stop stop-color="#FFB96D"/><stop offset="1" stop-color="#FFB96D" stop-opacity="0"/></linearGradient><linearGradient id="b" x1="127.845" x2="184.949" y1="35.383" y2="41.752" gradientUnits="userSpaceOnUse"><stop stop-color="#FFB96D"/><stop offset="1" stop-color="#FFB96D" stop-opacity="0"/></linearGradient><linearGradient id="c" x1="64.132" x2="11.587" y1="29.305" y2="6.057" gradientUnits="userSpaceOnUse"><stop stop-color="#FFB96D"/><stop offset="1" stop-color="#FFB96D" stop-opacity="0"/></linearGradient><linearGradient id="e" x1="78.945" x2="88.184" y1="-4.891" y2="29.134" gradientUnits="userSpaceOnUse"><stop stop-color="#3A4EFF"/><stop offset="1" stop-color="#3F3F3F"/></linearGradient><linearGradient id="f" x1="91.089" x2="88.757" y1="17.945" y2="30.405" gradientUnits="userSpaceOnUse"><stop stop-color="#fff"/><stop offset="1" stop-color="#C7C7C7"/></linearGradient><linearGradient id="g" x1="41.519" x2="117.366" y1="21.367" y2="29.827" gradientUnits="userSpaceOnUse"><stop stop-color="#FFF7EE"/><stop offset="1" stop-color="#FFB96D"/></linearGradient><linearGradient id="h" x1="84.212" x2="85.128" y1="11.157" y2="16.398" gradientUnits="userSpaceOnUse"><stop stop-color="#fff"/><stop offset="1" stop-color="#fff" stop-opacity="0"/></linearGradient><filter id="d" width="85.683" height="32.447" x="39.866" y="11.15" color-interpolation-filters="sRGB" filterUnits="userSpaceOnUse"><feFlood flood-opacity="0" result="BackgroundImageFix"/><feBlend in="SourceGraphic" in2="BackgroundImageFix" result="shape"/><feGaussianBlur result="effect1_foregroundBlur_557_24107" stdDeviation="2.5"/></filter></defs></svg>