<svg xmlns="http://www.w3.org/2000/svg" xmlns:xlink="http://www.w3.org/1999/xlink" width="494" height="494" fill="none"><path fill="url(#a)" d="M380.441 133.858c62.257 73.927 52.796 184.326-21.132 246.583-73.927 62.257-184.326 52.796-246.583-21.132-62.257-73.927-52.796-184.326 21.132-246.583 73.927-62.257 184.326-52.796 246.583 21.132Z"/><path fill="url(#b)" fill-opacity=".05" d="M380.441 133.858c62.257 73.927 52.796 184.326-21.132 246.583-73.927 62.257-184.326 52.796-246.583-21.132-62.257-73.927-52.796-184.326 21.132-246.583 73.927-62.257 184.326-52.796 246.583 21.132Z" style="mix-blend-mode:overlay"/><path fill="#fff" fill-opacity=".05" d="M176.574 324.291c-3.391-4.299-7.916-6.292-13.249-7.455-9.269-2.014-11.915-5.788-11.705-15.078.294-13.128-4.146-18.025-17.216-19.042-1.827-.147-3.643-.514-6.792-.985 6.813-1.919 10.477-1.846 16.45 1.73 4.546 2.726 8.43 6.574 12.902 10.16.955-.608 2.236-1.437 3.737-2.391 1.606 1.259 3.16 2.653 4.881 3.806 3.811 2.559 7.433 1.668 9.742-2.275 2.303-3.921 6.239-6.123 11.81-6.606-2.53-2.023-4.01-3.198-5.49-4.383-5.249-4.204-11.348-7.696-15.526-12.771-5.617-6.826-2.478-11.964 5.27-16 5.889-3.073 10.287-9.007 15.284-13.736.725-.692.893-1.992 1.649-2.622 4.409-3.659 7.138-7.738 6.256-14.018-.283-2.014 2.362-4.436 3.685-6.669 3.706-6.239 3.391-9.678-.588-13.149-5.259 1.552-10.151 2.695-14.791 4.467-3.003 1.143-5.701 3.146-8.441 4.918-1.154.744-1.91 2.222-3.117 2.715-1.449.587-3.181.483-4.787.671.357-1.562.168-3.858 1.144-4.582 8.314-6.144 7.212-13.473 3.202-21.348-.315-.608-.83-1.415-.651-1.929 1.669-4.939.21-7.298-5.228-6.963-.714.042-2.047-1.111-2.121-1.813-.104-1.018.368-2.569 1.145-3.104 1.385-.954 3.139-1.657 4.818-1.877 3.863-.514 7.139-1.636 8.713-5.62.242-.608.861-1.08 1.344-1.583 1.806-1.867 5.322-3.943 5.112-5.537-.493-3.743-2.634-7.319-4.377-10.821-.556-1.111-1.974-1.782-3.601-3.166-1.386 3.691-2.572 6.826-3.936 10.454-5.512-7.183-5.669-7.162-10.341.503-7.558-3.649-15.683-2.076-21.594 4.278-2.078 2.233-1.837 4.1 1.344 4.96 1.9.513 3.853.828 5.742 1.855-4.986 3.24-10.455 4.551-15.662 2.307-3.024-1.3-4.766-.912-6.152 1.217-1.123 1.719-1.312 4.036-1.186 6.385-2.331 2.842-5.155 5.379-3.328 10.056.231.587-1.711 2.873-2.803 2.998-6.509.745-9.112 5.337-10.981 10.601-1.606 4.519.284 8.084 4.294 10.056 3.685 1.803 4.42 4.225 2.824 7.57-2.541 5.316-1.669 10.223 1.543 14.826 5.459 7.801 7.128 16.179 4.189 25.322-.399 1.248-1.208 2.36-1.701 3.586-.945 2.349-2.708 4.824-2.488 7.089.315 3.282 2.184 6.238 6.393 6.406.997.042 1.963.944 3.328 1.646-3.275 2.695-6.036 4.97-9.27 7.634-2.446-5.086-4.724-9.836-6.991-14.543 2.687-6.858 5.826-13.789 8.031-21.003.892-2.925.115-6.532-.557-9.688-.346-1.604-1.963-3.796-3.327-4.068-1.187-.231-2.877 1.813-4.263 2.956-.787.65-1.406 1.5-3.054 3.314-1.848-3.167-3.57-5.767-4.924-8.546-.672-1.363-.252-3.334-1.071-4.529-1.28-1.867-2.98-4.079-4.923-4.614-1.018-.283-3.15 2.548-4.367 4.268-.924 1.3-1.186 3.072-2.593 4.686 1.543-8.849-7.968-15.057-5.07-24.21.304-.944-1.302-2.496-2.027-3.764-1.71 1.059-3.422 2.128-4.64 2.883 7.706-63.803 69.17-143.21 170.211-145.097 94.228-1.75 172.625 74.614 173.307 170.021.641 89.754-66.65 177.318-173.737 177.947-97.42.577-168.006-76.858-172.258-161.685 1.596.451 3.107.881 5.06 1.426-.955 12.719-.966 25.333 4.482 38.01 1.523-1.94 2.52-3.209 4.599-5.851 1.427 4.593 2.876 8 3.495 11.565.746 4.289.746 8.693 1.134 13.044 1.155 12.918 8.02 22.229 18.424 29.81 1.406-1.688 2.477-2.957 3.852-4.603 1.144.986 2.772 1.678 3.034 2.716 1.333 5.274 5.511 6.092 9.826 7.717 3.338 1.258 6.183 4.372 8.682 7.172 2.456 2.758 4.755 4.247 8.608 3.261 1.595-.409 3.632.283 5.291.933 3.254 1.269 6.393 2.852 9.574 4.32 3.285 1.51 6.781 2.695 9.773 4.656 4.713 3.072 9.574 4.676 16.628 3.911-2.183-3.366-3.842-5.914-6.13-9.437 2.404 0 3.978-.22 5.469.052 2.394.441 4.703 1.395 7.107 1.741 1.344.199 2.813-.378 4.22-.608-.609-1.259-1.113-2.59-1.858-3.765-.42-.66-1.249-1.08-2.236-1.887l7.989-13.463c-2.1-5.096-7.926-8.944-14.708-8.682-6.267.231-7.873-4.75-9.867-9.196 3.327 2.171 7.128 6.596 9.878 6.019 5.984-1.258 9.028 1.111 11.778 5.211 3.948 5.893 9.039 8.158 16.146 6.669 5.238-1.101 8.104 1.216 9.553 6.941-2.499-.545-4.808-1.048-7.107-1.552l-.598 1.07c1.7 2.223 3.411 4.446 5.29 6.899-2.729 1.3-4.944 2.359-6.75 3.219 1.533 3.859 2.814 7.067 4.409 11.073.809.188 3.664.021 4.284 1.122 3.338 5.84 9.143 2.537 13.573 4.058.662.23 1.911-1.238 2.887-1.919 2.194-3.293 5.354 1.132 8.923-3.366 2.656-3.355 1.018-6.228 3.086-8.64-2.267-.881-4.073-1.583-5.878-2.296 0-.399 0-.808.01-1.206 3.15-1.154 6.288-2.296 9.438-3.45.01-.377.031-.755.042-1.132-3.559-.923-7.118-1.856-9.795-2.548-2.813.849-5.333 2.506-7.149 1.929-2.477-.776-5.574-2.852-6.351-5.085-1.7-4.897-4.986-4.457-9.616-3.827.662-2.643.914-4.96 1.9-6.889.347-.671 3.591-.787 3.696-.514.587 1.646.64 3.491.965 5.966 1.942-1.09 3.989-1.793 5.386-3.146 1.385-1.342 3.055-3.47 2.855-5.033-.189-1.488-2.467-2.967-4.126-3.953-1.27-.754-3.138-.45-4.482-1.132-3.128-1.604-6.099-3.513-9.133-5.295 4.482 1.594 8.965 3.177 14.823 5.253-1.544-2.747-2.257-4.016-2.74-4.865 1.008-1.07 2.12-1.751 2.362-2.653.273-1.027-.252-2.265-.42-3.376 7.285 3.334 6.068 12.656 11.831 16.504 1.732-3.072 3.412-7.141 4.031-6.983 3.286.828 6.309 2.715 9.427 4.236-.158.283-.325.555-.483.838-3.034-.492-6.078-.975-9.112-1.468l-.315 2.045c8.157 4.519 17.069 5.589 26.181 5.767.147-.461.294-.933.452-1.394-2.415-1.007-4.84-2.024-8.608-3.597 6.34.849 11.253 1.499 16.177 2.16.031-.451.052-.902.084-1.353-1.375-.828-2.751-1.646-3.475-2.086 1.312-3.355 1.932-6.249 3.475-8.514 1.522-2.234 3.244-5.862 6.666-2.926.819-1.677 1.501-4.729 2.498-4.833 5.879-.619 2.908-3.702 2.005-6.155-.756-2.055-1.795-3.995-2.624-6.029-.473-1.164-.777-2.391-1.155-3.586-1.417.461-2.96.723-4.241 1.447-1.974 1.121-3.758 2.558-6.099 4.194l-2.005-6.239c-4.861.797-4.703-2.139-5.06-5.505-.42-3.932-1.333-8.021-3.044-11.555-1.512-3.103-4.074-3.932-6.73-.063-2.55 3.723-7.568 3.712-10.844.598 1.89-.315 3.79-.629 5.848-.965-1.082-4.037-3.265-4.792-6.509-4.582-3.737.241-7.569.22-11.254-.325-4.083-.608-7.296-1.363-9.7 3.67-1.742 3.638-1.553 4.425 2.215 5.085 1.376.242 3.685 2.066 3.559 2.863-.798 5.169 2.929 5.589 6.236 6.532 3.128.881 6.288 1.688 9.059 2.422-.43 2.643-.85 5.212-1.144 7.005a13723.87 13723.87 0 0 0-7.947-4.866c-.367.472-.735.955-1.102 1.426 1.123 1.699 2.215 3.419 3.38 5.075 1.25 1.783 2.572 3.513 4.735 6.449-3.559.43-6.204 1.51-7.947.681-1.155-.545-1.26-3.806-1.396-5.882-.231-3.387-.084-7.214-4.567-7.434-3.39-.168-6.844.891-10.266 1.395-1.145.167-2.656.859-3.37.377-2.887-1.961-5.533-4.278-8.251-6.448 3.527-.514 6.603-1.919 5.616-6.606-1.123-5.337-9.186-10.339-14.361-8.787-1.302.388-3.002 1.646-3.233 2.768-.221 1.08.986 2.726 1.984 3.712 1.112 1.101 2.698 1.72 3.338 2.108-1.711 3.376-3.086 6.06-4.798 9.436 2.583.451 4.745.755 6.866 1.217 2.624.566 5.112 1.887 3.842 4.938-3.118 7.497.525 12.719 5.26 17.742-3.906.503-7.811 1.006-11.905 1.53-2.771-6.039 1.092-10.516 3.485-15.224 2.016-3.953.935-6.575-3.443-6.763-5.049-.221-7.978-2.244-9.406-7.393-1.407-5.116-9.437-6.951-13.762-3.785-2.793 2.045-5.753 3.859-8.682 5.715-2.215 1.405-4.493 2.726-6.74 4.079 2.121 1.583 4.126 3.355 6.383 4.707 3.748 2.244 3.905 2.695.924 6.334-1.47-1.206-2.772-2.81-4.462-3.503-1.333-.545-4.041-.534-4.514.231-.798 1.29-.892 3.66-.21 5.044.651 1.331 2.562 2.244 4.094 2.894 3.696 1.572 5.9 4.099 6.121 8.189l-.021.021Zm16.072-221.189c-.168 3.838-.399 7.675-.483 11.513-.032 1.426-.158 3.691.577 4.11 1.27.713 3.895.975 4.703.168 1.9-1.898 4.136-4.477 4.273-6.889.231-3.974-5.302-8.493-9.249-8.734-.462-1.647-.504-3.639-1.501-4.845-.924-1.121-3.391-2.39-4.262-1.918-9.606 5.221-19.893 9.699-25.384 20.142-.336.64-1.427.849-2.11 1.342-1.879 1.321-3.716 2.684-5.574 4.026 1.522 1.51 3.076 2.999 4.566 4.541.336.346.483.87 1.197 2.244-2.582.807-4.86 1.772-7.243 2.17-1.47.241-3.401-1.049-4.556-.493-2.047.996-4.798 2.622-5.197 4.446-.556 2.548.483 5.714 4.661 5.043.704-.115 1.617.221 2.236.64 1.029.682 1.89 1.594 2.824 2.412.588-1.342 1.197-2.685 1.753-4.037.42-1.028.756-2.076 1.176-3.24 6.771 5.075 7.328 5.001 13.374-.441.914-.828 2.425-.964 3.591-1.562a676.786 676.786 0 0 0 11.253-5.966c.252-.136.41-.577.473-.912.986-5.232-1.365-11.44 4.493-15.277.241-.158.147-1.028.021-1.51-1.04-3.911 1.039-5.841 4.398-6.963l-.01-.01Zm91.687 25.511c.21-2.8.357-4.865.504-6.921-1.816 1.018-3.779 1.846-5.427 3.083-2.436 1.825-4.263 2.716-6.415-.587-.85-1.3-3.254-1.594-4.955-2.349-.178 1.94-.986 4.121-.367 5.746.598 1.573 2.813 2.454 4.073 3.859.934 1.059 2.131 2.506 2.058 3.712-.137 2.495-1.04 4.949-1.323 6.155-4.084 1.006-7.926 1.95-12.492 3.061-.137-.671-.882-2.128-.609-3.345 1.323-5.882 1.396-5.651-5.008-6.469-1.826-.231-4.503-1.73-4.976-3.23-2.005-6.312-1.763-6.385-8.576-4.173-7.916 2.569-14.466-.88-17.017-9.321 5.921.472 12.461 3.963 16.534-2.328-1.333-2.653-2.362-4.697-3.506-6.994l6.424-1.3c-1.175-3.827-3.359-4.781-6.403-3.083-4.115 2.297-6.876 1.301-8.923-2.799-.399-.797-1.502-1.237-2.247-1.814-4.094 4.131-6.036 10.747-4.241 14.753-1.365.849-2.782 1.709-4.199 2.59-.819-.766-1.354-1.206-1.806-1.72-4.398-4.876-4.818-4.739-7.968.661-.923 1.583-2.792 2.904-4.524 3.649-3.128 1.342-8.461 1.268-2.572 6.291.577.493.073 2.254.073 3.806 3.444-.902 6.268-1.961 9.175-2.265 1.502-.157 3.15 1.007 4.735 1.583-1.113 1.563-2.488 4.603-3.296 4.457-7.191-1.28-10.792 5.326-16.524 7.119-2.887.902-4.125 3.387-3.086 6.774.682 2.233.619 4.697 1.018 8.189 1.816 1.258 4.64 3.229 7.517 5.222-7.16 1.216-2.247 5.641-2.142 8.797.084 2.653 1.585 3.963 4.199 2.778 4.808-2.181 7.086.43 9.018 4.268 2.572 5.117 12.859 6.836 16.586 2.475 2.215-2.58 4.577-2.842 7.59-3.429 7.453-1.437 15.442-2.391 19.421-10.632.598-1.238 2.792-1.699 4.241-2.517l1.994 1.929c-1.784 3.282-3.684 6.491-5.269 9.867-.578 1.237-1.092 3.534-.462 4.142 3.579 3.46 7.506 6.574 11.358 9.751.347.283 1.029.294 1.533.231 5.27-.577 7.737 1.573 7.884 7.046.042 1.552 2.173 3.062 3.349 4.582 1.375-1.069 3.212-1.856 4.031-3.25 1.522-2.59 3.044-3.481 5.731-1.783l-1.973 5.379 1.071.85c1.028-1.007 2.078-1.982 3.065-3.02 1.039-1.08 1.827-2.716 3.076-3.219 2.95-1.164 6.11-1.793 9.836-2.81 1.974 3.271 4.514 7.203 2.992 12.635-.441 1.562.819 3.89 1.89 5.452.493.723 3.055 1.09 3.59.545 3.947-4.005 8.955-4.142 14.025-4.582 3.275-.283 3.979-2.139 3.328-5.557-1.375-7.162-4.787-12.394-11.275-15.948-2.918-1.594-5.102-4.195-3.874-8.294.273-.923-1.018-3.146-1.994-3.46-4.084-1.301-3.559-4.341-3.821-7.445 9.259 1.447 11.159.388 14.718-7.927.063-.157.126-.346.252-.451 6.582-5.777 1.564-10.863-1.397-15.581-1.375-2.192-4.608-3.219-6.991-4.771-1.207 2.286-2.394 4.582-3.622 6.847-.136.262-.514.398-1.491 1.09-1.144-3.323-2.215-6.427-2.939-8.545.798-2.831 1.365-4.834 1.921-6.826-1.449-.189-3.548-1.091-4.23-.451-6.005 5.526-11.947 5.159-18.183.535-.755-.556-1.931-.556-2.656-.734l-.031.021Zm67.647 4.467c-1.396-1.259-2.529-1.867-3.054-2.811-2.184-3.932-4.514-5.536-8.619-2.002-1.134.985-3.937 1.237-5.312.535-5.511-2.8-10.592-1.416-15.568.975-1.585.765-2.666 2.59-3.979 3.932 1.932.629 4.031 2.065 5.764 1.73 4.598-.912 5.353 1.174 5.658 5.022.199 2.538 1.575 4.991 2.498 7.455.536 1.405 1.606 2.706 1.795 4.132.693 5.232 3.622 7.958 8.693 9.048 2.068.451 3.926 1.867 6.729 3.272-3.885 2.548-8.231 4.278-1.953 7.119.525.242.284 2.056.525 3.104.147.629.535 1.195.903 1.982 1.49-.881 2.761-1.625 3.915-2.307 5.207 4.268 12.797 3.88 17.826-.367 1.238-1.048 3.128-1.311 4.713-1.94.766 1.951 2.635 4.299 2.1 5.778-2.058 5.735.892 9.028 4.892 11.901 1.406 1.006 3.894 2.191 4.923 1.604 1.249-.713 2.236-3.324 1.995-4.907-.515-3.356-1.89-6.575-2.961-9.972 1.071-.629 2.173-1.269 3.276-1.919l1.438-1.877c-1.816-1.027-3.926-1.74-5.365-3.156-1.501-1.478-2.246-3.691-3.527-5.431-1.512-2.076-2.866-4.687-4.955-5.851-3.936-2.181-7.674-4.802-7.39-9.29.462-7.161-1.239-12.509-7.863-15.99-1.239-.65-1.753-2.559-2.782-3.733-.693-.786-1.701-1.29-2.74-2.045-.567 2.139-.997 3.744-1.596 6.009h.021ZM195.669 277.348c.588.377 1.176.744 1.764 1.122 1.658-.451 3.474-.619 4.944-1.416 6.992-3.764 7.621-3.733 13.091 1.678.987.985 1.952 2.034 3.076 2.841 2.991 2.15 5.532 1.531 6.393-2.044.955-3.995 3.527-5.516 7.086-6.763 6.393-2.244 7.537-6.638 3.674-12.268-1.68-2.464-3.233-5.012-5.207-8.085 4.64-.817 8.461-1.268 7.8-6.291-.662-5.012-3.863-7.245-8.608-7.455-2.961-.136-5.942.168-8.913.147-1.365 0-2.74-.304-2.992-.336 1.963-3.019 5.165-5.735 5.197-8.503.052-3.764-1.984-7.728-3.885-11.199-.461-.838-5.143-.849-5.7.074-2.908 4.834-7.548 5.903-12.366 6.92-4.252.902-6.425 3.534-6.015 7.822.65 6.858 3.075 8.955 9.836 10.496 1.963.451 3.485 2.779 5.217 4.247-1.406 1.52-2.75 3.103-4.23 4.54-1.533 1.499-4.609 2.904-4.577 4.288.189 7.204 1.207 14.397-5.617 20.185h.032ZM324.76 93.162c-10.519-5.075-20.345-4.614-30.129-2.37-2.141.493-5.585 3.911-5.249 5.012 1.26 4.142.053 9.668 6.037 11.807 4.136 1.478 7.778 4.267 11.736 6.301 1.543.787 3.317 1.416 5.029 1.531 2.729.189 5.49-.021 8.219-.251 1.9-.168 4.861-.042 5.48-1.122 3.317-5.767 2.089-10.737-3.128-15.697-.609-.577-1.103-1.29-1.785-2.097.997-.818 1.869-1.531 3.8-3.104l-.01-.01Zm17.101 104.036c-1.229 3.334-2.793 5.798-2.898 8.325-.136 3.408-.01 7.403 1.69 10.066.924 1.447 6.331 1.919 8 .618 4.209-3.26 8.041-4.875 13.132-2.453-.923-1.709-1.837-3.429-2.666-4.97 6.257-5.956 7.611.765 10.351 4.54 1.092-8.095.693-8.567-5.155-9.951-1.585-.377-3.233-1.489-4.325-2.736-3.474-3.943-6.697-8.105-9.931-12.069-1.49.399-3.359 1.541-4.839 1.164-5.165-1.321-12.188 3.303-12.723 9.657 2.855-.671 5.417-1.279 9.353-2.202l.011.011Zm-235.78-25.071c5.228 5.159 6.078 5.148 11.023.147 1.774-1.793 3.233-4.624 5.333-5.211 4.682-1.311 5.395-4.499 5.395-8.315 0-5.264 2.604-8.294 7.401-10.171 2.331-.912 4.273-2.821 7.307-4.907-3.149-.933-4.766-1.405-6.414-1.888.64-1.51 1.207-2.831 1.763-4.141a127.63 127.63 0 0 0-1.144-1.217c-4.44 3.471-8.881 6.931-13.332 10.402-1.942-.178-4.598-.147-5.322 1.048-2.698 4.457-4.871 9.248-7.002 14.019-1.05 2.349-1.796 4.153-4.703 5.358-2.362.975-3.654 4.52-5.417 6.931.409.273.819.545 1.228.829 1.207-.902 2.425-1.794 3.863-2.863l.021-.021Zm110.174 28.426c-.525 1.719-1.26 3.533-1.575 5.421-.22 1.3-.378 3.166.347 3.953 2.047 2.244 4.713 3.911 6.834 6.102 1.816 1.877 3.013 1.888 5.301.441 2.205-1.395 5.197-1.521 7.8-2.318 1.386-.43 3.905-1.205 3.863-1.656-.399-4.677 3.255-3.807 5.753-4.488 3.265-.902 5.102-2.81 3.275-6.124-3.905-7.067-14.581-9.583-21.552-5.599-3.096 1.772-6.603 2.842-10.046 4.278v-.01Zm38.537 144.488c1.376.388 3.675.724 5.648 1.73.871.441 1.753 3.02 1.449 3.282-4.682 4.11 0 8.598-.567 12.824-.084.608 1.533 1.877 2.53 2.107 3.863.871 7.39.692 7.926-4.162 3.233-.399 6.12-.755 8.996-1.122.032-.724.074-1.458.105-2.181-2.939-.64-5.868-1.29-8.807-1.93 1.9-.765 3.758-.251 5.395-.629.903-.209 2.268-2.212 2.016-2.904-.882-2.464-2.362-4.729-3.58-7.004-1.637 2.044-3.212 5.882-5.899 6.983-5.669 2.328-2.835-4.456-5.617-5.746 1.554-.912 2.688-1.573 4.787-2.81-2.719-1.342-4.566-2.842-6.592-3.135-3.99-.587-8.556.996-11.023-3.974-.22-.441-1.984-.409-2.908-.158-3.233.902-6.414 1.993-9.805 3.073.347 1.73 9.438 9.132 11.852 8.451 1.302-.367 2.383-1.531 4.073-2.684l.021-.011ZM91.93 202.514c-5.522 4.718-6.792 9.761-3.643 13.966.777 1.038 2.667 2.202 3.675 1.94 4.388-1.185 7.736-10.884 6.078-15.11-1.186-3.03-4.987-6.406-.326-10.223.83 1.688 1.512 3.073 2.751 5.599 2.173-5.379 4.073-9.583 5.522-13.945.462-1.374-.242-3.146-.41-4.739-1.543.786-3.464 1.237-4.566 2.432-3.055 3.314-5.617 7.088-8.66 10.402-2.856 3.114-5.008 5.987-.431 9.667l.01.011Zm151.735 22.679c-.452.472-.903.955-1.355 1.426 3.202 4.803 2.992 7.76-3.296 7.959-.514.021-1.732 2.925-1.281 3.817 1.733 3.46 4.011 6.647 6.173 10.065.263-.052.745-.188 1.239-.272 2.299-.367 6.026-4.11 6.477-6.438.094-.482.535-.891.745-1.363 1.323-2.863 2.625-5.725 3.727-8.147-4.325-2.464-8.377-4.761-12.429-7.068v.021Zm23.882 40.736-7.17-1.856c.588 2.485.473 4.593 1.47 5.673 3.401 3.691 7.054 1.646 10.235-.514 3.485-2.38 2.866-5.725.798-8.661-.976-1.384-2.834-2.149-4.294-3.198-.346 1.657-.745 3.313-.997 4.991-.147.944-.021 1.929-.021 3.576l-.021-.011Zm5.868 123.675c.368.566.83 1.73 1.669 2.464 3.013 2.632 6.446 3.397 10.068 1.374 1.574-.881 2.897-2.234 4.335-3.366-1.448-.923-2.865-1.898-4.356-2.768a46.275 46.275 0 0 0-4.126-2.139c-3.16-1.437-7.443.765-7.59 4.435Zm39.493-3.502c-5.092.514-9.175 1.153-13.29 1.29-5.764.188-6.393.922-4.609 7.308 5.071-4.278 14.319 1.352 17.899-8.588v-.01Zm-123.16-225.079c-2.11 2.894-3.894 4.666-4.766 6.816-.504 1.226-.021 3.994.861 4.456 3.044 1.573 6.446 2.432 10.666 3.89-.714-5.285-3.706-9.783-6.761-15.151v-.011Zm74.23 218.756c-2.698-4.991-6.897-2.737-10.277-2.181-1.386.22-2.331 3.083-4.168 5.736 5.963-.629 11.432 3.649 14.445-3.555Zm-121.386-17.196c1.218 5.893 5.911 9.668 12.22 9.856-2.047-6.563-6.666-10.286-12.22-9.856Zm180.814-26.549c-.41 3.146.094 6.103-1.134 7.35-3.769 3.838-5.963-.356-8.955-3.69.483 4.582 1.166 7.518 5.449 7.056 3.726-.398 8.356-.22 8.765-5.4.242-3.072-1.564-5.536-4.136-5.316h.011ZM234.91 186.723c-3.612-4.373-6.729-2.339-9.564-.514-.756.482-1.323 2.915-.892 3.324 4.692 4.54 6.403-1.814 10.456-2.81Zm51.617 74.949c.871-3.387 1.459-6.878-2.278-8.378-1.522-.608-4.084 1.384-6.792 2.443 3.748 2.454 6.215 4.069 9.07 5.935Zm-88.884 23.865c.262-.556.524-1.122.787-1.678-1.47.535-2.95 1.07-4.567 1.657 2.394 3.911 4.43 7.245 6.477 10.579.651-.272 1.313-.545 1.964-.817-.462-1.615-.725-3.335-1.449-4.824-.861-1.74-2.121-3.292-3.212-4.917Zm142.454-181.502c2.1 3.418 3.086 7.948 8.472 8.105-2.583-2.936-2.656-8.367-8.472-8.105Zm-46.138 222.52c-2.236-1.509-4.02-3.156-4.377-2.894-1.512 1.122-2.782 2.727-3.674 4.394-.168.314 2.204 2.716 2.708 2.506 1.659-.692 3.002-2.15 5.333-4.006h.01ZM136.577 154.742c-1.596 1.877-2.834 3.146-3.737 4.624-.137.221 1.753 2.192 2.047 2.045 1.701-.86 3.212-2.118 4.787-3.23l-3.097-3.439Zm238.373 45.549 2.645-.661c-.42-2.097-.735-4.225-1.396-6.249-.074-.231-2.058.168-3.16.272.64 2.213 1.27 4.425 1.911 6.638Z" style="mix-blend-mode:overlay"/><path fill="#FF1F00" fill-rule="evenodd" d="M177.584 208.616v25.27c21.712-.029 42.527-8.709 57.88-24.138a82.341 82.341 0 0 0 11.442-14.415 82.34 82.34 0 0 0 11.444 14.42c15.354 15.429 36.171 24.108 57.885 24.133v-25.27a56.674 56.674 0 0 1-40.113-16.722c-10.574-10.627-16.55-25.011-16.64-40.03l.001-.281h-25.148l.001.286c-.091 15.018-6.067 29.4-16.64 40.025a56.67 56.67 0 0 1-40.112 16.722Zm56.753 132.967h-.002l.001-.266a57.24 57.24 0 0 0-16.64-40.044 56.672 56.672 0 0 0-40.112-16.722v-25.27c21.713.024 42.53 8.704 57.884 24.133a82.314 82.314 0 0 1 11.438 14.409 82.313 82.313 0 0 1 11.44-14.414c15.355-15.43 36.174-24.108 57.889-24.128v25.27a56.674 56.674 0 0 0-40.113 16.722c-10.578 10.631-16.555 25.022-16.64 40.049l.001.261h-25.146Z" clip-rule="evenodd"/><defs><linearGradient id="a" x1="49.584" x2="338.584" y1="124.583" y2="396.083" gradientUnits="userSpaceOnUse"><stop stop-color="#BB9163"/><stop offset=".87" stop-color="#82706A" stop-opacity="0"/></linearGradient><pattern id="b" width="5.851" height="5.851" patternContentUnits="objectBoundingBox"><use xlink:href="#c" transform="scale(.003)"/></pattern></defs></svg>