<svg xmlns="http://www.w3.org/2000/svg" xmlns:xlink="http://www.w3.org/1999/xlink" width="1440" height="310" fill="none">
  <g fill-rule="evenodd" clip-rule="evenodd" opacity=".7">
    <path fill="#FF523A" fill-opacity=".06" d="M258.496 190.862c-96.808 7.727-207.0092 40.578-351.9259 118.507l-42.1561-67.793L-182 155.264l43.156-23.207C14.2392 49.7362 137.663 11.2745 251.699 2.173 365.661-6.9228 466.242 13.683 571.65 43.076c32.358 9.0231 65.38 18.9278 99.713 29.2259 187.775 56.322 414.787 164.411 786.997 164.411h49v58h-49c-387.34 0-628.362 18.903-817.042-37.772-33.793-10.151-65.94-19.808-96.992-28.466-101.467-28.295-188.948-45.345-285.83-37.613Z"/>
    <path fill="url(#a)" fill-opacity=".1" d="M258.496 190.862c-96.808 7.727-207.0092 40.578-351.9259 118.507l-42.1561-67.793L-182 155.264l43.156-23.207C14.2392 49.7362 137.663 11.2745 251.699 2.173 365.661-6.9228 466.242 13.683 571.65 43.076c32.358 9.0231 65.38 18.9278 99.713 29.2259 187.775 56.322 414.787 164.411 786.997 164.411h49v58h-49c-387.34 0-628.362 18.903-817.042-37.772-33.793-10.151-65.94-19.808-96.992-28.466-101.467-28.295-188.948-45.345-285.83-37.613Z" style="mix-blend-mode:overlay"/>
  </g>
  <defs>
    <pattern id="a" width="1.2123" height="6.62" patternContentUnits="objectBoundingBox">
      <use xlink:href="#b" transform="scale(0 .003)"/>
    </pattern>
  </defs>
</svg>
