<svg xmlns="http://www.w3.org/2000/svg" width="1440" height="323" fill="none">
  <path fill="url(#a)" d="M-133 62.4998S92.0791 107.463 176.5 118.5c69.143 9.04 175.498 23.038 175.498 23.038l187.697 14.452s161.451 32.08 208.686 32.878c127.678 2.157 249.057-36.796 311.289-55.511 201.96-60.7341 402.56-42.3549 402.56-42.3549l23.94 161.3609-1804.866 69.654L-133 62.4998Z"/>
  <path fill="#FDCDB2" d="M573.141 130c.391 1.649.785 3.298 1.21 5.088-.505-.059-.833-.099-1.162-.136-.055.082-.111.166-.166.247.236.22.439.561.714.64.78.227 1.026.785 1.186 1.51.42 1.914.89 3.815 1.38 5.896-.847-.05-1.52-.148-2.184-.102-.394.028-1.094.282-1.096.445-.01.605-.278 1.419.717 1.644.821.185 1.651.402 2.411.753.437.202.934.642 1.07 1.081.461 1.511.774 3.069 1.19 4.79-1.673-.262-3.153-.492-4.63-.724-.029.104-.058.208-.085.311 1.183.415 2.342.919 3.551 1.217 1.166.289 1.678.914 1.951 2.123.796 3.56 1.752 7.083 2.64 10.621.058.234.09.476.162.879h-8.489c0 2.278.024 4.402-.022 6.525-.007.4-.29.795-.444 1.192-.152-.04-.304-.081-.459-.121v-7.544H564c.449-1.798.821-3.429 1.289-5.029.084-.291.538-.575.874-.669 1.627-.459 3.28-.817 4.902-1.286.478-.139.889-.519 1.33-.788-.05-.126-.101-.252-.152-.378-2.071.334-4.144.667-6.483 1.045.461-1.768.864-3.407 1.337-5.022.072-.249.468-.419.739-.585 1.518-.928 3.031-1.861 4.569-2.755.606-.35.939-.741.541-1.587-1.671.651-3.339 1.303-5.221 2.036 1.757-7.226 3.466-14.252 5.175-21.28.079-.012.162-.025.241-.037Z"/>
  <path fill="#FBBEA4" fill-rule="evenodd" d="M924.424 52.1663V33.9995h-.374v2.0602h-6.368v-1.6856h-.375V52.3535H919.893l-2.22 1.3666-.172.1056-.006.2014-.386 11.9863-.217 6.7423-.289 8.9897-.268 8.3181-.048.0505.045.0431v.0162l-.289 8.9897-.302 9.364-.283 8.803-.313 9.739-.38 11.799-.337 10.488-.301 9.364-.44 13.672-.368 11.424-.319 9.926.749.025.307-9.559 6.408 4.966.002.314-6.567 4.903.449.6 6.121-4.571.022 5.583.749-.003-.024-6.138.069-.051 7.059 5.47.013.361.749-.029-.022-.573.064-.083-.069-.054-.426-11.089-.438-11.424-.524-13.672-.36-9.365-.402-10.488-.452-11.799-.374-9.739-.338-8.802-.359-9.3643-.345-8.9897-.323-8.4279-.345-8.9897-.258-6.7423-.031-.7968.019-.0196-.021-.02-.012-.3299.068-.0877-.074-.0573-.409-10.675-.009-.2216-.198-.0991-2.701-1.3506h3.657v-.1872Zm-6.742-14.9829v7.1168h6.368v-7.1168h-6.368Zm0 8.2406h6.368v6.555h-6.368v-6.555Zm5.466 14.4241.176 4.5715-2.244-2.1758 1.913-2.5509.155.1552Zm-.042-1.1017-.171-4.4714-2.254-1.1269.012 3.1854 2.413 2.4129Zm-3.165-3.165-.009-2.3719-1.463.9001 1.472 1.4718Zm-1.725-.666 1.729 1.7297.018 4.5156-1.889-1.832.142-4.4133Zm2.481 2.4818 1.761 1.7605-1.745 2.3262-.016-4.0867Zm2.248 7.6989-2.226-2.1587.011 2.7135h1.784l.431-.5548Zm-2.978-2.8879-1.926-1.8676-.158 4.9172 2.085-2.7803-.001-.2693Zm8.339 132.0958-.363-9.464-6.035 4.506 6.398 4.958Zm-7.012-5.435 6.25-4.666h-6.35l.018 4.603.082.063Zm-.833-.645-.016-4.021h-5.172l5.188 4.021Zm-.386-98.4132h-2.463l2.453-2.5697.01 2.5697Zm-2.964-.5599 2.95-3.0904-.002-.4521-2.733-3.143-.215 6.6855Zm.831-7.1189h2.103l.01 2.4295-2.113-2.4295Zm2.87 4.4418.012 3.237h2.802l-2.814-3.237Zm3.466 3.9861.051.0585.001.0392-.102-.0977h.05Zm.005-1.1359-3.004-3.4545 2.76-2.892.244 6.3465Zm-3.476-4.0451 3.099-3.2469h-3.112l.013 3.2469ZM918.418 66.4h1.566l.006 1.525-1.572-1.525Zm1.539 2.5377-2.287 2.9409.161-5.0046 2.126 2.0637Zm.789.7652 2.771 2.6903h-2.761l-.01-2.6903Zm2.846 1.719-2.631-2.5542L922.88 66.4h.52l.192 5.0219Zm-3.573 4.1044-1.927-2.384h1.918l.009 2.384Zm.007 1.8113-.002-.614-2.414-2.9855-.222 6.8971 2.638-3.2976Zm3.765 4.0453-3.014-3.7282.014 3.7282h3Zm-2.558-4.3549 2.703 3.3422-.246-6.4125-2.457 3.0703Zm-1.191 4.3549h-2.293l2.282-2.852.011 2.852Zm.717-8.2406h2.624l-2.611 3.2634-.013-3.2634Zm-.761-3.0368-1.779 2.2877h1.788l-.009-2.2877Zm1.933-3.7055-1.192 1.5331-.006-1.5331h1.198Zm-1.958-2.6804-1.448 1.9313h1.456l-.008-1.9313Zm.424 108.3094h-5.536l5.516-5.279.02 5.279Zm-5.928-.662 5.904-5.65-.001-.091-5.547-5.313-.356 11.054Zm.388-12.06.007-.2h5.483l.021 5.478-5.511-5.278Zm6.646 6.365 5.503-5.267.419 10.939-5.922-5.672Zm-.379.674 5.934 5.683h-5.912l-.022-5.683Zm-.005-1.344 5.848-5.597-.011-.298h-5.86l.023 5.895Zm-1.024-70.2615-.001-.1529-3.047-3.3309-.223 6.9098 3.271-3.426Zm-2.671-4.1806 2.666 2.9131-.012-2.9131h-2.654Zm6.933.7999-3.166 3.317 3.438 3.7574-.272-7.0744Zm-3.497 7.4407-.014-3.3906 3.102 3.3906h-3.088Zm-.033-8.2406.014 3.399 3.244-3.399h-3.258Zm-.728 5.2611-2.844 2.9795h2.855l-.011-2.9795Zm.245 62.536h-4.014l4.002-2.904.012 2.904Zm-5.13-.115 5.115-3.712-.003-.647-5.171-3.839-.267 8.313h.41l-.084-.115Zm.791-8.5 4.318 3.205-.013-3.205h-4.305Zm5.054 0 .015 3.763.329.245 5.203-3.776-.009-.232h-5.538Zm5.581 1.132-4.606 3.344 4.873 3.618-.267-6.962Zm-.287 7.483-4.955-3.678-.319.231.014 3.447h5.26Zm-5.381-30.902h4.621l-4.549 4.785-.054-.057-.018-4.728Zm4.804.895-4.215 4.433 4.57 4.807-.355-9.24Zm.191 10.155-4.923-5.178-.049.051.02 5.127h4.952Zm-5.722-5.425-.003-.596-4.374-4.6-.326 10.142 4.703-4.946Zm-3.75-5.625 3.743 3.937-.015-3.937h-3.728Zm3.771 11.05-.017-4.342-4.129 4.342h4.146Zm.752.749h4.724l-4.545 4.311-.163-.142-.016-4.169Zm-.735 3.515-.014-3.515h-4.022l4.036 3.515Zm.004.997-4.795-4.177-.303 9.404h.283l4.817-4.568-.002-.659Zm.931.811-.178.169.016 4.247h5.233l-5.071-4.416Zm.546-.518 4.774 4.158-.321-8.38-4.453 4.222Zm-1.457 4.934-.014-3.539-3.732 3.539h3.746Zm-.087-22.287h-3.301l3.288-3.159.013 3.159Zm-4.296-.083 4.279-4.111-.002-.502-4.022-3.802-.273 8.498h.098l-.08-.083Zm.826-8.907h3.435l.012 3.259-3.447-3.259Zm4.199 3.97-.015-3.97h4.26l-4.188 4.024-.057-.054Zm.602.57 3.849-3.699.293 7.614-4.142-3.915Zm-.54.519 4.157 3.931h-4.199l-.015-3.876.057-.055Zm-.112-13.861h3.53l-3.517 3.373-.013-3.373Zm-4.674 7.869 3.941-3.78-.001-.377-3.699-3.328-.241 7.485Zm.935-7.869 3.001 2.701-.011-2.701h-2.99Zm7.888.445-3.58 3.433 3.844 3.459-.264-6.892Zm-.06 7.608-4.062-3.655-.01.009.015 3.646h4.057Zm-4.806 0-.012-2.93-3.055 2.93h3.067Zm-.035-8.802h-2.737l2.725-2.974.012 2.974Zm-3.64-.124 3.624-3.954-.003-.731-3.36-3.4351-.261 8.1201Zm.946-8.4914h2.66l.011 2.7304-2.671-2.7304Zm3.53 3.6084-.107-.109-.013-3.4994h3.428l-3.308 3.6084Zm.524.537 3.19-3.48.269 7.015-3.459-3.535Zm-.507.553 3.832 3.917h-3.936l-.015-3.788.119-.129Zm3.982 3.917h.02l-.001-.019-.019.019Zm-4.54 75.289h-5.499l5.481-4.492.018 4.492Zm-6.353-.269 6.332-5.188-.002-.311-6.001-4.721-.329 10.22Zm1.304-10.407 5.023 3.952-.016-3.952h-5.007Zm5.756 0 .018 4.543.04.031 5.581-4.574h-5.639Zm6.346.39-5.685 4.659 6.047 4.756-.362-9.415Zm.256 10.286-6.535-5.141-.045.037.02 5.104h6.56Z" clip-rule="evenodd"/>
  <path fill="#FBBCA3" fill-rule="evenodd" d="M834.424 52.1663V33.9995h-.374v2.0602h-6.368v-1.6856h-.375V52.3535H829.893l-2.22 1.3666-.172.1056-.006.2014-.386 11.9863-.217 6.7423-.289 8.9897-.268 8.3181-.048.0505.045.0431v.0162l-.289 8.9897-.302 9.364-.283 8.803-.313 9.739-.38 11.799-.337 10.488-.301 9.364-.44 13.672-.368 11.424-.319 9.926.749.025.307-9.559 6.408 4.966.002.314-6.567 4.903.449.6 6.121-4.571.022 5.583.749-.003-.024-6.138.069-.051 7.059 5.47.013.361.749-.029-.022-.573.064-.083-.069-.054-.426-11.089-.438-11.424-.524-13.672-.36-9.365-.402-10.488-.452-11.799-.374-9.739-.338-8.802-.359-9.3643-.345-8.9897-.323-8.4279-.345-8.9897-.258-6.7423-.031-.7968.019-.0196-.021-.02-.012-.3299.068-.0877-.074-.0573-.409-10.675-.009-.2216-.198-.0991-2.701-1.3506h3.657v-.1872Zm-6.742-14.9829v7.1168h6.368v-7.1168h-6.368Zm0 8.2406h6.368v6.555h-6.368v-6.555Zm5.466 14.4241.176 4.5715-2.244-2.1758 1.913-2.5509.155.1552Zm-.042-1.1017-.171-4.4714-2.254-1.1269.012 3.1854 2.413 2.4129Zm-3.165-3.165-.009-2.3719-1.463.9001 1.472 1.4718Zm-1.725-.666 1.729 1.7297.018 4.5156-1.889-1.832.142-4.4133Zm2.481 2.4818 1.761 1.7605-1.745 2.3262-.016-4.0867Zm2.248 7.6989-2.226-2.1587.011 2.7135h1.784l.431-.5548Zm-2.978-2.8879-1.926-1.8676-.158 4.9172 2.085-2.7803-.001-.2693Zm8.339 132.0958-.363-9.464-6.035 4.506 6.398 4.958Zm-7.012-5.435 6.25-4.666h-6.35l.018 4.603.082.063Zm-.833-.645-.016-4.021h-5.172l5.188 4.021Zm-.386-98.4132h-2.463l2.453-2.5697.01 2.5697Zm-2.964-.5599 2.95-3.0904-.002-.4521-2.733-3.143-.215 6.6855Zm.831-7.1189h2.103l.01 2.4295-2.113-2.4295Zm2.87 4.4418.012 3.237h2.802l-2.814-3.237Zm3.466 3.9861.051.0585.001.0392-.102-.0977h.05Zm.005-1.1359-3.004-3.4545 2.76-2.892.244 6.3465Zm-3.476-4.0451 3.099-3.2469h-3.112l.013 3.2469ZM828.418 66.4h1.566l.006 1.525-1.572-1.525Zm1.539 2.5377-2.287 2.9409.161-5.0046 2.126 2.0637Zm.789.7652 2.771 2.6903h-2.761l-.01-2.6903Zm2.846 1.719-2.631-2.5542L832.88 66.4h.52l.192 5.0219Zm-3.573 4.1044-1.927-2.384h1.918l.009 2.384Zm.007 1.8113-.002-.614-2.414-2.9855-.222 6.8971 2.638-3.2976Zm3.765 4.0453-3.014-3.7282.014 3.7282h3Zm-2.558-4.3549 2.703 3.3422-.246-6.4125-2.457 3.0703Zm-1.191 4.3549h-2.293l2.282-2.852.011 2.852Zm.717-8.2406h2.624l-2.611 3.2634-.013-3.2634Zm-.761-3.0368-1.779 2.2877h1.788l-.009-2.2877Zm1.933-3.7055-1.192 1.5331-.006-1.5331h1.198Zm-1.958-2.6804-1.448 1.9313h1.456l-.008-1.9313Zm.424 108.3094h-5.536l5.516-5.279.02 5.279Zm-5.928-.662 5.904-5.65-.001-.091-5.547-5.313-.356 11.054Zm.388-12.06.007-.2h5.483l.021 5.478-5.511-5.278Zm6.646 6.365 5.503-5.267.419 10.939-5.922-5.672Zm-.379.674 5.934 5.683h-5.912l-.022-5.683Zm-.005-1.344 5.848-5.597-.011-.298h-5.86l.023 5.895Zm-1.024-70.2615-.001-.1529-3.047-3.3309-.223 6.9098 3.271-3.426Zm-2.671-4.1806 2.666 2.9131-.012-2.9131h-2.654Zm6.933.7999-3.166 3.317 3.438 3.7574-.272-7.0744Zm-3.497 7.4407-.014-3.3906 3.102 3.3906h-3.088Zm-.033-8.2406.014 3.399 3.244-3.399h-3.258Zm-.728 5.2611-2.844 2.9795h2.855l-.011-2.9795Zm.245 62.536h-4.014l4.002-2.904.012 2.904Zm-5.13-.115 5.115-3.712-.003-.647-5.171-3.839-.267 8.313h.41l-.084-.115Zm.791-8.5 4.318 3.205-.013-3.205h-4.305Zm5.054 0 .015 3.763.329.245 5.203-3.776-.009-.232h-5.538Zm5.581 1.132-4.606 3.344 4.873 3.618-.267-6.962Zm-.287 7.483-4.955-3.678-.319.231.014 3.447h5.26Zm-5.381-30.902h4.621l-4.549 4.785-.054-.057-.018-4.728Zm4.804.895-4.215 4.433 4.57 4.807-.355-9.24Zm.191 10.155-4.923-5.178-.049.051.02 5.127h4.952Zm-5.722-5.425-.003-.596-4.374-4.6-.326 10.142 4.703-4.946Zm-3.75-5.625 3.743 3.937-.015-3.937h-3.728Zm3.771 11.05-.017-4.342-4.129 4.342h4.146Zm.752.749h4.724l-4.545 4.311-.163-.142-.016-4.169Zm-.735 3.515-.014-3.515h-4.022l4.036 3.515Zm.004.997-4.795-4.177-.303 9.404h.283l4.817-4.568-.002-.659Zm.931.811-.178.169.016 4.247h5.233l-5.071-4.416Zm.546-.518 4.774 4.158-.321-8.38-4.453 4.222Zm-1.457 4.934-.014-3.539-3.732 3.539h3.746Zm-.087-22.287h-3.301l3.288-3.159.013 3.159Zm-4.296-.083 4.279-4.111-.002-.502-4.022-3.802-.273 8.498h.098l-.08-.083Zm.826-8.907h3.435l.012 3.259-3.447-3.259Zm4.199 3.97-.015-3.97h4.26l-4.188 4.024-.057-.054Zm.602.57 3.849-3.699.293 7.614-4.142-3.915Zm-.54.519 4.157 3.931h-4.199l-.015-3.876.057-.055Zm-.112-13.861h3.53l-3.517 3.373-.013-3.373Zm-4.674 7.869 3.941-3.78-.001-.377-3.699-3.328-.241 7.485Zm.935-7.869 3.001 2.701-.011-2.701h-2.99Zm7.888.445-3.58 3.433 3.844 3.459-.264-6.892Zm-.06 7.608-4.062-3.655-.01.009.015 3.646h4.057Zm-4.806 0-.012-2.93-3.055 2.93h3.067Zm-.035-8.802h-2.737l2.725-2.974.012 2.974Zm-3.64-.124 3.624-3.954-.003-.731-3.36-3.4351-.261 8.1201Zm.946-8.4914h2.66l.011 2.7304-2.671-2.7304Zm3.53 3.6084-.107-.109-.013-3.4994h3.428l-3.308 3.6084Zm.524.537 3.19-3.48.269 7.015-3.459-3.535Zm-.507.553 3.832 3.917h-3.936l-.015-3.788.119-.129Zm3.982 3.917h.02l-.001-.019-.019.019Zm-4.54 75.289h-5.499l5.481-4.492.018 4.492Zm-6.353-.269 6.332-5.188-.002-.311-6.001-4.721-.329 10.22Zm1.304-10.407 5.023 3.952-.016-3.952h-5.007Zm5.756 0 .018 4.543.04.031 5.581-4.574h-5.639Zm6.346.39-5.685 4.659 6.047 4.756-.362-9.415Zm.256 10.286-6.535-5.141-.045.037.02 5.104h6.56Z" clip-rule="evenodd"/>
  <defs>
    <linearGradient id="a" x1="683.5" x2="725.317" y1="30.4988" y2="278.031" gradientUnits="userSpaceOnUse">
      <stop stop-color="#FFE5C9"/>
      <stop offset="1" stop-color="#FAAE96"/>
    </linearGradient>
  </defs>
</svg>
