<svg xmlns="http://www.w3.org/2000/svg" width="200" height="52" fill="none">
  <g clip-path="url(#a)">
    <mask id="b" width="200" height="52" x="0" y="0" maskUnits="userSpaceOnUse" style="mask-type:luminance">
      <path fill="#fff" d="M200 .3999H0v51.2h200v-51.2Z"/>
    </mask>
    <g mask="url(#b)">
      <mask id="c" width="200" height="52" x="0" y="0" maskUnits="userSpaceOnUse" style="mask-type:luminance">
        <path fill="#fff" d="M199.68.3999H0v51.2003h199.68V.3999Z"/>
      </mask>
      <g mask="url(#c)">
        <path fill="#E85231" d="M50.9795 22.8079c-.2795-2.0974-.907-4.1483-1.3723-6.2217h-.076c-7.5136 6.1414-15.4438 12.2878-22.9586 18.4254.277-1.4851.7672-2.7885 1.0928-4.1394 1.3586-5.5932-1.2611-11.2115-6.1587-13.3176-5.4053-2.3244-12.1092-.5419-15.561 4.2573-3.5141 4.8845-3.806 10.2407-1.759 15.7399 3.493 9.3913 14.0965 15.268 24.5752 13.8331 11.8399-1.6207 24.2522-13.3402 22.2176-28.577Z"/>
        <path fill="#E85231" d="M12.7782 14.7687c9.3024-2.7031 18.6572-5.2244 27.9884-7.8235.4128-.1154.8232-.242 1.3123-.3876C35.7603.4175 23.1334-2.3145 12.7121 3.9812 3.6667 9.4464-2.3823 22.8769.9073 30.487c.1247-1.0134.1859-1.8726.3343-2.7181 1.1826-6.7184 5.0572-11.1187 11.5366-13.0003Z"/>
        <path fill="#fff" d="m69.12 36.1778 6.2538-19.8985h5.0408l6.2539 19.8985h-4.1512L81.2502 32.01h-6.7929l-1.24 4.1678H69.12Zm6.2808-7.7443h4.9061l-2.4531-8.7392-2.453 8.7392ZM93.0011 36.3393c-1.1321 0-2.0846-.2331-2.8573-.6992-.7728-.484-1.3569-1.2549-1.7521-2.3125-.3775-1.0757-.5663-2.4829-.5663-4.2217 0-1.7927.1618-3.2448.4853-4.3562.3415-1.1115.9075-1.9272 1.6983-2.447.7907-.5199 1.8779-.7799 3.2617-.7799.665 0 1.3208.0719 1.9679.2152.6468.1255 1.2219.2778 1.7251.4571v-6.5342h4.0163v20.517h-3.3693l-.647-1.3714c-.3055.2869-.6829.5467-1.1322.7798-.4312.233-.8896.4213-1.3747.5647-.4853.1254-.9704.1883-1.4557.1883Zm1.4018-3.2c.539 0 1.0243-.0896 1.4557-.269.4492-.1792.8176-.3584 1.1051-.5377v-7.2602a41.411 41.411 0 0 0-1.1322-.3765c-.3953-.1256-.8176-.1883-1.2669-.1883-.6649 0-1.2041.1167-1.6174.3496-.3954.2331-.6829.6723-.8626 1.3176-.1796.6275-.2696 1.5418-.2696 2.7427 0 1.1116.081 1.981.2426 2.6084.1798.6096.4584 1.0308.8357 1.2638.3774.2331.8806.3496 1.5096.3496ZM107.612 36.1779 102.76 21.738h4.124l3.127 10.756 3.208-10.756h4.07l-5.068 14.4399h-4.609ZM124.754 36.3121c-1.6 0-2.876-.206-3.828-.6184-.952-.4302-1.644-1.1832-2.076-2.2587-.413-1.0757-.62-2.5635-.62-4.4637 0-1.954.198-3.4688.593-4.5444.396-1.0756 1.061-1.8285 1.995-2.2588.935-.4302 2.202-.6454 3.801-.6454 1.438 0 2.588.1435 3.45.4302.863.2869 1.483.7888 1.86 1.506.396.7169.593 1.7299.593 3.0385 0 .968-.197 1.7389-.593 2.3125-.377.5557-.916.959-1.617 1.2101-.701.2329-1.528.3496-2.48.3496h-3.639c.036.7349.144 1.3265.323 1.7747.198.4302.548.744 1.052.9411.521.1792 1.267.269 2.237.269h4.232v2.3393c-.701.1434-1.473.2869-2.318.4303-.827.1254-1.815.1881-2.965.1881Zm-2.615-8.3089h3.289c.539 0 .934-.1075 1.186-.3226.251-.2152.377-.6006.377-1.1563 0-.5198-.081-.9322-.242-1.237-.162-.3227-.414-.5467-.755-.6723-.342-.1433-.8-.215-1.375-.215-.611 0-1.096.1075-1.456.3227-.359.1971-.62.5557-.781 1.0755-.162.5199-.243 1.2549-.243 2.205ZM133.14 36.1777V21.7379h3.073l.917 2.2049c.521-.6633 1.105-1.228 1.752-1.694.665-.4661 1.446-.6992 2.345-.6992.198 0 .395.0089.593.0268.216.0181.413.054.593.1077v4.0872a11.7935 11.7935 0 0 0-.862-.0806 6.764 6.764 0 0 0-.836-.0538c-.521 0-.997.0627-1.429.1882a3.9567 3.9567 0 0 0-1.159.5109c-.341.2152-.674.502-.997.8604v8.9813h-3.99ZM150.301 36.1779c-1.114 0-2.022-.1613-2.723-.484-.682-.3227-1.177-.8605-1.482-1.6135-.306-.7528-.441-1.7657-.405-3.0385l.135-6.104h-2.264v-2.5546l2.399-.6453.539-4.0334h3.154v4.0334h3.397v3.1999h-3.397v6.0771c0 .3944.036.7171.108.968.072.251.171.4573.296.6185.144.1434.306.2509.486.3228.179.0716.359.1164.539.1344l1.833.1613v2.9579h-2.615ZM161.478 36.3121c-1.185 0-2.2-.1164-3.045-.3494-.845-.251-1.537-.6634-2.076-1.237-.521-.5737-.907-1.3355-1.159-2.2856-.233-.9502-.35-2.1243-.35-3.5227 0-1.4699.117-2.68.35-3.6301.252-.968.638-1.7209 1.159-2.2587.539-.5557 1.231-.9411 2.076-1.1563.863-.233 1.877-.3496 3.045-.3496 1.205 0 2.229.1166 3.074.3496.845.2331 1.528.6275 2.048 1.1832.539.5378.926 1.2907 1.16 2.2587.251.9501.378 2.1512.378 3.6032 0 1.4343-.117 2.6352-.351 3.6034-.233.9501-.611 1.703-1.133 2.2587-.521.5557-1.212.9501-2.075 1.1832-.845.233-1.878.3494-3.101.3494Zm0-3.1729c.487 0 .89-.0448 1.215-.1344.341-.0896.609-.269.808-.5378.216-.2869.377-.7171.485-1.2907.108-.5738.161-1.3266.161-2.2589 0-.9501-.053-1.703-.161-2.2587-.108-.5736-.269-.9949-.485-1.2638-.199-.2868-.467-.4751-.808-.5647-.325-.0896-.728-.1344-1.215-.1344-.467 0-.87.0448-1.212.1344-.323.0896-.593.2779-.809.5647-.215.2689-.377.6902-.485 1.2638-.09.5557-.135 1.3086-.135 2.2587 0 .9323.045 1.6851.135 2.2589.108.5736.27 1.0038.485 1.2907.216.2688.486.4482.809.5378.342.0896.745.1344 1.212.1344ZM170.784 36.1778V21.7379h3.29l.7 1.4789c.54-.4482 1.213-.8426 2.021-1.183.827-.3586 1.672-.538 2.535-.538 1.185 0 2.102.2332 2.748.6992.648.4661 1.098 1.0935 1.349 1.8823.269.7709.403 1.6313.403 2.5814v9.5191h-3.988v-9.0082c0-.4661-.09-.8515-.269-1.1562-.163-.3048-.397-.5379-.701-.6992-.306-.1612-.675-.2419-1.106-.2419-.377 0-.745.0448-1.105.1344a5.1624 5.1624 0 0 0-.997.3765 6.6697 6.6697 0 0 0-.89.5647v10.0299h-3.99ZM192.909 36.3121c-1.6 0-2.877-.206-3.829-.6184-.952-.4302-1.645-1.1832-2.075-2.2587-.413-1.0757-.621-2.5635-.621-4.4637 0-1.954.198-3.4688.594-4.5444.395-1.0756 1.06-1.8285 1.995-2.2588.934-.4302 2.201-.6454 3.8-.6454 1.438 0 2.589.1435 3.451.4302.862.2869 1.482.7888 1.859 1.506.395.7169.594 1.7299.594 3.0385 0 .968-.199 1.7389-.594 2.3125-.377.5557-.917.959-1.617 1.2101-.701.2329-1.527.3496-2.48.3496h-3.639c.035.7349.144 1.3265.323 1.7747.199.4302.549.744 1.052.9411.521.1792 1.267.269 2.238.269h4.232v2.3393c-.701.1434-1.474.2869-2.318.4303-.828.1254-1.816.1881-2.965.1881Zm-2.616-8.3089h3.289c.54 0 .935-.1075 1.186-.3226.251-.2152.378-.6006.378-1.1563 0-.5198-.082-.9322-.244-1.237-.161-.3227-.412-.5467-.753-.6723-.343-.1433-.8-.215-1.376-.215-.611 0-1.096.1075-1.455.3227-.36.1971-.62.5557-.782 1.0755-.162.5199-.243 1.2549-.243 2.205Z"/>
      </g>
    </g>
  </g>
  <defs>
    <clipPath id="a">
      <path fill="#fff" d="M0 .3999h200v51.2H0z"/>
    </clipPath>
  </defs>
</svg>
