<svg xmlns="http://www.w3.org/2000/svg" width="200" height="40" fill="none">
  <g clip-path="url(#a)">
    <path fill="#36E1C3" fill-rule="evenodd" d="M36.7785 12.997c1.0762 2.6695-1.0584 5.2925-3.9229 5.5734-2.7917.2738-5.1998-1.9169-6.9499-4.109a9.08 9.08 0 0 0-.8307-.9069c-1.5326-1.4615-3.5213-2.3355-5.6096-2.4652-2.0881-.1297-4.1389.4935-5.7841 1.7576-1.6452 1.2642-2.7771 3.0865-3.1925 5.1398-.4154 2.0534-.0871 4.2035.9259 6.064 1.013 1.8608 2.6445 3.31 4.6015 4.0881 1.957.7781 4.1114.8338 6.0765.1572.2762-.095.546-.2037.8088-.3252 2.6407-1.2218 5.887-2.3082 8.39-.8243 2.4474 1.451 3.3204 4.6706 1.291 6.665a18.5766 18.5766 0 0 1-6.9777 4.3167c-4.2716 1.4707-8.9546 1.3494-13.2087-.3418-4.254-1.6912-7.8003-4.8419-10.0023-8.8864S-.522 20.1821.381 15.7186 3.7446 7.2939 7.3207 4.5461C10.897 1.7982 15.3547.4437 19.8938.7255c4.5392.282 8.8624 2.1818 12.1937 5.3586a19.7697 19.7697 0 0 1 4.691 6.9129Zm-2.4027 12.0341c-.9741-1.6745.1489-3.6451 2.0102-4.1823 1.8971-.5474 3.8364.7064 5.3224 2.0063.0889.0779.1801.153.2739.2257 1.0411.8075 2.3127 1.2459 3.6219 1.2482 1.3092.0025 2.5848-.4309 3.6334-1.2344 1.0487-.8038 1.8132-1.9339 2.1777-3.2191a6.2696 6.2696 0 0 0-.1572-3.9035c-.4668-1.2478-1.3194-2.3051-2.429-3.0117-1.1094-.7066-2.4153-1.0238-3.7197-.9038a6.0295 6.0295 0 0 0-.2653.0305c-1.9821.2733-4.333.307-5.6591-1.1911-1.2868-1.4538-1.1889-3.7248.5334-4.6209 1.4814-.7708 3.1017-1.252 4.777-1.4062 2.8351-.261 5.6735.4287 8.0854 1.9646 2.4117 1.5358 4.2652 3.8341 5.2796 6.5466 1.0146 2.7125 1.1346 5.6913.3421 8.4851-.7925 2.7938-2.4545 5.2501-4.7338 6.9971-2.2793 1.747-5.0522 2.6891-7.8981 2.6837-2.8457-.0054-5.6098-.958-7.8729-2.7133-1.3451-1.0435-2.4699-2.3368-3.3219-3.8015Z" clip-rule="evenodd"/>
    <path fill="gold" d="M36.386 20.8489c-1.8614.5372-2.9843 2.5078-2.0102 4.1823.852 1.4647 1.9768 2.758 3.3219 3.8014 2.263 1.7554 5.0271 2.708 7.8729 2.7134 2.8459.0054 5.6187-.9367 7.8981-2.6837 2.2793-1.747 3.9413-4.2034 4.7338-6.9971.7925-2.7938.6724-5.7726-.3422-8.4851-1.0144-2.7125-2.8678-5.0107-5.2795-6.5466-2.4119-1.5358-5.2503-2.2255-8.0854-1.9646-1.6754.1543-3.2956.6355-4.777 1.4062-1.7224.8961-1.8203 3.1671-.5334 4.6209 1.3261 1.4981 3.677 1.4644 5.659 1.1911a6.034 6.034 0 0 1 .2654-.0305c1.3044-.12 2.6102.1973 3.7196.9038 1.1096.7066 1.9622 1.7639 2.429 3.0117a6.269 6.269 0 0 1 .1572 3.9035c-.3645 1.2852-1.129 2.4153-2.1776 3.219-1.0487.8036-2.3242 1.237-3.6334 1.2345-1.3092-.0023-2.5808-.4405-3.6219-1.2482a5.9465 5.9465 0 0 1-.274-.2257c-1.486-1.2999-3.4252-2.5537-5.3223-2.0063Z"/>
    <path fill="#36E1C3" d="M72.1275 26.4894a.6513.6513 0 0 1-.6515-.6513v-3.3664a.6515.6515 0 0 1 .6515-.6516h14.5059a.6514.6514 0 0 1 .6513.6516v3.3664a.6513.6513 0 0 1-.6515.6513H72.1275ZM82.8394 8.2087c.2541 0 .485.1478.5915.3786l9.9584 21.5863c.1992.4315-.116.9242-.5916.9242h-4.6921a.6516.6516 0 0 1-.5958-.3877L79.839 13.3799c-.1142-.2582-.4806-.2586-.5954-.0007l-7.7175 17.3322a.6518.6518 0 0 1-.5952.3864h-4.7226c-.4757 0-.791-.4931-.5912-.9251l9.9873-21.586a.6511.6511 0 0 1 .5912-.378h6.6438ZM114.752 17.517c.36 0 .652.2917.652.6515v2.9697a.6519.6519 0 0 1-.652.6515H99.4833a.6514.6514 0 0 1-.6513-.6515v-2.9697a.6514.6514 0 0 1 .6513-.6515h15.2687Zm-13.54 2.3646v5.8344c0 .3599.292.6515.652.6515h13.865c.36 0 .651.2917.651.6514v3.4275a.6509.6509 0 0 1-.651.6514H96.0958a.6514.6514 0 0 1-.6515-.6514V8.8602a.6514.6514 0 0 1 .6515-.6515h19.4802c.36 0 .652.2917.652.6515v3.4275a.6518.6518 0 0 1-.652.6515h-13.712c-.36 0-.652.2916-.652.6514v6.291ZM124.166 18.9315c0-.3599.292-.6515.651-.6515h7.925c1.078 0 1.933-.2442 2.563-.7325.631-.5086.946-1.2106.946-2.1058s-.315-1.587-.946-2.0753c-.63-.5086-1.485-.7629-2.563-.7629h-6.155a.6515.6515 0 0 0-.651.6514v17.1915a.6515.6515 0 0 1-.651.6514h-4.466a.6509.6509 0 0 1-.651-.6514V8.8602a.651.651 0 0 1 .651-.6515h12.686c1.709 0 3.204.3052 4.486.9156 1.282.6104 2.279 1.4547 2.991 2.5331.712 1.0783 1.068 2.3398 1.068 3.7843 0 1.4242-.356 2.6755-1.068 3.7538-.712 1.0784-1.709 1.9227-2.991 2.5332-1.282.6102-6.686.9154-8.395.9154h-4.779a.6515.6515 0 0 1-.651-.6515v-3.0611Zm4.499 2.503c-.329-.4285-.024-1.0487.517-1.0487h4.861c.2 0 .388.0917.512.2488l7.398 9.4091c.337.4274.032 1.0541-.512 1.0541h-5.021a.6524.6524 0 0 1-.517-.2543l-7.238-9.409ZM158.012 31.5861c-2.686 0-5.046-.4983-7.081-1.4954-2.014-.9968-3.581-2.3906-4.7-4.181-1.119-1.7904-1.678-3.876-1.678-6.2564 0-2.3804.559-4.4659 1.678-6.2563 1.119-1.7905 2.686-3.1842 4.7-4.1811 2.035-.997 4.395-1.4954 7.081-1.4954 2.685 0 5.035.4984 7.049 1.4954 2.035.9969 3.612 2.3906 4.731 4.1811 1.139 1.7904 1.709 3.8759 1.709 6.2563 0 2.3804-.57 4.466-1.709 6.2564-1.119 1.7904-2.696 3.1842-4.731 4.181-2.014.9971-4.364 1.4954-7.049 1.4954Zm0-5.1576c1.587 0 2.95-.2645 4.089-.7935 1.14-.5493 2.014-1.3326 2.625-2.3499.63-1.0173.946-2.2279.946-3.6318 0-1.4038-.316-2.6144-.946-3.6317-.611-1.0173-1.485-1.7905-2.625-2.3194-1.139-.5494-2.502-.824-4.089-.824-1.567 0-2.92.2746-4.059.824-1.14.5289-2.025 1.3021-2.655 2.3194-.631 1.0173-.947 2.2279-.947 3.6317 0 1.4039.316 2.6145.947 3.6318.63 1.0173 1.515 1.8006 2.655 2.3499 1.139.529 2.492.7935 4.059.7935ZM193.676 23.9441c.184.2572.59.1268.59-.1897V8.8602c0-.3598.292-.6515.652-.6515h4.282c.359 0 .651.2917.651.6515v21.5862a.6515.6515 0 0 1-.651.6514h-6.28a.6521.6521 0 0 1-.528-.2697L181.092 15.2c-.185-.256-.59-.125-.59.1909v15.0555a.6515.6515 0 0 1-.651.6514h-4.282a.6517.6517 0 0 1-.652-.6514V8.8602c0-.3598.292-.6515.652-.6515h6.491c.21 0 .407.1013.529.272l11.087 15.4634Z"/>
  </g>
  <defs>
    <clipPath id="a">
      <path fill="#fff" d="M0 .689h200v38.622H0z"/>
    </clipPath>
  </defs>
</svg>
