<svg xmlns="http://www.w3.org/2000/svg" width="100" height="80" fill="none">
  <g fill="#fff" clip-path="url(#a)">
    <path d="m93.7772 55.9398-40.8137.0013 5.874-9.9994h8.1096L52.5495 21.4321 63.0287 3.5915l30.7485 52.3483ZM40.9198 35.1075 30.3299 17.1209 40.076.5305 61.2313.533 40.9198 35.1075ZM49.5611 55.9411l-20.999-.0013L18.044 38.0347l10.4929-17.8614 21.0242 35.7678ZM16.2373 41.1047l-8.7118 14.835h17.4301l-8.7183-14.835ZM14.5386 76.1748H6.9274l-1.0427 2.8587H0l6.361-16.6309h8.6055l6.4506 16.6309h-5.7734l-1.1051-2.8587Zm-1.1329-3.2372-2.6313-7.2111h-.0553l-2.5764 7.2111h5.263ZM35.1889 72.7375h5.8291v.4873c0 .5987-.0148 1.0889-.045 1.4696-.0298.3807-.106.7668-.2277 1.1586-.1222.3918-.3143.76-.5765 1.1046-.2626.3447-.6309.6736-1.1051.9878-.5942.3786-1.2445.6575-1.9511.8362-.7067.1787-1.41.288-2.1102.3273-.6998.0401-1.5905.0602-2.6728.0602-1.7406 0-3.1632-.0526-4.2682-.157-1.1051-.1044-2.096-.3585-2.9733-.7608-.8769-.4029-1.5539-1.0341-2.0304-1.8953-.4766-.8603-.7147-2.0232-.7147-3.4885v-4.299c0-1.7609.3831-3.0989 1.1497-4.014.767-.9151 1.8548-1.5249 3.2635-1.8302 1.409-.3045 3.2667-.4575 5.5734-.4575 1.9707 0 3.5848.1649 4.8418.493 1.257.3288 2.2078.8907 2.8524 1.6867.6445.7953.9666 1.8883.9666 3.2776v.6445h-5.8292v-.6445c-.0643-.4728-.2406-.8237-.5282-1.0528-.2879-.2292-.6575-.3772-1.1085-.4437-.4513-.0672-1.057-.1003-1.8166-.1003-1.068 0-1.8499.0955-2.3447.2872-.4949.1911-.8175.4983-.9669.9227-.1495.4243-.2243 1.0715-.2243 1.9408v2.593c0 .7329.0312 1.295.0932 1.6867.0623.3918.2059.7205.4315.9878s.5734.461 1.0431.5822c.4697.1211 1.1259.1813 1.9681.1813.8888 0 1.5703-.0422 2.0443-.1274.4742-.0843.8323-.2747 1.0739-.571.242-.2956.3628-.7579.3628-1.3858v-.4873ZM53.3528 66.2629v12.7706h-5.6566V66.2629H42.261v-3.8603h16.8037v3.8603h-5.7119ZM66.814 66.0406v3.0373h9.0543v3.0802H66.814v3.2372h9.8486v3.6382H61.1575V62.4026h15.3047v3.6382H66.814v-.0002ZM99.5439 62.4026l-5.8545 8.0722L100 79.0335h-6.5867l-4.2187-6.4096-4.1843 6.4096h-6.6486l6.3659-8.5587-5.9655-8.0722h6.6145l3.818 6.0961 3.8456-6.0961h6.5037Z"/>
  </g>
  <defs>
    <clipPath id="a">
      <path fill="#fff" d="M0 .5h100v79H0z"/>
    </clipPath>
  </defs>
</svg>
