<svg xmlns="http://www.w3.org/2000/svg" width="200" height="66" fill="none">
  <path fill="#00B1E0" d="M59.7 26.1115h-7.5v-3.4H72v3.4h-7.5v17.2h-4.8v-17.2Zm-45.9 7c0 1.1.1 2 .3 2.9.2.9.5 1.6 1 2.2.4.6 1 1.1 1.8 1.5.7.4 1.7.5 2.8.5 1.1 0 2.1-.1 3.1-.3 1-.2 2-.5 3-.9l1.1 3.1c-1 .5-2.2.9-3.6 1.2-1.4.3-2.8.5-4.3.5-1.9 0-3.5-.3-4.8-.8-1.3-.5-2.3-1.3-3.1-2.2-.8-.9-1.3-2-1.6-3.3-.3-1.3-.5-2.6-.5-4.1 0-1.2.1-2.4.4-3.7.3-1.3.8-2.5 1.5-3.6.8-1.1 1.8-2 3.1-2.7 1.3-.7 3.1-1.1 5.2-1.1.9 0 2 .1 3.1.2s2.2.4 3.4.8l-.9 3.3c-1-.3-1.9-.5-2.7-.6h-2.3c-1.9 0-3.4.6-4.4 1.9-1.1 1.2-1.6 3-1.6 5.2Zm75.5999 10.2v-14H89.2l-9.7 14h-4.6001v-20.6H79.7v13.9h.1999l9.6001-13.9h4.7v20.6h-4.8001Zm-44.8999 0v-14h-.2l-9.7 14H30v-20.6h4.8v13.9h.2l9.6-13.9h4.6v20.6h-4.7Z"/>
  <path fill="#F05B72" d="M150.4 33.9116v6.1h5.2c.9 0 1.6-.3 2.3-.8.7-.5 1-1.3 1-2.4 0-.5-.1-1-.3-1.3-.2-.4-.4-.7-.8-.9-.3-.2-.7-.4-1.1-.5-.4-.1-.9-.2-1.4-.2h-4.9Zm-4.8-11.2h16v3.4h-11.2v4.7h5.8c1.1 0 2.2.1 3.1.4.9.3 1.7.6 2.4 1.2.7.5 1.2 1.1 1.5 1.9.4.8.6 1.6.6 2.7 0 1-.2 1.9-.5 2.7-.3.8-.8 1.5-1.4 2-.6.5-1.3 1-2.2 1.3-.9.3-1.8.4-2.9.4h-11.2v-20.7Zm-33.3 20.6v-17.2h-6.1l-.1 2.2c-.2 2.2-.3 4.3-.5 6.2-.2 1.9-.5 3.5-1 4.9-.5 1.4-1.3 2.5-2.3 3.4-1 .9-2.5 1.5-4.3 1.9l-1.2-3.1c1.1-.4 2-.9 2.7-1.6.6-.6 1.1-1.4 1.4-2.4.3-1 .5-2.3.6-3.8.1-1.5.2-3.4.3-5.6l.3-5.3h15.1v20.6h-4.9v-.2Zm17.2-8.7c-1.3.1-2.3.3-2.9.8-.6.5-.9 1.1-.9 1.9 0 .9.3 1.6.8 2 .6.5 1.5.7 2.8.7.8 0 1.7-.2 2.7-.5.9-.3 1.9-.8 2.7-1.4v-3.7l-5.2.2Zm9.8 5.4h2.8l.3 2.5c-.6.3-2.5 1.3-4.4 1.3-2.3 0-2.9-1.1-3.1-2.6h-.2c-.8.6-1.4 1.1-2.2 1.4-.8.4-1.5.6-2.1.8-.7.2-1.3.3-1.8.3h-1.3c-1.3 0-2.4-.2-3.2-.6-.8-.4-1.5-.9-2-1.5s-.8-1.3-1-1.9c-.2-.7-.3-1.3-.3-1.9 0-1 .2-1.9.7-2.6.4-.8 1.1-1.4 1.8-1.9.8-.5 1.7-.9 2.7-1.2 1-.3 2.2-.4 3.4-.5l5.3-.2v-1.2c0-1.5-.3-2.6-.9-3.2-.6-.6-1.8-.9-3.5-.9-1.1 0-2.2.1-3.4.3-1.2.2-2.3.5-3.4.8-.1-.5-.7-2.5-.9-3 1.2-.5 2.7-.9 4.2-1.2 1.6-.3 3.1-.4 4.6-.4 1.2 0 2.3.1 3.3.4 1 .2 1.8.6 2.5 1.2.7.5 1.2 1.3 1.6 2.2.4.9.6 2 .6 3.3v10.3h-.1ZM187 37.3116c-2.4.6-4.8-.9-5.4-3.2-.6-2.3.9-4.7 3.2-5.3 2.4-.6 4.8.9 5.4 3.2.6 2.3-.8 4.7-3.2 5.3Z"/>
  <path fill="#00B0E0" d="M177.5 14.7117c-1.5 1.4-1.5 3.8-.1 5.2 1.4 1.5 3.8 1.5 5.4.1 1.5-1.4 1.5-3.8.1-5.2-1.5-1.5-3.9-1.5-5.4-.1ZM163.9 7.3115c-.5 1.6.5 3.3 2.1 3.8 1.7.5 3.4-.4 3.9-2.1.5-1.6-.5-3.3-2.1-3.8-1.7-.5-3.4.4-3.9 2.1ZM177.5 51.4116c-1.5-1.4-1.5-3.8-.1-5.2 1.4-1.5 3.8-1.5 5.4-.1 1.5 1.4 1.5 3.8.1 5.2-1.5 1.4-3.9 1.5-5.4.1ZM163.9 58.8116c-.5-1.6.5-3.3 2.1-3.8 1.7-.5 3.4.4 3.9 2.1.5 1.6-.5 3.3-2.1 3.8-1.7.4-3.4-.5-3.9-2.1Z"/>
</svg>
