<svg xmlns="http://www.w3.org/2000/svg" width="200" height="37" fill="none">
  <path fill="#0079C2" d="M93.09 22.5415c-.06 0-.09-.0335-.09-.1006v-5.7886c0-.067.03-.1006.09-.1006h3.1038c.0599 0 .0899.0336.0899.1006v.5853c0 .067-.03.1006-.0899.1006h-2.3391v5.1027c0 .0671-.03.1006-.09.1006H93.09ZM96.1474 22.5415c-.0719 0-.0989-.0366-.0809-.1097l1.9792-5.8069c.018-.0488.054-.0732.108-.0732h.9086c.06 0 .099.0244.117.0732l1.9977 5.8069c.017.0731-.009.1097-.081.1097h-.729c-.06 0-.099-.0244-.117-.0731l-1.2866-4.0146c-.06-.1829-.12-.3688-.18-.5578a20.5732 20.5732 0 0 0-.1889-.567h-.009c-.054.1829-.111.3689-.1709.5579l-.18.5486-1.2775 4.0237c-.018.0549-.0539.0823-.1079.0823h-.7018Zm1.0706-1.3534.189-.7499h2.375l.198.7499h-2.762ZM103.565 22.6512c-.665 0-1.163-.131-1.493-.3932-.33-.2621-.492-.6645-.486-1.2071 0-.0366.009-.064.027-.0823.024-.0183.048-.0274.072-.0274h.657c.054 0 .081.0305.081.0914 0 .2988.087.5182.261.6585.18.1341.473.2011.881.2011.498 0 .861-.0823 1.089-.2469.234-.1707.351-.442.351-.8139 0-.3231-.108-.5608-.324-.7132-.216-.1524-.57-.2287-1.062-.2287h-.872c-.06 0-.09-.0335-.09-.1005v-.5487c0-.061.03-.0915.09-.0915h.728c.462 0 .795-.0792.999-.2377.21-.1646.315-.4207.315-.7682 0-.3292-.096-.567-.288-.7133-.192-.1524-.498-.2286-.918-.2286-.39 0-.671.0671-.845.2012-.174.1341-.261.3536-.261.6584 0 .061-.03.0915-.09.0915h-.657a.0857.0857 0 0 1-.063-.0275c-.018-.0183-.027-.0457-.027-.0823-.006-.5182.156-.9145.486-1.1888.336-.2743.84-.4115 1.511-.4115.672 0 1.176.1311 1.512.3932.336.2622.503.6493.503 1.1614 0 .3597-.092.6645-.278.9145-.18.2499-.429.4267-.747.5304v.0091c.414.0793.723.2347.927.4664.209.2316.314.5365.314.9144 0 .5792-.192 1.0273-.575 1.3443-.378.317-.954.4755-1.728.4755ZM107.165 22.5415c-.06 0-.09-.0335-.09-.1006v-5.7886c0-.067.03-.1006.09-.1006h4.3c.06 0 .09.0336.09.1006v5.7886c0 .0671-.03.1006-.09.1006h-.675c-.06 0-.09-.0335-.09-.1006v-5.1027h-2.771v5.1027c0 .0671-.03.1006-.09.1006h-.674ZM113.121 22.5415c-.06 0-.09-.0335-.09-.1006v-5.7886c0-.067.03-.1006.09-.1006h1.557c.737 0 1.289.1616 1.655.4847.372.317.558.7864.558 1.4083 0 .6157-.186 1.0852-.558 1.4083-.372.317-.924.4755-1.655.4755h-.792v2.1124c0 .0671-.03.1006-.09.1006h-.675Zm.765-2.9537h.774c.474 0 .818-.0884 1.034-.2652.222-.1829.333-.4664.333-.8505 0-.4145-.114-.7133-.342-.8962-.222-.189-.569-.2834-1.043-.2834h-.756v2.2953ZM120.128 22.6512c-.762 0-1.331-.1889-1.709-.5669-.372-.378-.558-.9145-.558-1.6095v-1.8564c0-.7011.186-1.2376.558-1.6094.378-.378.947-.567 1.709-.567.762 0 1.332.189 1.709.567.378.3718.567.9083.567 1.6094v1.8564c0 .695-.189 1.2315-.567 1.6095-.377.378-.947.5669-1.709.5669Zm0-.7681c.468 0 .822-.1219 1.062-.3658.24-.2439.359-.6005.359-1.0699v-1.8015c0-.4756-.119-.8322-.359-1.07-.24-.2438-.594-.3658-1.062-.3658-.456 0-.807.122-1.053.3658-.239.2378-.359.5944-.359 1.07v1.8015c0 .4694.12.826.359 1.0699.246.2439.597.3658 1.053.3658ZM123.722 22.5415c-.06 0-.09-.0335-.09-.1006l.126-5.7886c0-.067.03-.1006.09-.1006h1.017c.048 0 .084.0244.108.0732l1.547 3.5207 1.53-3.5207c.024-.0488.06-.0732.108-.0732h1.016c.06 0 .09.0336.09.1006l.126 5.7886c0 .0671-.03.1006-.09.1006h-.656c-.06 0-.09-.0335-.09-.1006l-.09-3.4567a12.7223 12.7223 0 0 1 0-.6767l.036-.695h-.027c-.09.2317-.183.4603-.279.6859a16.88 16.88 0 0 1-.306.6767l-1.26 2.7617c-.024.0487-.06.0731-.108.0731h-.027c-.048 0-.081-.0244-.099-.0731l-1.286-2.7983-.288-.6584c-.09-.2256-.177-.4481-.261-.6676h-.027c.012.2195.021.4451.027.6767.006.2256.006.4481 0 .6676l-.09 3.4841c0 .0671-.03.1006-.09.1006h-.657ZM130.824 22.5415c-.06 0-.09-.0335-.09-.1006v-5.7886c0-.067.03-.1006.09-.1006h.675c.06 0 .09.0336.09.1006v2.4325h2.78v-2.4325c0-.067.03-.1006.09-.1006h.675c.066 0 .099.0336.099.1006v5.7886c0 .0671-.033.1006-.099.1006h-.675c-.06 0-.09-.0335-.09-.1006v-2.5971h-2.78v2.5971c0 .0671-.03.1006-.09.1006h-.675ZM136.79 22.5415c-.06 0-.09-.0335-.09-.1006v-5.7886c0-.067.03-.1006.09-.1006h3.275c.06 0 .09.0336.09.1006v.5853c0 .067-.03.1006-.09.1006h-2.51v1.7832h2.294c.06 0 .09.0335.09.1006v.5578c0 .0671-.03.1006-.09.1006h-2.294v1.8747h2.51c.06 0 .09.0335.09.1006v.5852c0 .0671-.03.1006-.09.1006h-3.275ZM144.063 22.6512c-.558 0-1.044-.0792-1.458-.2377-.413-.1646-.734-.4176-.962-.759-.222-.3414-.333-.7804-.333-1.3169v-1.5729c0-.5425.114-.9845.342-1.3259.228-.3414.552-.5914.971-.7499.42-.1585.912-.2378 1.476-.2378h.675c.569 0 1.061.0793 1.475.2378.42.1585.744.4085.972.7499.233.3414.35.7834.35 1.3259v1.5729c0 .5365-.114.9755-.341 1.3169-.228.3414-.549.5944-.963.759-.414.1585-.9.2377-1.458.2377h-.746Zm.018-.7407h.72c.401 0 .743-.0548 1.025-.1646.288-.1158.507-.2926.657-.5304.156-.2438.234-.5548.234-.9327v-1.4632c0-.3841-.075-.695-.225-.9327-.15-.2378-.369-.4116-.657-.5213-.288-.1158-.633-.1737-1.034-.1737h-.72c-.408 0-.756.0579-1.044.1737-.282.1097-.501.2835-.657.5213-.15.2377-.224.5486-.224.9327v1.4632c0 .3779.074.6889.224.9327.156.2378.378.4146.666.5304.288.1098.633.1646 1.035.1646Zm.018 1.2894c-.066 0-.099-.0335-.099-.1006v-.7498l.027-.1372v-5.3314l-.027-.1371v-.7499c0-.0671.033-.1006.099-.1006h.666c.065 0 .098.0335.098.1006v.7499l-.018.1371v5.3314l.018.1372v.7498c0 .0671-.033.1006-.098.1006h-.666ZM150.095 22.5415c-.066 0-.099-.0335-.099-.1006v-5.1027h-1.602c-.06 0-.09-.0336-.09-.1006v-.5853c0-.067.03-.1006.09-.1006h4.067c.06 0 .09.0336.09.1006v.5853c0 .067-.03.1006-.09.1006h-1.602v5.1027c0 .0671-.033.1006-.099.1006h-.665ZM153.676 22.5415c-.06 0-.09-.0335-.09-.1006v-5.7886c0-.067.03-.1006.09-.1006h.675c.06 0 .09.0336.09.1006v2.0942h.953c.738 0 1.287.1524 1.647.4572.359.2987.539.7529.539 1.3626 0 .6401-.189 1.1308-.566 1.4722-.372.3354-.924.503-1.656.503h-1.682Zm.765-.7407h.89c.468 0 .816-.1006 1.044-.3018.234-.2073.351-.5182.351-.9327 0-.3841-.108-.6615-.324-.8322-.21-.1707-.558-.2561-1.044-.2561h-.917v2.3228ZM93.09 31.6862c-.06 0-.09-.0335-.09-.1006V25.797c0-.067.03-.1006.09-.1006h1.5564c.7377 0 1.2895.1616 1.6553.4847.3719.317.5578.7864.5578 1.4083 0 .6157-.1859 1.0852-.5578 1.4083-.3718.317-.9236.4755-1.6553.4755h-.7917v2.1124c0 .0671-.03.1006-.09.1006H93.09Zm.7647-2.9537h.7737c.4738 0 .8187-.0884 1.0346-.2652.2219-.1829.3328-.4664.3328-.8505 0-.4145-.1139-.7133-.3418-.8962-.2219-.189-.5698-.2834-1.0436-.2834h-.7557v2.2953ZM98.0275 31.6862c-.06 0-.09-.0335-.09-.1006V25.797c0-.067.03-.1006.09-.1006h3.2745c.06 0 .09.0336.09.1006v.5853c0 .067-.03.1006-.09.1006h-2.5098v1.7832h2.2938c.06 0 .09.0335.09.1006v.5578c0 .0671-.03.1006-.09.1006h-2.2938v1.8747h2.5098c.06 0 .09.0335.09.1006v.5852c0 .0671-.03.1006-.09.1006h-3.2745ZM102.842 31.6862c-.06 0-.09-.0335-.09-.1006V25.797c0-.067.03-.1006.09-.1006h3.104c.06 0 .09.0336.09.1006v.5853c0 .067-.03.1006-.09.1006h-2.339v5.1027c0 .0671-.03.1006-.09.1006h-.675ZM107.121 31.6862c-.06 0-.09-.0335-.09-.1006V25.797c0-.067.03-.1006.09-.1006h.647c.066 0 .099.0336.099.1006v2.7251c0 .3597-.006.6615-.018.9054-.006.2377-.015.442-.027.6127-.006.1646-.012.32-.018.4663h.018c.078-.1463.159-.3017.243-.4663.084-.1646.192-.3658.324-.6036.138-.2438.315-.5487.531-.9145l1.628-2.7617c.03-.0426.066-.064.108-.064h.747c.066 0 .099.0336.099.1006v5.7886c0 .0671-.033.1006-.099.1006h-.648c-.066 0-.099-.0335-.099-.1006v-2.6154c0-.445.009-.8504.027-1.2162.018-.3658.033-.6584.045-.8779h-.018c-.072.1402-.153.2926-.243.4572-.084.1646-.198.375-.341.631-.144.25-.342.5853-.594 1.0059l-1.557 2.652c-.03.0427-.066.064-.108.064h-.746ZM115.129 31.7959c-.762 0-1.331-.1889-1.709-.5669-.372-.378-.558-.9145-.558-1.6095v-1.8564c0-.7011.186-1.2376.558-1.6094.378-.378.947-.567 1.709-.567.762 0 1.331.189 1.709.567.378.3718.567.9083.567 1.6094v1.8564c0 .695-.189 1.2315-.567 1.6095-.378.378-.947.5669-1.709.5669Zm0-.7681c.468 0 .822-.1219 1.062-.3658.239-.2439.359-.6005.359-1.0699v-1.8015c0-.4756-.12-.8322-.359-1.07-.24-.2438-.594-.3658-1.062-.3658-.456 0-.807.122-1.053.3658-.24.2378-.359.5944-.359 1.07v1.8015c0 .4694.119.826.359 1.0699.246.2439.597.3658 1.053.3658ZM118.858 31.6862c-.06 0-.09-.0335-.09-.1006V25.797c0-.067.03-.1006.09-.1006h.675c.06 0 .09.0336.09.1006v2.4325h2.78V25.797c0-.067.03-.1006.09-.1006h.675c.066 0 .099.0336.099.1006v5.7886c0 .0671-.033.1006-.099.1006h-.675c-.06 0-.09-.0335-.09-.1006v-2.5971h-2.78v2.5971c0 .0671-.03.1006-.09.1006h-.675ZM124.077 31.6862c-.072 0-.099-.0366-.081-.1097l1.979-5.8069c.018-.0488.054-.0732.108-.0732h.909c.06 0 .099.0244.117.0732l1.997 5.8069c.018.0731-.009.1097-.081.1097h-.729c-.06 0-.099-.0244-.117-.0731l-1.286-4.0146c-.06-.1829-.12-.3688-.18-.5578-.06-.189-.123-.378-.189-.567h-.009a28.739 28.739 0 0 1-.171.5579l-.18.5486-1.277 4.0237c-.018.0549-.054.0823-.108.0823h-.702Zm1.071-1.3534.189-.7499h2.375l.198.7499h-2.762ZM129.375 31.6862c-.072 0-.099-.0366-.081-.1097l1.952-5.8069c.018-.0488.054-.0732.108-.0732h.909c.06 0 .099.0244.117.0732l1.97 5.8069c.018.0731-.009.1097-.081.1097h-.729c-.06 0-.099-.0244-.117-.0731l-1.268-4.0146c-.06-.1829-.12-.3688-.18-.5578l-.18-.567h-.009c-.054.1829-.108.3689-.162.5579a15.139 15.139 0 0 1-.171.5578l-1.268 4.0145c-.018.0549-.054.0823-.108.0823h-.702ZM135.173 31.6862c-.06 0-.09-.0335-.09-.1006V25.797c0-.067.03-.1006.09-.1006h.675c.06 0 .09.0336.09.1006v2.0942h.954c.737 0 1.286.1524 1.646.4572.36.2987.54.7529.54 1.3626 0 .6401-.189 1.1308-.567 1.4723-.372.3353-.924.5029-1.655.5029h-1.683Zm.765-.7407h.891c.467 0 .815-.1006 1.043-.3018.234-.2073.351-.5182.351-.9327 0-.3841-.108-.6615-.324-.8322-.21-.1707-.558-.2561-1.043-.2561h-.918v2.3228ZM140.26 31.6862c-.06 0-.09-.0335-.09-.1006V25.797c0-.067.03-.1006.09-.1006h.675c.06 0 .09.0336.09.1006v2.4325h2.78V25.797c0-.067.03-.1006.09-.1006h.675c.066 0 .099.0336.099.1006v5.7886c0 .0671-.033.1006-.099.1006h-.675c-.06 0-.09-.0335-.09-.1006v-2.5971h-2.78v2.5971c0 .0671-.03.1006-.09.1006h-.675ZM146.226 31.6862c-.06 0-.09-.0335-.09-.1006V25.797c0-.067.03-.1006.09-.1006h.674c.06 0 .09.0336.09.1006v2.0942h.954c.738 0 1.287.1524 1.646.4572.36.2987.54.7529.54 1.3626 0 .6401-.189 1.1308-.567 1.4723-.371.3353-.923.5029-1.655.5029h-1.682Zm.764-.7407h.891c.468 0 .816-.1006 1.044-.3018.234-.2073.35-.5182.35-.9327 0-.3841-.107-.6615-.323-.8322-.21-.1707-.558-.2561-1.044-.2561h-.918v2.3228Zm4.319.7407c-.06 0-.09-.0335-.09-.1006V25.797c0-.067.03-.1006.09-.1006h.674c.06 0 .09.0336.09.1006v5.7886c0 .0671-.03.1006-.09.1006h-.674ZM153.641 31.6862c-.06 0-.09-.0335-.09-.1006V25.797c0-.067.03-.1006.09-.1006h3.275c.059 0 .089.0336.089.1006v.5853c0 .067-.03.1006-.089.1006h-2.511v1.7832h2.295c.06 0 .09.0335.09.1006v.5578c0 .0671-.03.1006-.09.1006h-2.295v1.8747h2.511c.059 0 .089.0335.089.1006v.5852c0 .0671-.03.1006-.089.1006h-3.275ZM160.327 31.6862c-.06 0-.09-.0335-.09-.1006V25.797c0-.067.03-.1006.09-.1006h4.3c.06 0 .09.0336.09.1006v5.7886c0 .0671-.03.1006-.09.1006h-.675c-.06 0-.09-.0335-.09-.1006v-5.1027h-2.771v5.1027c0 .0671-.03.1006-.09.1006h-.674ZM166.283 31.6862c-.06 0-.09-.0335-.09-.1006V25.797c0-.067.03-.1006.09-.1006h1.557c.737 0 1.289.1616 1.655.4847.372.317.558.7864.558 1.4083 0 .6157-.186 1.0852-.558 1.4083-.372.317-.924.4755-1.655.4755h-.792v2.1124c0 .0671-.03.1006-.09.1006h-.675Zm.765-2.9537h.774c.474 0 .818-.0884 1.034-.2652.222-.1829.333-.4664.333-.8505 0-.4145-.114-.7133-.342-.8962-.222-.189-.569-.2834-1.043-.2834h-.756v2.2953ZM173.29 31.7959c-.762 0-1.331-.1889-1.709-.5669-.372-.378-.558-.9145-.558-1.6095v-1.8564c0-.7011.186-1.2376.558-1.6094.378-.378.947-.567 1.709-.567.762 0 1.332.189 1.709.567.378.3718.567.9083.567 1.6094v1.8564c0 .695-.189 1.2315-.567 1.6095-.377.378-.947.5669-1.709.5669Zm0-.7681c.468 0 .822-.1219 1.062-.3658.24-.2439.36-.6005.36-1.0699v-1.8015c0-.4756-.12-.8322-.36-1.07-.24-.2438-.594-.3658-1.062-.3658-.456 0-.807.122-1.052.3658-.24.2378-.36.5944-.36 1.07v1.8015c0 .4694.12.826.36 1.0699.245.2439.596.3658 1.052.3658ZM177.352 31.5673l-.872-.0274 1.871-5.7703c.018-.0488.057-.0732.117-.0732h.909c.054 0 .089.0244.107.0732l1.89 5.7703-.9.0274-1.088-3.539c-.072-.2621-.15-.5212-.234-.7773-.084-.256-.165-.5151-.243-.7773h-.009c-.084.2683-.165.5335-.243.7956-.078.2622-.159.5274-.243.7956l-1.062 3.5024Zm-1.061 1.326a.085.085 0 0 1-.072-.0366.0884.0884 0 0 1-.027-.064v-1.8015c0-.0305.009-.0518.027-.064.018-.0183.042-.0274.072-.0274h5.29c.03 0 .051.0091.063.0274.018.0122.027.0335.027.064v1.8015a.0884.0884 0 0 1-.027.064c-.012.0244-.033.0366-.063.0366h-.666a.085.085 0 0 1-.072-.0366.0884.0884 0 0 1-.027-.064v-1.1065h-3.77v1.1065a.0884.0884 0 0 1-.027.064c-.012.0244-.036.0366-.072.0366h-.656ZM182.01 31.6862c-.072 0-.099-.0366-.081-.1097l1.979-5.8069c.018-.0488.054-.0732.108-.0732h.909c.06 0 .099.0244.117.0732l1.997 5.8069c.018.0731-.009.1097-.081.1097h-.729c-.06 0-.099-.0244-.117-.0731l-1.286-4.0146c-.06-.1829-.12-.3688-.18-.5578-.06-.189-.123-.378-.189-.567h-.009a28.739 28.739 0 0 1-.171.5579l-.18.5486-1.278 4.0237c-.018.0549-.054.0823-.107.0823h-.702Zm1.07-1.3534.189-.7499h2.375l.198.7499h-2.762ZM187.34 31.6862c-.03 0-.054-.0091-.072-.0274-.018-.0244-.018-.0549 0-.0915l1.574-2.972-1.466-2.78c-.018-.0366-.021-.064-.009-.0823.018-.0244.045-.0366.081-.0366h.719c.024 0 .048.0061.072.0183a.0584.0584 0 0 1 .045.0457l1.305 2.5148h.882V25.797c0-.067.033-.1006.099-.1006h.656c.066 0 .099.0336.099.1006v2.4782h.9l1.313-2.5148c.012-.0243.027-.0396.045-.0457a.1577.1577 0 0 1 .072-.0183h.693c.03 0 .054.0122.072.0366.018.0183.018.0457 0 .0823l-1.466 2.78 1.574 2.972c.018.0366.018.0671 0 .0915-.018.0183-.045.0274-.081.0274h-.774c-.054 0-.093-.0213-.117-.064l-1.349-2.588h-.882v2.5514c0 .0671-.033.1006-.099.1006h-.656c-.066 0-.099-.0335-.099-.1006v-2.5514h-.9l-1.341 2.588c-.024.0427-.063.064-.117.064h-.773ZM195.619 31.6862c-.06 0-.09-.0335-.09-.1006V25.797c0-.067.03-.1006.09-.1006h.647c.066 0 .099.0336.099.1006v2.7251c0 .3597-.006.6615-.018.9054-.006.2377-.015.442-.027.6127-.006.1646-.012.32-.018.4663h.018c.078-.1463.159-.3017.243-.4663.084-.1646.192-.3658.324-.6036.138-.2438.315-.5487.531-.9145l1.628-2.7617c.03-.0426.066-.064.108-.064h.747c.066 0 .099.0336.099.1006v5.7886c0 .0671-.033.1006-.099.1006h-.648c-.066 0-.099-.0335-.099-.1006v-2.6154c0-.445.009-.8504.027-1.2162.018-.3658.033-.6584.045-.8779h-.018c-.072.1402-.153.2926-.243.4572-.084.1646-.198.375-.341.631-.144.25-.342.5853-.594 1.0059l-1.557 2.652c-.03.0427-.066.064-.108.064h-.746ZM22.4895 11.2817h4.6213v1.5099h-2.1983v10.6095h-2.423V11.2817Zm7.3611 7.5697.4153-6.0598h.139l.4153 6.0598h-.9696Zm-2.6832 4.5497h2.3723l.2244-3.2186h1.1425l.2254 3.2186h2.3713l-1.2636-12.1194H28.431l-1.2636 12.1194Zm9.8059-4.2417v2.2847c0 .308.2384.3974.3774.3974.2285 0 .3875-.1888.3875-.3974V18.623c0-.3775-.0696-.7947-.9736-.7947h-.9835v-1.3311h1.0232c.6855 0 .9339-.159.9339-.9041V13.189c0-.2086-.159-.3974-.3876-.3974-.1389 0-.3773.0795-.3773.3974v1.9769h-2.424v-1.7186c0-.8444.0993-2.1656 1.7979-2.1656h2.0067c1.6987 0 1.808 1.3212 1.808 2.1656v1.9371c0 1.3212-.9238 1.6789-1.649 1.649v.1193c1.6291-.0398 1.649 1.2118 1.649 1.6391v2.4438c0 .8542-.1093 2.1655-1.808 2.1655h-2.0067c-1.6986 0-1.7979-1.3114-1.7979-2.1657v-2.076h2.424Zm4.7782-7.8777h5.6127v12.1194h-2.4239V12.7916h-.7649v10.6095h-2.4239V11.2817Zm9.626 6.6657v-5.1556h.3179c.2582 0 .447.2183.447.6059v3.9437c0 .3875-.1888.6059-.4471.6059l-.3178.0001Zm-2.4239 5.4537h2.4239v-4.1226h1.3906c1.6888 0 1.7981-1.3113 1.7981-2.1657v-3.6655c0-.8444-.1093-2.1656-1.798-2.1656h-3.8146v12.1194Zm10.3908-1.957c0 .2086-.1589.3974-.3874.3974-.1391 0-.3774-.0894-.3774-.3974V13.189c0-.3179.2384-.3974.3774-.3974.2285 0 .3874.1888.3874.3974v8.2551Zm-3.1887-.2085c0 .8542.1092 2.1655 1.798 2.1655h2.0166c1.6887 0 1.798-1.3114 1.798-2.1657v-7.7881c0-.8444-.1092-2.1656-1.798-2.1656h-2.0166c-1.6887 0-1.798 1.3212-1.798 2.1656v7.7883Zm13.5002-9.9539h3.1589v12.1194H70.391v-7.5994h-.0895l-1.2516 7.5994h-1.9372l-1.2417-7.5994h-.0893v7.5994h-2.4239V11.2817h3.149l1.5795 8.5233 1.5696-8.5233ZM19.3484 6.8115c-.742-3.2485-2.6017-5.8908-2.858-6.318-.4053.6058-1.8884 2.9404-2.6424 5.5232-.8236 2.8908-.9447 5.4537-.6605 7.967.2821 2.5232 1.3479 5.116 1.3479 5.116.5663 1.3511 1.4146 2.8113 1.967 3.5266.8095-1.053 2.6702-4.1922 3.2503-8.285.3229-2.2848.3368-4.2814-.4043-7.5298Zm-2.858 15.0002c-.3645-.6854-.9308-1.9869-.9845-4.0134-.0139-1.947.7679-3.6259.9965-3.9735.2036.3477.8771 1.8079.9576 3.8047.0546 1.9471-.5931 3.4867-.9696 4.1822Zm2.6425-9.487c-.0278 1.2418-.1759 2.5531-.3646 3.3379.0675-1.351-.0943-3.2484-.4044-4.7385-.3099-1.4802-1.1871-3.9636-1.8873-5.106-.6467 1.0927-1.4435 3.2384-1.8607 5.0961-.4192 1.8575-.4311 4.1126-.4311 4.7881-.1113-.5663-.3895-2.6027-.311-4.6391.0656-1.6788.4589-3.4173.6745-4.212.8225-2.6524 1.7534-4.351 1.9282-4.6194.1749.2683 1.347 2.3644 1.955 4.5598.605 2.1954.7272 4.3012.7014 5.5331Z"/>
  <path fill="#0079C2" d="M17.7499 23.3813h-5.6415v3.7848c.0051 0 .009-.0099.014-.0099 1.3291-1.3311 3.4849-1.3311 4.815 0 1.3292 1.3212 1.3292 3.4769 0 4.8081-.006.0098-.012.0098-.0179.0198-.007 0-.0139.0099-.0199.0199-1.3262 1.3113-3.0586 1.9669-4.7912 1.9669-1.7403 0-3.4808-.6556-4.808-1.9868-2.3404-2.3345-2.6176-5.9604-.8334-8.6028a6.887 6.887 0 0 1 .8335-1.0133c1.3271-1.3311 3.0676-1.9868 4.8079-1.9868v-9.0995C5.421 11.2817 0 16.6957 0 23.3813c0 6.6856 5.421 12.1095 12.1084 12.1095 3.4869 0 6.628-1.4802 8.8373-3.8345v-8.275h-3.1958Zm55.0658 3.5607H22.4904v8.5488h50.3253V26.942ZM68.464 32.91h.6386v-1.2905h-.6386V32.91Zm0-2.2582h.9662l.6469.3226.1595.3226.1597.6452v.3226c-.0168 2.3111-1.5038 1.4651-3.0664 1.613v-5.3229h1.1341v2.0969Zm-8.3925-2.0969v.9678h-.8066v4.3551h-1.2853v-4.3551h-.8065v-.9678h2.8984Zm-11.7698 3.8712h.1596l.3192-.1613v-2.2582h-.4788v2.4195Zm-1.2938-2.4194h-.4873v2.2581l.3276.1613h.1597v-2.4194Zm1.2938-1.4518v.4839h.8065l.4788.3226.3276.3226.1596.6452v1.7743l-.1595.6452-.3277.3226-.4788.3225h-.8065v.4839h-1.2938v-.4839h-.8065l-.4872-.3225-.3192-.3226-.1597-.6452v-1.7743l.1595-.6452.3194-.3226.4872-.3226h.8065v-.4839h1.2938Zm-10.4878 0v.9678h-.9678v1.1291h.9678v.9677h-.9678V32.91h1.1291v.9677h-2.4195v-5.3228h2.2582Zm-11.6135 2.0969h.6452v-2.0969h1.1291v5.3229h-1.1291v-2.2583h-.6452v2.2583h-1.2905v-5.3229h1.2905v2.0969Z"/>
  <path stroke="#0079C2" stroke-linecap="round" d="M88.068 4.8933 82 35.84"/>
</svg>
