<svg xmlns="http://www.w3.org/2000/svg" width="200" height="42" fill="none">
  <g fill="#D7373C" clip-path="url(#a)">
    <path d="M182.043 7.0667v27.2026c0 .4098.466 7.284.879 7.284h-6.433c.408 0 .879-6.8697.879-7.284V9.5482c-2.046 1.5281-4.446 5.4619-4.446 11.3915v13.3296c0 .4098.466 7.284.879 7.284h-6.433c.408 0 .879-6.8697.879-7.284V.4465h4.68v8.634l4.445-1.5282V.4465h4.68v5.404l1.194-.5301V6.492M185.322 7.0667v27.2026c0 .4098-.466 7.284-.879 7.284h6.434c-.41 0-.879-6.8697-.879-7.284V9.5482c2.045 1.5281 4.445 5.4619 4.445 11.3915v13.3296c0 .4098-.465 7.284-.879 7.284h6.432c-.407 0-.878-6.8697-.878-7.284V.4465h-4.681v8.634l-4.445-1.5282V.4465h-4.679v5.404l-1.194-.5301V6.492M138.821 7.5523v-6.05h4.795v3.4082c0 .882.528 1.8221 1.109 2.6418h-5.904Zm4.445 15.2675v6.99c-.178 3.6396-1.109 6.2236-2.281 7.9254-1.109-1.6439-1.929-4.0541-2.164-7.2839V11.4861c2.045 1.4702 4.445 5.404 4.445 11.3337Zm5.203-17.9093c-.408 0-1.481-.4856-1.481-1.9513 0 1.4701-1.092 1.9513-1.447 1.9513.173 0 .937 1.234.937 1.528-.466 0-1.402-.4098-1.522-1.528-.115-1.4702 2.923-3.3457 2.923-4.464h-13.743v38.7011l6.898 2.3477 2.808-.94 4.095-1.4077V12.542l-9.121-3.1141h7.253v.058c0-.646 1.988-4.5799 2.396-4.5799M160.287 29.8098c-.177 3.6396-1.109 6.2236-2.28 7.9254-1.109-1.6439-1.93-4.0541-2.165-7.2839V1.5023h4.445v28.3075ZM151.166.4465v38.7011l6.899 2.3477 2.808-.94 4.094-1.4077V.4466h-13.801ZM90.843 6.2693c.4082 0 1.3088 2.575 1.3088 3.221 0-.646 2.4576-2.6998 2.4576-4.5798V1.5603h4.5605v6.2816l-8.1848 2.8201v23.6073c0 .4098-.4658 7.284-.8785 7.284h6.4325c-.408 0-.8783-6.8697-.8783-7.284V20.9397c0-5.052 1.7523-8.6917 3.5091-10.5718v23.9014c0 .4098-.4658 7.284-.8785 7.284h6.4326c-.408 0-.878-6.8697-.878-7.284V20.0576c0-5.052 1.752-8.6338 3.509-10.5139V34.265c0 .4097-.466 7.2839-.879 7.2839h6.433c-.408 0-.879-6.8697-.879-7.2839V.4465h-4.68v6.5757l-3.509 1.1761V.4465H90.3329c0 1.1138 3.0387 2.936 2.9234 4.464-.1153 1.1138-1.952 1.3588-2.4221 1.3588M83.0288 11.0763v7.3998l-4.4453 1.5281c.2352-5.4619 2.5154-9.0438 4.4453-10.4516v1.5281-.0044Zm-9.3163-4.6065c.4082 0 1.3621 2.379 1.3621 3.025 0-.646 2.4575-2.6998 2.4575-4.5798V1.5603h5.4967v5.992l-8.9481 3.0517-.1774.058v23.6073c0 .4098-.4658 7.284-.8783 7.284h6.4325c-.4082 0-.8785-6.8697-.8785-7.284v-2.4058c0-5.9876 2.3957-9.9258 4.4453-11.3915v13.8016c0 .41-.4658 7.2841-.8783 7.2841h6.4325c-.4082 0-.8785-6.8696-.8785-7.2841V.4466H73.2557c0 1.1137 3.0387 2.9937 2.9233 4.4639-.1153 1.1138-2.005 1.5593-2.4708 1.5593M65.9591 4.8526V15.304c0 5.9297-2.3956 9.8635-4.4451 11.3915V1.5603h4.4451v3.2923Zm2.4-4.406h-11.521v33.827c0 .41-.4658 7.2841-.8783 7.2841h6.4325c-.4082 0-.8783-6.8696-.8783-7.2841V28.696l9.1209-3.114V.4465h-2.2803.0045ZM53.5686 34.2736V19.5987l-5.7716-1.8755 5.7716-1.8756V7.735c0-.4188.4658-7.2885.874-7.2885h-5.4389V12.6h-4.445V.4465h-5.6695c.408 0 .8783 6.8697.8783 7.284v7.9968l5.7848 1.9959-5.7848 1.9958v14.5591c0 .41-.4658 7.2841-.8783 7.2841h6.4325c-.4082 0-.8785-6.8696-.8785-7.2841v-6.2772c0-2.5839 1.0514-4.9317 2.2226-6.7538 1.2288 1.7597 2.2226 4.112 2.2226 6.638v6.3975c0 .41-.4658 7.2841-.8783 7.2841h6.4325c-.4082 0-.8785-6.8699-.8785-7.2841l.0045-.009ZM126.652 13.767h-1.89v-2.3611c0-.2183.249-3.8537.466-3.8537h-3.402c.217 0 .465 3.6354.465 3.8537v2.3611h-1.082c-.248 0-4.64-.2494-4.64-.4678v3.4171c0-.2183 4.396-.4678 4.64-.4678h1.082v8.3889c0 .2494-.248 4.66-.465 4.66h3.402c-.217 0-.466-4.4151-.466-4.66v-8.3889h1.89c.218 0 3.838.2495 3.838.4678v-3.4171c0 .2184-3.62.4678-3.838.4678Z"/>
    <path d="m119.896 20.57.635.4411 5.581 3.8759c.084.0579 1.428 1.1315 1.37 1.2162l.125-.1826.084-.1203.874-1.2697.084-.1203.124-.1827c-.057.0846-1.534-.7973-1.619-.8552l-.634-.4412-5.581-3.8759c-.084-.0579-1.429-1.1315-1.371-1.2162l-.124.1827-.084.1202-.874 1.2697-.084.1204-.125.1825c.058-.0846 1.535.7975 1.619.8554ZM121.223 12.052h4.609c.062 0 1.109.0713 1.109.1336V9.8423c0 .0624-1.047.1336-1.109.1336h-4.609c-.062 0-1.11-.0712-1.11-.1336v2.3433c0-.0623 1.048-.1336 1.11-.1336ZM16.6814 3.1892h-.8481V2.1474c0-.0965.1111-1.7009.2087-1.7009h-1.5279c.0976 0 .2087 1.6077.2087 1.7009v1.0418h-.4847c-.111 0-2.0831-.1098-2.0831-.2064V4.494c0-.0966 1.9721-.2064 2.0831-.2064h.4847v3.708c0 .1098-.1111 2.0602-.2087 2.0602h1.5279c-.0976 0-.2087-1.9504-.2087-2.0603V4.2876h.8481c.0976 0 1.7197.1098 1.7197.2064V2.9828c0 .0966-1.6255.2064-1.7197.2064Z"/>
    <path d="M30.5531 29.2976c.1076-5.5087-3.2847-9.1466-8.8542-12.8878-5.5697-3.7446-6.4211-9.9223-6.4211-9.9223s-.8515 6.181-6.421 9.9223C3.287 20.1543-.1053 23.7889.0024 29.2976c.1077 5.5087 1.3932 5.4388 0 10.2417 0 0 2.5711-1.2349 3.998-5.4022h9.1403l.5351 7.4161h3.2004l.5351-7.4161h9.1402c1.4269 4.1673 3.9981 5.4022 3.9981 5.4022-1.3933-4.8029-.1076-4.733 0-10.2417"/>
    <path d="m13.6522 6.1946.2827.193 2.5038 1.7108c.0371.0267.6394.4993.6125.5393l.0572-.08.0371-.0532.3937-.5625.037-.0532.0572-.08c-.0269.0367-.6865-.3527-.7269-.3794l-.2827-.193L14.12 5.5255c-.037-.0266-.6394-.4992-.6125-.5392l-.0572.08-.037.0532-.3938.5625-.037.0532-.0572.08c.0269-.0367.6865.3527.7269.3794ZM14.2484 2.4305h2.0663c.027 0 .4981.0333.4981.0599V1.4519c0 .0266-.4678.06-.4981.06h-2.0663c-.0269 0-.498-.0334-.498-.06v1.0385c0-.0267.4677-.06.498-.06Z"/>
  </g>
  <defs>
    <clipPath id="a">
      <path fill="#fff" d="M0 .4465h200v41.1067H0z"/>
    </clipPath>
  </defs>
</svg>
