<svg xmlns="http://www.w3.org/2000/svg" width="202" height="32" fill="none">
  <g clip-path="url(#a)">
    <path fill="#D9D9D9" d="M119.696 26.0848c2.098 0 4.013-.5472 4.013-3.1919v-.7296s-1.733 1.824-4.469 1.824c-5.29 0-7.843-4.2863-7.843-8.755 0-4.4687 2.553-8.5726 7.843-8.5726 1.642 0 3.557.456 4.742 1.7327h.091V7.1156h5.472V22.437c0 6.3839-5.107 8.6638-9.849 8.6638-2.371 0-4.925-.6384-6.566-1.5503l1.641-4.4688c1.459.7296 3.101 1.0032 4.925 1.0032Zm1.003-6.931c1.551 0 3.192-.8208 3.192-3.8303 0-3.1008-1.641-3.7391-3.374-3.7391-2.098 0-3.101 1.4591-3.101 3.4655-.091 2.0975.912 4.1039 3.283 4.1039ZM131.187 7.0244h5.654v2.9184c0 .5472-.091 1.0944-.091 1.0944h.091c.729-2.3712 2.918-4.3775 5.563-4.3775.273 0 .456 0 .638.0912v5.7454c-.182-.0912-.821-.0912-1.185-.0912-3.283 0-4.834 2.0976-4.834 5.2895v6.7487h-5.836V7.0245ZM153.256 6.6597c5.563 0 9.941 3.6479 9.941 9.211 0 5.4718-4.378 9.1198-9.85 9.1198-5.471 0-9.849-3.648-9.849-9.1198-.182-5.5631 4.286-9.211 9.758-9.211Zm0 13.4061c2.098 0 3.922-1.5504 3.922-4.1951 0-2.6448-1.824-4.2863-3.922-4.2863-2.097 0-3.921 1.6415-3.921 4.2863-.091 2.5535 1.824 4.1951 3.921 4.1951ZM170.037 7.0244v9.5758c0 1.6416.456 3.2831 2.371 3.2831 1.824 0 3.192-1.8239 3.192-5.0159v-7.843h5.836v17.4188h-5.654v-1.5504c0-.5471.091-1.0943.091-1.0943h-.091c-.912 1.8239-3.101 3.0095-5.472 3.0095-3.465 0-6.201-1.6415-6.201-6.5662V7.0244h5.928ZM183.078 7.0244h5.29v.912c0 .5472-.092 1.0944-.092 1.0944h.092c1.185-1.5504 3.192-2.3711 5.289-2.3711 4.742 0 7.843 3.7391 7.843 9.1198 0 5.563-3.465 9.1198-8.116 9.1198-1.642 0-3.192-.5472-4.469-1.6416h-.091s.091.6384.091 1.4591v5.6543h-5.837V7.0245Zm9.12 13.0414c1.824 0 3.465-1.4592 3.465-4.1951 0-2.6448-1.368-4.2863-3.465-4.2863-1.733 0-3.466 1.2767-3.466 4.2863 0 2.0975 1.186 4.1951 3.466 4.1951Z"/>
    <path fill="#18CEC8" d="M37.526 6.7505c5.3807 0 8.0254 3.5567 8.0254 8.3902 0 .6384-.0912 1.1856-.0912 1.824H34.5165c.4559 2.0975 2.1887 3.1007 4.0127 3.1007 1.7327 0 3.3743-.8208 4.7423-1.7328l2.1887 4.104c-1.4592 1.3679-3.8303 2.6447-8.2078 2.5535-4.3775-.1824-8.6638-3.7391-8.6638-9.0286-.0912-5.5631 3.5567-9.211 8.9374-9.211Zm2.2799 6.8399c0-1.368-.9119-2.5536-2.3711-2.5536-1.6416 0-2.4624 1.1856-2.8271 2.5536h5.1982ZM54.2153 6.7507c1.5504 0 3.3744.2736 4.5599 1.368h.0912V.914h5.8367v23.529h-5.4719v-2.0975H59.14c-1.0943 1.6415-2.9183 2.5535-5.0159 2.5535-4.7423 0-7.7518-3.6479-7.7518-9.0286 0-5.5631 3.2831-9.1198 7.843-9.1198Zm1.368 13.3149c1.7328 0 3.3743-1.2767 3.3743-4.2863 0-2.0975-1.0943-4.1039-3.3743-4.1039-1.8239 0-3.3743 1.4592-3.3743 4.1039 0 2.6448 1.368 4.2863 3.3743 4.2863ZM6.1543 7.2068v1.5504c0 .5472-.0912 1.0944-.0912 1.0944h.0912C6.975 8.666 8.799 6.842 11.2613 6.842c2.4624 0 3.9216 1.0032 4.8335 2.9184h.0912c.912-1.4592 2.6448-2.9184 5.5631-2.9184 2.8271 0 5.5631 1.7328 5.5631 6.4751v11.2173h-5.8367v-9.3022c0-1.2767 0-3.1007-1.8239-3.1007-1.824 0-2.8272 2.0975-2.8272 5.1071v7.2958h-5.8366v-9.3022c0-1.2767.0912-3.1007-1.824-3.1007s-2.8271 2.2799-2.8271 5.1071v7.2958H.5V7.2068h5.6543ZM103.736 13.6816h.547v-.2736c0-1.4592-1.185-1.9152-2.462-1.9152-1.642 0-3.3745.7296-4.7425 1.6416l-2.0064-4.104c1.4592-1.1855 4.4687-2.28 7.2959-2.28 4.742 0 7.752 2.6448 7.752 7.0223v10.6702h-5.29v-1.0032c0-.5472.092-1.0943.092-1.0943h-.092c-1.094 1.6415-3.192 2.5535-5.1068 2.5535-3.2831 0-5.6542-2.2799-5.6542-5.2895-.0912-4.6511 5.4718-5.9278 9.667-5.9278Zm-2.371 6.8398c1.641 0 2.918-1.6416 2.918-3.0095v-.456h-.547c-1.824 0-4.104.456-4.104 2.0063.0912.8208.638 1.4592 1.733 1.4592ZM71.7256 7.2068v1.5504c0 .5472-.0912 1.0944-.0912 1.0944h.0912c.8207-1.1856 2.6447-3.0096 5.107-3.0096 2.4624 0 3.9216 1.0032 4.8335 2.9184h.0912c.912-1.4592 2.6448-2.9184 5.5631-2.9184 2.8271 0 5.5631 1.7328 5.5631 6.4751v11.2173h-5.8367v-9.3022c0-1.2767 0-3.1007-1.8239-3.1007-1.824 0-2.8272 2.0975-2.8272 5.1071v7.2958h-5.8366v-9.3022c0-1.2767.0911-3.1007-1.824-3.1007-1.9152 0-2.8271 2.2799-2.8271 5.1071v7.2958h-5.8367V7.2068h5.6543Z"/>
  </g>
  <defs>
    <clipPath id="a">
      <path fill="#fff" d="M.5 0h201v32H.5z"/>
    </clipPath>
  </defs>
</svg>
