<svg xmlns="http://www.w3.org/2000/svg" width="120" height="66" fill="none">
  <g clip-path="url(#a)">
    <path fill="#007AC2" fill-rule="evenodd" d="M35.2613 22.0091c-.0504 2.3029-.3261 4.7351-.6799 6.1847.1266-2.502-.1747-6.0321-.7542-8.7908-.5783-2.759-2.217-7.3573-3.5235-9.4942-1.2072 2.0304-2.6943 6.0145-3.4751 9.469-.7829 3.4597-.8061 7.6401-.8061 8.8961-.2061-1.0606-.7274-4.8262-.5788-8.6184.1229-3.1274.8576-6.3371 1.2608-7.8164 1.5353-4.9381 3.274-8.0895 3.5992-8.5872.3257.4977 2.5167 4.3828 3.651 8.4637 1.1294 4.0839 1.3566 7.9884 1.3066 10.2935ZM30.3308 39.634c-.6832-1.2754-1.7409-3.7037-1.8409-7.4544-.0262-3.6302 1.4341-6.7449 1.861-7.3903.3788.6454 1.64 3.3589 1.7885 7.0629.1016 3.6272-1.1062 6.4809-1.8086 7.7818Zm5.3321-27.8699C34.281 5.7299 30.8087.8243 30.3308.0208c-.7591 1.1267-3.5293 5.4564-4.9365 10.2667-1.5363 5.3627-1.7607 10.1175-1.2316 14.8037.5267 4.6802 2.5168 9.4909 2.5168 9.4909 1.0568 2.5247 2.6406 5.2279 3.6714 6.5543 1.5116-1.9558 4.9881-7.7824 6.0684-15.3961.6033-4.2307.6295-7.9371-.7564-13.9762Z" clip-rule="evenodd"/>
    <path fill="#007AC2" fill-rule="evenodd" d="M32.819 42.5678H22.3871v7.0258c.0099-.0097.0166-.0191.0275-.0291 2.4575-2.4661 6.4412-2.4661 8.8984 0 2.4573 2.4692 2.4573 6.4699 0 8.9354-.0087.0094-.0202.0194-.0295.0294 0 .0036 0 .0036-.0031.0036a.353.353 0 0 1-.0347.0319c-2.4506 2.4425-5.6552 3.6681-8.8586 3.6681-3.2164 0-6.4343-1.2344-8.8906-3.6945-4.3235-4.3442-4.838-11.065-1.5386-15.9706.4448-.6642.9551-1.2945 1.5386-1.8768 2.4563-2.4662 5.6742-3.6966 8.8906-3.6966V20.1003C10.0261 20.1003 0 30.1644 0 42.5678c0 12.4107 10.0261 22.4729 22.3871 22.4729 6.45 0 12.2553-2.739 16.3381-7.1147V42.5678H32.819ZM41.1157 20.1003h7.1713v2.4352h-3.4131V39.702h-3.7582V20.1003ZM48.2867 39.702h3.7559l.3602-5.2085h1.81l.3559 5.2085h3.7578l-2.0014-19.6017h-6.0356L48.2867 39.702Zm4.2516-7.3654.6593-9.8032h.2174l.6577 9.8032h-1.5344ZM63.9582 32.8392v3.6893c0 .5065.3724.6456.5829.6456.3484 0 .5861-.3075.5861-.6456v-4.5559c0-.6182-.1062-1.2861-1.4893-1.2861h-1.513v-2.1572H63.69c1.0637 0 1.4372-.256 1.4372-1.4581v-3.8955c0-.3361-.2377-.6396-.5861-.6396-.2105 0-.5829.1394-.5829.6396v3.1969h-3.7193v-2.7699c0-1.3698.1604-3.5024 2.7625-3.5024h3.0829c2.6039 0 2.7602 2.1326 2.7602 3.5024V26.74c0 2.1277-1.4056 2.7131-2.5216 2.6565v.1972c2.4944-.0593 2.5216 1.9591 2.5216 2.6619v3.9429c0 1.3734-.1563 3.5035-2.7602 3.5035h-3.0829c-2.6021 0-2.7625-2.1301-2.7625-3.5035v-3.3593h3.7193ZM71.7133 20.1003h8.6056V39.702h-3.7185V22.5355h-1.1676V39.702h-3.7195V20.1003ZM82.7091 39.702h3.7196v-6.6653h2.1216c2.606 0 2.7644-2.1256 2.7644-3.5023v-5.9317c0-1.3698-.1584-3.5024-2.7644-3.5024h-5.8412V39.702Zm3.7196-8.8246v-8.3419h.4704c.4042 0 .6934.3619.6934.9747v6.3928c0 .6146-.2892.9744-.6934.9744h-.4704ZM94.1831 36.1985c0 1.3734.155 3.5035 2.7592 3.5035h3.0817c2.606 0 2.765-2.1301 2.765-3.5035V23.6027c0-1.3698-.159-3.5024-2.765-3.5024h-3.0817c-2.6042 0-2.7592 2.1326-2.7592 3.5024v12.5958Zm4.8906.33c0 .3381-.2421.6456-.5861.6456-.2166 0-.5891-.1391-.5891-.6456V23.1757c0-.5002.3725-.6402.5891-.6402.344 0 .5861.3041.5861.6402v13.3528ZM115.062 20.1003H120V39.702h-3.8V27.41h-.133l-1.958 12.292h-3.039l-1.954-12.292h-.134v12.292h-3.803V20.1003h4.939l2.47 13.7756 2.474-13.7756ZM41.1314 54.2687H120V42.5708H41.1314v11.6979ZM44.7968 59.6397c0-.9051-.3034-1.6438-1.3488-1.6438-1.4536 0-1.4642 2.0395-1.4642 3.0273 0 1.5186.0835 3.287 1.4642 3.287 1.0875 0 1.265-.8946 1.3488-2.1321h.8365c-.0941 1.7265-.5228 2.8807-2.1227 2.8807-2.2171 0-2.3949-2.2468-2.3949-4.0151 0-1.6847.3137-3.7964 2.374-3.7964 1.4221 0 2.1436 1.0507 2.1436 2.3924h-.8365ZM49.0092 58.0072h-.0204l-.9742 4.0695h1.948l-.9534-4.0695Zm-.5329-.6158h1.0866l2.0708 7.6494h-.9024l-.5842-2.1992h-2.327l-.5433 2.1992h-.9021l2.1016-7.6494ZM53.4696 60.6425h3.022v-3.2511h.8794v7.6494h-.8794v-3.6337h-3.022v3.6337h-.8795v-7.6494h.8795v3.2511ZM59.6566 61.3222l2.7897-3.9308h1.0647l-2.4489 3.1976 2.5235 4.4518h-.9906l-2.0439-3.7822-.8945 1.1153v2.6669h-.8519v-7.6494h.8519v3.9308ZM66.4036 65.0408h-.8444v-6.8845h-1.9737v-.7649h4.7809v.7649h-1.9628v6.8845ZM69.3227 62.6505h2.3905v-.4781h-2.3905v.4781ZM77.4507 57.3914v7.6494h-.8791v-6.8845h-3.0225v6.8845h-.8793v-7.6494h4.7809ZM82.698 57.3914v.7649h-2.9684v2.4862h2.7783v.7646h-2.7783v2.8685h2.9794v.7652h-3.8247v-7.6494h3.8137ZM86.4828 65.0408h-.8441v-6.8845h-1.9736v-.7649h4.7809v.7649h-1.9632v6.8845ZM93.2164 57.3914v.7649h-2.9687v2.4862h2.7786v.7646h-2.7786v2.8685h2.9794v.7652h-3.8248v-7.6494h3.8141ZM95.0084 61.0355h.805c1.1345 0 1.8159-.1807 1.8159-1.4874 0-1.0833-.588-1.3918-1.5786-1.3918h-1.0423v2.8792Zm0 4.0053h-.8253v-7.6494h2.0637c1.3515 0 2.2391.6484 2.2391 2.1567 0 1.7852-1.053 2.252-2.394 2.252h-1.0835v3.2407Z" clip-rule="evenodd"/>
    <mask id="b" width="11" height="9" x="99" y="57" maskUnits="userSpaceOnUse" style="mask-type:luminance">
      <path fill="#fff" d="M99.9208 57.3914h10.0402v7.6494H99.9208v-7.6494Z"/>
    </mask>
    <g mask="url(#b)">
      <path fill="#0070AC" fill-rule="evenodd" d="M100.754 64.1331h.948c1 0 1.593-.3016 1.593-1.3627 0-1.1966-.676-1.4464-1.833-1.4464h-.708v2.8091Zm2.896-6.7417v.749h-2.896v2.4348h.99c1.354 0 2.416.4577 2.416 2.1952 0 1.4879-.896 2.1121-2.25 2.1121h-1.9892v-7.4911h3.7292Z" clip-rule="evenodd"/>
    </g>
    <mask id="c" width="11" height="9" x="99" y="57" maskUnits="userSpaceOnUse" style="mask-type:luminance">
      <path fill="#fff" d="M99.9208 57.3914h10.0402v7.6494H99.9208v-7.6494Z"/>
    </mask>
    <g mask="url(#c)">
      <path fill="#0070AC" fill-rule="evenodd" d="m105.731 57.3914 1.75 5.2023 1.604-5.2023h.875l-2.062 6.2526c-.365 1.1133-.792 1.4148-1.396 1.4148-.333 0-.521-.0412-.635-.0936v-.7487c.135.0728.364.0936.552.0936.292 0 .469-.1355.635-.7079l-2.208-6.2108h.885Z" clip-rule="evenodd"/>
    </g>
    <path fill="#0070AC" fill-rule="evenodd" d="M111.741 61.0355h.806c1.134 0 1.816-.1807 1.816-1.4874 0-1.0833-.589-1.3918-1.579-1.3918h-1.043v2.8792Zm0 4.0053h-.825v-7.6494h2.064c1.352 0 2.239.6484 2.239 2.1567 0 1.7852-1.053 2.252-2.394 2.252h-1.084v3.2407Z" clip-rule="evenodd"/>
    <path fill="#007AC2" fill-rule="evenodd" d="M120 57.3914v.7649h-2.554v6.8845h-.793v-7.6494H120Z" clip-rule="evenodd"/>
    <path fill="#FFFFFE" fill-rule="evenodd" d="m45.5178 44.9612.5785 2.907c.1239.5888.1857 1.5879.2685 2.2669h.0207c.0828-.6493.165-1.7575.2686-2.2669l.5781-2.907h2.4896v7.1713h-1.7047V49.616c0-.689.0521-2.5278.0932-3.1267h-.0104l-1.1052 5.6432h-1.2394l-1.1049-5.6432h-.0107c.0311.4994.0932 2.1473.0932 3.1167v2.5265h-1.7044v-7.1713h2.4893ZM51.6337 44.9612h3.8247v1.3585h-2.1786v1.4086h1.9504v1.3586h-1.9504v1.6877h2.1786v1.3579h-3.8247v-7.1713ZM62.0015 44.9612v2.8566l1.1823-2.8566h1.8366l-1.5535 3.1664 1.5535 4.0049h-1.7782l-.7819-2.4968-.4588.8288v1.668h-1.6114v-1.668l-.4594-.8288-.7813 2.4968h-1.7785l1.5535-4.0049-1.5535-3.1664h1.8369l1.1823 2.8566v-2.8566h1.6114ZM68.2481 48.0475h.3219c.446 0 .8709-.2097.8709-.919s-.3837-.8792-.9021-.8792h-.2907v1.7982Zm0 4.085h-1.7938v-7.1713h2.6029c1.0372 0 2.178.3595 2.178 2.1877 0 1.7681-1.12 2.1873-2.178 2.1873h-.8091v2.7963ZM72.6698 44.9612h3.8247v1.3585h-2.1788v1.4086h1.9505v1.3586h-1.9505v1.6877h2.1788v1.3579h-3.8247v-7.1713ZM82.709 44.9612v1.3582h-2.1788v5.8131h-1.6459v-7.1713h3.8247ZM86.1958 44.9612v1.7775c0 .7894-.2101 1.9383-.2478 2.7274h.0093l1.3925-4.5049h1.5745v7.1713h-1.5745v-1.668c0-.7691.2292-1.9374.3057-2.6964h-.0098l-1.4213 4.3644h-1.6028v-7.1713h1.5742ZM92.1341 46.4285v3.7073c0 .4381.3075.6524.6157.6524.2976 0 .6154-.2143.6154-.6524v-3.7073c0-.4173-.3178-.601-.6154-.601-.3082 0-.6157.1837-.6157.601Zm3.006.1222v3.2792c0 1.4573-.7282 2.3027-2.3903 2.3027-1.6415 0-2.3906-.8454-2.3906-2.3027v-3.2894c0-1.151.7285-2.0573 2.4009-2.0573 1.6721 0 2.38.9267 2.38 2.0675ZM98.8537 47.7283h1.1773v-2.7671h1.802v7.1713h-1.802v-3.0456h-1.1773v3.0456H97.052v-7.1713h1.8017v2.7671ZM107.569 44.9612v1.3585h-2.178v5.8128h-1.646v-7.1713h3.824ZM110.623 49.4063l-.464-3.157h-.01l-.453 3.157h.927Zm.604-4.4451 1.602 7.1713h-1.713l-.262-1.438h-1.33l-.221 1.438h-1.733l1.572-7.1713h2.085ZM113.785 46.8771c0-1.5179.975-2.3939 2.275-2.3939 1.436 0 2.244.9063 2.244 1.9351 0 .9064-.304 1.3648-1.069 1.6911h.02c.766.275 1.311.5806 1.311 1.8941 0 1.4464-.964 2.1291-2.401 2.1291-1.122 0-2.38-.4792-2.38-2.3636h1.667c0 .8151.241 1.0495.64 1.0495.472 0 .66-.2344.66-1.0495 0-.6821-.22-.9577-.797-.9577h-.262v-1.3128h.431c.261 0 .545-.2858.545-.8046 0-.5506-.179-.8967-.609-.8967-.461 0-.608.3257-.608 1.0799h-1.667Z" clip-rule="evenodd"/>
  </g>
  <defs>
    <clipPath id="a">
      <path fill="#fff" d="M0 0h120v66H0z"/>
    </clipPath>
  </defs>
</svg>
