<svg xmlns="http://www.w3.org/2000/svg" width="200" height="34" fill="none">
  <g clip-path="url(#a)">
    <path fill="#BABBF5" fill-rule="evenodd" d="M32.2187 4.1401c0-.9872 0-1.4808-.2552-1.832a1.4075 1.4075 0 0 0-.3654-.3478c-.3691-.2428-.8878-.2428-1.9253-.2428H2.5458c-1.0374 0-1.5561 0-1.9252.2428a1.4057 1.4057 0 0 0-.3655.3477C0 2.6593 0 3.153 0 4.1401V30.83c0 .9873 0 1.4808.2551 1.8321.0988.1359.2226.2538.3655.3478.369.2427.8878.2427 1.9252.2427h6.8753c1.0374 0 1.5561 0 1.9253-.2427a1.4092 1.4092 0 0 0 .3654-.3478c.2552-.3513.2552-.8448.2552-1.8321V11.2848c0-.3291 0-.4936.0849-.6107a.4705.4705 0 0 1 .1219-.1159c.123-.0809.2959-.0809.6417-.0809h6.5876c.3458 0 .5187 0 .6417.0809a.4654.4654 0 0 1 .1218.1159c.0851.1171.0851.2816.0851.6107V30.83c0 .9873 0 1.4808.2551 1.8321.0987.1359.2226.2538.3655.3478.369.2427.8878.2427 1.9252.2427h9.4212v-.0092c5.1907-.1065 9.0918-1.1401 11.7033-3.1005 2.7922-2.1023 4.3725-5.4602 4.7407-10.0737l.679-8.8433c.0235-.3071.0353-.4606.1213-.5683a.4705.4705 0 0 1 .1204-.1065c.1192-.0738.281-.0738.6046-.0738h3.2873c.3459 0 .5188 0 .6419.0809a.4717.4717 0 0 1 .1218.1159c.0849.1171.085.2816.085.6107V30.83c0 .9873 0 1.4808.2551 1.8321.0988.1359.2226.2538.3654.3478.3691.2427.8878.2427 1.9253.2427h18.1366c.8225 0 1.2338 0 1.5602-.1731a1.4308 1.4308 0 0 0 .3438-.254c.2571-.2581.3589-.6373.5626-1.3957l.4059-1.5114c.0679-.2528.1018-.3793.1875-.4653a.4745.4745 0 0 1 .1146-.0846c.1088-.0577.2459-.0577.5201-.0577h8.5313c.2743 0 .4119 0 .5202.0577a.4668.4668 0 0 1 .1146.0846c.0862.086.1202.2125.1873.4653l.4064 1.5114c.2039.7584.3051 1.1376.5628 1.3957a1.431 1.431 0 0 0 .3431.254c.3265.1731.7383.1731 1.5605.1731h28.0187c4.143 0 7.319-.7007 9.528-2.1023.827-.5179 1.502-1.1274 2.024-1.8285V30.83c0 .9873 0 1.4808.255 1.8321.099.1359.222.2538.366.3478.369.2427.887.2427 1.924.2427h6.876c1.038 0 1.556 0 1.925-.2427a1.392 1.392 0 0 0 .365-.3478c.256-.3513.256-.8448.256-1.8321v-9.403h8.745v9.403c0 .9873 0 1.4808.255 1.8321.099.1359.223.2538.366.3478.369.2427.888.2427 1.925.2427h6.875c1.038 0 1.556 0 1.926-.2427.143-.094.266-.2119.365-.3478.255-.3513.255-.8448.255-1.8321v-7.6118a14.1998 14.1998 0 0 0 1.429 2.9391c1.565 2.4234 3.758 4.2922 6.581 5.6062 2.854 1.2847 6.168 1.9271 9.942 1.9271 3.775 0 7.073-.6424 9.895-1.9271 2.854-1.314 5.064-3.1828 6.629-5.6062 1.564-2.4528 2.347-5.3435 2.347-8.6722 0-3.3287-.783-6.2048-2.347-8.6284-1.565-2.4527-3.775-4.3215-6.629-5.6062-2.822-1.314-6.12-1.971-9.895-1.971-3.774 0-7.088.657-9.942 1.971-2.823 1.2847-5.016 3.1535-6.581 5.6062-.586.9073-1.063 1.8782-1.429 2.9123V4.1401c0-.9872 0-1.4808-.255-1.832a1.4059 1.4059 0 0 0-.365-.3478c-.37-.2428-.888-.2428-1.926-.2428h-6.875c-1.037 0-1.556 0-1.925.2428a1.41 1.41 0 0 0-.366.3477c-.255.3513-.255.8449-.255 1.8321v8.5271h-8.745v-8.527c0-.9873 0-1.481-.256-1.8322a1.3904 1.3904 0 0 0-.365-.3477c-.369-.2428-.887-.2428-1.925-.2428h-6.876c-1.037 0-1.555 0-1.924.2428-.144.094-.267.2118-.366.3477-.255.3513-.255.8449-.255 1.8321v3.7222c-.522-1.509-1.534-2.7689-3.036-3.7796-2.302-1.5768-5.554-2.3652-9.758-2.3652h-15.543c-1.038 0-1.556 0-1.925.2428a1.4052 1.4052 0 0 0-.3656.3477c-.2554.3513-.2554.8449-.2554 1.8322V27.296L92.381 3.4678c-.2213-.7298-.332-1.0947-.5881-1.342a1.4311 1.4311 0 0 0-.3391-.243c-.321-.1653-.7202-.1653-1.5186-.1653H75.9983c-.7983 0-1.1974 0-1.518.1653a1.4345 1.4345 0 0 0-.3397.243c-.2559.2473-.3666.6122-.5882 1.342L66.2909 27.387V4.1401c0-.9872 0-1.4808-.2551-1.832a1.4048 1.4048 0 0 0-.3655-.3478c-.369-.2428-.8878-.2428-1.9252-.2428H40.4404c-.9697 0-1.4546 0-1.812.221a1.4129 1.4129 0 0 0-.3611.319c-.2581.3229-.2939.783-.3658 1.7032l-1.2057 15.4515c-.1534 1.8979-.629 3.2266-1.4269 3.9857-.6364.6057-1.6532.9601-3.0502 1.0632V4.1401Zm98.2793 8.8036a6.0005 6.0005 0 0 1-.965 1.6944c-.89 1.1388-2.056 1.9418-3.498 2.409v.438c1.718.438 3.114 1.314 4.188 2.6279.096.1175.187.2372.275.3593v-7.5286Zm-47.3012-1.6343 2.5321 10.1176h-5.5234l2.5313-10.1176h.46Zm34.4152 2.0586c-.584.4088-1.366.6132-2.348.6132h-3.682v-4.38h3.682c.982 0 1.764.2045 2.348.6133.582.3796.874.9051.874 1.5767 0 .6424-.292 1.168-.874 1.5768Zm.874 11.3439c-.613.4379-1.381.657-2.301.657h-4.603V20.551h4.603c.92 0 1.688.2336 2.301.7008.614.4379.92 1.0073.92 1.7081 0 .7008-.306 1.2848-.92 1.752Zm67.66-2.1024c-1.258 1.2556-2.93 1.8834-5.017 1.8834-2.086 0-3.759-.6278-5.017-1.8834-1.258-1.2556-1.887-2.9637-1.887-5.1244s.629-3.8689 1.887-5.1245c1.258-1.2555 2.931-1.8833 5.017-1.8833 2.087 0 3.759.6278 5.017 1.8833 1.258 1.2556 1.887 2.9638 1.887 5.1245 0 2.1607-.629 3.8688-1.887 5.1244Z" clip-rule="evenodd"/>
    <path fill="#5B5BD6" d="M29.6728 1.7175H2.5458c-1.0374 0-1.5561 0-1.9252.2428a1.4056 1.4056 0 0 0-.3655.3478C0 2.6593 0 3.1528 0 4.14V30.83c0 .9872 0 1.4808.2551 1.8321.0988.1359.2226.2538.3655.3478.369.2427.8878.2427 1.9252.2427h6.8753c1.0374 0 1.5561 0 1.9253-.2427a1.4092 1.4092 0 0 0 .3654-.3478c.2552-.3513.2552-.8449.2552-1.8321V11.2848c0-.3291 0-.4936.0849-.6107a.4705.4705 0 0 1 .1219-.1159c.123-.081.2959-.081.6417-.081h6.5876c.3458 0 .5187 0 .6417.081a.4654.4654 0 0 1 .1218.1159c.0851.1171.0851.2816.0851.6107V30.83c0 .9872 0 1.4808.2551 1.8321.0987.1359.2226.2538.3655.3478.369.2427.8878.2427 1.9253.2427h9.4211v-.0092c5.1907-.1065 9.0918-1.1401 11.7033-3.1005 2.7922-2.1023 4.3725-5.4602 4.7407-10.0737l.679-8.8433c.0235-.3071.0353-.4606.1213-.5683a.4705.4705 0 0 1 .1204-.1065c.1192-.0739.281-.0739.6046-.0739h3.2873c.3459 0 .5188 0 .6419.081a.4717.4717 0 0 1 .1218.1159c.085.1171.085.2816.085.6107V30.83c0 .9872 0 1.4808.2551 1.8321.0988.1359.2226.2538.3654.3478.3691.2427.8878.2427 1.9253.2427h.8377V1.7176H40.4404c-.9697 0-1.4545 0-1.812.221a1.4108 1.4108 0 0 0-.361.319c-.2581.3228-.294.7829-.3659 1.7031l-1.2057 15.4515c-.1534 1.8979-.629 3.2266-1.4269 3.9857-.6364.6057-1.6532.9601-3.0502 1.0632V4.1401c0-.9872 0-1.4808-.2552-1.832a1.4074 1.4074 0 0 0-.3654-.3478c-.3692-.2428-.8879-.2428-1.9253-.2428Z"/>
  </g>
  <defs>
    <clipPath id="a">
      <path fill="#fff" d="M0 .7944h200v32.4111H0z"/>
    </clipPath>
  </defs>
</svg>
