<svg xmlns="http://www.w3.org/2000/svg" width="32" height="33" fill="none">
  <path stroke="#fff" stroke-linecap="round" stroke-linejoin="round" stroke-width="2" d="m15.992 25.7462-5.2933 3.1733a2.6666 2.6666 0 0 1-2.7467 0l-4-2.4a2.6662 2.6662 0 0 1-1.2933-2.28v-4.32a2.6671 2.6671 0 0 1 1.2933-2.28l5.3734-3.2266m6.6666 11.3333v-7.3333m0 7.3333 5.2934 3.1733a2.666 2.666 0 0 0 2.7466 0l4-2.4a2.666 2.666 0 0 0 1.2934-2.28v-4.32a2.6668 2.6668 0 0 0-1.2934-2.28l-5.3733-3.2266m-6.6667 4-6.6666-4m6.6666 4-6.6666 4m6.6666-4 6.6667-4m-6.6667 4 6.6667 4m-6.6667-4v-7.3334m-6.6666 3.3334V8.5862a2.6666 2.6666 0 0 1 1.2933-2.28l4-2.4a2.6665 2.6665 0 0 1 2.7467 0l4 2.4a2.667 2.667 0 0 1 1.2933 2.28v5.8267m-13.3333 8-6.32-3.8m6.32 3.8v6.8933m13.3333-6.8933 6.32-3.8m-6.32 3.8v6.8933M15.992 11.0795l-6.32-3.8m6.32 3.8 6.32-3.8"/>
</svg>
