<svg xmlns="http://www.w3.org/2000/svg" width="43" height="43" fill="none">
  <path stroke="#fff" stroke-linecap="round" stroke-linejoin="round" stroke-width="2" d="M19.8677 15.7883h7a3.4998 3.4998 0 0 0 2.4748-1.0252 3.4998 3.4998 0 0 0 1.0252-2.4748v-7m-10.5 10.5c0 1.933-1.567 3.5-3.5 3.5s-3.5-1.567-3.5-3.5 1.567-3.5 3.5-3.5 3.5 1.567 3.5 3.5Zm-7 21v-7a3.5 3.5 0 0 1 3.5-3.5h7m0 0c0 1.933 1.567 3.5 3.5 3.5s3.5-1.567 3.5-3.5-1.567-3.5-3.5-3.5-3.5 1.567-3.5 3.5Zm-14-21h24.5c1.933 0 3.5 1.567 3.5 3.5v24.5c0 1.933-1.567 3.5-3.5 3.5h-24.5c-1.933 0-3.5-1.567-3.5-3.5v-24.5c0-1.933 1.567-3.5 3.5-3.5Z"/>
</svg>
