<svg xmlns="http://www.w3.org/2000/svg">
    <symbol id="phone" viewBox="0 0 32 32"><path stroke-linecap="round" stroke-linejoin="round" stroke-width="2" d="M13.5022 8.2572A2 2 0 0 0 11.6453 7H8.8945c-1.0464 0-1.8947.8481-1.8947 1.8945C6.9998 17.7892 14.2105 25 23.1052 25c1.0465 0 1.8946-.8484 1.8946-1.8948l.0004-2.7512a1.9998 1.9998 0 0 0-1.2571-1.8569l-2.6364-1.0542a1.9997 1.9997 0 0 0-2.023.3203l-.6804.5675c-.7947.6622-1.9639.6095-2.6953-.1219l-1.916-1.9177c-.7315-.7315-.7855-1.8998-.1233-2.6944l.5674-.6804a2.0003 2.0003 0 0 0 .3213-2.0232l-1.0552-2.6359Z"/></symbol>
    <symbol id="mail" viewBox="0 0 32 32"><path stroke-linecap="round" stroke-linejoin="round" stroke-width="2" d="m8 10 6.1076 4.6123.0021.0017c.6781.4973 1.0174.7461 1.3891.8422.3284.085.6737.085 1.0022 0 .3719-.0962.7122-.3457 1.3916-.8439 0 0 3.9175-3.0064 6.1074-4.6123M7 19.8002v-7.6c0-1.1201 0-1.6806.218-2.1084a1.9989 1.9989 0 0 1 .8738-.8738C8.5196 9 9.0801 9 10.2002 9h11.6c1.1201 0 1.6794 0 2.1072.218a2.001 2.001 0 0 1 .8748.8738C25 10.5192 25 11.079 25 12.1969v7.6067c0 1.1179 0 1.6769-.2178 2.1043a2.002 2.002 0 0 1-.8748.8743C23.48 23 22.921 23 21.8031 23H10.1969c-1.118 0-1.6777 0-2.1051-.2178a2 2 0 0 1-.8738-.8743C7 21.4801 7 20.9203 7 19.8002Z"/></symbol>
</svg>
