<svg xmlns="http://www.w3.org/2000/svg">
    <symbol id="phone" viewBox="0 0 32 32"><path stroke-linecap="round" stroke-linejoin="round" stroke-width="2" d="M13.5022 8.2572A2 2 0 0 0 11.6453 7H8.8945c-1.0464 0-1.8947.8481-1.8947 1.8945C6.9998 17.7892 14.2105 25 23.1052 25c1.0465 0 1.8946-.8484 1.8946-1.8948l.0004-2.7512a1.9998 1.9998 0 0 0-1.2571-1.8569l-2.6364-1.0542a1.9997 1.9997 0 0 0-2.023.3203l-.6804.5675c-.7947.6622-1.9639.6095-2.6953-.1219l-1.916-1.9177c-.7315-.7315-.7855-1.8998-.1233-2.6944l.5674-.6804a2.0003 2.0003 0 0 0 .3213-2.0232l-1.0552-2.6359Z"/>
    <symbol id="mail" viewBox="0 0 32 32"><path stroke-linecap="round" stroke-linejoin="round" stroke-width="2" d="m8 10 6.1076 4.6123.0021.0017c.6781.4973 1.0174.7461 1.3891.8422.3284.085.6737.085 1.0022 0 .3719-.0962.7122-.3457 1.3916-.8439 0 0 3.9175-3.0064 6.1074-4.6123M7 19.8002v-7.6c0-1.1201 0-1.6806.218-2.1084a1.9989 1.9989 0 0 1 .8738-.8738C8.5196 9 9.0801 9 10.2002 9h11.6c1.1201 0 1.6794 0 2.1072.218a2.001 2.001 0 0 1 .8748.8738C25 10.5192 25 11.079 25 12.1969v7.6067c0 1.1179 0 1.6769-.2178 2.1043a2.002 2.002 0 0 1-.8748.8743C23.48 23 22.921 23 21.8031 23H10.1969c-1.118 0-1.6777 0-2.1051-.2178a2 2 0 0 1-.8738-.8743C7 21.4801 7 20.9203 7 19.8002Z"/>
    <symbol id="bulb" viewBox="0 0 44 44"><path stroke-linecap="round" stroke-linejoin="round" stroke-width="2" d="M5.5 22h1.8333M22 5.5v1.8333M36.6667 22H38.5M10.2667 10.2667 11.55 11.55m22.1833-1.2833L32.45 11.55M16.5 29.3335a9.1661 9.1661 0 0 1-3.1963-10.2321A9.1668 9.1668 0 1 1 27.5 29.3335a6.4162 6.4162 0 0 0-1.8334 5.5 3.6666 3.6666 0 1 1-7.3333 0 6.4169 6.4169 0 0 0-1.8333-5.5ZM17.7833 31.1665h8.4334"/>
    <symbol id="team" viewBox="0 0 44 44"><path stroke="#fff" stroke-linecap="round" stroke-linejoin="round" stroke-width="2" d="M18.7527 24.2524a3.6667 3.6667 0 1 0 7.3336 0 3.6667 3.6667 0 0 0-7.3336 0ZM15.086 38.9196v-1.8334a3.6664 3.6664 0 0 1 3.6667-3.6666h7.3333a3.6668 3.6668 0 0 1 3.6667 3.6666v1.8334M27.9194 9.586a3.6668 3.6668 0 1 0 7.3332-.0002 3.6668 3.6668 0 0 0-7.3332.0002ZM31.5861 18.7531h3.6667a3.6664 3.6664 0 0 1 3.6666 3.6667v1.8333M9.5861 9.586a3.667 3.667 0 0 0 1.0739 2.5927 3.667 3.667 0 0 0 5.1855 0 3.667 3.667 0 0 0 0-5.1855A3.6667 3.6667 0 0 0 9.5861 9.586ZM5.9194 24.2531v-1.8333a3.6665 3.6665 0 0 1 3.6666-3.6667h3.6667"/>
    <symbol id="star" viewBox="0 0 44 44"><path stroke-linecap="round" stroke-linejoin="round" stroke-width="2" d="m33.9165 15.5835 2.75 5.5-6.4167-.9167-3.6666 3.6667-.9167-5.5-5.5-2.75 5.5-2.75.9167-5.5 3.6666 3.6667 6.4167-.9167-2.75 5.5ZM7.3335 36.6665l12.8333-12.8333M7.3335 27.5l6.4167-6.4167M16.5 36.6665l6.4167-6.4167"/>
    <symbol id="phone_with_star" viewBox="0 0 44 44"><path stroke-linecap="round" stroke-linejoin="round" stroke-width="2" d="M20.1667 38.5h-5.5a3.667 3.667 0 0 1-2.5928-1.0739A3.667 3.667 0 0 1 11 34.8333V9.1667A3.6668 3.6668 0 0 1 14.6667 5.5h14.6666A3.6669 3.6669 0 0 1 33 9.1667v9.1666M20.1667 7.3335h3.6667M32.6333 38.1647l-3.982 2.0863a.7182.7182 0 0 1-.7524-.0547.7191.7191 0 0 1-.2889-.6969l.7608-4.4202-3.2211-3.1295a.7134.7134 0 0 1-.1823-.734.714.714 0 0 1 .5801-.4852l4.4513-.6453 1.991-4.0205a.7196.7196 0 0 1 .6435-.3987.7182.7182 0 0 1 .6435.3987l1.991 4.0205 4.4514.6453a.7145.7145 0 0 1 .5779.4859.7145.7145 0 0 1-.1801.7333l-3.2212 3.1295.759 4.4183a.7147.7147 0 0 1-.6546.8351.715.715 0 0 1-.3849-.0816l-3.982-2.0863Z"/>
</svg>
