<svg xmlns="http://www.w3.org/2000/svg" width="43" height="43" fill="none">
  <path stroke="#fff" stroke-linecap="round" stroke-linejoin="round" stroke-width="2" d="M21.8176 8.8282a5.2512 5.2512 0 0 0-1.5711-3.7608 5.2493 5.2493 0 0 0-3.7883-1.5035 5.2504 5.2504 0 0 0-4.815 3.4288 5.2496 5.2496 0 0 0-.3204 2.0543m10.4948-.2188v22.75m0-22.75a5.2492 5.2492 0 0 1 3.3133-4.8952 5.2505 5.2505 0 0 1 5.7685 1.291 5.2495 5.2495 0 0 1 1.4129 3.823m-20.9895 0a6.9998 6.9998 0 0 0-5.251 7.0635 7.0004 7.0004 0 0 0 .8305 3.034M11.3228 9.047a5.25 5.25 0 0 0 .6965 2.4062m-5.117 7.6913a6.9996 6.9996 0 0 0-2.5613 6.0217 7.0006 7.0006 0 0 0 3.5343 5.5073m-.973-11.529a6.9884 6.9884 0 0 1 1.0238-.6913m-.0508 12.2203a7 7 0 1 0 13.9423.9047m-13.9423-.9047a7.0014 7.0014 0 0 0 3.4423.9047m10.5 0a7.0002 7.0002 0 0 0 4.6403 6.5828 6.9998 6.9998 0 0 0 9.3019-7.4875M32.3123 9.047a6.9994 6.9994 0 0 1 4.6693 3.9722 7.0008 7.0008 0 0 1-.2488 6.1253M32.3123 9.047a5.2468 5.2468 0 0 1-.6965 2.4062m5.117 7.6913a6.9995 6.9995 0 0 1 2.5614 6.0217 7.0004 7.0004 0 0 1-3.5344 5.5073m.973-11.529a6.9863 6.9863 0 0 0-1.0237-.6913m.0507 12.2203a7.0012 7.0012 0 0 1-3.4422.9047m-5.25-8.75a7.8747 7.8747 0 0 1-5.25-7 7.8747 7.8747 0 0 1-5.25 7"/>
</svg>
