<svg xmlns="http://www.w3.org/2000/svg" width="43" height="43" fill="none">
  <path stroke="#fff" stroke-linecap="round" stroke-linejoin="round" stroke-width="2" d="m23.2425 13.912 3.115 4.676m-1.274 4.291-5.817 2.492M35.3 7.5l-10.605 2.6512M5.55 5.75v28a3.5 3.5 0 0 0 3.5 3.5h28M24.8 11c0 1.933-1.567 3.5-3.5 3.5s-3.5-1.567-3.5-3.5 1.567-3.5 3.5-3.5 3.5 1.567 3.5 3.5Zm7 10.5c0 1.933-1.567 3.5-3.5 3.5s-3.5-1.567-3.5-3.5 1.567-3.5 3.5-3.5 3.5 1.567 3.5 3.5Zm-12.25 5.25c0 1.933-1.567 3.5-3.5 3.5s-3.5-1.567-3.5-3.5 1.567-3.5 3.5-3.5 3.5 1.567 3.5 3.5Z"/>
</svg>
