<svg xmlns="http://www.w3.org/2000/svg" version="1.1" xmlns:xlink="http://www.w3.org/1999/xlink" xmlns:svgjs="http://svgjs.dev/svgjs" width="32" height="32"><svg width="32" height="32" viewBox="0 0 32 32" fill="none" xmlns="http://www.w3.org/2000/svg">
<path d="M5 13.995V10.0051C7.38747 10.0025 9.6764 9.0529 11.3646 7.36469C13.0528 5.67647 14.0024 3.3875 14.005 1L17.9949 1C17.9903 4.4451 16.6197 7.74779 14.1837 10.1838C11.7477 12.6199 8.44505 13.9905 5 13.995H5Z" fill="#FF1F00"></path>
<path d="M27 13.995C23.5547 13.9911 20.2517 12.6208 17.8156 10.1846C15.3794 7.74836 14.009 4.4453 14.0051 1L17.995 1C17.9976 3.3875 18.9472 5.67647 20.6354 7.36469C22.3236 9.0529 24.6125 10.0025 27 10.0051V13.995Z" fill="#FF1F00"></path>
<path d="M17.995 31H14.0051C14.0084 27.5545 15.3785 24.2511 17.8148 21.8147C20.2511 19.3784 23.5545 18.0082 27 18.005V21.9949C24.6125 21.9975 22.3236 22.9471 20.6354 24.6353C18.9472 26.3236 17.9976 28.6125 17.995 31V31Z" fill="#FF1F00"></path>
<path d="M17.9949 31H14.005C14.0024 28.6125 13.0528 26.3236 11.3646 24.6353C9.6764 22.9471 7.38747 21.9975 5 21.9949L5 18.005C8.44525 18.0089 11.7483 19.3793 14.1844 21.8155C16.6206 24.2517 17.9909 27.5547 17.9949 31V31Z" fill="#FF1F00"></path>
</svg><style>@media (prefers-color-scheme: light) { :root { filter: none; } }
@media (prefers-color-scheme: dark) { :root { filter: none; } }
</style></svg>