<svg xmlns="http://www.w3.org/2000/svg" width="121" height="29" fill="none">
  <g clip-path="url(#a)">
    <path fill="#FF1F00" d="M0 12.562V8.705c2.2966-.0025 4.4985-.9205 6.1224-2.5524C7.7464 4.5206 8.66 2.3079 8.6624 0h3.838c-.0043 3.3303-1.3228 6.523-3.6661 8.8778C6.491 11.2327 3.314 12.5576 0 12.562Z"/>
    <path fill="#FF1F00" d="M21.163 12.562c-3.3142-.0038-6.4915-1.3285-8.835-3.6835C9.9845 6.5235 8.6663 3.3305 8.6625 0h3.8381c.0025 2.308.916 4.5206 2.5399 6.1526 1.624 1.632 3.8259 2.5499 6.1225 2.5524v3.857ZM12.5006 29.0005h-3.838c.003-3.3307 1.321-6.5241 3.6647-8.8792 2.3436-2.3552 5.5213-3.6797 8.8357-3.6828v3.857c-2.2966.0025-4.4985.9204-6.1225 2.5524-1.6239 1.6319-2.5374 3.8446-2.5399 6.1526Z"/>
    <path fill="#FF1F00" d="M12.5004 29.0005h-3.838c-.0025-2.308-.916-4.5207-2.54-6.1526C4.4984 21.2159 2.2966 20.298 0 20.2955v-3.857c3.3142.0038 6.4915 1.3285 8.835 3.6835 2.3435 2.355 3.6617 5.548 3.6654 8.8785Z"/>
    <path fill="#fff" d="M34.3633 11.5056c.8108-1.8455 2.332-2.7683 4.5635-2.7683v3.483a4.7237 4.7237 0 0 0-3.2003.879c-.9072.6671-1.3616 1.7637-1.3632 3.29v7.5043H31.163V9.0041h3.2003v2.5015ZM47.61 24.282a7.566 7.566 0 0 1-3.0022-.5605 7.5958 7.5958 0 0 1-2.5403-1.7027 7.518 7.518 0 0 1-1.7198-2.5453 7.5494 7.5494 0 0 1-.5608-3.0245 7.544 7.544 0 0 1 .5609-3.0234 7.5125 7.5125 0 0 1 1.7197-2.5441c1.4858-1.4514 3.4763-2.2633 5.5485-2.2633 2.0721 0 4.0626.812 5.5485 2.2633a7.5358 7.5358 0 0 1 1.7112 2.5463 7.5675 7.5675 0 0 1 .5575 3.0212 7.7904 7.7904 0 0 1-.5753 3.0163 7.7588 7.7588 0 0 1-1.6951 2.5555 7.7164 7.7164 0 0 1-2.5491 1.6941 7.6833 7.6833 0 0 1-3.0037.5671Zm-3.2904-4.4644a4.715 4.715 0 0 0 3.2893 1.3386 4.715 4.715 0 0 0 3.2892-1.3386 4.5677 4.5677 0 0 0 1.0138-1.5444 4.5864 4.5864 0 0 0 .3209-1.8218 4.5828 4.5828 0 0 0-.3212-1.8207 4.5659 4.5659 0 0 0-1.0135-1.5432 4.7078 4.7078 0 0 0-3.2892-1.3414 4.7079 4.7079 0 0 0-3.2893 1.3414 4.5633 4.5633 0 0 0-1.0124 1.5434 4.5814 4.5814 0 0 0-.3199 1.8205 4.5832 4.5832 0 0 0 .3196 1.8216 4.565 4.565 0 0 0 1.0127 1.5446ZM60.9142 13.1136c0 .4979.2703.8886.8155 1.1769a9.5288 9.5288 0 0 0 1.9842.7457 30.226 30.226 0 0 1 2.3565.729 4.4736 4.4736 0 0 1 2.0008 1.4151 3.8478 3.8478 0 0 1 .8155 2.5157 3.9684 3.9684 0 0 1-.4006 1.8904 3.9463 3.9463 0 0 1-1.2446 1.4734c-1.0969.8148-2.475 1.2222-4.1344 1.2222a7.2728 7.2728 0 0 1-3.7623-.9244 5.3947 5.3947 0 0 1-2.2829-2.561l2.7571-1.608c.512 1.4294 1.608 2.144 3.2881 2.144 1.68 0 2.52-.5558 2.52-1.6676 0-.4764-.2719-.8632-.8156-1.1602a9.0641 9.0641 0 0 0-1.9866-.7599 30.0456 30.0456 0 0 1-2.354-.729 4.5344 4.5344 0 0 1-2.0008-1.3841 3.678 3.678 0 0 1-.8155-2.4586 4.04 4.04 0 0 1 .3826-1.8398 4.0196 4.0196 0 0 1 1.1725-1.4645c1.0383-.8322 2.328-1.2483 3.8689-1.2483a6.5082 6.5082 0 0 1 3.2739.8195 5.5662 5.5662 0 0 1 2.207 2.2775l-2.6954 1.5175c-.5152-1.1308-1.4437-1.6962-2.7855-1.6962a2.7706 2.7706 0 0 0-1.5409.4026 1.308 1.308 0 0 0-.4706.5008 1.3156 1.3156 0 0 0-.1529.6713ZM83.0511 4.7158h3.2004v19.1777h-3.2004v-2.1441c-1.2059 1.6899-2.9349 2.534-5.187 2.5324a6.9263 6.9263 0 0 1-2.8499-.5786 6.9566 6.9566 0 0 1-2.3655-1.6989 7.7567 7.7567 0 0 1-1.6341-2.5604 7.7871 7.7871 0 0 1-.528-2.9951c0-2.2029.7207-4.0587 2.1621-5.5675a6.976 6.976 0 0 1 2.3681-1.6892 6.9471 6.9471 0 0 1 2.8473-.574c2.2521 0 3.9811.8338 5.187 2.5014V4.7158Zm-8.0318 15.1444a4.8237 4.8237 0 0 0 3.3486 1.3535 4.8236 4.8236 0 0 0 3.3485-1.3535 4.6585 4.6585 0 0 0 1.0156-1.5681 4.6752 4.6752 0 0 0 .3191-1.8433 4.6714 4.6714 0 0 0-.3192-1.8422 4.6508 4.6508 0 0 0-1.0155-1.5669 4.8187 4.8187 0 0 0-3.3485-1.3553 4.819 4.819 0 0 0-3.3486 1.3553 4.6496 4.6496 0 0 0-1.0144 1.5671 4.6681 4.6681 0 0 0-.3179 1.842 4.6737 4.6737 0 0 0 .3178 1.8431 4.6559 4.6559 0 0 0 1.0145 1.5683ZM92.5034 17.8187a4.0852 4.0852 0 0 0 1.631 2.6063 5.2156 5.2156 0 0 0 3.1103.9077c1.7005 0 2.9753-.6155 3.8243-1.8463l2.636 1.5485c-1.464 2.1663-3.627 3.2487-6.4888 3.2471-2.4117 0-4.358-.7393-5.8389-2.218-1.4809-1.4786-2.2213-3.3503-2.2213-5.6151 0-2.2235.731-4.0841 2.1929-5.5818s3.3386-2.2465 5.6303-2.2465c2.1715 0 3.9538.764 5.3478 2.2918 1.387 1.5152 2.136 3.5116 2.089 5.5699-.01.4484-.049.8957-.119 1.3388l-11.7936-.0024Zm-.0285-2.6205h8.7121c-.218-1.2102-.717-2.1234-1.4982-2.7397a4.296 4.296 0 0 0-2.7405-.9219 4.4896 4.4896 0 0 0-2.9633.9815 4.434 4.434 0 0 0-1.5101 2.6801ZM116.684 9.004h3.497l-5.777 14.8894h-3.706l-5.777-14.8895h3.497l4.148 11.316 4.118-11.316Z"/>
  </g>
  <defs>
    <clipPath id="a">
      <path fill="#fff" d="M0 0h120.181v29.0002H0z"/>
    </clipPath>
  </defs>
</svg>
