<svg xmlns="http://www.w3.org/2000/svg" width="49" height="49" fill="none">
  <path stroke="#fff" stroke-linecap="round" stroke-linejoin="round" stroke-width="2" d="M42.1456 10.146c0 3.3137-8.0588 6-18 6-9.9411 0-18-2.6863-18-6m36 0c0-3.3137-8.0588-6-18-6-9.9411 0-18 2.6863-18 6m36 0v6m-36-6v28c-.0111.9618.6716 1.9105 1.9907 2.7659 1.319.8555 3.2358 1.5927 5.5886 2.1496 2.3528.5568 5.0728.9169 7.9306 1.05 2.8578.133 5.7696.0351 8.4901-.2855m12-19.68-6 10h8l-6 10m-32-20c.003.9351.6614 1.8569 1.923 2.6921 1.2615.8352 3.0912 1.5605 5.343 2.1181 2.2518.5576 4.8634.9321 7.6265 1.0935 2.763.1615 5.601.1054 8.2875-.1637"/>
</svg>
