<svg xmlns="http://www.w3.org/2000/svg" fill="none" viewBox="0 0 121 29">
  <g fill="#fff" clip-path="url(#a)">
    <path d="M0 12.56V8.7c2.3 0 4.5-.92 6.12-2.55A8.74 8.74 0 0 0 8.66 0h3.84c0 3.33-1.32 6.52-3.67 8.88A12.49 12.49 0 0 1 0 12.56Z"/>
    <path d="M21.16 12.56c-3.31 0-6.49-1.33-8.83-3.68A12.6 12.6 0 0 1 8.66 0h3.84c0 2.3.92 4.52 2.54 6.15a8.65 8.65 0 0 0 6.12 2.55v3.86ZM12.5 29H8.66a12.6 12.6 0 0 1 3.67-8.88 12.48 12.48 0 0 1 8.83-3.68v3.86A8.65 8.65 0 0 0 12.5 29Z"/>
    <path d="M12.5 29H8.66c0-2.3-.91-4.52-2.54-6.15A8.65 8.65 0 0 0 0 20.3v-3.86c3.31 0 6.5 1.33 8.83 3.68A12.6 12.6 0 0 1 12.5 29ZM34.36 11.5c.81-1.84 2.34-2.76 4.57-2.76v3.48c-1.14-.1-2.28.2-3.2.88-.91.67-1.37 1.76-1.37 3.29v7.5h-3.2V9h3.2v2.5ZM47.61 24.28a7.57 7.57 0 0 1-5.54-2.26 7.52 7.52 0 0 1-2.28-5.57 7.54 7.54 0 0 1 2.28-5.57 7.94 7.94 0 0 1 11.1 0 7.54 7.54 0 0 1 2.26 5.57 7.79 7.79 0 0 1-4.82 7.26c-.95.4-1.97.59-3 .57Zm-3.29-4.46a4.71 4.71 0 0 0 6.58 0 4.57 4.57 0 0 0 1.33-3.37 4.58 4.58 0 0 0-4.62-4.7 4.56 4.56 0 0 0-4.62 4.7 4.58 4.58 0 0 0 1.33 3.37ZM60.91 13.11c0 .5.27.9.82 1.18.63.32 1.3.57 1.98.75.78.2 1.57.45 2.36.72.79.28 1.48.77 2 1.42.56.71.85 1.6.82 2.52a3.97 3.97 0 0 1-1.65 3.36 6.74 6.74 0 0 1-4.13 1.22 7.27 7.27 0 0 1-3.77-.92 5.4 5.4 0 0 1-2.28-2.56l2.76-1.61c.51 1.43 1.6 2.14 3.29 2.14 1.68 0 2.52-.55 2.52-1.67 0-.47-.27-.86-.82-1.16a9.07 9.07 0 0 0-1.99-.76c-.78-.2-1.56-.45-2.35-.72a4.53 4.53 0 0 1-2-1.39 3.68 3.68 0 0 1-.82-2.46 4.04 4.04 0 0 1 1.56-3.3 5.99 5.99 0 0 1 3.87-1.25 6.5 6.5 0 0 1 3.27.82c.94.53 1.7 1.32 2.21 2.28l-2.7 1.51c-.51-1.13-1.44-1.7-2.78-1.7a2.77 2.77 0 0 0-1.54.41 1.3 1.3 0 0 0-.63 1.17ZM83.05 4.72h3.2v19.17h-3.2v-2.14a5.98 5.98 0 0 1-5.19 2.53A6.93 6.93 0 0 1 72.65 22a7.76 7.76 0 0 1-2.16-5.55 7.75 7.75 0 0 1 4.53-7.26c.9-.39 1.87-.58 2.84-.57 2.26 0 3.99.83 5.2 2.5v-6.4Zm-8.03 15.14a4.82 4.82 0 0 0 6.7 0 4.66 4.66 0 0 0 1.33-3.41 4.67 4.67 0 0 0-1.33-3.41 4.82 4.82 0 0 0-6.7 0 4.65 4.65 0 0 0-1.33 3.4 4.67 4.67 0 0 0 1.33 3.42ZM92.5 17.82a4.09 4.09 0 0 0 1.63 2.6c.92.63 2 .95 3.11.91 1.7 0 2.98-.61 3.83-1.84l2.64 1.54c-1.47 2.17-3.63 3.25-6.5 3.25a7.9 7.9 0 0 1-5.83-2.22 7.6 7.6 0 0 1-2.22-5.61c0-2.23.73-4.09 2.19-5.58a7.53 7.53 0 0 1 5.63-2.25c2.17 0 3.95.76 5.35 2.3a7.98 7.98 0 0 1 2.09 5.56 10 10 0 0 1-.12 1.34H92.5Zm-.03-2.62h8.72a4.3 4.3 0 0 0-1.5-2.74 4.3 4.3 0 0 0-2.74-.92 4.49 4.49 0 0 0-2.97.98 4.43 4.43 0 0 0-1.5 2.68ZM116.68 9h3.5l-5.78 14.9h-3.7L104.92 9h3.5l4.15 11.32L116.68 9Z"/>
  </g>
  <defs>
    <clipPath id="a">
      <path fill="#fff" d="M0 0h120.18v29H0z"/>
    </clipPath>
  </defs>
</svg>
