<svg xmlns="http://www.w3.org/2000/svg" width="208" height="208" fill="none">
  <path fill="url(#a)" d="M159.754 56.2093c26.143 31.0436 22.17 77.4027-8.873 103.5447-31.044 26.143-77.4025 22.17-103.5453-8.873-26.1428-31.044-22.1699-77.4025 8.8736-103.5453 31.0436-26.1428 77.4027-22.1699 103.5447 8.8736Z"/>
  <path fill="#fff" fill-opacity=".05" d="M74.1468 139.38c-1.4239-1.826-3.3238-2.672-5.5632-3.167-3.8924-.855-5.0033-2.458-4.9151-6.404.1234-5.576-1.7413-7.656-7.2295-8.088-.767-.063-1.5296-.218-2.8521-.419 2.8609-.815 4.3994-.784 6.9077.735 1.9087 1.158 3.5397 2.793 5.4176 4.316.4012-.259.939-.61 1.5694-1.016.6744.535 1.3268 1.127 2.0498 1.617 1.6002 1.087 3.121.708 4.0908-.966.9669-1.666 2.6199-2.601 4.9592-2.806-1.0624-.86-1.6839-1.359-2.3055-1.862-2.2041-1.786-4.7652-3.269-6.5197-5.425-2.3584-2.899-1.0403-5.081 2.2129-6.796 2.473-1.305 4.3201-3.826 6.4184-5.835.3041-.293.3747-.846.692-1.113 1.8515-1.554 2.9976-3.2869 2.6273-5.9547-.119-.8551.9919-1.8839 1.5473-2.8325 1.5561-2.65 1.4239-4.1109-.2468-5.585-2.2086.6591-4.2628 1.1446-6.2112 1.8972-1.2608.4855-2.3937 1.3362-3.5442 2.0889-.4849.3162-.8023.9442-1.3092 1.1535-.6084.2494-1.3357.2049-2.0102.285.1499-.6636.0706-1.639.4805-1.9463 3.4913-2.6099 3.0284-5.723 1.3445-9.0678-.1322-.2583-.3482-.6013-.2733-.8195.7009-2.0977.0882-3.0998-2.1953-2.9573-.2997.0178-.8596-.4721-.8904-.7705-.0441-.432.1543-1.0912.4805-1.3183.5818-.4053 1.318-.7037 2.0233-.7972 1.6222-.2183 2.9976-.6948 3.6588-2.3872.1014-.2584.3615-.4588.5643-.6726.7582-.7927 2.2349-1.6746 2.1468-2.3515-.2072-1.59-1.1065-3.1088-1.8382-4.5963-.2337-.4721-.8288-.7572-1.5121-1.345-.5818 1.5677-1.08 2.8993-1.653 4.4403-2.3143-3.0508-2.3805-3.0419-4.3421.2138-3.1739-1.5499-6.5859-.8818-9.0677 1.8172-.8728.9486-.7714 1.7414.5643 2.1066.7979.2182 1.6178.3518 2.4113.7883-2.0939 1.3762-4.3906 1.9329-6.5771.9798-1.2695-.5522-2.0013-.3875-2.5832.5167-.4717.7304-.551 1.7147-.4981 2.7123-.9786 1.207-2.1644 2.2848-1.3974 4.2712.097.2494-.7186 1.2203-1.177 1.2737-2.7331.3162-3.8263 2.267-4.611 4.5028-.6744 1.9195.119 3.4338 1.803 4.2711 1.5473.7661 1.8558 1.7949 1.1858 3.2156-1.0668 2.2581-.7009 4.3424.648 6.2977 2.2922 3.314 2.9932 6.872 1.7589 10.756-.1676.53-.507 1.002-.7142 1.523-.3967.998-1.1373 2.049-1.0447 3.011.1322 1.394.9169 2.65 2.6846 2.721.4188.018.8243.401 1.3974.699a6695.5276 6695.5276 0 0 0-3.8925 3.243c-1.0271-2.161-1.9837-4.178-2.9358-6.178 1.1285-2.913 2.4465-5.857 3.3722-8.921.3747-1.242.0485-2.774-.2336-4.115-.1455-.681-.8243-1.612-1.3974-1.728-.4981-.098-1.2078.77-1.7897 1.256-.3306.276-.5907.637-1.2828 1.407-.7759-1.345-1.4988-2.449-2.0675-3.63-.2821-.579-.1057-1.416-.4496-1.9235-.5378-.7928-1.2519-1.7326-2.0674-1.9597-.4276-.1203-1.3225 1.0823-1.8339 1.8127-.3879.5525-.4981 1.3045-1.0888 1.9905.648-3.7587-3.3458-6.3953-2.1291-10.2834.1278-.4008-.5467-1.06-.8508-1.5989-.7186.4498-1.4371.9041-1.9484 1.2248 3.2356-27.1011 29.0456-60.8294 71.4744-61.6311 39.568-.7438 72.489 31.6929 72.775 72.2176.269 38.124-27.988 75.318-72.956 75.585-40.9077.245-70.5485-32.646-72.3338-68.677.6701.191 1.3048.374 2.1248.606-.4012 5.402-.4056 10.76 1.8823 16.144.6392-.824 1.0579-1.362 1.9308-2.485.5995 1.951 1.2078 3.398 1.4679 4.913.313 1.821.313 3.692.4761 5.54.4849 5.487 3.3678 9.442 7.7364 12.662.5907-.717 1.0403-1.256 1.6178-1.955.4805.419 1.1638.713 1.274 1.154.5598 2.24 2.3143 2.587 4.126 3.277 1.4018.535 2.5965 1.858 3.6456 3.047 1.0315 1.171 1.9969 1.804 3.6147 1.385.6701-.174 1.5253.12 2.2218.396 1.3665.539 2.6846 1.212 4.0203 1.835 1.3797.642 2.8477 1.145 4.104 1.978 1.9793 1.305 4.0203 1.986 6.9826 1.661-.9169-1.43-1.6134-2.512-2.5744-4.008 1.0095 0 1.6707-.094 2.2967.022 1.005.187 1.9749.592 2.9843.739.5643.085 1.1814-.16 1.7721-.258-.2557-.535-.4672-1.1-.7802-1.599-.1763-.281-.5246-.459-.939-.802l3.3547-5.718c-.8817-2.165-3.3282-3.799-6.1759-3.688-2.6317.098-3.3062-2.018-4.1437-3.906 1.3974.922 2.9931 2.801 4.1481 2.557 2.5127-.535 3.791.472 4.946 2.213 1.6575 2.503 3.7955 3.465 6.7798 2.833 2.1997-.468 3.4031.516 4.0115 2.948-1.0492-.232-2.019-.445-2.9844-.659-.0837.151-.1675.303-.2512.454.7141.944 1.4326 1.889 2.2217 2.931-1.1461.552-2.0763 1.002-2.8345 1.367.6436 1.639 1.1814 3.002 1.8515 4.703.3394.08 1.5384.009 1.7985.477 1.4018 2.48 3.8395 1.078 5.6998 1.723.2777.098.8023-.525 1.2123-.815.921-1.398 2.248.481 3.747-1.429 1.115-1.426.428-2.646 1.296-3.67-.952-.374-1.71-.673-2.469-.976 0-.169 0-.343.005-.512 1.322-.49 2.64-.975 3.963-1.465.004-.16.013-.321.017-.481-1.494-.392-2.988-.788-4.112-1.082-1.182.36-2.24 1.064-3.002.819-1.0408-.329-2.3412-1.211-2.6674-2.16-.7142-2.08-2.0939-1.893-4.0379-1.626.2777-1.122.3835-2.106.7978-2.926.1455-.285 1.5076-.334 1.5517-.218.2469.699.2689 1.483.4056 2.534.8155-.463 1.6751-.761 2.2614-1.336.5819-.57 1.2828-1.474 1.199-2.138-.0793-.632-1.0359-1.26-1.7324-1.679-.5334-.32-1.3181-.191-1.8823-.481-1.3137-.681-2.5612-1.492-3.8351-2.249 1.8823.677 3.7646 1.35 6.2243 2.231-.648-1.166-.9477-1.705-1.1505-2.066.4232-.454.8905-.744.9918-1.127.1147-.436-.1058-.962-.1763-1.434 3.0593 1.416 2.5483 5.376 4.9683 7.01.727-1.305 1.432-3.033 1.693-2.966 1.379.352 2.649 1.154 3.958 1.799-.066.121-.137.236-.203.357-1.274-.21-2.552-.415-3.826-.624l-.132.869c3.425 1.919 7.167 2.373 10.994 2.449.062-.196.123-.396.189-.592-1.014-.428-2.032-.86-3.614-1.528 2.662.361 4.725.637 6.793.918.013-.192.022-.383.035-.575-.578-.352-1.155-.699-1.459-.886.551-1.425.811-2.655 1.459-3.617.639-.948 1.362-2.489 2.799-1.242.344-.713.631-2.009 1.049-2.053 2.469-.263 1.221-1.573.842-2.615-.317-.873-.754-1.697-1.102-2.561-.198-.494-.326-1.015-.485-1.523-.595.196-1.243.307-1.781.615-.828.476-1.578 1.086-2.561 1.781-.37-1.167-.608-1.915-.842-2.65-2.041.339-1.975-.908-2.125-2.338-.176-1.67-.559-3.407-1.278-4.908-.635-1.318-1.71-1.67-2.826-.027-1.071 1.581-3.178 1.577-4.553.254.793-.133 1.591-.267 2.455-.41-.454-1.714-1.371-2.035-2.733-1.946-1.569.103-3.178.094-4.726-.138-1.7143-.258-3.0632-.579-4.0727 1.559-.7318 1.545-.6524 1.879.9301 2.16.5775.102 1.5473.877 1.4944 1.216-.335 2.196 1.2302 2.374 2.6182 2.774 1.314.375 2.641.718 3.805 1.029-.181 1.123-.358 2.214-.481 2.975-1.014-.628-2.178-1.349-3.337-2.066-.154.2-.309.405-.463.606.472.721.93 1.452 1.42 2.155.524.757 1.08 1.492 1.988 2.739-1.495.183-2.606.642-3.337.29-.485-.232-.529-1.617-.587-2.499-.097-1.438-.035-3.064-1.9171-3.158-1.4239-.071-2.8742.379-4.3112.593-.4805.071-1.1153.365-1.4151.16-1.2123-.833-2.3231-1.817-3.4648-2.739 1.4811-.218 2.7727-.815 2.3584-2.806-.4717-2.267-3.8572-4.391-6.0305-3.732-.5466.165-1.2607.699-1.3577 1.176-.0926.459.4144 1.158.8332 1.576.4672.468 1.1329.731 1.4018.896-.7186 1.434-1.296 2.574-2.0146 4.008 1.0844.192 1.9925.321 2.883.517 1.102.24 2.1468.801 1.6134 2.097-1.3093 3.185.2204 5.403 2.2085 7.536-1.6399.214-3.2797.428-4.9989.65-1.1638-2.565.4584-4.467 1.4635-6.466.8464-1.68.3923-2.793-1.4459-2.873-2.1203-.094-3.3502-.953-3.9497-3.14-.5907-2.173-3.963-2.953-5.7792-1.608-1.1726.869-2.4157 1.639-3.6456 2.427-.9301.597-1.8867 1.158-2.83 1.733.8904.672 1.7324 1.425 2.6802 2 1.5737.953 1.6398 1.144.3879 2.69-.6172-.512-1.1638-1.194-1.8735-1.488-.5599-.231-1.6972-.227-1.8955.098-.3351.548-.3747 1.555-.0882 2.142.2733.566 1.0756.954 1.7192 1.23 1.5517.668 2.4774 1.741 2.57 3.478l-.0088.009Zm6.7489-93.952c-.0705 1.6301-.1675 3.2601-.2028 4.8902-.0132.6057-.0661 1.5677.2425 1.7459.5334.3028 1.6354.4142 1.9749.0712.7979-.8061 1.7368-1.9017 1.7941-2.9261.097-1.6879-2.2261-3.6075-3.8836-3.7099-.194-.6993-.2116-1.5455-.6304-2.0577-.3879-.4765-1.4238-1.0154-1.7897-.815-4.0335 2.218-8.3536 4.1197-10.6591 8.5556-.141.2717-.5995.3608-.886.5701-.7891.5612-1.5605 1.1402-2.3408 1.7103.6392.6413 1.2916 1.2737 1.9176 1.9284.1411.147.2028.3697.5025.9531-1.0844.343-2.041.7527-3.0416.922-.6172.1024-1.4283-.4454-1.9132-.2093-.8596.4231-2.0145 1.1134-2.182 1.8883-.2337 1.0823.2027 2.4273 1.9572 2.1423.2954-.049.6789.0935.939.2717.432.2895.7934.6769 1.1858 1.0243.2468-.57.5025-1.1401.7361-1.7147.1764-.4364.3174-.8818.4937-1.3762 2.8433 2.1557 3.077 2.1245 5.6161-.187.3835-.3519 1.0183-.4098 1.5076-.6636 1.5825-.8284 3.1563-1.6746 4.7256-2.5342.1058-.0579.1719-.245.1984-.3875.4143-2.2224-.5731-4.859 1.8867-6.4891.1014-.0668.0617-.4365.0088-.6414-.4364-1.6612.4364-2.4807 1.847-2.9573l-.0044-.0044Zm38.5013 10.836c.088-1.1892.15-2.0666.212-2.9395-.763.432-1.587.7839-2.279 1.3094-1.023.775-1.79 1.1535-2.694-.2494-.357-.5523-1.366-.677-2.081-.9976-.074.8239-.414 1.7503-.154 2.4406.251.6681 1.182 1.0422 1.711 1.639.392.4498.894 1.0644.864 1.5766-.058 1.06-.437 2.1022-.556 2.6144-1.715.4275-3.328.8284-5.246 1.3005-.057-.2851-.37-.9041-.255-1.4208.555-2.4985.586-2.4005-2.103-2.7479-.767-.098-1.891-.7349-2.09-1.3718-.841-2.6812-.74-2.7123-3.601-1.7726-3.3238 1.0912-6.0745-.3741-7.1457-3.9594 2.4862.2004 5.2325 1.6835 6.9427-.9887-.56-1.1268-.9917-1.9953-1.4722-2.9707 1.1502-.236 1.8472-.3785 2.6982-.5522-.494-1.6257-1.411-2.0309-2.6893-1.3094-1.7281.9753-2.8874.5522-3.747-1.1892-.1675-.3385-.6304-.5255-.9434-.7705-1.7192 1.7548-2.5347 4.5651-1.7809 6.2664-.573.3608-1.1681.726-1.7633 1.1001-.3438-.3251-.5686-.5122-.7582-.7304-1.847-2.071-2.0233-2.0131-3.3458.2806-.3879.6725-1.1726 1.2337-1.8999 1.5499-1.3137.5701-3.553.5389-1.08 2.6723.2424.2093.0308.9575.0308 1.6167 1.4459-.3831 2.6317-.8329 3.8528-.962.6304-.0669 1.3224.4275 1.9881.6725-.4673.6636-1.0448 1.9552-1.3842 1.8928-3.0196-.5433-4.5316 2.2625-6.9385 3.0241-1.2123.383-1.7324 1.4386-1.296 2.8771.2865.9487.2601 1.9953.4276 3.4784.7626.5345 1.9484 1.3718 3.1563 2.218-3.0064.5166-.9434 2.3961-.8993 3.7367.0353 1.1268.6656 1.6835 1.7633 1.1802 2.0189-.9263 2.9755.1826 3.7866 1.8127 1.08 2.1735 5.4001 2.9039 6.965 1.0511.9301-1.0956 1.922-1.207 3.1871-1.4564 3.1302-.6101 6.4842-1.0154 8.1552-4.5161.251-.5255 1.173-.7215 1.781-1.0689.278.2717.56.5478.837.8195-.749 1.394-1.547 2.7569-2.212 4.191-.243.5255-.459 1.5009-.194 1.7592 1.503 1.4698 3.151 2.7925 4.769 4.142.146.1203.432.1247.644.098 2.213-.245 3.249.6681 3.31 2.9929.018.6592.913 1.3005 1.407 1.9463.577-.4543 1.349-.7883 1.692-1.3806.64-1.1001 1.279-1.4787 2.407-.7572-.308.8507-.568 1.5677-.828 2.2848l.449.3607c.432-.4275.873-.8417 1.287-1.2826.437-.4588.767-1.1536 1.292-1.3673 1.239-.4944 2.566-.7616 4.13-1.1936.829 1.3895 1.896 3.0597 1.257 5.3667-.185.6636.344 1.6524.793 2.316.207.3073 1.283.4632 1.508.2316 1.657-1.7014 3.76-1.7593 5.889-1.9463 1.376-.1203 1.671-.9086 1.398-2.3605-.578-3.0419-2.011-5.2643-4.735-6.7742-1.225-.6769-2.142-1.7815-1.626-3.5229.114-.3919-.428-1.3361-.838-1.4697-1.715-.5523-1.494-1.8439-1.605-3.1622 3.888.6146 4.686.1648 6.181-3.367.026-.0668.053-.147.106-.1915 2.763-2.4541.656-4.6141-.587-6.6183-.577-.9309-1.935-1.3673-2.936-2.0265-.507.9709-1.005 1.9463-1.52 2.9083-.058.1114-.216.1693-.626.4632-.481-1.4118-.931-2.7301-1.235-3.6298.335-1.2025.573-2.0532.807-2.8994-.608-.0802-1.49-.4632-1.777-.1915-2.521 2.3471-5.016 2.1912-7.635.2271-.317-.236-.811-.236-1.115-.3117l-.013.0089Zm28.406 1.8973c-.586-.5345-1.062-.7928-1.282-1.1936-.917-1.6702-1.896-2.3516-3.619-.8507-.477.4187-1.654.5255-2.231.2271-2.314-1.1891-4.448-.6012-6.537.4142-.666.3252-1.12 1.1001-1.671 1.6702.811.2672 1.693.8774 2.42.7349 1.931-.3875 2.248.4988 2.376 2.1333.084 1.0778.661 2.12 1.049 3.1666.225.5968.675 1.1491.754 1.7548.291 2.2224 1.521 3.3804 3.65 3.8436.868.1915 1.649.7928 2.826 1.3896-1.631 1.0822-3.456 1.8171-.82 3.0241.22.1024.119.8729.22 1.3183.062.2672.225.5077.379.8418.626-.3742 1.16-.6904 1.644-.9799 2.187 1.8127 5.374 1.6479 7.486-.1558.52-.4454 1.313-.5568 1.979-.824.322.8284 1.106 1.826.881 2.454-.864 2.4362.375 3.8347 2.055 5.055.59.4276 1.635.9309 2.067.6815.525-.3029.939-1.4119.838-2.0844-.216-1.4252-.794-2.7925-1.243-4.2355.449-.2672.912-.5389 1.375-.8151.203-.2672.401-.5299.604-.7972-.763-.4364-1.649-.7393-2.253-1.3406-.63-.6279-.943-1.5677-1.481-2.307-.635-.8818-1.203-1.9908-2.081-2.4852-1.653-.9264-3.222-2.0398-3.103-3.946.194-3.0419-.52-5.3134-3.302-6.792-.52-.2761-.736-1.0867-1.168-1.5855-.291-.3341-.714-.5478-1.15-.8685-.238.9085-.419 1.59-.67 2.552h.008ZM82.1653 119.44c.2468.161.4937.317.7406.477.6965-.191 1.4591-.263 2.0762-.601 2.9359-1.599 3.2004-1.586 5.4971.712.4143.419.8199.864 1.2916 1.207 1.2563.913 2.3231.651 2.6846-.868.4011-1.697 1.4811-2.343 2.9755-2.873 2.6841-.953 3.1651-2.819 1.5429-5.211-.7054-1.046-1.3578-2.129-2.1865-3.434 1.9484-.347 3.5527-.538 3.2757-2.672-.2781-2.129-1.6226-3.077-3.6151-3.166-1.2431-.058-2.4951.071-3.7426.062-.5731 0-1.1505-.129-1.2563-.143.8243-1.282 2.1688-2.436 2.182-3.6116.0221-1.5989-.8331-3.2824-1.631-4.7566-.194-.3563-2.16-.3607-2.3937.0312-1.221 2.0532-3.1695 2.5075-5.1928 2.9395-1.7854.383-2.6978 1.5009-2.5259 3.3225.2733 2.913 1.2916 3.803 4.1305 4.458.8243.192 1.4635 1.18 2.1908 1.804-.5907.646-1.1549 1.318-1.7765 1.928-.6436.637-1.9352 1.234-1.9219 1.822.0793 3.06.5069 6.115-2.3584 8.573h.0132Zm54.2077-78.2342c-4.417-2.1556-8.543-1.9596-12.652-1.0065-.899.2093-2.345 1.6612-2.204 2.1289.529 1.7592.022 4.1063 2.535 5.0149 1.737.628 3.267 1.8127 4.928 2.6767.648.334 1.393.6013 2.112.6503 1.146.0801 2.305-.0089 3.452-.1069.797-.0713 2.041-.0178 2.301-.4766 1.393-2.4495.877-4.5606-1.314-6.6673-.256-.2449-.463-.5478-.749-.8907.418-.3474.784-.6503 1.595-1.3183l-.004-.0045Zm7.181 44.1902c-.516 1.4163-1.173 2.4629-1.217 3.5363-.057 1.4474-.004 3.1443.71 4.2756.388.6146 2.658.815 3.359.2627 1.768-1.3851 3.377-2.0709 5.515-1.0421-.388-.726-.772-1.4564-1.12-2.1111 2.627-2.5297 3.196.3251 4.346 1.9285.459-3.4383.291-3.6388-2.164-4.2267-.666-.1603-1.358-.6324-1.816-1.1624-1.459-1.6746-2.813-3.4427-4.17-5.1262-.626.1692-1.411.6547-2.032.4943-2.169-.5612-5.118 1.403-5.343 4.1019 1.199-.285 2.274-.5433 3.928-.9353l.004.0045ZM44.5457 74.7471c2.1953 2.1912 2.5523 2.1868 4.6286.0623.745-.7616 1.3577-1.9641 2.2394-2.2135 1.966-.5567 2.2658-1.9107 2.2658-3.5318 0-2.2358 1.0932-3.5229 3.1078-4.3202.9786-.3874 1.7941-1.198 3.0681-2.0843-1.3225-.3964-2.0014-.5968-2.6934-.8017.2689-.6413.5069-1.2025.7405-1.7592a50.3603 50.3603 0 0 0-.4805-.5167c-1.8646 1.4742-3.7293 2.944-5.5984 4.4182-.8155-.0758-1.9308-.0624-2.2349.4453-1.1329 1.8929-2.0454 3.9282-2.9403 5.9547-.4408.9976-.7538 1.7637-1.9749 2.2759-.9918.4142-1.534 1.9195-2.2746 2.9439.1719.1158.3438.2316.5158.3519.5069-.3831 1.0182-.7616 1.6222-1.2159l.0088-.0089Zm46.2641 12.0741c-.2204.7304-.529 1.5009-.6613 2.3026-.0925.5523-.1587 1.345.1455 1.679.8596.9532 1.9793 1.6613 2.8698 2.5921.7626.7973 1.2651.8017 2.2261.1871.9257-.5924 2.1821-.6458 3.2753-.9843.5819-.1826 1.6398-.5122 1.6218-.7037-.167-1.9864 1.367-1.6167 2.416-1.9062 1.371-.383 2.142-1.1936 1.375-2.601-1.639-3.0018-6.1225-4.0707-9.0496-2.3783-1.3004.7527-2.7727 1.207-4.2186 1.8171v-.0044Zm16.1822 61.3728c.578.165 1.543.307 2.372.735.366.187.736 1.282.608 1.394-1.966 1.746 0 3.652-.238 5.447-.035.258.644.797 1.063.895 1.622.37 3.103.294 3.328-1.768 1.357-.169 2.57-.321 3.778-.477.013-.307.03-.619.044-.926-1.235-.272-2.465-.548-3.699-.82.798-.325 1.578-.106 2.266-.267.379-.089.952-.94.846-1.233-.37-1.047-.991-2.009-1.503-2.976-.688.869-1.349 2.499-2.477 2.967-2.381.988-1.19-1.893-2.359-2.441.653-.388 1.129-.668 2.011-1.194-1.142-.57-1.918-1.207-2.769-1.331-1.675-.25-3.593.423-4.628-1.688-.093-.187-.834-.174-1.222-.067-1.357.383-2.693.846-4.117 1.305.146.735 3.963 3.879 4.977 3.59.547-.156 1.001-.651 1.71-1.141l.009-.004Zm-68.3886-60.54c-2.3187 2.0042-2.8521 4.1465-1.5296 5.9324.3262.441 1.1197.9353 1.5429.824 1.8426-.5033 3.2488-4.623 2.5523-6.4179-.4981-1.2871-2.0939-2.7212-.1367-4.3424.3483.7171.6348 1.305 1.155 2.3783.9125-2.2847 1.7104-4.0707 2.3187-5.9235.194-.5834-.1014-1.3361-.1719-2.0131-.648.3341-1.4547.5256-1.9176 1.0333-1.2828 1.4074-2.3584 3.0107-3.6367 4.4181-1.1991 1.3228-2.1028 2.5431-.1808 4.1064l.0044.0044Zm63.7166 9.6335c-.19.2004-.38.4053-.569.6057 1.344 2.0399 1.256 3.2958-1.384 3.3808-.216.009-.7276 1.242-.5381 1.621.7271 1.47 1.6841 2.823 2.5921 4.275.11-.022.313-.08.52-.115.966-.156 2.53-1.746 2.72-2.735.04-.205.225-.379.313-.579.555-1.216 1.102-2.432 1.565-3.461-1.816-1.0462-3.518-2.0216-5.219-3.0014v.0089Zm10.028 17.3025c-1.053-.276-1.785-.467-3.011-.788.247 1.056.199 1.951.618 2.41 1.428 1.567 2.962.699 4.298-.219 1.463-1.011 1.203-2.431.335-3.679-.41-.587-1.191-.913-1.803-1.358-.146.704-.313 1.407-.419 2.12-.062.401-.009.82-.009 1.519l-.009-.005Zm2.464 52.532c.155.241.349.735.701 1.047 1.265 1.118 2.707 1.443 4.228.583.661-.374 1.216-.948 1.82-1.429-.608-.392-1.203-.806-1.829-1.176-.56-.33-1.142-.637-1.732-.909-1.327-.61-3.126.326-3.188 1.884Zm16.584-1.487c-2.138.218-3.853.49-5.581.548-2.42.08-2.684.392-1.935 3.104 2.129-1.817 6.013.574 7.516-3.648v-.004ZM79.6791 70.0305c-.8861 1.2293-1.6355 1.982-2.0014 2.895-.2116.5211-.0088 1.6969.3615 1.8928 1.2784.6681 2.7066 1.0333 4.4787 1.6524-.2997-2.2447-1.5561-4.1554-2.8388-6.4357v-.0045Zm31.1699 92.9185c-1.132-2.12-2.896-1.162-4.315-.926-.582.093-.979 1.309-1.75 2.436 2.504-.267 4.8 1.55 6.065-1.51Zm-50.9716-7.304c.5114 2.503 2.4818 4.106 5.1312 4.187-.8596-2.788-2.7992-4.37-5.1312-4.187Zm75.9266-11.277c-.172 1.336.04 2.592-.476 3.122-1.582 1.63-2.504-.151-3.76-1.567.203 1.946.489 3.193 2.288 2.997 1.565-.169 3.509-.094 3.681-2.294.101-1.305-.657-2.351-1.737-2.258h.004ZM98.6431 80.9467c-1.5164-1.8572-2.8256-.9932-4.0158-.2182-.3174.2048-.5555 1.2381-.3747 1.4118 1.9704 1.9285 2.689-.7705 4.3905-1.1936Zm21.6749 31.8353c.366-1.438.613-2.922-.956-3.558-.639-.259-1.715.587-2.852 1.037 1.573 1.042 2.609 1.728 3.808 2.521Zm-37.324 10.137c.1102-.236.2204-.477.3306-.713-.6171.227-1.2387.455-1.9175.704 1.005 1.661 1.8602 3.078 2.7198 4.494.2733-.116.5511-.232.8244-.348-.194-.685-.3042-1.416-.6084-2.048-.3614-.74-.8904-1.399-1.3489-2.089Zm59.819-77.0946c.882 1.4519 1.296 3.3759 3.558 3.4427-1.085-1.247-1.116-3.5541-3.558-3.4427Zm-19.374 94.5176c-.939-.641-1.688-1.341-1.838-1.229-.635.476-1.168 1.158-1.543 1.866-.07.133.926 1.153 1.138 1.064.696-.294 1.26-.913 2.239-1.701h.004ZM57.3515 67.3627c-.67.7973-1.1902 1.3362-1.5693 1.9641-.0573.0936.7362.9309.8596.8685.7141-.3652 1.3489-.8996 2.0101-1.3717-.3526-.3964-.7053-.7928-1.3004-1.4609ZM157.449 86.7098l1.11-.2805c-.176-.8908-.308-1.7949-.586-2.6545-.031-.098-.864.0713-1.327.1158.269.9398.534 1.8795.803 2.8192Z" style="mix-blend-mode:overlay"/>
  <path fill="#FF1F00" fill-rule="evenodd" d="M74.5718 90.6266v10.6114c9.1174-.012 17.8579-3.6573 24.3049-10.136a34.5509 34.5509 0 0 0 4.8043-6.0526 34.5751 34.5751 0 0 0 4.805 6.0546c6.448 6.4791 15.189 10.124 24.307 10.134V90.6267c-6.318-.0069-12.376-2.5324-16.844-7.0222-4.424-4.4454-6.931-10.4571-6.987-16.7386.001-.0628.001-.1256.001-.1884H98.4036v.0001h-.0017c.0001.0635.0003.127.0008.1905-.0565 6.2807-2.5638 12.2914-6.9869 16.7363-4.4678 4.4899-10.5255 7.0153-16.844 7.0222ZM98.403 146.462h-.0011c.0001-.051.0002-.101.0005-.151-.0463-6.295-2.5548-12.322-6.9872-16.776-4.4678-4.49-10.5255-7.015-16.844-7.022v-10.611c9.1179.01 17.8594 3.654 24.3068 10.134a34.5212 34.5212 0 0 1 4.803 6.05 34.5348 34.5348 0 0 1 4.803-6.052c6.448-6.48 15.191-10.124 24.309-10.132v10.611c-6.318.007-12.376 2.532-16.844 7.022-4.433 4.455-6.941 10.482-6.987 16.778v.149H98.403Z" clip-rule="evenodd"/>
  <defs>
    <linearGradient id="a" x1="20.8211" x2="142.178" y1="52.315" y2="166.323" gradientUnits="userSpaceOnUse">
      <stop stop-color="#BB9163"/>
      <stop offset=".8698" stop-color="#82706A" stop-opacity="0"/>
    </linearGradient>
  </defs>
</svg>
