<svg xmlns="http://www.w3.org/2000/svg" width="522" height="780" fill="none">
  <path fill="url(#a)" fill-rule="evenodd" d="M515.764.0455c.34-.0465 6.971 108.1555 5.072 145.4955-159.207 26.7-383.387 62.132-389.97 123.687-12.825 119.924 182.59 79.458 269.198 132.981 21.121 13.053 43.052 30.813 57.311 56.321 15.918 28.476 20.251 63.182 9.498 99.744C430.103 683.293 213 764.5 89.9373 779.295c-.026 0-5.1027-13.223-4.4883-19.074 71.485 2.399 367.536-113.49 297.181-235.255-35.105-60.758-107.009-63.309-164.062-81.652-49.709-15.982-105.335-33.867-143.7485-58.671-61.9706-40.014-94.9448-119.415-59.6906-184.348C65.4393 95.3452 408.218 14.9288 515.764.0455Z" clip-rule="evenodd"/>
  <defs>
    <linearGradient id="a" x1="66.449" x2="570.071" y1="758.219" y2="68.7085" gradientUnits="userSpaceOnUse">
      <stop stop-color="#FF523A"/>
      <stop offset=".8123" stop-opacity="0"/>
    </linearGradient>
  </defs>
</svg>
