<svg width="140" height="191" fill="none" xmlns="http://www.w3.org/2000/svg">
    <path fill-rule="evenodd" clip-rule="evenodd"
          d="M.584 57.616v25.27c21.712-.029 42.527-8.71 57.88-24.138a82.32 82.32 0 0 0 11.442-14.415 82.313 82.313 0 0 0 11.444 14.42c15.354 15.43 36.171 24.108 57.885 24.133v-25.27a56.676 56.676 0 0 1-40.113-16.722c-10.574-10.627-16.55-25.01-16.64-40.03l.001-.28H57.335l.001.285c-.09 15.018-6.067 29.4-16.64 40.025A56.676 56.676 0 0 1 .584 57.616Zm56.753 132.967h-.002l.001-.266c-.086-15.025-6.063-29.414-16.64-40.044A56.673 56.673 0 0 0 .584 133.551v-25.27c21.713.024 42.53 8.704 57.884 24.133a82.318 82.318 0 0 1 11.438 14.409 82.323 82.323 0 0 1 11.44-14.414c15.355-15.43 36.174-24.108 57.889-24.128v25.27a56.673 56.673 0 0 0-40.113 16.722c-10.578 10.631-16.555 25.022-16.64 40.049l.001.261H57.337Z"
          fill="#FFFFFF"/>
</svg>
